<svg width="57" height="41" viewBox="0 0 57 41" fill="none" xmlns="http://www.w3.org/2000/svg">
<g filter="url(#filter0_d_241_11025)">
<mask id="path-1-inside-1_241_11025" fill="white">
<path d="M52 2H54V4H56V36H54V38H52V40H4V38H2V36H0V4H2V2H4V0H52V2Z"/>
</mask>
<path d="M52 2H54V4H56V36H54V38H52V40H4V38H2V36H0V4H2V2H4V0H52V2Z" fill="white"/>
<path d="M52 2H50.5V3.5H52V2ZM54 2H55.5V0.5H54V2ZM54 4H52.5V5.5H54V4ZM56 4H57.5V2.5H56V4ZM56 36V37.5H57.5V36H56ZM54 36V34.5H52.5V36H54ZM54 38V39.5H55.5V38H54ZM52 38V36.5H50.5V38H52ZM52 40V41.5H53.5V40H52ZM4 40H2.5V41.5H4V40ZM4 38H5.5V36.5H4V38ZM2 38H0.5V39.5H2V38ZM2 36H3.5V34.5H2V36ZM0 36H-1.5V37.5H0V36ZM0 4V2.5H-1.5V4H0ZM2 4V5.5H3.5V4H2ZM2 2V0.5H0.5V2H2ZM4 2V3.5H5.5V2H4ZM4 0V-1.5H2.5V0H4ZM52 0H53.5V-1.5H52V0ZM52 2V3.5H54V2V0.5H52V2ZM54 2H52.5V4H54H55.5V2H54ZM54 4V5.5H56V4V2.5H54V4ZM56 4H54.5V36H56H57.5V4H56ZM56 36V34.5H54V36V37.5H56V36ZM54 36H52.5V38H54H55.5V36H54ZM54 38V36.5H52V38V39.5H54V38ZM52 38H50.5V40H52H53.5V38H52ZM52 40V38.5H4V40V41.5H52V40ZM4 40H5.5V38H4H2.5V40H4ZM4 38V36.5H2V38V39.5H4V38ZM2 38H3.5V36H2H0.5V38H2ZM2 36V34.5H0V36V37.5H2V36ZM0 36H1.5V4H0H-1.5V36H0ZM0 4V5.5H2V4V2.5H0V4ZM2 4H3.5V2H2H0.5V4H2ZM2 2V3.5H4V2V0.5H2V2ZM4 2H5.5V0H4H2.5V2H4ZM4 0V1.5H52V0V-1.5H4V0ZM52 0H50.5V2H52H53.5V0H52Z" fill="#171719" mask="url(#path-1-inside-1_241_11025)"/>
</g>
<defs>
<filter id="filter0_d_241_11025" x="0" y="0" width="57" height="41" filterUnits="userSpaceOnUse" color-interpolation-filters="sRGB">
<feFlood flood-opacity="0" result="BackgroundImageFix"/>
<feColorMatrix in="SourceAlpha" type="matrix" values="0 0 0 0 0 0 0 0 0 0 0 0 0 0 0 0 0 0 127 0" result="hardAlpha"/>
<feOffset dx="1" dy="1"/>
<feComposite in2="hardAlpha" operator="out"/>
<feColorMatrix type="matrix" values="0 0 0 0 0 0 0 0 0 0 0 0 0 0 0 0 0 0 1 0"/>
<feBlend mode="normal" in2="BackgroundImageFix" result="effect1_dropShadow_241_11025"/>
<feBlend mode="normal" in="SourceGraphic" in2="effect1_dropShadow_241_11025" result="shape"/>
</filter>
</defs>
</svg>
