<svg width="72" height="72" viewBox="0 0 72 72" fill="none" xmlns="http://www.w3.org/2000/svg">
<mask id="path-1-inside-1_241_10942" fill="white">
<path d="M68.2949 2.17285H70.1475V4.34473H72V67.6543H70.1475V69.8271H68.2949V72H3.70508V69.8271H1.85254V67.6543H0V4.34473H1.85254V2.17285H3.70508V0H68.2949V2.17285Z"/>
</mask>
<path d="M68.2949 2.17285H70.1475V4.34473H72V67.6543H70.1475V69.8271H68.2949V72H3.70508V69.8271H1.85254V67.6543H0V4.34473H1.85254V2.17285H3.70508V0H68.2949V2.17285Z" fill="#FDDA08"/>
<path d="M68.2949 2.17285H66.2949V4.17285H68.2949V2.17285ZM70.1475 2.17285H72.1475V0.172852H70.1475V2.17285ZM70.1475 4.34473H68.1475V6.34473H70.1475V4.34473ZM72 4.34473H74V2.34473H72V4.34473ZM72 67.6543V69.6543H74V67.6543H72ZM70.1475 67.6543V65.6543H68.1475V67.6543H70.1475ZM70.1475 69.8271V71.8271H72.1475V69.8271H70.1475ZM68.2949 69.8271V67.8271H66.2949V69.8271H68.2949ZM68.2949 72V74H70.2949V72H68.2949ZM3.70508 72H1.70508V74H3.70508V72ZM3.70508 69.8271H5.70508V67.8271H3.70508V69.8271ZM1.85254 69.8271H-0.147461V71.8271H1.85254V69.8271ZM1.85254 67.6543H3.85254V65.6543H1.85254V67.6543ZM0 67.6543H-2V69.6543H0V67.6543ZM0 4.34473V2.34473H-2V4.34473H0ZM1.85254 4.34473V6.34473H3.85254V4.34473H1.85254ZM1.85254 2.17285V0.172852H-0.147461V2.17285H1.85254ZM3.70508 2.17285V4.17285H5.70508V2.17285H3.70508ZM3.70508 0V-2H1.70508V0H3.70508ZM68.2949 0H70.2949V-2H68.2949V0ZM68.2949 2.17285V4.17285H70.1475V2.17285V0.172852H68.2949V2.17285ZM70.1475 2.17285H68.1475V4.34473H70.1475H72.1475V2.17285H70.1475ZM70.1475 4.34473V6.34473H72V4.34473V2.34473H70.1475V4.34473ZM72 4.34473H70V67.6543H72H74V4.34473H72ZM72 67.6543V65.6543H70.1475V67.6543V69.6543H72V67.6543ZM70.1475 67.6543H68.1475V69.8271H70.1475H72.1475V67.6543H70.1475ZM70.1475 69.8271V67.8271H68.2949V69.8271V71.8271H70.1475V69.8271ZM68.2949 69.8271H66.2949V72H68.2949H70.2949V69.8271H68.2949ZM68.2949 72V70H3.70508V72V74H68.2949V72ZM3.70508 72H5.70508V69.8271H3.70508H1.70508V72H3.70508ZM3.70508 69.8271V67.8271H1.85254V69.8271V71.8271H3.70508V69.8271ZM1.85254 69.8271H3.85254V67.6543H1.85254H-0.147461V69.8271H1.85254ZM1.85254 67.6543V65.6543H0V67.6543V69.6543H1.85254V67.6543ZM0 67.6543H2V4.34473H0H-2V67.6543H0ZM0 4.34473V6.34473H1.85254V4.34473V2.34473H0V4.34473ZM1.85254 4.34473H3.85254V2.17285H1.85254H-0.147461V4.34473H1.85254ZM1.85254 2.17285V4.17285H3.70508V2.17285V0.172852H1.85254V2.17285ZM3.70508 2.17285H5.70508V0H3.70508H1.70508V2.17285H3.70508ZM3.70508 0V2H68.2949V0V-2H3.70508V0ZM68.2949 0H66.2949V2.17285H68.2949H70.2949V0H68.2949Z" fill="#171719" mask="url(#path-1-inside-1_241_10942)"/>
</svg>
