<svg width="64" height="64" viewBox="0 0 64 64" fill="none" xmlns="http://www.w3.org/2000/svg">
<mask id="path-1-inside-1_241_9975" fill="white">
<path d="M57.5996 0V3.2002H60.7998V6.39941H64V57.6006H60.7998V60.7998H57.5996V64H6.40039V60.7998H3.2002V57.6006H0V6.39941H3.2002V3.2002H6.40039V0H57.5996Z"/>
</mask>
<path d="M57.5996 0V3.2002H60.7998V6.39941H64V57.6006H60.7998V60.7998H57.5996V64H6.40039V60.7998H3.2002V57.6006H0V6.39941H3.2002V3.2002H6.40039V0H57.5996Z" fill="#D5D6E1"/>
<path d="M57.5996 0H59.5996V-2H57.5996V0ZM57.5996 3.2002H55.5996V5.2002H57.5996V3.2002ZM60.7998 3.2002H62.7998V1.2002H60.7998V3.2002ZM60.7998 6.39941H58.7998V8.39941H60.7998V6.39941ZM64 6.39941H66V4.39941H64V6.39941ZM64 57.6006V59.6006H66V57.6006H64ZM60.7998 57.6006V55.6006H58.7998V57.6006H60.7998ZM60.7998 60.7998V62.7998H62.7998V60.7998H60.7998ZM57.5996 60.7998V58.7998H55.5996V60.7998H57.5996ZM57.5996 64V66H59.5996V64H57.5996ZM6.40039 64H4.40039V66H6.40039V64ZM6.40039 60.7998H8.40039V58.7998H6.40039V60.7998ZM3.2002 60.7998H1.2002V62.7998H3.2002V60.7998ZM3.2002 57.6006H5.2002V55.6006H3.2002V57.6006ZM0 57.6006H-2V59.6006H0V57.6006ZM0 6.39941V4.39941H-2V6.39941H0ZM3.2002 6.39941V8.39941H5.2002V6.39941H3.2002ZM3.2002 3.2002V1.2002H1.2002V3.2002H3.2002ZM6.40039 3.2002V5.2002H8.40039V3.2002H6.40039ZM6.40039 0V-2H4.40039V0H6.40039ZM57.5996 0H55.5996V3.2002H57.5996H59.5996V0H57.5996ZM57.5996 3.2002V5.2002H60.7998V3.2002V1.2002H57.5996V3.2002ZM60.7998 3.2002H58.7998V6.39941H60.7998H62.7998V3.2002H60.7998ZM60.7998 6.39941V8.39941H64V6.39941V4.39941H60.7998V6.39941ZM64 6.39941H62V57.6006H64H66V6.39941H64ZM64 57.6006V55.6006H60.7998V57.6006V59.6006H64V57.6006ZM60.7998 57.6006H58.7998V60.7998H60.7998H62.7998V57.6006H60.7998ZM60.7998 60.7998V58.7998H57.5996V60.7998V62.7998H60.7998V60.7998ZM57.5996 60.7998H55.5996V64H57.5996H59.5996V60.7998H57.5996ZM57.5996 64V62H6.40039V64V66H57.5996V64ZM6.40039 64H8.40039V60.7998H6.40039H4.40039V64H6.40039ZM6.40039 60.7998V58.7998H3.2002V60.7998V62.7998H6.40039V60.7998ZM3.2002 60.7998H5.2002V57.6006H3.2002H1.2002V60.7998H3.2002ZM3.2002 57.6006V55.6006H0V57.6006V59.6006H3.2002V57.6006ZM0 57.6006H2V6.39941H0H-2V57.6006H0ZM0 6.39941V8.39941H3.2002V6.39941V4.39941H0V6.39941ZM3.2002 6.39941H5.2002V3.2002H3.2002H1.2002V6.39941H3.2002ZM3.2002 3.2002V5.2002H6.40039V3.2002V1.2002H3.2002V3.2002ZM6.40039 3.2002H8.40039V0H6.40039H4.40039V3.2002H6.40039ZM6.40039 0V2H57.5996V0V-2H6.40039V0Z" fill="#202540" mask="url(#path-1-inside-1_241_9975)"/>
</svg>
