<svg width="74" height="16" viewBox="0 0 74 16" fill="none" xmlns="http://www.w3.org/2000/svg">
<rect x="6.99381e-07" y="16" width="16" height="74" transform="rotate(-90 6.99381e-07 16)" fill="#C96E36"/>
<rect opacity="0.32" x="2.20117" y="6" width="6" height="11.829" transform="rotate(-90 2.20117 6)" fill="#FFBF97"/>
<rect opacity="0.32" x="27.2344" y="6" width="6" height="11.829" transform="rotate(-90 27.2344 6)" fill="#FFBF97"/>
<rect opacity="0.32" x="48.6914" y="6" width="6" height="11.829" transform="rotate(-90 48.6914 6)" fill="#FFBF97"/>
<rect opacity="0.32" x="13.2041" y="16" width="6" height="11.829" transform="rotate(-90 13.2041 16)" fill="#FFBF97"/>
<rect opacity="0.32" x="38.2383" y="16" width="6" height="11.829" transform="rotate(-90 38.2383 16)" fill="#FFBF97"/>
<rect opacity="0.32" x="59.6953" y="16" width="6" height="11.829" transform="rotate(-90 59.6953 16)" fill="#FFBF97"/>
<rect x="1" y="15" width="14" height="72" transform="rotate(-90 1 15)" stroke="#171719" stroke-width="2"/>
</svg>
