<svg width="20" height="20" viewBox="0 0 20 20" fill="none" xmlns="http://www.w3.org/2000/svg">
<g clip-path="url(#clip0_568_90089)">
<path d="M18.333 7.49967V5.83301H17.4997V4.16634H16.6663V3.33301H15.833V2.49967H14.1663V1.66634H12.4997V0.833008H7.49967V1.66634H5.83301V2.49967H4.16634V3.33301H3.33301V4.16634H2.49967V5.83301H1.66634V7.49967H0.833008V12.4997H1.66634V14.1663H2.49967V15.833H3.33301V16.6663H4.16634V17.4997H5.83301V18.333H7.49967V19.1663H12.4997V18.333H14.1663V17.4997H15.833V16.6663H16.6663V15.833H17.4997V14.1663H18.333V12.4997H19.1663V7.49967H18.333ZM10.833 13.333V12.4997H9.99967V11.6663H9.16634V4.16634H10.833V10.833H11.6663V11.6663H12.4997V12.4997H13.333V13.333H12.4997V14.1663H11.6663V13.333H10.833Z" fill="currentColor"/>
</g>
<defs>
<clipPath id="clip0_568_90089">
<rect width="20" height="20" fill="white"/>
</clipPath>
</defs>
</svg>
