<svg width="459" height="459" viewBox="0 0 459 459" fill="none" xmlns="http://www.w3.org/2000/svg">
<mask id="path-1-inside-1_1382_26368" fill="white">
<path d="M229.5 0C356.249 0 459 102.751 459 229.5C459 356.249 356.249 459 229.5 459C102.751 459 0 356.249 0 229.5C0 102.751 102.751 0 229.5 0ZM229.5 48C129.26 48 48 129.26 48 229.5C48 329.74 129.26 411 229.5 411C329.74 411 411 329.74 411 229.5C411 129.26 329.74 48 229.5 48Z"/>
</mask>
<path d="M229.5 0C356.249 0 459 102.751 459 229.5C459 356.249 356.249 459 229.5 459C102.751 459 0 356.249 0 229.5C0 102.751 102.751 0 229.5 0ZM229.5 48C129.26 48 48 129.26 48 229.5C48 329.74 129.26 411 229.5 411C329.74 411 411 329.74 411 229.5C411 129.26 329.74 48 229.5 48Z" fill="white"/>
<path d="M229.5 0V6C352.936 6 453 106.064 453 229.5H459H465C465 99.4369 359.563 -6 229.5 -6V0ZM459 229.5H453C453 352.936 352.936 453 229.5 453V459V465C359.563 465 465 359.563 465 229.5H459ZM229.5 459V453C106.064 453 6 352.936 6 229.5H0H-6C-6 359.563 99.4369 465 229.5 465V459ZM0 229.5H6C6 106.064 106.064 6 229.5 6V0V-6C99.4369 -6 -6 99.4369 -6 229.5H0ZM229.5 48V42C125.947 42 42 125.947 42 229.5H48H54C54 132.574 132.574 54 229.5 54V48ZM48 229.5H42C42 333.053 125.947 417 229.5 417V411V405C132.574 405 54 326.426 54 229.5H48ZM229.5 411V417C333.053 417 417 333.053 417 229.5H411H405C405 326.426 326.426 405 229.5 405V411ZM411 229.5H417C417 125.947 333.053 42 229.5 42V48V54C326.426 54 405 132.574 405 229.5H411Z" fill="black" mask="url(#path-1-inside-1_1382_26368)"/>
<path opacity="0.57" d="M422 229.5C422 335.815 335.815 422 229.5 422C123.185 422 37 335.815 37 229.5C37 123.185 123.185 37 229.5 37C335.815 37 422 123.185 422 229.5ZM62.9961 229.5C62.9961 321.458 137.542 396.004 229.5 396.004C321.458 396.004 396.004 321.458 396.004 229.5C396.004 137.542 321.458 62.9961 229.5 62.9961C137.542 62.9961 62.9961 137.542 62.9961 229.5Z" fill="black"/>
<circle cx="230.363" cy="230.364" r="40" fill="white" stroke="#141539" stroke-width="10"/>
<circle cx="230" cy="24" r="10.5" fill="white" stroke="black" stroke-width="5"/>
<circle cx="230" cy="437" r="10.5" fill="white" stroke="black" stroke-width="5"/>
<circle cx="23.5" cy="230.5" r="10.5" transform="rotate(-90 23.5 230.5)" fill="white" stroke="black" stroke-width="5"/>
<circle cx="436.5" cy="230.5" r="10.5" transform="rotate(-90 436.5 230.5)" fill="white" stroke="black" stroke-width="5"/>
<circle cx="83.9824" cy="376.518" r="10.5" transform="rotate(-135 83.9824 376.518)" fill="white" stroke="black" stroke-width="5"/>
<circle cx="376.018" cy="84.4824" r="10.5" transform="rotate(-135 376.018 84.4824)" fill="white" stroke="black" stroke-width="5"/>
<circle cx="83.9824" cy="84.4824" r="10.5" transform="rotate(-45 83.9824 84.4824)" fill="white" stroke="black" stroke-width="5"/>
<circle cx="376.018" cy="376.518" r="10.5" transform="rotate(-45 376.018 376.518)" fill="white" stroke="black" stroke-width="5"/>
</svg>
