<svg xmlns="http://www.w3.org/2000/svg" width="40" height="40" viewBox="0 0 40 40" fill="none">
  <style>
    path[fill]:not([fill='none']) { fill: currentColor !important; }
    path[stroke]:not([stroke='none']) { stroke: currentColor !important; }
  </style>
  <path d="M39.0501 10.4751H37.1501V20.0001H39.0501V10.4751Z" fill="#9EA2BA"/>
  <path d="M37.1496 19.9998H35.2371V23.8123H37.1496V19.9998Z" fill="#9EA2BA"/>
  <path d="M37.1496 6.6626H35.2371V10.4751H37.1496V6.6626Z" fill="#9EA2BA"/>
  <path d="M35.2376 23.8123H33.3376V25.7123H35.2376V23.8123Z" fill="#9EA2BA"/>
  <path d="M35.2376 4.76221H33.3376V6.66221H35.2376V4.76221Z" fill="#9EA2BA"/>
  <path d="M33.3373 25.7117H31.4248V27.6242H33.3373V25.7117Z" fill="#9EA2BA"/>
  <path d="M33.3373 14.2869H31.4248V21.8994H33.3373V14.2869Z" fill="#9EA2BA"/>
  <path d="M31.4254 27.6245H29.5254V29.5245H31.4254V27.6245Z" fill="#9EA2BA"/>
  <path d="M31.4254 21.8997H29.5254V23.8122H31.4254V21.8997Z" fill="#9EA2BA"/>
  <path d="M33.3379 2.86279H29.5254V4.76279H33.3379V2.86279Z" fill="#9EA2BA"/>
  <path d="M29.5248 29.5251H27.6248V31.4251H29.5248V29.5251Z" fill="#9EA2BA"/>
  <path d="M29.5248 23.8123H27.6248V25.7123H29.5248V23.8123Z" fill="#9EA2BA"/>
  <path d="M31.4244 12.3879H25.7119V14.2879H31.4244V12.3879Z" fill="#9EA2BA"/>
  <path d="M27.6244 31.4246H25.7119V33.3371H27.6244V31.4246Z" fill="#9EA2BA"/>
  <path d="M25.7125 33.3374H23.8125V35.2374H25.7125V33.3374Z" fill="#9EA2BA"/>
  <path d="M27.6252 25.7117H20.0002V27.6242H27.6252V25.7117Z" fill="#9EA2BA"/>
  <path d="M25.7125 14.2869H23.8125V16.1869H25.7125V14.2869Z" fill="#9EA2BA"/>
  <path d="M23.8119 10.4747H27.6244V8.57471H29.5244V6.66221H27.6244V4.76221H23.8119V6.66221H21.9119V8.57471H23.8119V10.4747Z" fill="#9EA2BA"/>
  <path d="M23.8119 35.2368H21.9119V37.1368H23.8119V35.2368Z" fill="#9EA2BA"/>
  <path d="M23.8119 16.188H21.9119V18.1005H23.8119V16.188Z" fill="#9EA2BA"/>
  <path d="M21.9127 18.0994H20.0002V19.9994H21.9127V18.0994Z" fill="#9EA2BA"/>
  <path d="M21.9128 37.1375H10.4753V39.05H21.9128V37.1375Z" fill="#9EA2BA"/>
  <path d="M19.9996 19.9998H18.0996V25.7123H19.9996V19.9998Z" fill="#9EA2BA"/>
  <path d="M29.5257 0.949707H16.1882V2.86221H29.5257V0.949707Z" fill="#9EA2BA"/>
  <path d="M18.1004 27.6245H14.2879V29.5245H12.3879V33.337H14.2879V35.237H18.1004V33.337H20.0004V29.5245H18.1004V27.6245Z" fill="#9EA2BA"/>
  <path d="M16.1879 2.86279H12.3879V4.76279H16.1879V2.86279Z" fill="#9EA2BA"/>
  <path d="M12.3878 16.1865H16.1878V14.2865H18.1003V10.474H16.1878V8.57397H12.3878V10.474H10.4753V14.2865H12.3878V16.1865Z" fill="#9EA2BA"/>
  <path d="M6.67495 25.7119H10.475V23.8119H12.3875V19.9994H10.475V18.0994H6.67495V19.9994H4.76245V23.8119H6.67495V25.7119Z" fill="#9EA2BA"/>
  <path d="M12.387 4.76221H8.57446V6.66221H12.387V4.76221Z" fill="#9EA2BA"/>
  <path d="M10.4745 35.2368H8.57446V37.1368H10.4745V35.2368Z" fill="#9EA2BA"/>
  <path d="M8.57495 33.3374H4.76245V35.2374H8.57495V33.3374Z" fill="#9EA2BA"/>
  <path d="M8.57505 6.6626H6.67505V8.5751H8.57505V6.6626Z" fill="#9EA2BA"/>
  <path d="M6.67495 8.57397H4.76245V12.3865H6.67495V8.57397Z" fill="#9EA2BA"/>
  <path d="M4.76304 29.5251H2.86304V33.3376H4.76304V29.5251Z" fill="#9EA2BA"/>
  <path d="M4.76304 12.3879H2.86304V16.1879H4.76304V12.3879Z" fill="#9EA2BA"/>
  <path d="M2.86245 16.188H0.949951V29.5255H2.86245V16.188Z" fill="#9EA2BA"/>
</svg>