<svg width="40" height="40" viewBox="0 0 40 40" fill="none" xmlns="http://www.w3.org/2000/svg">
<style>
	path[fill]:not([fill='none']) { fill: currentColor !important; }
	path[stroke]:not([stroke='none']) { stroke: currentColor !important; }
</style>
<g clip-path="url(#clip0_101_7940)">
<path d="M14.1694 34.1739V35.841H7.50122V30.8398H9.16827V34.1739H14.1694Z" fill="#9EA2BA"/>
<path d="M34.174 30.8398V35.841H29.1729V34.1739H32.5069V30.8398H34.174Z" fill="#9EA2BA"/>
<path d="M27.5057 35.8407V39.1748H15.8364V35.8407H17.5035V34.1737H20.8376V32.5066H19.1705V30.8396H17.5035V25.8384H19.1705V24.1714H24.1717V25.8384H25.8387V30.8396H24.1717V32.5066H22.5046V34.1737H25.8387V35.8407H27.5057Z" fill="#9EA2BA"/>
<path d="M39.1749 25.8388V29.1728H27.5056V25.8388H29.1727V24.1717H32.5068V22.5047H30.8397V20.8376H29.1727V15.8365H30.8397V14.1694H35.8408V15.8365H37.5079V20.8376H35.8408V22.5047H34.1738V24.1717H37.5079V25.8388H39.1749Z" fill="#9EA2BA"/>
<path d="M14.1693 25.8388V29.1728H2.5V25.8388H4.16705V24.1717H7.50114V22.5047H5.83409V20.8376H4.16705V15.8365H5.83409V14.1694H10.8352V15.8365H12.5023V20.8376H10.8352V22.5047H9.16818V24.1717H12.5023V25.8388H14.1693Z" fill="#9EA2BA"/>
<path d="M14.1694 5.83398V7.50103H9.16827V12.5022H7.50122V5.83398H14.1694Z" fill="#9EA2BA"/>
<path d="M34.1738 5.83398V12.5022H32.5068V7.50103H25.8386V5.83398H34.1738Z" fill="#9EA2BA"/>
<path d="M25.8385 14.1693V17.5034H14.1692V14.1693H15.8362V12.5023H19.1703V10.8352H17.5033V9.16818H15.8362V4.16705H17.5033V2.5H22.5044V4.16705H24.1715V9.16818H22.5044V10.8352H20.8374V12.5023H24.1715V14.1693H25.8385Z" fill="#9EA2BA"/>
</g>
<defs>
<clipPath id="clip0_101_7940">
<rect width="40" height="40" fill="white"/>
</clipPath>
</defs>
</svg>
