<svg width="20" height="20" viewBox="0 0 20 20" fill="none" xmlns="http://www.w3.org/2000/svg">
<g clip-path="url(#clip0_977_75343)">
<path d="M3.07655 18.4619H1.53809V20.0004H3.07655V18.4619Z" fill="white"/>
<path d="M1.53846 18.4619H0V20.0004H1.53846V18.4619Z" fill="white"/>
<path d="M1.53846 16.9229H0V18.4613H1.53846V16.9229Z" fill="white"/>
<path d="M1.53846 15.3848H0V16.9232H1.53846V15.3848Z" fill="white"/>
<path d="M1.53846 13.8457H0V15.3842H1.53846V13.8457Z" fill="white"/>
<path d="M1.53846 15.3848H0V16.9232H1.53846V15.3848Z" fill="white"/>
<path d="M1.53846 16.9229H0V18.4613H1.53846V16.9229Z" fill="white"/>
<path d="M1.53846 18.4619H0V20.0004H1.53846V18.4619Z" fill="white"/>
<path d="M3.07655 18.4619H1.53809V20.0004H3.07655V18.4619Z" fill="white"/>
<path d="M4.61561 18.4619H3.07715V20.0004H4.61561V18.4619Z" fill="white"/>
<path d="M4.61561 18.4619H3.07715V20.0004H4.61561V18.4619Z" fill="white"/>
<path d="M3.07655 18.4619H1.53809V20.0004H3.07655V18.4619Z" fill="white"/>
<path d="M3.07655 18.4619H1.53809V20.0004H3.07655V18.4619Z" fill="white"/>
<path d="M4.61561 18.4619H3.07715V20.0004H4.61561V18.4619Z" fill="white"/>
<path d="M6.1537 18.4619H4.61523V20.0004H6.1537V18.4619Z" fill="white"/>
<path d="M7.69276 16.9229H6.1543V18.4613H7.69276V16.9229Z" fill="white"/>
<path d="M9.23084 15.3848H7.69238V16.9232H9.23084V15.3848Z" fill="white"/>
<path d="M10.7689 13.8457H9.23047V15.3842H10.7689V13.8457Z" fill="white"/>
<path d="M12.308 12.3076H10.7695V13.8461H12.308V12.3076Z" fill="white"/>
<path d="M13.8461 10.7695H12.3076V12.308H13.8461V10.7695Z" fill="white"/>
<path d="M15.3842 9.23047H13.8457V10.7689H15.3842V9.23047Z" fill="white"/>
<path d="M16.9232 7.69238H15.3848V9.23084H16.9232V7.69238Z" fill="white"/>
<path d="M18.4613 6.1543H16.9229V7.69276H18.4613V6.1543Z" fill="white"/>
<path d="M20.0004 4.61523H18.4619V6.1537H20.0004V4.61523Z" fill="white"/>
<path d="M18.4613 3.07715H16.9229V4.61561H18.4613V3.07715Z" fill="white"/>
<path d="M16.9232 1.53809H15.3848V3.07655H16.9232V1.53809Z" fill="white"/>
<path d="M15.3842 0H13.8457V1.53846H15.3842V0Z" fill="white"/>
<path d="M13.8461 1.53809H12.3076V3.07655H13.8461V1.53809Z" fill="white"/>
<path d="M12.308 3.07715H10.7695V4.61561H12.308V3.07715Z" fill="white"/>
<path d="M12.308 4.61523H10.7695V6.1537H12.308V4.61523Z" fill="white"/>
<path d="M13.8461 4.61523H12.3076V6.1537H13.8461V4.61523Z" fill="white"/>
<path d="M13.8461 3.07715H12.3076V4.61561H13.8461V3.07715Z" fill="white"/>
<path d="M15.3842 3.07715H13.8457V4.61561H15.3842V3.07715Z" fill="white"/>
<path d="M15.3842 1.53809H13.8457V3.07655H15.3842V1.53809Z" fill="white"/>
<path d="M15.3842 3.07715H13.8457V4.61561H15.3842V3.07715Z" fill="white"/>
<path d="M16.9232 3.07715H15.3848V4.61561H16.9232V3.07715Z" fill="white"/>
<path d="M16.9232 4.61523H15.3848V6.1537H16.9232V4.61523Z" fill="white"/>
<path d="M15.3842 4.61523H13.8457V6.1537H15.3842V4.61523Z" fill="white"/>
<path d="M16.9232 4.61523H15.3848V6.1537H16.9232V4.61523Z" fill="white"/>
<path d="M16.9232 6.1543H15.3848V7.69276H16.9232V6.1543Z" fill="white"/>
<path d="M16.9232 4.61523H15.3848V6.1537H16.9232V4.61523Z" fill="white"/>
<path d="M18.4613 4.61523H16.9229V6.1537H18.4613V4.61523Z" fill="white"/>
<path d="M13.8461 6.1543H12.3076V7.69276H13.8461V6.1543Z" fill="white"/>
<path d="M15.3842 6.1543H13.8457V7.69276H15.3842V6.1543Z" fill="white"/>
<path d="M15.3842 7.69238H13.8457V9.23084H15.3842V7.69238Z" fill="white"/>
<path d="M16.9232 7.69238H15.3848V9.23084H16.9232V7.69238Z" fill="white"/>
<path d="M10.7689 4.61523H9.23047V6.1537H10.7689V4.61523Z" fill="white"/>
<path d="M9.23084 6.1543H7.69238V7.69276H9.23084V6.1543Z" fill="white"/>
<path d="M7.69276 7.69238H6.1543V9.23084H7.69276V7.69238Z" fill="white"/>
<path d="M6.1537 9.23047H4.61523V10.7689H6.1537V9.23047Z" fill="white"/>
<path d="M4.61561 10.7695H3.07715V12.308H4.61561V10.7695Z" fill="white"/>
<path d="M3.07655 12.3076H1.53809V13.8461H3.07655V12.3076Z" fill="white"/>
<path d="M1.53846 13.8457H0V15.3842H1.53846V13.8457Z" fill="white"/>
</g>
<defs>
<clipPath id="clip0_977_75343">
<rect width="20" height="20" fill="white"/>
</clipPath>
</defs>
</svg>
