<svg width="24" height="24" viewBox="0 0 24 24" fill="none" xmlns="http://www.w3.org/2000/svg">
<path d="M6.75 0H6V0.75H6.75V0Z" fill="#804FFF"/>
<path d="M7.5 0H6.75V0.75H7.5V0Z" fill="#804FFF"/>
<path d="M8.25 0H7.5V0.75H8.25V0Z" fill="#804FFF"/>
<path d="M9 0H8.25V0.75H9V0Z" fill="#804FFF"/>
<path d="M9.75 0H9V0.75H9.75V0Z" fill="#804FFF"/>
<path d="M10.5 0H9.75V0.75H10.5V0Z" fill="#804FFF"/>
<path d="M11.25 0H10.5V0.75H11.25V0Z" fill="#804FFF"/>
<path d="M12 0H11.25V0.75H12V0Z" fill="#804FFF"/>
<path d="M12.75 0H12V0.75H12.75V0Z" fill="#804FFF"/>
<path d="M13.5 0H12.75V0.75H13.5V0Z" fill="#804FFF"/>
<path d="M14.25 0H13.5V0.75H14.25V0Z" fill="#804FFF"/>
<path d="M15 0H14.25V0.75H15V0Z" fill="#804FFF"/>
<path d="M15.75 0H15V0.75H15.75V0Z" fill="#804FFF"/>
<path d="M16.5 0H15.75V0.75H16.5V0Z" fill="#804FFF"/>
<path d="M17.25 0H16.5V0.75H17.25V0Z" fill="#804FFF"/>
<path d="M18 0H17.25V0.75H18V0Z" fill="#804FFF"/>
<path d="M18.75 0H18V0.75H18.75V0Z" fill="#804FFF"/>
<path d="M19.5 0H18.75V0.75H19.5V0Z" fill="#804FFF"/>
<path d="M20.25 0H19.5V0.75H20.25V0Z" fill="#804FFF"/>
<path d="M21 0H20.25V0.75H21V0Z" fill="#804FFF"/>
<path d="M21.75 0H21V0.75H21.75V0Z" fill="#804FFF"/>
<path d="M22.5 0H21.75V0.75H22.5V0Z" fill="#804FFF"/>
<path d="M22.5 0.75H21.75V1.5H22.5V0.75Z" fill="#804FFF"/>
<path d="M23.25 0.75H22.5V1.5H23.25V0.75Z" fill="#804FFF"/>
<path d="M23.25 1.5H22.5V2.25H23.25V1.5Z" fill="#804FFF"/>
<path d="M24 1.5H23.25V2.25H24V1.5Z" fill="#804FFF"/>
<path d="M24 2.25H23.25V3H24V2.25Z" fill="#804FFF"/>
<path d="M24 3H23.25V3.75H24V3Z" fill="#804FFF"/>
<path d="M24 3.75H23.25V4.5H24V3.75Z" fill="#804FFF"/>
<path d="M24 4.5H23.25V5.25H24V4.5Z" fill="#804FFF"/>
<path d="M24 5.25H23.25V6H24V5.25Z" fill="#804FFF"/>
<path d="M24 6H23.25V6.75H24V6Z" fill="#804FFF"/>
<path d="M24 6.75H23.25V7.5H24V6.75Z" fill="#804FFF"/>
<path d="M24 7.5H23.25V8.25H24V7.5Z" fill="#804FFF"/>
<path d="M24 8.25H23.25V9H24V8.25Z" fill="#804FFF"/>
<path d="M24 9H23.25V9.75H24V9Z" fill="#804FFF"/>
<path d="M24 9.75H23.25V10.5H24V9.75Z" fill="#804FFF"/>
<path d="M24 10.5H23.25V11.25H24V10.5Z" fill="#804FFF"/>
<path d="M24 11.25H23.25V12H24V11.25Z" fill="#804FFF"/>
<path d="M24 12H23.25V12.75H24V12Z" fill="#804FFF"/>
<path d="M24 12.75H23.25V13.5H24V12.75Z" fill="#804FFF"/>
<path d="M24 13.5H23.25V14.25H24V13.5Z" fill="#804FFF"/>
<path d="M24 14.25H23.25V15H24V14.25Z" fill="#804FFF"/>
<path d="M24 15H23.25V15.75H24V15Z" fill="#804FFF"/>
<path d="M24 15.75H23.25V16.5H24V15.75Z" fill="#804FFF"/>
<path d="M24 16.5H23.25V17.25H24V16.5Z" fill="#804FFF"/>
<path d="M24 17.25H23.25V18H24V17.25Z" fill="#804FFF"/>
<path d="M24 18H23.25V18.75H24V18Z" fill="#804FFF"/>
<path d="M24 18.75H23.25V19.5H24V18.75Z" fill="#804FFF"/>
<path d="M23.25 18.75H22.5V19.5H23.25V18.75Z" fill="#804FFF"/>
<path d="M23.25 19.5H22.5V20.25H23.25V19.5Z" fill="#804FFF"/>
<path d="M22.5 19.5H21.75V20.25H22.5V19.5Z" fill="#804FFF"/>
<path d="M22.5 20.25H21.75V21H22.5V20.25Z" fill="#804FFF"/>
<path d="M21.75 20.25H21V21H21.75V20.25Z" fill="#804FFF"/>
<path d="M21 20.25H20.25V21H21V20.25Z" fill="#804FFF"/>
<path d="M20.25 20.25H19.5V21H20.25V20.25Z" fill="#804FFF"/>
<path d="M19.5 20.25H18.75V21H19.5V20.25Z" fill="#804FFF"/>
<path d="M18.75 20.25H18V21H18.75V20.25Z" fill="#804FFF"/>
<path d="M18 20.25H17.25V21H18V20.25Z" fill="#804FFF"/>
<path d="M17.25 20.25H16.5V21H17.25V20.25Z" fill="#804FFF"/>
<path d="M16.5 20.25H15.75V21H16.5V20.25Z" fill="#804FFF"/>
<path d="M15.75 20.25H15V21H15.75V20.25Z" fill="#804FFF"/>
<path d="M15.75 19.5H15V20.25H15.75V19.5Z" fill="#804FFF"/>
<path d="M15.75 18.75H15V19.5H15.75V18.75Z" fill="#804FFF"/>
<path d="M15 18.75H14.25V19.5H15V18.75Z" fill="#804FFF"/>
<path d="M15 18H14.25V18.75H15V18Z" fill="#804FFF"/>
<path d="M15 17.25H14.25V18H15V17.25Z" fill="#804FFF"/>
<path d="M14.25 17.25H13.5V18H14.25V17.25Z" fill="#804FFF"/>
<path d="M14.25 16.5H13.5V17.25H14.25V16.5Z" fill="#804FFF"/>
<path d="M14.25 15.75H13.5V16.5H14.25V15.75Z" fill="#804FFF"/>
<path d="M14.25 15H13.5V15.75H14.25V15Z" fill="#804FFF"/>
<path d="M14.25 14.25H13.5V15H14.25V14.25Z" fill="#804FFF"/>
<path d="M14.25 13.5H13.5V14.25H14.25V13.5Z" fill="#804FFF"/>
<path d="M13.5 13.5H12.75V14.25H13.5V13.5Z" fill="#804FFF"/>
<path d="M13.5 12.75H12.75V13.5H13.5V12.75Z" fill="#804FFF"/>
<path d="M12.75 12.75H12V13.5H12.75V12.75Z" fill="#804FFF"/>
<path d="M12.75 12H12V12.75H12.75V12Z" fill="#804FFF"/>
<path d="M12 12H11.25V12.75H12V12Z" fill="#804FFF"/>
<path d="M11.25 12H10.5V12.75H11.25V12Z" fill="#804FFF"/>
<path d="M11.25 11.25H10.5V12H11.25V11.25Z" fill="#804FFF"/>
<path d="M10.5 11.25H9.75V12H10.5V11.25Z" fill="#804FFF"/>
<path d="M9.75 11.25H9V12H9.75V11.25Z" fill="#804FFF"/>
<path d="M9.75 12H9V12.75H9.75V12Z" fill="#804FFF"/>
<path d="M9 12H8.25V12.75H9V12Z" fill="#804FFF"/>
<path d="M8.25 12H7.5V12.75H8.25V12Z" fill="#804FFF"/>
<path d="M8.25 12.75H7.5V13.5H8.25V12.75Z" fill="#804FFF"/>
<path d="M8.25 12H7.5V12.75H8.25V12Z" fill="#804FFF"/>
<path d="M8.25 11.25H7.5V12H8.25V11.25Z" fill="#804FFF"/>
<path d="M7.5 11.25H6.75V12H7.5V11.25Z" fill="#804FFF"/>
<path d="M7.5 10.5H6.75V11.25H7.5V10.5Z" fill="#804FFF"/>
<path d="M6.75 10.5H6V11.25H6.75V10.5Z" fill="#804FFF"/>
<path d="M6 10.5H5.25V11.25H6V10.5Z" fill="#804FFF"/>
<path d="M5.25 10.5H4.5V11.25H5.25V10.5Z" fill="#804FFF"/>
<path d="M5.25 9.75H4.5V10.5H5.25V9.75Z" fill="#804FFF"/>
<path d="M4.5 9.75H3.75V10.5H4.5V9.75Z" fill="#804FFF"/>
<path d="M3.75 9.75H3V10.5H3.75V9.75Z" fill="#804FFF"/>
<path d="M3.75 10.5H3V11.25H3.75V10.5Z" fill="#804FFF"/>
<path d="M4.5 10.5H3.75V11.25H4.5V10.5Z" fill="#804FFF"/>
<path d="M3.75 10.5H3V11.25H3.75V10.5Z" fill="#804FFF"/>
<path d="M3.75 12H3V12.75H3.75V12Z" fill="white"/>
<path d="M4.5 12H3.75V12.75H4.5V12Z" fill="white"/>
<path d="M5.25 12H4.5V12.75H5.25V12Z" fill="white"/>
<path d="M6 12H5.25V12.75H6V12Z" fill="white"/>
<path d="M6 12.75H5.25V13.5H6V12.75Z" fill="white"/>
<path d="M6.75 12.75H6V13.5H6.75V12.75Z" fill="white"/>
<path d="M6.75 13.5H6V14.25H6.75V13.5Z" fill="white"/>
<path d="M6.75 14.25H6V15H6.75V14.25Z" fill="white"/>
<path d="M9 14.25H8.25V15H9V14.25Z" fill="white"/>
<path d="M9.75 14.25H9V15H9.75V14.25Z" fill="white"/>
<path d="M9.75 13.5H9V14.25H9.75V13.5Z" fill="white"/>
<path d="M10.5 13.5H9.75V14.25H10.5V13.5Z" fill="white"/>
<path d="M11.25 13.5H10.5V14.25H11.25V13.5Z" fill="white"/>
<path d="M11.25 14.25H10.5V15H11.25V14.25Z" fill="white"/>
<path d="M10.5 14.25H9.75V15H10.5V14.25Z" fill="white"/>
<path d="M11.25 14.25H10.5V15H11.25V14.25Z" fill="white"/>
<path d="M12 14.25H11.25V15H12V14.25Z" fill="white"/>
<path d="M12 15H11.25V15.75H12V15Z" fill="white"/>
<path d="M12 15.75H11.25V16.5H12V15.75Z" fill="white"/>
<path d="M11.25 15.75H10.5V16.5H11.25V15.75Z" fill="white"/>
<path d="M10.5 15.75H9.75V16.5H10.5V15.75Z" fill="white"/>
<path d="M9.75 15.75H9V16.5H9.75V15.75Z" fill="white"/>
<path d="M9 15.75H8.25V16.5H9V15.75Z" fill="white"/>
<path d="M9 15H8.25V15.75H9V15Z" fill="white"/>
<path d="M9.75 15H9V15.75H9.75V15Z" fill="white"/>
<path d="M10.5 15H9.75V15.75H10.5V15Z" fill="white"/>
<path d="M11.25 15H10.5V15.75H11.25V15Z" fill="white"/>
<path d="M11.25 15.75H10.5V16.5H11.25V15.75Z" fill="white"/>
<path d="M10.5 15.75H9.75V16.5H10.5V15.75Z" fill="white"/>
<path d="M10.5 16.5H9.75V17.25H10.5V16.5Z" fill="white"/>
<path d="M9.75 16.5H9V17.25H9.75V16.5Z" fill="white"/>
<path d="M10.5 16.5H9.75V17.25H10.5V16.5Z" fill="white"/>
<path d="M11.25 16.5H10.5V17.25H11.25V16.5Z" fill="white"/>
<path d="M12 16.5H11.25V17.25H12V16.5Z" fill="white"/>
<path d="M10.5 18.75H9.75V19.5H10.5V18.75Z" fill="white"/>
<path d="M8.25 18.75H7.5V19.5H8.25V18.75Z" fill="white"/>
<path d="M7.5 18.75H6.75V19.5H7.5V18.75Z" fill="white"/>
<path d="M6.75 18.75H6V19.5H6.75V18.75Z" fill="white"/>
<path d="M6 18.75H5.25V19.5H6V18.75Z" fill="white"/>
<path d="M5.25 18.75H4.5V19.5H5.25V18.75Z" fill="white"/>
<path d="M4.5 18.75H3.75V19.5H4.5V18.75Z" fill="white"/>
<path d="M3.75 18.75H3V19.5H3.75V18.75Z" fill="white"/>
<path d="M3 18.75H2.25V19.5H3V18.75Z" fill="white"/>
<path d="M2.25 18.75H1.5V19.5H2.25V18.75Z" fill="white"/>
<path d="M1.5 18.75H0.75V19.5H1.5V18.75Z" fill="white"/>
<path d="M1.5 19.5H0.75V20.25H1.5V19.5Z" fill="white"/>
<path d="M0.75 19.5H0V20.25H0.75V19.5Z" fill="white"/>
<path d="M1.5 19.5H0.75V20.25H1.5V19.5Z" fill="white"/>
<path d="M2.25 19.5H1.5V20.25H2.25V19.5Z" fill="white"/>
<path d="M3 19.5H2.25V20.25H3V19.5Z" fill="white"/>
<path d="M3.75 19.5H3V20.25H3.75V19.5Z" fill="white"/>
<path d="M4.5 19.5H3.75V20.25H4.5V19.5Z" fill="white"/>
<path d="M5.25 19.5H4.5V20.25H5.25V19.5Z" fill="white"/>
<path d="M6 19.5H5.25V20.25H6V19.5Z" fill="white"/>
<path d="M6.75 19.5H6V20.25H6.75V19.5Z" fill="white"/>
<path d="M7.5 19.5H6.75V20.25H7.5V19.5Z" fill="white"/>
<path d="M8.25 19.5H7.5V20.25H8.25V19.5Z" fill="white"/>
<path d="M9 19.5H8.25V20.25H9V19.5Z" fill="white"/>
<path d="M9 20.25H8.25V21H9V20.25Z" fill="white"/>
<path d="M9 21H8.25V21.75H9V21Z" fill="white"/>
<path d="M9 21.75H8.25V22.5H9V21.75Z" fill="white"/>
<path d="M9 22.5H8.25V23.25H9V22.5Z" fill="white"/>
<path d="M8.25 22.5H7.5V23.25H8.25V22.5Z" fill="white"/>
<path d="M7.5 22.5H6.75V23.25H7.5V22.5Z" fill="white"/>
<path d="M7.5 23.25H6.75V24H7.5V23.25Z" fill="white"/>
<path d="M6.75 23.25H6V24H6.75V23.25Z" fill="white"/>
<path d="M6 23.25H5.25V24H6V23.25Z" fill="white"/>
<path d="M5.25 23.25H4.5V24H5.25V23.25Z" fill="white"/>
<path d="M4.5 23.25H3.75V24H4.5V23.25Z" fill="white"/>
<path d="M3.75 23.25H3V24H3.75V23.25Z" fill="white"/>
<path d="M3 23.25H2.25V24H3V23.25Z" fill="white"/>
<path d="M2.25 23.25H1.5V24H2.25V23.25Z" fill="white"/>
<path d="M2.25 22.5H1.5V23.25H2.25V22.5Z" fill="white"/>
<path d="M1.5 22.5H0.75V23.25H1.5V22.5Z" fill="white"/>
<path d="M1.5 21.75H0.75V22.5H1.5V21.75Z" fill="white"/>
<path d="M0.75 21.75H0V22.5H0.75V21.75Z" fill="white"/>
<path d="M0.75 21H0V21.75H0.75V21Z" fill="white"/>
<path d="M0.75 20.25H0V21H0.75V20.25Z" fill="white"/>
<path d="M1.5 20.25H0.75V21H1.5V20.25Z" fill="white"/>
<path d="M2.25 20.25H1.5V21H2.25V20.25Z" fill="white"/>
<path d="M3 20.25H2.25V21H3V20.25Z" fill="white"/>
<path d="M3.75 20.25H3V21H3.75V20.25Z" fill="white"/>
<path d="M4.5 20.25H3.75V21H4.5V20.25Z" fill="white"/>
<path d="M5.25 20.25H4.5V21H5.25V20.25Z" fill="white"/>
<path d="M6 20.25H5.25V21H6V20.25Z" fill="white"/>
<path d="M6.75 20.25H6V21H6.75V20.25Z" fill="white"/>
<path d="M7.5 20.25H6.75V21H7.5V20.25Z" fill="white"/>
<path d="M8.25 20.25H7.5V21H8.25V20.25Z" fill="white"/>
<path d="M8.25 21H7.5V21.75H8.25V21Z" fill="white"/>
<path d="M7.5 21H6.75V21.75H7.5V21Z" fill="white"/>
<path d="M6.75 21H6V21.75H6.75V21Z" fill="white"/>
<path d="M6 21H5.25V21.75H6V21Z" fill="white"/>
<path d="M5.25 21H4.5V21.75H5.25V21Z" fill="white"/>
<path d="M4.5 21H3.75V21.75H4.5V21Z" fill="white"/>
<path d="M3.75 21H3V21.75H3.75V21Z" fill="white"/>
<path d="M3 21H2.25V21.75H3V21Z" fill="white"/>
<path d="M2.25 21H1.5V21.75H2.25V21Z" fill="white"/>
<path d="M1.5 21H0.75V21.75H1.5V21Z" fill="white"/>
<path d="M0.75 21H0V21.75H0.75V21Z" fill="white"/>
<path d="M1.5 21H0.75V21.75H1.5V21Z" fill="white"/>
<path d="M1.5 21.75H0.75V22.5H1.5V21.75Z" fill="white"/>
<path d="M2.25 21.75H1.5V22.5H2.25V21.75Z" fill="white"/>
<path d="M3 21.75H2.25V22.5H3V21.75Z" fill="white"/>
<path d="M3.75 21.75H3V22.5H3.75V21.75Z" fill="white"/>
<path d="M4.5 21.75H3.75V22.5H4.5V21.75Z" fill="white"/>
<path d="M5.25 21.75H4.5V22.5H5.25V21.75Z" fill="white"/>
<path d="M6 21.75H5.25V22.5H6V21.75Z" fill="white"/>
<path d="M6.75 21.75H6V22.5H6.75V21.75Z" fill="white"/>
<path d="M7.5 21.75H6.75V22.5H7.5V21.75Z" fill="white"/>
<path d="M8.25 21.75H7.5V22.5H8.25V21.75Z" fill="white"/>
<path d="M7.5 21.75H6.75V22.5H7.5V21.75Z" fill="white"/>
<path d="M6.75 21.75H6V22.5H6.75V21.75Z" fill="white"/>
<path d="M6.75 22.5H6V23.25H6.75V22.5Z" fill="white"/>
<path d="M6 22.5H5.25V23.25H6V22.5Z" fill="white"/>
<path d="M5.25 22.5H4.5V23.25H5.25V22.5Z" fill="white"/>
<path d="M4.5 22.5H3.75V23.25H4.5V22.5Z" fill="white"/>
<path d="M3.75 22.5H3V23.25H3.75V22.5Z" fill="white"/>
<path d="M3 22.5H2.25V23.25H3V22.5Z" fill="white"/>
<path d="M11.25 18.75H10.5V19.5H11.25V18.75Z" fill="white"/>
<path d="M12 18.75H11.25V19.5H12V18.75Z" fill="white"/>
<path d="M12.75 18.75H12V19.5H12.75V18.75Z" fill="white"/>
<path d="M13.5 18.75H12.75V19.5H13.5V18.75Z" fill="white"/>
<path d="M13.5 19.5H12.75V20.25H13.5V19.5Z" fill="white"/>
<path d="M13.5 20.25H12.75V21H13.5V20.25Z" fill="white"/>
<path d="M13.5 21H12.75V21.75H13.5V21Z" fill="white"/>
<path d="M13.5 21.75H12.75V22.5H13.5V21.75Z" fill="white"/>
<path d="M12.75 21.75H12V22.5H12.75V21.75Z" fill="white"/>
<path d="M12.75 22.5H12V23.25H12.75V22.5Z" fill="white"/>
<path d="M12 22.5H11.25V23.25H12V22.5Z" fill="white"/>
<path d="M11.25 22.5H10.5V23.25H11.25V22.5Z" fill="white"/>
<path d="M10.5 22.5H9.75V23.25H10.5V22.5Z" fill="white"/>
<path d="M10.5 21.75H9.75V22.5H10.5V21.75Z" fill="white"/>
<path d="M10.5 21H9.75V21.75H10.5V21Z" fill="white"/>
<path d="M10.5 20.25H9.75V21H10.5V20.25Z" fill="white"/>
<path d="M10.5 19.5H9.75V20.25H10.5V19.5Z" fill="white"/>
<path d="M11.25 19.5H10.5V20.25H11.25V19.5Z" fill="white"/>
<path d="M11.25 20.25H10.5V21H11.25V20.25Z" fill="white"/>
<path d="M11.25 21H10.5V21.75H11.25V21Z" fill="white"/>
<path d="M11.25 21.75H10.5V22.5H11.25V21.75Z" fill="white"/>
<path d="M12 21.75H11.25V22.5H12V21.75Z" fill="white"/>
<path d="M12 21H11.25V21.75H12V21Z" fill="white"/>
<path d="M12 20.25H11.25V21H12V20.25Z" fill="white"/>
<path d="M12 19.5H11.25V20.25H12V19.5Z" fill="white"/>
<path d="M12.75 19.5H12V20.25H12.75V19.5Z" fill="white"/>
<path d="M12.75 20.25H12V21H12.75V20.25Z" fill="white"/>
<path d="M12.75 21H12V21.75H12.75V21Z" fill="white"/>
<path d="M6.75 15H6V15.75H6.75V15Z" fill="white"/>
<path d="M6.75 15.75H6V16.5H6.75V15.75Z" fill="white"/>
<path d="M6 15.75H5.25V16.5H6V15.75Z" fill="white"/>
<path d="M6 16.5H5.25V17.25H6V16.5Z" fill="white"/>
<path d="M5.25 16.5H4.5V17.25H5.25V16.5Z" fill="white"/>
<path d="M4.5 16.5H3.75V17.25H4.5V16.5Z" fill="white"/>
<path d="M3.75 16.5H3V17.25H3.75V16.5Z" fill="white"/>
<path d="M3 16.5H2.25V17.25H3V16.5Z" fill="white"/>
<path d="M3 15.75H2.25V16.5H3V15.75Z" fill="white"/>
<path d="M2.25 15.75H1.5V16.5H2.25V15.75Z" fill="white"/>
<path d="M2.25 15H1.5V15.75H2.25V15Z" fill="white"/>
<path d="M2.25 14.25H1.5V15H2.25V14.25Z" fill="white"/>
<path d="M2.25 13.5H1.5V14.25H2.25V13.5Z" fill="white"/>
<path d="M2.25 12.75H1.5V13.5H2.25V12.75Z" fill="white"/>
<path d="M3 12.75H2.25V13.5H3V12.75Z" fill="white"/>
<path d="M3 12H2.25V12.75H3V12Z" fill="white"/>
<path d="M3 12.75H2.25V13.5H3V12.75Z" fill="white"/>
<path d="M2.25 12.75H1.5V13.5H2.25V12.75Z" fill="white"/>
<path d="M3 12.75H2.25V13.5H3V12.75Z" fill="white"/>
<path d="M3.75 12.75H3V13.5H3.75V12.75Z" fill="white"/>
<path d="M4.5 12.75H3.75V13.5H4.5V12.75Z" fill="white"/>
<path d="M5.25 12.75H4.5V13.5H5.25V12.75Z" fill="white"/>
<path d="M5.25 13.5H4.5V14.25H5.25V13.5Z" fill="white"/>
<path d="M6 13.5H5.25V14.25H6V13.5Z" fill="white"/>
<path d="M5.25 13.5H4.5V14.25H5.25V13.5Z" fill="white"/>
<path d="M4.5 13.5H3.75V14.25H4.5V13.5Z" fill="white"/>
<path d="M3.75 13.5H3V14.25H3.75V13.5Z" fill="white"/>
<path d="M3 13.5H2.25V14.25H3V13.5Z" fill="white"/>
<path d="M3 14.25H2.25V15H3V14.25Z" fill="white"/>
<path d="M3.75 14.25H3V15H3.75V14.25Z" fill="white"/>
<path d="M4.5 14.25H3.75V15H4.5V14.25Z" fill="white"/>
<path d="M5.25 14.25H4.5V15H5.25V14.25Z" fill="white"/>
<path d="M6 14.25H5.25V15H6V14.25Z" fill="white"/>
<path d="M6 15H5.25V15.75H6V15Z" fill="white"/>
<path d="M5.25 15H4.5V15.75H5.25V15Z" fill="white"/>
<path d="M4.5 15H3.75V15.75H4.5V15Z" fill="white"/>
<path d="M3.75 15H3V15.75H3.75V15Z" fill="white"/>
<path d="M3 15H2.25V15.75H3V15Z" fill="white"/>
<path d="M3.75 15H3V15.75H3.75V15Z" fill="white"/>
<path d="M3.75 15.75H3V16.5H3.75V15.75Z" fill="white"/>
<path d="M3.75 16.5H3V17.25H3.75V16.5Z" fill="white"/>
<path d="M4.5 16.5H3.75V17.25H4.5V16.5Z" fill="white"/>
<path d="M4.5 15.75H3.75V16.5H4.5V15.75Z" fill="white"/>
<path d="M5.25 15.75H4.5V16.5H5.25V15.75Z" fill="white"/>
<path d="M3.75 9.75H3V10.5H3.75V9.75Z" fill="#804FFF"/>
<path d="M3.75 9H3V9.75H3.75V9Z" fill="#804FFF"/>
<path d="M3.75 8.25H3V9H3.75V8.25Z" fill="#804FFF"/>
<path d="M3.75 7.5H3V8.25H3.75V7.5Z" fill="#804FFF"/>
<path d="M3.75 6.75H3V7.5H3.75V6.75Z" fill="#804FFF"/>
<path d="M3.75 6H3V6.75H3.75V6Z" fill="#804FFF"/>
<path d="M3.75 5.25H3V6H3.75V5.25Z" fill="#804FFF"/>
<path d="M3.75 4.5H3V5.25H3.75V4.5Z" fill="#804FFF"/>
<path d="M3.75 3.75H3V4.5H3.75V3.75Z" fill="#804FFF"/>
<path d="M3.75 3H3V3.75H3.75V3Z" fill="#804FFF"/>
<path d="M3.75 2.25H3V3H3.75V2.25Z" fill="#804FFF"/>
<path d="M4.5 2.25H3.75V3H4.5V2.25Z" fill="#804FFF"/>
<path d="M4.5 1.5H3.75V2.25H4.5V1.5Z" fill="#804FFF"/>
<path d="M5.25 1.5H4.5V2.25H5.25V1.5Z" fill="#804FFF"/>
<path d="M5.25 0.75H4.5V1.5H5.25V0.75Z" fill="#804FFF"/>
<path d="M6 0.75H5.25V1.5H6V0.75Z" fill="#804FFF"/>
<path d="M6 0H5.25V0.75H6V0Z" fill="#804FFF"/>
<path d="M6 0.75H5.25V1.5H6V0.75Z" fill="#804FFF"/>
<path d="M6.75 0.75H6V1.5H6.75V0.75Z" fill="#804FFF"/>
<path d="M7.5 0.75H6.75V1.5H7.5V0.75Z" fill="#804FFF"/>
<path d="M8.25 0.75H7.5V1.5H8.25V0.75Z" fill="#804FFF"/>
<path d="M9 0.75H8.25V1.5H9V0.75Z" fill="#804FFF"/>
<path d="M9.75 0.75H9V1.5H9.75V0.75Z" fill="#804FFF"/>
<path d="M10.5 0.75H9.75V1.5H10.5V0.75Z" fill="#804FFF"/>
<path d="M11.25 0.75H10.5V1.5H11.25V0.75Z" fill="#804FFF"/>
<path d="M12 0.75H11.25V1.5H12V0.75Z" fill="#804FFF"/>
<path d="M12.75 0.75H12V1.5H12.75V0.75Z" fill="#804FFF"/>
<path d="M13.5 0.75H12.75V1.5H13.5V0.75Z" fill="#804FFF"/>
<path d="M14.25 0.75H13.5V1.5H14.25V0.75Z" fill="#804FFF"/>
<path d="M15 0.75H14.25V1.5H15V0.75Z" fill="#804FFF"/>
<path d="M15.75 0.75H15V1.5H15.75V0.75Z" fill="#804FFF"/>
<path d="M16.5 0.75H15.75V1.5H16.5V0.75Z" fill="#804FFF"/>
<path d="M17.25 0.75H16.5V1.5H17.25V0.75Z" fill="#804FFF"/>
<path d="M18 0.75H17.25V1.5H18V0.75Z" fill="#804FFF"/>
<path d="M18.75 0.75H18V1.5H18.75V0.75Z" fill="#804FFF"/>
<path d="M19.5 0.75H18.75V1.5H19.5V0.75Z" fill="#804FFF"/>
<path d="M20.25 0.75H19.5V1.5H20.25V0.75Z" fill="#804FFF"/>
<path d="M21 0.75H20.25V1.5H21V0.75Z" fill="#804FFF"/>
<path d="M21.75 0.75H21V1.5H21.75V0.75Z" fill="#804FFF"/>
<path d="M22.5 0.75H21.75V1.5H22.5V0.75Z" fill="#804FFF"/>
<path d="M22.5 1.5H21.75V2.25H22.5V1.5Z" fill="#804FFF"/>
<path d="M21.75 1.5H21V2.25H21.75V1.5Z" fill="#804FFF"/>
<path d="M21 1.5H20.25V2.25H21V1.5Z" fill="#804FFF"/>
<path d="M20.25 1.5H19.5V2.25H20.25V1.5Z" fill="#804FFF"/>
<path d="M19.5 1.5H18.75V2.25H19.5V1.5Z" fill="#804FFF"/>
<path d="M18.75 1.5H18V2.25H18.75V1.5Z" fill="#804FFF"/>
<path d="M18 1.5H17.25V2.25H18V1.5Z" fill="#804FFF"/>
<path d="M17.25 1.5H16.5V2.25H17.25V1.5Z" fill="#804FFF"/>
<path d="M16.5 1.5H15.75V2.25H16.5V1.5Z" fill="#804FFF"/>
<path d="M15.75 1.5H15V2.25H15.75V1.5Z" fill="#804FFF"/>
<path d="M15 1.5H14.25V2.25H15V1.5Z" fill="#804FFF"/>
<path d="M14.25 1.5H13.5V2.25H14.25V1.5Z" fill="#804FFF"/>
<path d="M13.5 1.5H12.75V2.25H13.5V1.5Z" fill="#804FFF"/>
<path d="M12.75 1.5H12V2.25H12.75V1.5Z" fill="#804FFF"/>
<path d="M12 1.5H11.25V2.25H12V1.5Z" fill="#804FFF"/>
<path d="M11.25 1.5H10.5V2.25H11.25V1.5Z" fill="#804FFF"/>
<path d="M10.5 1.5H9.75V2.25H10.5V1.5Z" fill="#804FFF"/>
<path d="M9.75 1.5H9V2.25H9.75V1.5Z" fill="#804FFF"/>
<path d="M9 1.5H8.25V2.25H9V1.5Z" fill="#804FFF"/>
<path d="M8.25 1.5H7.5V2.25H8.25V1.5Z" fill="#804FFF"/>
<path d="M7.5 1.5H6.75V2.25H7.5V1.5Z" fill="#804FFF"/>
<path d="M6.75 1.5H6V2.25H6.75V1.5Z" fill="#804FFF"/>
<path d="M6 1.5H5.25V2.25H6V1.5Z" fill="#804FFF"/>
<path d="M5.25 1.5H4.5V2.25H5.25V1.5Z" fill="#804FFF"/>
<path d="M5.25 2.25H4.5V3H5.25V2.25Z" fill="#804FFF"/>
<path d="M6 2.25H5.25V3H6V2.25Z" fill="#804FFF"/>
<path d="M6.75 2.25H6V3H6.75V2.25Z" fill="#804FFF"/>
<path d="M7.5 2.25H6.75V3H7.5V2.25Z" fill="#804FFF"/>
<path d="M8.25 2.25H7.5V3H8.25V2.25Z" fill="#804FFF"/>
<path d="M9 2.25H8.25V3H9V2.25Z" fill="#804FFF"/>
<path d="M9.75 2.25H9V3H9.75V2.25Z" fill="#804FFF"/>
<path d="M10.5 2.25H9.75V3H10.5V2.25Z" fill="#804FFF"/>
<path d="M11.25 2.25H10.5V3H11.25V2.25Z" fill="#804FFF"/>
<path d="M12 2.25H11.25V3H12V2.25Z" fill="#804FFF"/>
<path d="M12.75 2.25H12V3H12.75V2.25Z" fill="#804FFF"/>
<path d="M13.5 2.25H12.75V3H13.5V2.25Z" fill="#804FFF"/>
<path d="M14.25 2.25H13.5V3H14.25V2.25Z" fill="#804FFF"/>
<path d="M15 2.25H14.25V3H15V2.25Z" fill="#804FFF"/>
<path d="M15.75 2.25H15V3H15.75V2.25Z" fill="#804FFF"/>
<path d="M16.5 2.25H15.75V3H16.5V2.25Z" fill="#804FFF"/>
<path d="M17.25 2.25H16.5V3H17.25V2.25Z" fill="#804FFF"/>
<path d="M18 2.25H17.25V3H18V2.25Z" fill="#804FFF"/>
<path d="M18.75 2.25H18V3H18.75V2.25Z" fill="#804FFF"/>
<path d="M19.5 2.25H18.75V3H19.5V2.25Z" fill="#804FFF"/>
<path d="M20.25 2.25H19.5V3H20.25V2.25Z" fill="#804FFF"/>
<path d="M21 2.25H20.25V3H21V2.25Z" fill="#804FFF"/>
<path d="M21.75 2.25H21V3H21.75V2.25Z" fill="#804FFF"/>
<path d="M22.5 2.25H21.75V3H22.5V2.25Z" fill="#804FFF"/>
<path d="M23.25 2.25H22.5V3H23.25V2.25Z" fill="#804FFF"/>
<path d="M23.25 3H22.5V3.75H23.25V3Z" fill="#804FFF"/>
<path d="M22.5 3H21.75V3.75H22.5V3Z" fill="#804FFF"/>
<path d="M21.75 3H21V3.75H21.75V3Z" fill="#804FFF"/>
<path d="M21 3H20.25V3.75H21V3Z" fill="#804FFF"/>
<path d="M20.25 3H19.5V3.75H20.25V3Z" fill="#804FFF"/>
<path d="M19.5 3H18.75V3.75H19.5V3Z" fill="#804FFF"/>
<path d="M18.75 3H18V3.75H18.75V3Z" fill="#804FFF"/>
<path d="M18 3H17.25V3.75H18V3Z" fill="#804FFF"/>
<path d="M17.25 3H16.5V3.75H17.25V3Z" fill="#804FFF"/>
<path d="M16.5 3H15.75V3.75H16.5V3Z" fill="#804FFF"/>
<path d="M15.75 3H15V3.75H15.75V3Z" fill="#804FFF"/>
<path d="M15 3H14.25V3.75H15V3Z" fill="#804FFF"/>
<path d="M14.25 3H13.5V3.75H14.25V3Z" fill="#804FFF"/>
<path d="M13.5 3H12.75V3.75H13.5V3Z" fill="#804FFF"/>
<path d="M12.75 3H12V3.75H12.75V3Z" fill="#804FFF"/>
<path d="M12 3H11.25V3.75H12V3Z" fill="#804FFF"/>
<path d="M11.25 3H10.5V3.75H11.25V3Z" fill="#804FFF"/>
<path d="M10.5 3H9.75V3.75H10.5V3Z" fill="#804FFF"/>
<path d="M9.75 3H9V3.75H9.75V3Z" fill="#804FFF"/>
<path d="M9 3H8.25V3.75H9V3Z" fill="#804FFF"/>
<path d="M8.25 3H7.5V3.75H8.25V3Z" fill="#804FFF"/>
<path d="M7.5 3H6.75V3.75H7.5V3Z" fill="#804FFF"/>
<path d="M6.75 3H6V3.75H6.75V3Z" fill="#804FFF"/>
<path d="M6 3H5.25V3.75H6V3Z" fill="#804FFF"/>
<path d="M5.25 3H4.5V3.75H5.25V3Z" fill="#804FFF"/>
<path d="M4.5 3H3.75V3.75H4.5V3Z" fill="#804FFF"/>
<path d="M4.5 3.75H3.75V4.5H4.5V3.75Z" fill="#804FFF"/>
<path d="M5.25 3.75H4.5V4.5H5.25V3.75Z" fill="#804FFF"/>
<path d="M6 3.75H5.25V4.5H6V3.75Z" fill="#804FFF"/>
<path d="M6.75 3.75H6V4.5H6.75V3.75Z" fill="#804FFF"/>
<path d="M7.5 3.75H6.75V4.5H7.5V3.75Z" fill="#804FFF"/>
<path d="M8.25 3.75H7.5V4.5H8.25V3.75Z" fill="#804FFF"/>
<path d="M9 3.75H8.25V4.5H9V3.75Z" fill="#804FFF"/>
<path d="M9.75 3.75H9V4.5H9.75V3.75Z" fill="#804FFF"/>
<path d="M10.5 3.75H9.75V4.5H10.5V3.75Z" fill="#804FFF"/>
<path d="M11.25 3.75H10.5V4.5H11.25V3.75Z" fill="#804FFF"/>
<path d="M12 3.75H11.25V4.5H12V3.75Z" fill="#804FFF"/>
<path d="M12.75 3.75H12V4.5H12.75V3.75Z" fill="#804FFF"/>
<path d="M13.5 3.75H12.75V4.5H13.5V3.75Z" fill="#804FFF"/>
<path d="M14.25 3.75H13.5V4.5H14.25V3.75Z" fill="#804FFF"/>
<path d="M15 3.75H14.25V4.5H15V3.75Z" fill="#804FFF"/>
<path d="M15.75 3.75H15V4.5H15.75V3.75Z" fill="#804FFF"/>
<path d="M16.5 3.75H15.75V4.5H16.5V3.75Z" fill="#804FFF"/>
<path d="M17.25 3.75H16.5V4.5H17.25V3.75Z" fill="#804FFF"/>
<path d="M18 3.75H17.25V4.5H18V3.75Z" fill="#804FFF"/>
<path d="M18.75 3.75H18V4.5H18.75V3.75Z" fill="#804FFF"/>
<path d="M19.5 3.75H18.75V4.5H19.5V3.75Z" fill="#804FFF"/>
<path d="M20.25 3.75H19.5V4.5H20.25V3.75Z" fill="#804FFF"/>
<path d="M21 3.75H20.25V4.5H21V3.75Z" fill="#804FFF"/>
<path d="M21.75 3.75H21V4.5H21.75V3.75Z" fill="#804FFF"/>
<path d="M22.5 3.75H21.75V4.5H22.5V3.75Z" fill="#804FFF"/>
<path d="M22.5 4.5H21.75V5.25H22.5V4.5Z" fill="#804FFF"/>
<path d="M21.75 4.5H21V5.25H21.75V4.5Z" fill="#804FFF"/>
<path d="M22.5 4.5H21.75V5.25H22.5V4.5Z" fill="#804FFF"/>
<path d="M22.5 3.75H21.75V4.5H22.5V3.75Z" fill="#804FFF"/>
<path d="M23.25 3.75H22.5V4.5H23.25V3.75Z" fill="#804FFF"/>
<path d="M23.25 4.5H22.5V5.25H23.25V4.5Z" fill="#804FFF"/>
<path d="M22.5 4.5H21.75V5.25H22.5V4.5Z" fill="#804FFF"/>
<path d="M21.75 4.5H21V5.25H21.75V4.5Z" fill="#804FFF"/>
<path d="M18.75 10.5H18V11.25H18.75V10.5Z" fill="#804FFF"/>
<path d="M19.5 10.5H18.75V11.25H19.5V10.5Z" fill="#804FFF"/>
<path d="M20.25 10.5H19.5V11.25H20.25V10.5Z" fill="#804FFF"/>
<path d="M21 10.5H20.25V11.25H21V10.5Z" fill="#804FFF"/>
<path d="M21.75 10.5H21V11.25H21.75V10.5Z" fill="#804FFF"/>
<path d="M22.5 10.5H21.75V11.25H22.5V10.5Z" fill="#804FFF"/>
<path d="M23.25 10.5H22.5V11.25H23.25V10.5Z" fill="#804FFF"/>
<path d="M23.25 11.25H22.5V12H23.25V11.25Z" fill="#804FFF"/>
<path d="M22.5 11.25H21.75V12H22.5V11.25Z" fill="#804FFF"/>
<path d="M21.75 11.25H21V12H21.75V11.25Z" fill="#804FFF"/>
<path d="M21 11.25H20.25V12H21V11.25Z" fill="#804FFF"/>
<path d="M20.25 11.25H19.5V12H20.25V11.25Z" fill="#804FFF"/>
<path d="M19.5 11.25H18.75V12H19.5V11.25Z" fill="#804FFF"/>
<path d="M18.75 11.25H18V12H18.75V11.25Z" fill="#804FFF"/>
<path d="M18.75 12H18V12.75H18.75V12Z" fill="#804FFF"/>
<path d="M19.5 12H18.75V12.75H19.5V12Z" fill="#804FFF"/>
<path d="M20.25 12H19.5V12.75H20.25V12Z" fill="#804FFF"/>
<path d="M21 12H20.25V12.75H21V12Z" fill="#804FFF"/>
<path d="M21.75 12H21V12.75H21.75V12Z" fill="#804FFF"/>
<path d="M22.5 12H21.75V12.75H22.5V12Z" fill="#804FFF"/>
<path d="M23.25 12H22.5V12.75H23.25V12Z" fill="#804FFF"/>
<path d="M23.25 12.75H22.5V13.5H23.25V12.75Z" fill="#804FFF"/>
<path d="M22.5 12.75H21.75V13.5H22.5V12.75Z" fill="#804FFF"/>
<path d="M21.75 12.75H21V13.5H21.75V12.75Z" fill="#804FFF"/>
<path d="M21 12.75H20.25V13.5H21V12.75Z" fill="#804FFF"/>
<path d="M20.25 12.75H19.5V13.5H20.25V12.75Z" fill="#804FFF"/>
<path d="M19.5 12.75H18.75V13.5H19.5V12.75Z" fill="#804FFF"/>
<path d="M18.75 12.75H18V13.5H18.75V12.75Z" fill="#804FFF"/>
<path d="M18 12.75H17.25V13.5H18V12.75Z" fill="#804FFF"/>
<path d="M17.25 12.75H16.5V13.5H17.25V12.75Z" fill="#804FFF"/>
<path d="M16.5 12.75H15.75V13.5H16.5V12.75Z" fill="#804FFF"/>
<path d="M15.75 12.75H15V13.5H15.75V12.75Z" fill="#804FFF"/>
<path d="M15 12.75H14.25V13.5H15V12.75Z" fill="#804FFF"/>
<path d="M14.25 12.75H13.5V13.5H14.25V12.75Z" fill="#804FFF"/>
<path d="M15 12.75H14.25V13.5H15V12.75Z" fill="#804FFF"/>
<path d="M15 13.5H14.25V14.25H15V13.5Z" fill="#804FFF"/>
<path d="M15.75 13.5H15V14.25H15.75V13.5Z" fill="#804FFF"/>
<path d="M16.5 13.5H15.75V14.25H16.5V13.5Z" fill="#804FFF"/>
<path d="M17.25 13.5H16.5V14.25H17.25V13.5Z" fill="#804FFF"/>
<path d="M18 13.5H17.25V14.25H18V13.5Z" fill="#804FFF"/>
<path d="M18.75 13.5H18V14.25H18.75V13.5Z" fill="#804FFF"/>
<path d="M19.5 13.5H18.75V14.25H19.5V13.5Z" fill="#804FFF"/>
<path d="M20.25 13.5H19.5V14.25H20.25V13.5Z" fill="#804FFF"/>
<path d="M21 13.5H20.25V14.25H21V13.5Z" fill="#804FFF"/>
<path d="M21.75 13.5H21V14.25H21.75V13.5Z" fill="#804FFF"/>
<path d="M22.5 13.5H21.75V14.25H22.5V13.5Z" fill="#804FFF"/>
<path d="M23.25 13.5H22.5V14.25H23.25V13.5Z" fill="#804FFF"/>
<path d="M23.25 14.25H22.5V15H23.25V14.25Z" fill="#804FFF"/>
<path d="M22.5 14.25H21.75V15H22.5V14.25Z" fill="#804FFF"/>
<path d="M21.75 14.25H21V15H21.75V14.25Z" fill="#804FFF"/>
<path d="M21 14.25H20.25V15H21V14.25Z" fill="#804FFF"/>
<path d="M20.25 14.25H19.5V15H20.25V14.25Z" fill="#804FFF"/>
<path d="M19.5 14.25H18.75V15H19.5V14.25Z" fill="#804FFF"/>
<path d="M18.75 14.25H18V15H18.75V14.25Z" fill="#804FFF"/>
<path d="M18 14.25H17.25V15H18V14.25Z" fill="#804FFF"/>
<path d="M17.25 14.25H16.5V15H17.25V14.25Z" fill="#804FFF"/>
<path d="M16.5 14.25H15.75V15H16.5V14.25Z" fill="#804FFF"/>
<path d="M15.75 14.25H15V15H15.75V14.25Z" fill="#804FFF"/>
<path d="M15 14.25H14.25V15H15V14.25Z" fill="#804FFF"/>
<path d="M15 15H14.25V15.75H15V15Z" fill="#804FFF"/>
<path d="M15.75 15H15V15.75H15.75V15Z" fill="#804FFF"/>
<path d="M16.5 15H15.75V15.75H16.5V15Z" fill="#804FFF"/>
<path d="M17.25 15H16.5V15.75H17.25V15Z" fill="#804FFF"/>
<path d="M18 15H17.25V15.75H18V15Z" fill="#804FFF"/>
<path d="M18.75 15H18V15.75H18.75V15Z" fill="#804FFF"/>
<path d="M19.5 15H18.75V15.75H19.5V15Z" fill="#804FFF"/>
<path d="M20.25 15H19.5V15.75H20.25V15Z" fill="#804FFF"/>
<path d="M21 15H20.25V15.75H21V15Z" fill="#804FFF"/>
<path d="M21.75 15H21V15.75H21.75V15Z" fill="#804FFF"/>
<path d="M22.5 15H21.75V15.75H22.5V15Z" fill="#804FFF"/>
<path d="M23.25 15H22.5V15.75H23.25V15Z" fill="#804FFF"/>
<path d="M23.25 15.75H22.5V16.5H23.25V15.75Z" fill="#804FFF"/>
<path d="M22.5 15.75H21.75V16.5H22.5V15.75Z" fill="#804FFF"/>
<path d="M21.75 15.75H21V16.5H21.75V15.75Z" fill="#804FFF"/>
<path d="M21 15.75H20.25V16.5H21V15.75Z" fill="#804FFF"/>
<path d="M20.25 15.75H19.5V16.5H20.25V15.75Z" fill="#804FFF"/>
<path d="M19.5 15.75H18.75V16.5H19.5V15.75Z" fill="#804FFF"/>
<path d="M18.75 15.75H18V16.5H18.75V15.75Z" fill="#804FFF"/>
<path d="M18 15.75H17.25V16.5H18V15.75Z" fill="#804FFF"/>
<path d="M17.25 15.75H16.5V16.5H17.25V15.75Z" fill="#804FFF"/>
<path d="M16.5 15.75H15.75V16.5H16.5V15.75Z" fill="#804FFF"/>
<path d="M15.75 15.75H15V16.5H15.75V15.75Z" fill="#804FFF"/>
<path d="M15 15.75H14.25V16.5H15V15.75Z" fill="#804FFF"/>
<path d="M15 16.5H14.25V17.25H15V16.5Z" fill="#804FFF"/>
<path d="M15.75 16.5H15V17.25H15.75V16.5Z" fill="#804FFF"/>
<path d="M16.5 16.5H15.75V17.25H16.5V16.5Z" fill="#804FFF"/>
<path d="M17.25 16.5H16.5V17.25H17.25V16.5Z" fill="#804FFF"/>
<path d="M18 16.5H17.25V17.25H18V16.5Z" fill="#804FFF"/>
<path d="M18.75 16.5H18V17.25H18.75V16.5Z" fill="#804FFF"/>
<path d="M19.5 16.5H18.75V17.25H19.5V16.5Z" fill="#804FFF"/>
<path d="M20.25 16.5H19.5V17.25H20.25V16.5Z" fill="#804FFF"/>
<path d="M21 16.5H20.25V17.25H21V16.5Z" fill="#804FFF"/>
<path d="M21.75 16.5H21V17.25H21.75V16.5Z" fill="#804FFF"/>
<path d="M22.5 16.5H21.75V17.25H22.5V16.5Z" fill="#804FFF"/>
<path d="M23.25 16.5H22.5V17.25H23.25V16.5Z" fill="#804FFF"/>
<path d="M23.25 17.25H22.5V18H23.25V17.25Z" fill="#804FFF"/>
<path d="M22.5 17.25H21.75V18H22.5V17.25Z" fill="#804FFF"/>
<path d="M21.75 17.25H21V18H21.75V17.25Z" fill="#804FFF"/>
<path d="M21 17.25H20.25V18H21V17.25Z" fill="#804FFF"/>
<path d="M20.25 17.25H19.5V18H20.25V17.25Z" fill="#804FFF"/>
<path d="M19.5 17.25H18.75V18H19.5V17.25Z" fill="#804FFF"/>
<path d="M18.75 17.25H18V18H18.75V17.25Z" fill="#804FFF"/>
<path d="M18 17.25H17.25V18H18V17.25Z" fill="#804FFF"/>
<path d="M17.25 17.25H16.5V18H17.25V17.25Z" fill="#804FFF"/>
<path d="M16.5 17.25H15.75V18H16.5V17.25Z" fill="#804FFF"/>
<path d="M15.75 17.25H15V18H15.75V17.25Z" fill="#804FFF"/>
<path d="M15.75 18H15V18.75H15.75V18Z" fill="#804FFF"/>
<path d="M16.5 18H15.75V18.75H16.5V18Z" fill="#804FFF"/>
<path d="M17.25 18H16.5V18.75H17.25V18Z" fill="#804FFF"/>
<path d="M18 18H17.25V18.75H18V18Z" fill="#804FFF"/>
<path d="M18.75 18H18V18.75H18.75V18Z" fill="#804FFF"/>
<path d="M19.5 18H18.75V18.75H19.5V18Z" fill="#804FFF"/>
<path d="M20.25 18H19.5V18.75H20.25V18Z" fill="#804FFF"/>
<path d="M21 18H20.25V18.75H21V18Z" fill="#804FFF"/>
<path d="M21.75 18H21V18.75H21.75V18Z" fill="#804FFF"/>
<path d="M22.5 18H21.75V18.75H22.5V18Z" fill="#804FFF"/>
<path d="M23.25 18H22.5V18.75H23.25V18Z" fill="#804FFF"/>
<path d="M24 18H23.25V18.75H24V18Z" fill="#804FFF"/>
<path d="M23.25 18H22.5V18.75H23.25V18Z" fill="#804FFF"/>
<path d="M23.25 18.75H22.5V19.5H23.25V18.75Z" fill="#804FFF"/>
<path d="M22.5 18.75H21.75V19.5H22.5V18.75Z" fill="#804FFF"/>
<path d="M21.75 18.75H21V19.5H21.75V18.75Z" fill="#804FFF"/>
<path d="M21 18.75H20.25V19.5H21V18.75Z" fill="#804FFF"/>
<path d="M20.25 18.75H19.5V19.5H20.25V18.75Z" fill="#804FFF"/>
<path d="M19.5 18.75H18.75V19.5H19.5V18.75Z" fill="#804FFF"/>
<path d="M18.75 18.75H18V19.5H18.75V18.75Z" fill="#804FFF"/>
<path d="M18 18.75H17.25V19.5H18V18.75Z" fill="#804FFF"/>
<path d="M17.25 18.75H16.5V19.5H17.25V18.75Z" fill="#804FFF"/>
<path d="M16.5 18.75H15.75V19.5H16.5V18.75Z" fill="#804FFF"/>
<path d="M16.5 19.5H15.75V20.25H16.5V19.5Z" fill="#804FFF"/>
<path d="M17.25 19.5H16.5V20.25H17.25V19.5Z" fill="#804FFF"/>
<path d="M18 19.5H17.25V20.25H18V19.5Z" fill="#804FFF"/>
<path d="M18.75 19.5H18V20.25H18.75V19.5Z" fill="#804FFF"/>
<path d="M19.5 19.5H18.75V20.25H19.5V19.5Z" fill="#804FFF"/>
<path d="M20.25 19.5H19.5V20.25H20.25V19.5Z" fill="#804FFF"/>
<path d="M21 19.5H20.25V20.25H21V19.5Z" fill="#804FFF"/>
<path d="M21.75 19.5H21V20.25H21.75V19.5Z" fill="#804FFF"/>
<path d="M18 12H17.25V12.75H18V12Z" fill="#804FFF"/>
<path d="M17.25 12H16.5V12.75H17.25V12Z" fill="#804FFF"/>
<path d="M16.5 12H15.75V12.75H16.5V12Z" fill="#804FFF"/>
<path d="M15.75 12H15V12.75H15.75V12Z" fill="#804FFF"/>
<path d="M15 12H14.25V12.75H15V12Z" fill="#804FFF"/>
<path d="M14.25 12H13.5V12.75H14.25V12Z" fill="#804FFF"/>
<path d="M13.5 12H12.75V12.75H13.5V12Z" fill="#804FFF"/>
<path d="M12.75 12H12V12.75H12.75V12Z" fill="#804FFF"/>
<path d="M12 11.25H11.25V12H12V11.25Z" fill="#804FFF"/>
<path d="M21 4.5H20.25V5.25H21V4.5Z" fill="#804FFF"/>
<path d="M20.25 4.5H19.5V5.25H20.25V4.5Z" fill="#804FFF"/>
<path d="M19.5 4.5H18.75V5.25H19.5V4.5Z" fill="#804FFF"/>
<path d="M18.75 4.5H18V5.25H18.75V4.5Z" fill="#804FFF"/>
<path d="M18 4.5H17.25V5.25H18V4.5Z" fill="#804FFF"/>
<path d="M17.25 4.5H16.5V5.25H17.25V4.5Z" fill="#804FFF"/>
<path d="M16.5 4.5H15.75V5.25H16.5V4.5Z" fill="#804FFF"/>
<path d="M15.75 4.5H15V5.25H15.75V4.5Z" fill="#804FFF"/>
<path d="M15 4.5H14.25V5.25H15V4.5Z" fill="#804FFF"/>
<path d="M15 5.25H14.25V6H15V5.25Z" fill="#804FFF"/>
<path d="M15 6H14.25V6.75H15V6Z" fill="#804FFF"/>
<path d="M15 6.75H14.25V7.5H15V6.75Z" fill="#804FFF"/>
<path d="M15 7.5H14.25V8.25H15V7.5Z" fill="#804FFF"/>
<path d="M15 8.25H14.25V9H15V8.25Z" fill="#804FFF"/>
<path d="M15 9H14.25V9.75H15V9Z" fill="#804FFF"/>
<path d="M15.75 9H15V9.75H15.75V9Z" fill="#804FFF"/>
<path d="M16.5 9H15.75V9.75H16.5V9Z" fill="#804FFF"/>
<path d="M17.25 9H16.5V9.75H17.25V9Z" fill="#804FFF"/>
<path d="M18 9H17.25V9.75H18V9Z" fill="#804FFF"/>
<path d="M18.75 9H18V9.75H18.75V9Z" fill="#804FFF"/>
<path d="M19.5 9H18.75V9.75H19.5V9Z" fill="#804FFF"/>
<path d="M19.5 9.75H18.75V10.5H19.5V9.75Z" fill="#804FFF"/>
<path d="M20.25 9.75H19.5V10.5H20.25V9.75Z" fill="#804FFF"/>
<path d="M21 9.75H20.25V10.5H21V9.75Z" fill="#804FFF"/>
<path d="M21.75 9.75H21V10.5H21.75V9.75Z" fill="#804FFF"/>
<path d="M22.5 9.75H21.75V10.5H22.5V9.75Z" fill="#804FFF"/>
<path d="M23.25 9.75H22.5V10.5H23.25V9.75Z" fill="#804FFF"/>
<path d="M23.25 9H22.5V9.75H23.25V9Z" fill="#804FFF"/>
<path d="M23.25 8.25H22.5V9H23.25V8.25Z" fill="#804FFF"/>
<path d="M23.25 7.5H22.5V8.25H23.25V7.5Z" fill="#804FFF"/>
<path d="M23.25 6.75H22.5V7.5H23.25V6.75Z" fill="#804FFF"/>
<path d="M23.25 6H22.5V6.75H23.25V6Z" fill="#804FFF"/>
<path d="M23.25 5.25H22.5V6H23.25V5.25Z" fill="#804FFF"/>
<path d="M22.5 5.25H21.75V6H22.5V5.25Z" fill="#804FFF"/>
<path d="M21.75 5.25H21V6H21.75V5.25Z" fill="#804FFF"/>
<path d="M21 5.25H20.25V6H21V5.25Z" fill="#804FFF"/>
<path d="M20.25 5.25H19.5V6H20.25V5.25Z" fill="#804FFF"/>
<path d="M19.5 5.25H18.75V6H19.5V5.25Z" fill="#804FFF"/>
<path d="M18.75 5.25H18V6H18.75V5.25Z" fill="#804FFF"/>
<path d="M18 5.25H17.25V6H18V5.25Z" fill="#804FFF"/>
<path d="M17.25 5.25H16.5V6H17.25V5.25Z" fill="#804FFF"/>
<path d="M16.5 5.25H15.75V6H16.5V5.25Z" fill="#804FFF"/>
<path d="M15.75 5.25H15V6H15.75V5.25Z" fill="#804FFF"/>
<path d="M15.75 6H15V6.75H15.75V6Z" fill="#804FFF"/>
<path d="M15.75 6.75H15V7.5H15.75V6.75Z" fill="#804FFF"/>
<path d="M15.75 6H15V6.75H15.75V6Z" fill="#804FFF"/>
<path d="M16.5 6H15.75V6.75H16.5V6Z" fill="#804FFF"/>
<path d="M17.25 6H16.5V6.75H17.25V6Z" fill="#804FFF"/>
<path d="M18 6H17.25V6.75H18V6Z" fill="#804FFF"/>
<path d="M18.75 6H18V6.75H18.75V6Z" fill="#804FFF"/>
<path d="M19.5 6H18.75V6.75H19.5V6Z" fill="#804FFF"/>
<path d="M20.25 6H19.5V6.75H20.25V6Z" fill="#804FFF"/>
<path d="M21 6H20.25V6.75H21V6Z" fill="#804FFF"/>
<path d="M21.75 6H21V6.75H21.75V6Z" fill="#804FFF"/>
<path d="M22.5 6H21.75V6.75H22.5V6Z" fill="#804FFF"/>
<path d="M22.5 6.75H21.75V7.5H22.5V6.75Z" fill="#804FFF"/>
<path d="M21.75 6.75H21V7.5H21.75V6.75Z" fill="#804FFF"/>
<path d="M21 6.75H20.25V7.5H21V6.75Z" fill="#804FFF"/>
<path d="M20.25 6.75H19.5V7.5H20.25V6.75Z" fill="#804FFF"/>
<path d="M19.5 6.75H18.75V7.5H19.5V6.75Z" fill="#804FFF"/>
<path d="M18.75 6.75H18V7.5H18.75V6.75Z" fill="#804FFF"/>
<path d="M18 6.75H17.25V7.5H18V6.75Z" fill="#804FFF"/>
<path d="M17.25 6.75H16.5V7.5H17.25V6.75Z" fill="#804FFF"/>
<path d="M16.5 6.75H15.75V7.5H16.5V6.75Z" fill="#804FFF"/>
<path d="M15.75 6.75H15V7.5H15.75V6.75Z" fill="#804FFF"/>
<path d="M15.75 7.5H15V8.25H15.75V7.5Z" fill="#804FFF"/>
<path d="M16.5 7.5H15.75V8.25H16.5V7.5Z" fill="#804FFF"/>
<path d="M17.25 7.5H16.5V8.25H17.25V7.5Z" fill="#804FFF"/>
<path d="M18 7.5H17.25V8.25H18V7.5Z" fill="#804FFF"/>
<path d="M18.75 7.5H18V8.25H18.75V7.5Z" fill="#804FFF"/>
<path d="M19.5 7.5H18.75V8.25H19.5V7.5Z" fill="#804FFF"/>
<path d="M20.25 7.5H19.5V8.25H20.25V7.5Z" fill="#804FFF"/>
<path d="M21 7.5H20.25V8.25H21V7.5Z" fill="#804FFF"/>
<path d="M21.75 7.5H21V8.25H21.75V7.5Z" fill="#804FFF"/>
<path d="M22.5 7.5H21.75V8.25H22.5V7.5Z" fill="#804FFF"/>
<path d="M22.5 8.25H21.75V9H22.5V8.25Z" fill="#804FFF"/>
<path d="M22.5 9H21.75V9.75H22.5V9Z" fill="#804FFF"/>
<path d="M21.75 9H21V9.75H21.75V9Z" fill="#804FFF"/>
<path d="M21 9H20.25V9.75H21V9Z" fill="#804FFF"/>
<path d="M20.25 9H19.5V9.75H20.25V9Z" fill="#804FFF"/>
<path d="M20.25 8.25H19.5V9H20.25V8.25Z" fill="#804FFF"/>
<path d="M21 8.25H20.25V9H21V8.25Z" fill="#804FFF"/>
<path d="M21.75 8.25H21V9H21.75V8.25Z" fill="#804FFF"/>
<path d="M22.5 8.25H21.75V9H22.5V8.25Z" fill="#804FFF"/>
<path d="M21.75 8.25H21V9H21.75V8.25Z" fill="#804FFF"/>
<path d="M21 8.25H20.25V9H21V8.25Z" fill="#804FFF"/>
<path d="M20.25 8.25H19.5V9H20.25V8.25Z" fill="#804FFF"/>
<path d="M19.5 8.25H18.75V9H19.5V8.25Z" fill="#804FFF"/>
<path d="M18.75 8.25H18V9H18.75V8.25Z" fill="#804FFF"/>
<path d="M18 8.25H17.25V9H18V8.25Z" fill="#804FFF"/>
<path d="M17.25 8.25H16.5V9H17.25V8.25Z" fill="#804FFF"/>
<path d="M16.5 8.25H15.75V9H16.5V8.25Z" fill="#804FFF"/>
<path d="M15.75 8.25H15V9H15.75V8.25Z" fill="#804FFF"/>
<path d="M14.25 4.5H13.5V5.25H14.25V4.5Z" fill="#804FFF"/>
<path d="M13.5 4.5H12.75V5.25H13.5V4.5Z" fill="#804FFF"/>
<path d="M12.75 4.5H12V5.25H12.75V4.5Z" fill="#804FFF"/>
<path d="M12 4.5H11.25V5.25H12V4.5Z" fill="#804FFF"/>
<path d="M11.25 4.5H10.5V5.25H11.25V4.5Z" fill="#804FFF"/>
<path d="M10.5 4.5H9.75V5.25H10.5V4.5Z" fill="#804FFF"/>
<path d="M9.75 4.5H9V5.25H9.75V4.5Z" fill="#804FFF"/>
<path d="M9 4.5H8.25V5.25H9V4.5Z" fill="#804FFF"/>
<path d="M8.25 4.5H7.5V5.25H8.25V4.5Z" fill="#804FFF"/>
<path d="M7.5 4.5H6.75V5.25H7.5V4.5Z" fill="#804FFF"/>
<path d="M6.75 4.5H6V5.25H6.75V4.5Z" fill="#804FFF"/>
<path d="M6 4.5H5.25V5.25H6V4.5Z" fill="#804FFF"/>
<path d="M5.25 4.5H4.5V5.25H5.25V4.5Z" fill="#804FFF"/>
<path d="M4.5 4.5H3.75V5.25H4.5V4.5Z" fill="#804FFF"/>
<path d="M4.5 5.25H3.75V6H4.5V5.25Z" fill="#804FFF"/>
<path d="M5.25 5.25H4.5V6H5.25V5.25Z" fill="#804FFF"/>
<path d="M6 5.25H5.25V6H6V5.25Z" fill="#804FFF"/>
<path d="M6.75 5.25H6V6H6.75V5.25Z" fill="#804FFF"/>
<path d="M7.5 5.25H6.75V6H7.5V5.25Z" fill="#804FFF"/>
<path d="M8.25 5.25H7.5V6H8.25V5.25Z" fill="#804FFF"/>
<path d="M9 5.25H8.25V6H9V5.25Z" fill="#804FFF"/>
<path d="M9.75 5.25H9V6H9.75V5.25Z" fill="#804FFF"/>
<path d="M10.5 5.25H9.75V6H10.5V5.25Z" fill="#804FFF"/>
<path d="M11.25 5.25H10.5V6H11.25V5.25Z" fill="#804FFF"/>
<path d="M12 5.25H11.25V6H12V5.25Z" fill="#804FFF"/>
<path d="M12.75 5.25H12V6H12.75V5.25Z" fill="#804FFF"/>
<path d="M12.75 6H12V6.75H12.75V6Z" fill="#804FFF"/>
<path d="M12.75 6.75H12V7.5H12.75V6.75Z" fill="#804FFF"/>
<path d="M12.75 7.5H12V8.25H12.75V7.5Z" fill="#804FFF"/>
<path d="M12.75 8.25H12V9H12.75V8.25Z" fill="#804FFF"/>
<path d="M12.75 9H12V9.75H12.75V9Z" fill="#804FFF"/>
<path d="M12.75 9.75H12V10.5H12.75V9.75Z" fill="#804FFF"/>
<path d="M12.75 10.5H12V11.25H12.75V10.5Z" fill="#804FFF"/>
<path d="M12.75 11.25H12V12H12.75V11.25Z" fill="#804FFF"/>
<path d="M13.5 11.25H12.75V12H13.5V11.25Z" fill="#804FFF"/>
<path d="M14.25 11.25H13.5V12H14.25V11.25Z" fill="#804FFF"/>
<path d="M15 11.25H14.25V12H15V11.25Z" fill="#804FFF"/>
<path d="M15.75 11.25H15V12H15.75V11.25Z" fill="#804FFF"/>
<path d="M16.5 11.25H15.75V12H16.5V11.25Z" fill="#804FFF"/>
<path d="M17.25 11.25H16.5V12H17.25V11.25Z" fill="#804FFF"/>
<path d="M18 11.25H17.25V12H18V11.25Z" fill="#804FFF"/>
<path d="M12 6H11.25V6.75H12V6Z" fill="#804FFF"/>
<path d="M12 6.75H11.25V7.5H12V6.75Z" fill="#804FFF"/>
<path d="M12 7.5H11.25V8.25H12V7.5Z" fill="#804FFF"/>
<path d="M12 8.25H11.25V9H12V8.25Z" fill="#804FFF"/>
<path d="M12 9H11.25V9.75H12V9Z" fill="#804FFF"/>
<path d="M12 9.75H11.25V10.5H12V9.75Z" fill="#804FFF"/>
<path d="M12 10.5H11.25V11.25H12V10.5Z" fill="#804FFF"/>
<path d="M11.25 10.5H10.5V11.25H11.25V10.5Z" fill="#804FFF"/>
<path d="M10.5 10.5H9.75V11.25H10.5V10.5Z" fill="#804FFF"/>
<path d="M9.75 10.5H9V11.25H9.75V10.5Z" fill="#804FFF"/>
<path d="M9 10.5H8.25V11.25H9V10.5Z" fill="#804FFF"/>
<path d="M9 11.25H8.25V12H9V11.25Z" fill="#804FFF"/>
<path d="M9 10.5H8.25V11.25H9V10.5Z" fill="#804FFF"/>
<path d="M8.25 10.5H7.5V11.25H8.25V10.5Z" fill="#804FFF"/>
<path d="M8.25 9.75H7.5V10.5H8.25V9.75Z" fill="#804FFF"/>
<path d="M7.5 9.75H6.75V10.5H7.5V9.75Z" fill="#804FFF"/>
<path d="M6.75 9.75H6V10.5H6.75V9.75Z" fill="#804FFF"/>
<path d="M6 9.75H5.25V10.5H6V9.75Z" fill="#804FFF"/>
<path d="M6 9H5.25V9.75H6V9Z" fill="#804FFF"/>
<path d="M5.25 9H4.5V9.75H5.25V9Z" fill="#804FFF"/>
<path d="M4.5 9H3.75V9.75H4.5V9Z" fill="#804FFF"/>
<path d="M4.5 8.25H3.75V9H4.5V8.25Z" fill="#804FFF"/>
<path d="M4.5 7.5H3.75V8.25H4.5V7.5Z" fill="#804FFF"/>
<path d="M4.5 6.75H3.75V7.5H4.5V6.75Z" fill="#804FFF"/>
<path d="M4.5 6H3.75V6.75H4.5V6Z" fill="#804FFF"/>
<path d="M5.25 6H4.5V6.75H5.25V6Z" fill="#804FFF"/>
<path d="M6 6H5.25V6.75H6V6Z" fill="#804FFF"/>
<path d="M6.75 6H6V6.75H6.75V6Z" fill="#804FFF"/>
<path d="M7.5 6H6.75V6.75H7.5V6Z" fill="#804FFF"/>
<path d="M8.25 6H7.5V6.75H8.25V6Z" fill="#804FFF"/>
<path d="M9 6H8.25V6.75H9V6Z" fill="#804FFF"/>
<path d="M9.75 6H9V6.75H9.75V6Z" fill="#804FFF"/>
<path d="M10.5 6H9.75V6.75H10.5V6Z" fill="#804FFF"/>
<path d="M11.25 6H10.5V6.75H11.25V6Z" fill="#804FFF"/>
<path d="M11.25 6.75H10.5V7.5H11.25V6.75Z" fill="#804FFF"/>
<path d="M11.25 7.5H10.5V8.25H11.25V7.5Z" fill="#804FFF"/>
<path d="M11.25 8.25H10.5V9H11.25V8.25Z" fill="#804FFF"/>
<path d="M11.25 9H10.5V9.75H11.25V9Z" fill="#804FFF"/>
<path d="M11.25 9.75H10.5V10.5H11.25V9.75Z" fill="#804FFF"/>
<path d="M10.5 9.75H9.75V10.5H10.5V9.75Z" fill="#804FFF"/>
<path d="M10.5 9H9.75V9.75H10.5V9Z" fill="#804FFF"/>
<path d="M10.5 8.25H9.75V9H10.5V8.25Z" fill="#804FFF"/>
<path d="M10.5 7.5H9.75V8.25H10.5V7.5Z" fill="#804FFF"/>
<path d="M10.5 6.75H9.75V7.5H10.5V6.75Z" fill="#804FFF"/>
<path d="M9.75 6.75H9V7.5H9.75V6.75Z" fill="#804FFF"/>
<path d="M9 6.75H8.25V7.5H9V6.75Z" fill="#804FFF"/>
<path d="M8.25 6.75H7.5V7.5H8.25V6.75Z" fill="#804FFF"/>
<path d="M7.5 6.75H6.75V7.5H7.5V6.75Z" fill="#804FFF"/>
<path d="M6.75 6.75H6V7.5H6.75V6.75Z" fill="#804FFF"/>
<path d="M6 6.75H5.25V7.5H6V6.75Z" fill="#804FFF"/>
<path d="M5.25 6.75H4.5V7.5H5.25V6.75Z" fill="#804FFF"/>
<path d="M5.25 7.5H4.5V8.25H5.25V7.5Z" fill="#804FFF"/>
<path d="M6 7.5H5.25V8.25H6V7.5Z" fill="#804FFF"/>
<path d="M6.75 7.5H6V8.25H6.75V7.5Z" fill="#804FFF"/>
<path d="M7.5 7.5H6.75V8.25H7.5V7.5Z" fill="#804FFF"/>
<path d="M8.25 7.5H7.5V8.25H8.25V7.5Z" fill="#804FFF"/>
<path d="M9 7.5H8.25V8.25H9V7.5Z" fill="#804FFF"/>
<path d="M9 8.25H8.25V9H9V8.25Z" fill="#804FFF"/>
<path d="M8.25 8.25H7.5V9H8.25V8.25Z" fill="#804FFF"/>
<path d="M9 8.25H8.25V9H9V8.25Z" fill="#804FFF"/>
<path d="M9 7.5H8.25V8.25H9V7.5Z" fill="#804FFF"/>
<path d="M9.75 7.5H9V8.25H9.75V7.5Z" fill="#804FFF"/>
<path d="M9.75 8.25H9V9H9.75V8.25Z" fill="#804FFF"/>
<path d="M9.75 9H9V9.75H9.75V9Z" fill="#804FFF"/>
<path d="M9.75 9.75H9V10.5H9.75V9.75Z" fill="#804FFF"/>
<path d="M9 9.75H8.25V10.5H9V9.75Z" fill="#804FFF"/>
<path d="M9 9H8.25V9.75H9V9Z" fill="#804FFF"/>
<path d="M8.25 9H7.5V9.75H8.25V9Z" fill="#804FFF"/>
<path d="M7.5 9H6.75V9.75H7.5V9Z" fill="#804FFF"/>
<path d="M6.75 9H6V9.75H6.75V9Z" fill="#804FFF"/>
<path d="M6.75 8.25H6V9H6.75V8.25Z" fill="#804FFF"/>
<path d="M7.5 8.25H6.75V9H7.5V8.25Z" fill="#804FFF"/>
<path d="M6.75 8.25H6V9H6.75V8.25Z" fill="#804FFF"/>
<path d="M6 8.25H5.25V9H6V8.25Z" fill="#804FFF"/>
<path d="M5.25 8.25H4.5V9H5.25V8.25Z" fill="#804FFF"/>
<path d="M14.25 4.5V9.75H18.75V11.25H12.75V4.5H14.25Z" fill="white"/>
</svg>
