<svg width="20" height="20" viewBox="0 0 20 20" fill="none" xmlns="http://www.w3.org/2000/svg">
<g clip-path="url(#clip0_485_77872)">
<path d="M2.5 1.25H1.25V2.5H2.5V1.25Z" fill="#804FFF"/>
<path d="M3.75 1.25H2.5V2.5H3.75V1.25Z" fill="#804FFF"/>
<path d="M3.75 2.5H2.5V3.75H3.75V2.5Z" fill="#804FFF"/>
<path d="M2.5 2.5H1.25V3.75H2.5V2.5Z" fill="#804FFF"/>
<path d="M1.25 2.5H0V3.75H1.25V2.5Z" fill="#804FFF"/>
<path d="M1.25 3.75H0V5H1.25V3.75Z" fill="#804FFF"/>
<path d="M2.5 3.75H1.25V5H2.5V3.75Z" fill="#804FFF"/>
<path d="M3.75 3.75H2.5V5H3.75V3.75Z" fill="#804FFF"/>
<path d="M5 3.75H3.75V5H5V3.75Z" fill="#804FFF"/>
<path d="M6.25 3.75H5V5H6.25V3.75Z" fill="#804FFF"/>
<path d="M6.25 2.5H5V3.75H6.25V2.5Z" fill="#804FFF"/>
<path d="M6.25 1.25H5V2.5H6.25V1.25Z" fill="#804FFF"/>
<path d="M7.5 1.25H6.25V2.5H7.5V1.25Z" fill="#804FFF"/>
<path d="M8.75 1.25H7.5V2.5H8.75V1.25Z" fill="#804FFF"/>
<path d="M8.75 2.5H7.5V3.75H8.75V2.5Z" fill="#804FFF"/>
<path d="M7.5 2.5H6.25V3.75H7.5V2.5Z" fill="#804FFF"/>
<path d="M7.5 3.75H6.25V5H7.5V3.75Z" fill="#804FFF"/>
<path d="M8.75 3.75H7.5V5H8.75V3.75Z" fill="#804FFF"/>
<path d="M10 3.75H8.75V5H10V3.75Z" fill="#804FFF"/>
<path d="M11.25 3.75H10V5H11.25V3.75Z" fill="#804FFF"/>
<path d="M12.5 3.75H11.25V5H12.5V3.75Z" fill="#804FFF"/>
<path d="M12.5 2.5H11.25V3.75H12.5V2.5Z" fill="#804FFF"/>
<path d="M12.5 1.25H11.25V2.5H12.5V1.25Z" fill="#804FFF"/>
<path d="M13.75 1.25H12.5V2.5H13.75V1.25Z" fill="#804FFF"/>
<path d="M15 1.25H13.75V2.5H15V1.25Z" fill="#804FFF"/>
<path d="M15 2.5H13.75V3.75H15V2.5Z" fill="#804FFF"/>
<path d="M13.75 2.5H12.5V3.75H13.75V2.5Z" fill="#804FFF"/>
<path d="M13.75 3.75H12.5V5H13.75V3.75Z" fill="#804FFF"/>
<path d="M15 3.75H13.75V5H15V3.75Z" fill="#804FFF"/>
<path d="M16.25 3.75H15V5H16.25V3.75Z" fill="#804FFF"/>
<path d="M17.5 3.75H16.25V5H17.5V3.75Z" fill="#804FFF"/>
<path d="M18.75 3.75H17.5V5H18.75V3.75Z" fill="#804FFF"/>
<path d="M18.75 2.5H17.5V3.75H18.75V2.5Z" fill="#804FFF"/>
<path d="M18.75 1.25H17.5V2.5H18.75V1.25Z" fill="#804FFF"/>
<path d="M17.5 1.25H16.25V2.5H17.5V1.25Z" fill="#804FFF"/>
<path d="M17.5 2.5H16.25V3.75H17.5V2.5Z" fill="#804FFF"/>
<path d="M20 2.5H18.75V3.75H20V2.5Z" fill="#804FFF"/>
<path d="M20 3.75H18.75V5H20V3.75Z" fill="#804FFF"/>
<path d="M20 5H18.75V6.25H20V5Z" fill="#804FFF"/>
<path d="M18.75 5H17.5V6.25H18.75V5Z" fill="#804FFF"/>
<path d="M17.5 5H16.25V6.25H17.5V5Z" fill="#804FFF"/>
<path d="M16.25 5H15V6.25H16.25V5Z" fill="#804FFF"/>
<path d="M15 5H13.75V6.25H15V5Z" fill="#804FFF"/>
<path d="M13.75 5H12.5V6.25H13.75V5Z" fill="#804FFF"/>
<path d="M12.5 5H11.25V6.25H12.5V5Z" fill="#804FFF"/>
<path d="M11.25 5H10V6.25H11.25V5Z" fill="#804FFF"/>
<path d="M10 5H8.75V6.25H10V5Z" fill="#804FFF"/>
<path d="M8.75 5H7.5V6.25H8.75V5Z" fill="#804FFF"/>
<path d="M7.5 5H6.25V6.25H7.5V5Z" fill="#804FFF"/>
<path d="M6.25 5H5V6.25H6.25V5Z" fill="#804FFF"/>
<path d="M5 5H3.75V6.25H5V5Z" fill="#804FFF"/>
<path d="M3.75 5H2.5V6.25H3.75V5Z" fill="#804FFF"/>
<path d="M2.5 5H1.25V6.25H2.5V5Z" fill="#804FFF"/>
<path d="M1.25 5H0V6.25H1.25V5Z" fill="#804FFF"/>
<path d="M1.25 6.25H0V7.5H1.25V6.25Z" fill="#804FFF"/>
<path d="M1.25 7.5H0V8.75H1.25V7.5Z" fill="#EDEDED"/>
<path d="M1.25 8.75H0V10H1.25V8.75Z" fill="#EDEDED"/>
<path d="M2.5 8.75H1.25V10H2.5V8.75Z" fill="#EDEDED"/>
<path d="M3.75 8.75H2.5V10H3.75V8.75Z" fill="#EDEDED"/>
<path d="M5 8.75H3.75V10H5V8.75Z" fill="#EDEDED"/>
<path d="M6.25 8.75H5V10H6.25V8.75Z" fill="#EDEDED"/>
<path d="M7.5 8.75H6.25V10H7.5V8.75Z" fill="#EDEDED"/>
<path d="M8.75 8.75H7.5V10H8.75V8.75Z" fill="#EDEDED"/>
<path d="M10 8.75H8.75V10H10V8.75Z" fill="#EDEDED"/>
<path d="M11.25 8.75H10V10H11.25V8.75Z" fill="#EDEDED"/>
<path d="M12.5 8.75H11.25V10H12.5V8.75Z" fill="#EDEDED"/>
<path d="M13.75 8.75H12.5V10H13.75V8.75Z" fill="#EDEDED"/>
<path d="M15 8.75H13.75V10H15V8.75Z" fill="#EDEDED"/>
<path d="M16.25 8.75H15V10H16.25V8.75Z" fill="#EDEDED"/>
<path d="M17.5 8.75H16.25V10H17.5V8.75Z" fill="#EDEDED"/>
<path d="M18.75 8.75H17.5V10H18.75V8.75Z" fill="#EDEDED"/>
<path d="M20 8.75H18.75V10H20V8.75Z" fill="#EDEDED"/>
<path d="M20 10H18.75V11.25H20V10Z" fill="#EDEDED"/>
<path d="M18.75 10H17.5V11.25H18.75V10Z" fill="#EDEDED"/>
<path d="M17.5 10H16.25V11.25H17.5V10Z" fill="#EDEDED"/>
<path d="M16.25 10H15V11.25H16.25V10Z" fill="#EDEDED"/>
<path d="M15 10H13.75V11.25H15V10Z" fill="#EDEDED"/>
<path d="M15 11.25H13.75V12.5H15V11.25Z" fill="#EDEDED"/>
<path d="M16.25 11.25H15V12.5H16.25V11.25Z" fill="#EDEDED"/>
<path d="M17.5 11.25H16.25V12.5H17.5V11.25Z" fill="#EDEDED"/>
<path d="M18.75 11.25H17.5V12.5H18.75V11.25Z" fill="#EDEDED"/>
<path d="M20 11.25H18.75V12.5H20V11.25Z" fill="#EDEDED"/>
<path d="M20 12.5H18.75V13.75H20V12.5Z" fill="#EDEDED"/>
<path d="M18.75 12.5H17.5V13.75H18.75V12.5Z" fill="#EDEDED"/>
<path d="M17.5 12.5H16.25V13.75H17.5V12.5Z" fill="#EDEDED"/>
<path d="M16.25 12.5H15V13.75H16.25V12.5Z" fill="#EDEDED"/>
<path d="M15 12.5H13.75V13.75H15V12.5Z" fill="#EDEDED"/>
<path d="M15 13.75H13.75V15H15V13.75Z" fill="#EDEDED"/>
<path d="M15 15H13.75V16.25H15V15Z" fill="#EDEDED"/>
<path d="M16.25 15H15V16.25H16.25V15Z" fill="#EDEDED"/>
<path d="M17.5 15H16.25V16.25H17.5V15Z" fill="#EDEDED"/>
<path d="M18.75 15H17.5V16.25H18.75V15Z" fill="#EDEDED"/>
<path d="M20 15H18.75V16.25H20V15Z" fill="#EDEDED"/>
<path d="M20 13.75H18.75V15H20V13.75Z" fill="#EDEDED"/>
<path d="M18.75 13.75H17.5V15H18.75V13.75Z" fill="#EDEDED"/>
<path d="M17.5 13.75H16.25V15H17.5V13.75Z" fill="#EDEDED"/>
<path d="M16.25 13.75H15V15H16.25V13.75Z" fill="#EDEDED"/>
<path d="M16.25 12.5H15V13.75H16.25V12.5Z" fill="#EDEDED"/>
<path d="M17.5 12.5H16.25V13.75H17.5V12.5Z" fill="#EDEDED"/>
<path d="M18.75 12.5H17.5V13.75H18.75V12.5Z" fill="#EDEDED"/>
<path d="M20 12.5H18.75V13.75H20V12.5Z" fill="#EDEDED"/>
<path d="M20 13.75H18.75V15H20V13.75Z" fill="#EDEDED"/>
<path d="M20 15H18.75V16.25H20V15Z" fill="#EDEDED"/>
<path d="M20 16.25H18.75V17.5H20V16.25Z" fill="#EDEDED"/>
<path d="M18.75 16.25H17.5V17.5H18.75V16.25Z" fill="#EDEDED"/>
<path d="M17.5 16.25H16.25V17.5H17.5V16.25Z" fill="#EDEDED"/>
<path d="M16.25 16.25H15V17.5H16.25V16.25Z" fill="#EDEDED"/>
<path d="M16.25 17.5H15V18.75H16.25V17.5Z" fill="#EDEDED"/>
<path d="M16.25 18.75H15V20H16.25V18.75Z" fill="#EDEDED"/>
<path d="M17.5 18.75H16.25V20H17.5V18.75Z" fill="#EDEDED"/>
<path d="M18.75 18.75H17.5V20H18.75V18.75Z" fill="#EDEDED"/>
<path d="M20 17.5H18.75V18.75H20V17.5Z" fill="#EDEDED"/>
<path d="M18.75 17.5H17.5V18.75H18.75V17.5Z" fill="#EDEDED"/>
<path d="M17.5 17.5H16.25V18.75H17.5V17.5Z" fill="#EDEDED"/>
<path d="M16.25 17.5H15V18.75H16.25V17.5Z" fill="#EDEDED"/>
<path d="M15 17.5H13.75V18.75H15V17.5Z" fill="#EDEDED"/>
<path d="M13.75 17.5H12.5V18.75H13.75V17.5Z" fill="#EDEDED"/>
<path d="M12.5 17.5H11.25V18.75H12.5V17.5Z" fill="#EDEDED"/>
<path d="M12.5 18.75H11.25V20H12.5V18.75Z" fill="#EDEDED"/>
<path d="M13.75 18.75H12.5V20H13.75V18.75Z" fill="#EDEDED"/>
<path d="M15 18.75H13.75V20H15V18.75Z" fill="#EDEDED"/>
<path d="M15 17.5H13.75V18.75H15V17.5Z" fill="#EDEDED"/>
<path d="M13.75 17.5H12.5V18.75H13.75V17.5Z" fill="#EDEDED"/>
<path d="M12.5 17.5H11.25V18.75H12.5V17.5Z" fill="#EDEDED"/>
<path d="M11.25 17.5H10V18.75H11.25V17.5Z" fill="#EDEDED"/>
<path d="M10 17.5H8.75V18.75H10V17.5Z" fill="#EDEDED"/>
<path d="M10 16.25H8.75V17.5H10V16.25Z" fill="#EDEDED"/>
<path d="M11.25 16.25H10V17.5H11.25V16.25Z" fill="#EDEDED"/>
<path d="M12.5 16.25H11.25V17.5H12.5V16.25Z" fill="#EDEDED"/>
<path d="M11.25 15H10V16.25H11.25V15Z" fill="#EDEDED"/>
<path d="M12.5 15H11.25V16.25H12.5V15Z" fill="#EDEDED"/>
<path d="M13.75 15H12.5V16.25H13.75V15Z" fill="#EDEDED"/>
<path d="M12.5 13.75H11.25V15H12.5V13.75Z" fill="#EDEDED"/>
<path d="M13.75 13.75H12.5V15H13.75V13.75Z" fill="#EDEDED"/>
<path d="M12.5 12.5H11.25V13.75H12.5V12.5Z" fill="#EDEDED"/>
<path d="M13.75 12.5H12.5V13.75H13.75V12.5Z" fill="#EDEDED"/>
<path d="M11.25 12.5H10V13.75H11.25V12.5Z" fill="#EDEDED"/>
<path d="M11.25 13.75H10V15H11.25V13.75Z" fill="#EDEDED"/>
<path d="M11.25 12.5H10V13.75H11.25V12.5Z" fill="#EDEDED"/>
<path d="M11.25 11.25H10V12.5H11.25V11.25Z" fill="#EDEDED"/>
<path d="M10 15H8.75V16.25H10V15Z" fill="#EDEDED"/>
<path d="M10 13.75H8.75V15H10V13.75Z" fill="#EDEDED"/>
<path d="M10 12.5H8.75V13.75H10V12.5Z" fill="#EDEDED"/>
<path d="M10 11.25H8.75V12.5H10V11.25Z" fill="#EDEDED"/>
<path d="M12.5 11.25H11.25V12.5H12.5V11.25Z" fill="#EDEDED"/>
<path d="M11.25 10H10V11.25H11.25V10Z" fill="#EDEDED"/>
<path d="M12.5 10H11.25V11.25H12.5V10Z" fill="#EDEDED"/>
<path d="M13.75 10H12.5V11.25H13.75V10Z" fill="#EDEDED"/>
<path d="M12.5 8.75H11.25V10H12.5V8.75Z" fill="#EDEDED"/>
<path d="M11.25 8.75H10V10H11.25V8.75Z" fill="#EDEDED"/>
<path d="M10.9078 9.78815L9.78711 10.3418L10.3408 11.4625L11.4615 10.9089L10.9078 9.78815Z" fill="#EDEDED"/>
<path d="M10 10H8.75V11.25H10V10Z" fill="#EDEDED"/>
<path d="M10 8.75H8.75V10H10V8.75Z" fill="#EDEDED"/>
<path d="M8.75 8.75H7.5V10H8.75V8.75Z" fill="#EDEDED"/>
<path d="M7.5 8.75H6.25V10H7.5V8.75Z" fill="#EDEDED"/>
<path d="M7.5 11.25H6.25V12.5H7.5V11.25Z" fill="#EDEDED"/>
<path d="M8.75 11.25H7.5V12.5H8.75V11.25Z" fill="#EDEDED"/>
<path d="M6.25 11.25H5V12.5H6.25V11.25Z" fill="#EDEDED"/>
<path d="M7.5 12.5H6.25V13.75H7.5V12.5Z" fill="#EDEDED"/>
<path d="M6.25 12.5H5V13.75H6.25V12.5Z" fill="#EDEDED"/>
<path d="M7.5 12.5H6.25V13.75H7.5V12.5Z" fill="#EDEDED"/>
<path d="M7.5 13.75H6.25V15H7.5V13.75Z" fill="#EDEDED"/>
<path d="M8.75 13.75H7.5V15H8.75V13.75Z" fill="#EDEDED"/>
<path d="M8.75 12.5H7.5V13.75H8.75V12.5Z" fill="#EDEDED"/>
<path d="M8.75 13.75H7.5V15H8.75V13.75Z" fill="#EDEDED"/>
<path d="M7.5 13.75H6.25V15H7.5V13.75Z" fill="#EDEDED"/>
<path d="M6.25 13.75H5V15H6.25V13.75Z" fill="#EDEDED"/>
<path d="M7.5 13.75H6.25V15H7.5V13.75Z" fill="#EDEDED"/>
<path d="M7.5 15H6.25V16.25H7.5V15Z" fill="#EDEDED"/>
<path d="M8.75 15H7.5V16.25H8.75V15Z" fill="#EDEDED"/>
<path d="M6.25 15H5V16.25H6.25V15Z" fill="#EDEDED"/>
<path d="M6.25 8.75H5V10H6.25V8.75Z" fill="#EDEDED"/>
<path d="M5 8.75H3.75V10H5V8.75Z" fill="#EDEDED"/>
<path d="M5 10H3.75V11.25H5V10Z" fill="#EDEDED"/>
<path d="M3.75 10H2.5V11.25H3.75V10Z" fill="#EDEDED"/>
<path d="M2.5 10H1.25V11.25H2.5V10Z" fill="#EDEDED"/>
<path d="M1.25 10H0V11.25H1.25V10Z" fill="#EDEDED"/>
<path d="M1.25 11.25H0V12.5H1.25V11.25Z" fill="#EDEDED"/>
<path d="M2.5 11.25H1.25V12.5H2.5V11.25Z" fill="#EDEDED"/>
<path d="M4.16667 10.4165H2.5V12.0832H4.16667V10.4165Z" fill="#EDEDED"/>
<path d="M4.16667 12.0835H2.5V13.7502H4.16667V12.0835Z" fill="#EDEDED"/>
<path d="M2.5 12.5H1.25V13.75H2.5V12.5Z" fill="#EDEDED"/>
<path d="M1.25 12.5H0V13.75H1.25V12.5Z" fill="#EDEDED"/>
<path d="M1.25 13.75H0V15H1.25V13.75Z" fill="#EDEDED"/>
<path d="M2.5 13.75H1.25V15H2.5V13.75Z" fill="#EDEDED"/>
<path d="M4.16667 13.75H2.5V15.4167H4.16667V13.75Z" fill="#EDEDED"/>
<path d="M4.16667 15.4165H2.5V17.0832H4.16667V15.4165Z" fill="#EDEDED"/>
<path d="M2.5 15H1.25V16.25H2.5V15Z" fill="#EDEDED"/>
<path d="M1.25 15H0V16.25H1.25V15Z" fill="#EDEDED"/>
<path d="M1.25 16.25H0V17.5H1.25V16.25Z" fill="#EDEDED"/>
<path d="M2.5 16.25H1.25V17.5H2.5V16.25Z" fill="#EDEDED"/>
<path d="M3.75 16.25H2.5V17.5H3.75V16.25Z" fill="#EDEDED"/>
<path d="M5 16.25H3.75V17.5H5V16.25Z" fill="#EDEDED"/>
<path d="M5 17.5H3.75V18.75H5V17.5Z" fill="#EDEDED"/>
<path d="M3.75 17.5H2.5V18.75H3.75V17.5Z" fill="#EDEDED"/>
<path d="M2.5 17.5H1.25V18.75H2.5V17.5Z" fill="#EDEDED"/>
<path d="M1.25 17.5H0V18.75H1.25V17.5Z" fill="#EDEDED"/>
<path d="M2.5 18.75H1.25V20H2.5V18.75Z" fill="#EDEDED"/>
<path d="M3.75 18.75H2.5V20H3.75V18.75Z" fill="#EDEDED"/>
<path d="M5 18.75H3.75V20H5V18.75Z" fill="#EDEDED"/>
<path d="M6.25 18.75H5V20H6.25V18.75Z" fill="#EDEDED"/>
<path d="M6.25 17.5H5V18.75H6.25V17.5Z" fill="#EDEDED"/>
<path d="M7.5 17.5H6.25V18.75H7.5V17.5Z" fill="#EDEDED"/>
<path d="M8.75 17.5H7.5V18.75H8.75V17.5Z" fill="#EDEDED"/>
<path d="M10 17.5H8.75V18.75H10V17.5Z" fill="#EDEDED"/>
<path d="M11.25 17.5H10V18.75H11.25V17.5Z" fill="#EDEDED"/>
<path d="M12.5 17.5H11.25V18.75H12.5V17.5Z" fill="#EDEDED"/>
<path d="M13.75 17.5H12.5V18.75H13.75V17.5Z" fill="#EDEDED"/>
<path d="M13.75 18.75H12.5V20H13.75V18.75Z" fill="#EDEDED"/>
<path d="M12.5 18.75H11.25V20H12.5V18.75Z" fill="#EDEDED"/>
<path d="M11.25 18.75H10V20H11.25V18.75Z" fill="#EDEDED"/>
<path d="M10 18.75H8.75V20H10V18.75Z" fill="#EDEDED"/>
<path d="M8.75 18.75H7.5V20H8.75V18.75Z" fill="#EDEDED"/>
<path d="M7.5 18.75H6.25V20H7.5V18.75Z" fill="#EDEDED"/>
<path d="M6.25 18.75H5V20H6.25V18.75Z" fill="#EDEDED"/>
<path d="M2.5 7.5H1.25V8.75H2.5V7.5Z" fill="#EDEDED"/>
<path d="M3.75 7.5H2.5V8.75H3.75V7.5Z" fill="#EDEDED"/>
<path d="M5 7.5H3.75V8.75H5V7.5Z" fill="#EDEDED"/>
<path d="M6.25 7.5H5V8.75H6.25V7.5Z" fill="#EDEDED"/>
<path d="M7.5 7.5H6.25V8.75H7.5V7.5Z" fill="#EDEDED"/>
<path d="M8.75 7.5H7.5V8.75H8.75V7.5Z" fill="#EDEDED"/>
<path d="M10 7.5H8.75V8.75H10V7.5Z" fill="#EDEDED"/>
<path d="M11.25 7.5H10V8.75H11.25V7.5Z" fill="#EDEDED"/>
<path d="M12.5 7.5H11.25V8.75H12.5V7.5Z" fill="#EDEDED"/>
<path d="M13.75 7.5H12.5V8.75H13.75V7.5Z" fill="#EDEDED"/>
<path d="M15 7.5H13.75V8.75H15V7.5Z" fill="#EDEDED"/>
<path d="M16.25 7.5H15V8.75H16.25V7.5Z" fill="#EDEDED"/>
<path d="M17.5 7.5H16.25V8.75H17.5V7.5Z" fill="#EDEDED"/>
<path d="M18.75 7.5H17.5V8.75H18.75V7.5Z" fill="#EDEDED"/>
<path d="M20 7.5H18.75V8.75H20V7.5Z" fill="#EDEDED"/>
<path d="M2.5 6.25H1.25V7.5H2.5V6.25Z" fill="#804FFF"/>
<path d="M3.75 6.25H2.5V7.5H3.75V6.25Z" fill="#804FFF"/>
<path d="M5 6.25H3.75V7.5H5V6.25Z" fill="#804FFF"/>
<path d="M6.25 6.25H5V7.5H6.25V6.25Z" fill="#804FFF"/>
<path d="M7.5 6.25H6.25V7.5H7.5V6.25Z" fill="#804FFF"/>
<path d="M8.75 6.25H7.5V7.5H8.75V6.25Z" fill="#804FFF"/>
<path d="M10 6.25H8.75V7.5H10V6.25Z" fill="#804FFF"/>
<path d="M11.25 6.25H10V7.5H11.25V6.25Z" fill="#804FFF"/>
<path d="M12.5 6.25H11.25V7.5H12.5V6.25Z" fill="#804FFF"/>
<path d="M13.75 6.25H12.5V7.5H13.75V6.25Z" fill="#804FFF"/>
<path d="M15 6.25H13.75V7.5H15V6.25Z" fill="#804FFF"/>
<path d="M16.25 6.25H15V7.5H16.25V6.25Z" fill="#804FFF"/>
<path d="M17.5 6.25H16.25V7.5H17.5V6.25Z" fill="#804FFF"/>
<path d="M18.75 6.25H17.5V7.5H18.75V6.25Z" fill="#804FFF"/>
<path d="M20 6.25H18.75V7.5H20V6.25Z" fill="#804FFF"/>
<path d="M6.25 2.5H3.75V3.75H6.25V2.5Z" fill="white"/>
<path d="M13.75 2.5L16.25 2.5V0L13.75 0V2.5Z" fill="white"/>
<path d="M16.25 2.5H13.75V3.75H16.25V2.5Z" fill="white"/>
<path d="M11.25 0H8.75V2.5H11.25V0Z" fill="white"/>
<path d="M11.25 2.5H8.75V3.75H11.25V2.5Z" fill="white"/>
<path d="M7.5 10H6.25V11.25H7.5V10Z" fill="#EDEDED"/>
<path d="M9.10742 10H7.85742V11.25H9.10742V10Z" fill="#EDEDED"/>
<path d="M9.10742 11.25H7.85742V12.5H9.10742V11.25Z" fill="#EDEDED"/>
<path d="M9.10742 12.5H7.85742V13.75H9.10742V12.5Z" fill="#EDEDED"/>
<path d="M9.10742 13.75H7.85742V15H9.10742V13.75Z" fill="#EDEDED"/>
<path d="M9.10742 15H7.85742V16.25H9.10742V15Z" fill="#EDEDED"/>
<path d="M9.10742 16.25H7.85742V17.5H9.10742V16.25Z" fill="#EDEDED"/>
<path d="M7.85742 16.25H6.60742V17.5H7.85742V16.25Z" fill="#EDEDED"/>
<path d="M6.60742 16.25H5.35742V17.5H6.60742V16.25Z" fill="#EDEDED"/>
<path d="M5.35742 16.25H4.10742V17.5H5.35742V16.25Z" fill="#EDEDED"/>
<path d="M5.35742 15H4.10742V16.25H5.35742V15Z" fill="#EDEDED"/>
<path d="M5.35742 13.75H4.10742V15H5.35742V13.75Z" fill="#EDEDED"/>
<path d="M5.35742 12.5H4.10742V13.75H5.35742V12.5Z" fill="#EDEDED"/>
<path d="M5.35742 11.25H4.10742V12.5H5.35742V11.25Z" fill="#EDEDED"/>
<path d="M5.35742 10H4.10742V11.25H5.35742V10Z" fill="#EDEDED"/>
<path d="M6.60742 10H5.35742V11.25H6.60742V10Z" fill="#EDEDED"/>
<path d="M7.85742 10H6.60742V11.25H7.85742V10Z" fill="#EDEDED"/>
<path d="M14.2852 10H13.0352V11.25H14.2852V10Z" fill="#EDEDED"/>
<path d="M13.75 11.25H12.5V12.5H13.75V11.25Z" fill="#EDEDED"/>
<path d="M13.0352 11.25H11.7852V12.5H13.0352V11.25Z" fill="#EDEDED"/>
<path d="M14.2852 11.25H13.0352V12.5H14.2852V11.25Z" fill="#EDEDED"/>
<path d="M14.2852 12.5H13.0352V13.75H14.2852V12.5Z" fill="#EDEDED"/>
<path d="M14.2852 13.75H13.0352V15H14.2852V13.75Z" fill="#EDEDED"/>
<path d="M14.2852 15H13.0352V16.25H14.2852V15Z" fill="#EDEDED"/>
<path d="M13.75 16.25H12.5V17.5H13.75V16.25Z" fill="#EDEDED"/>
<path d="M13.0352 16.25H11.7852V17.5H13.0352V16.25Z" fill="#EDEDED"/>
<path d="M14.2852 16.25H13.0352V17.5H14.2852V16.25Z" fill="#EDEDED"/>
<path d="M15.5352 16.25H14.2852V17.5H15.5352V16.25Z" fill="#EDEDED"/>
<path d="M6.25 0H3.75V2.5H6.25V0Z" fill="white"/>
<path d="M12.917 9.5835H13.334V9.99951H13.751V10.4165H14.167V16.2495H13.751V16.6665H13.334V17.0835H12.917V17.4995H7.08398V17.0835H6.66699V16.6665H6.25098V16.2495H5.83398V10.4165H6.25098V9.99951H6.66699V9.5835H7.08398V9.1665H12.917V9.5835ZM8.75 14.9995H11.667V13.8091H9.91699V10.8335H8.75V14.9995Z" fill="#804FFF"/>
</g>
<defs>
<clipPath id="clip0_485_77872">
<rect width="20" height="20" fill="white"/>
</clipPath>
</defs>
</svg>
