<svg width="21" height="20" viewBox="0 0 21 20" fill="none" xmlns="http://www.w3.org/2000/svg">
<path d="M9.5459 1H10.5V2H11.4541V3H20.0459V4H21V19H20.0459V20H0.954102V19H0V1H0.954102V0H9.5459V1Z" fill="#804FFF"/>
<path d="M7.99432 10.2918H7.47727V14.0835H7.99432V14.6251H8.51136V15.1668H9.02841V15.7084H9.54545V16.2501H10.0625V16.7918H10.5795V17.3334H13.6818V16.7918H14.1989V16.2501H14.7159V15.7084H15.233V15.1668H15.75V12.4585H15.233V11.9168H14.7159V11.3751H14.1989V10.8335H13.6818V13.0001H14.1989V14.6251H13.6818V15.1668H13.1648V15.7084H11.6136V15.1668H11.0966V14.6251H10.5795V14.0835H10.0625V13.5418H9.54545V13.0001H9.02841V11.3751H9.54545V10.8335H10.0625V10.2918H9.54545V9.75016H9.02841V9.2085H8.51136V9.75016H7.99432V10.2918Z" fill="white"/>
<path d="M4.37571 7.58315V10.2915H4.89276V10.8331H5.4098V11.3748H5.92685V11.9165H6.44389V9.7498H5.92685V8.12481H6.44389V7.58315H6.96094V7.04149H8.51207V7.58315H9.02912V8.12481H9.54616V8.66648H10.0632V9.20814H10.5803V9.7498H11.0973V11.3748H10.5803V11.9165H10.0632V12.4581H10.5803V12.9998H11.0973V13.5414H11.6143V12.9998H12.1314V12.4581H12.6484V8.66648H12.1314V8.12481H11.6143V7.58315H11.0973V7.04149H10.5803V6.49983H10.0632V5.95817H9.54616V5.4165H6.44389V5.95817H5.92685V6.49983H5.4098V7.04149H4.89276V7.58315H4.37571Z" fill="white"/>
</svg>
