<svg width="24" height="24" viewBox="0 0 24 24" fill="none" xmlns="http://www.w3.org/2000/svg">
<g clip-path="url(#clip0_122_50423)">
<path d="M1.71781 6.85461H22.2828V22.8596H23.4303V3.42711H22.2828V2.28711H18.8553V4.57461H17.7153V2.28711H6.28531V4.57461H5.14531V2.28711H1.71781V3.42711H0.570312V22.8596H1.71781V6.85461Z" fill="#A3A8C4"/>
<path d="M22.2828 22.8604H1.71777V24.0004H22.2828V22.8604Z" fill="#A3A8C4"/>
<path d="M18.8548 0H17.7148V2.2875H18.8548V0Z" fill="#A3A8C4"/>
<path d="M6.28551 0H5.14551V2.2875H6.28551V0Z" fill="#A3A8C4"/>
<path d="M20 9.29004H19V10.29H20V9.29004Z" fill="#A3A8C4"/>
<path d="M15 9.29004H14V10.29H15V9.29004Z" fill="#A3A8C4"/>
<path d="M10 19.29H9V20.29H10V19.29Z" fill="#A3A8C4"/>
<path d="M20 19.29H19V20.29H20V19.29Z" fill="#A3A8C4"/>
<path d="M10 14.29H9V15.29H10V14.29Z" fill="#A3A8C4"/>
<path d="M20 14.29H19V15.29H20V14.29Z" fill="#A3A8C4"/>
<path d="M10 9.29004H9V10.29H10V9.29004Z" fill="#A3A8C4"/>
<path d="M5 19.29H4V20.29H5V19.29Z" fill="#A3A8C4"/>
<path d="M15 19.29H14V20.29H15V19.29Z" fill="#A3A8C4"/>
<path d="M5 14.29H4V15.29H5V14.29Z" fill="#A3A8C4"/>
<path d="M15 14.29H14V15.29H15V14.29Z" fill="#A3A8C4"/>
<path d="M5 9.29004H4V10.29H5V9.29004Z" fill="#A3A8C4"/>
</g>
<defs>
<clipPath id="clip0_122_50423">
<rect width="24" height="24" fill="white"/>
</clipPath>
</defs>
</svg>
