<svg width="24" height="24" viewBox="0 0 24 24" fill="none" xmlns="http://www.w3.org/2000/svg">
<path d="M21.6006 1.19922H22.7998V2.40039H24V16.7988H22.501L22.499 16.8008H24V21.6006H22.7998V22.7988H21.6006V24H16.8008V22.7354H16.7998V24H2.40039V22.7988H1.2002V21.6006H0V16.8008H1.2002V16.7988H0V2.40039H1.2002V1.19922H2.39941V0H21.6006V1.19922ZM20.6016 4.80078H21.5996V4.79883H20.5996L20.6016 4.80078ZM2.40039 4.80078H3.11914L3.12012 4.79883H2.40039V4.80078Z" fill="#434862"/>
<path d="M10.2553 18L4.80005 12.3119L6.16385 10.8898L10.2553 15.1559L19.0362 6L20.4 7.42204L10.2553 18Z" fill="#858585"/>
</svg>
