<svg width="24" height="24" viewBox="0 0 24 24" fill="none" xmlns="http://www.w3.org/2000/svg">
<path d="M16.7998 1.19922H16.8008V0H21.6006V1.19922H22.7998V2.40039H24V21.5986H22.7998V22.7988H21.5996V23.999H2.39941V22.7998H1.2002V21.6006H0V16.8008H1.2002V16.7988H0V2.40039H1.2002V1.19922H2.40039V0H16.7998V1.19922ZM20.6016 4.80078H21.5996V4.79883H20.5996L20.6016 4.80078ZM4.7998 2.69922L4.80078 2.69824V2.40039H4.7998V2.69922Z" fill="#804FFF"/>
<path d="M10.2555 17.9999L4.80029 12.3118L6.16409 10.8898L10.2555 15.1559L19.0364 6L20.4002 7.42203L10.2555 17.9999Z" fill="white"/>
</svg>
