<svg width="24" height="24" viewBox="0 0 24 24" fill="none" xmlns="http://www.w3.org/2000/svg">
<path d="M22.9091 8.72727V6.54545H21.8182V4.36364H20.7273V3.27273H19.6364V2.18182H17.4545V1.09091H15.2727V0H8.72727V1.09091H6.54545V2.18182H4.36364V3.27273H3.27273V4.36364H2.18182V6.54545H1.09091V8.72727H0V15.2727H1.09091V17.4545H2.18182V19.6364H3.27273V20.7273H4.36364V21.8182H6.54545V22.9091H8.72727V24H15.2727V22.9091H17.4545V21.8182H19.6364V20.7273H20.7273V19.6364H21.8182V17.4545H22.9091V15.2727H24V8.72727H22.9091ZM13.0909 16.3636V15.2727H12V14.1818H10.9091V4.36364H13.0909V13.0909H14.1818V14.1818H15.2727V15.2727H16.3636V16.3636H15.2727V17.4545H14.1818V16.3636H13.0909Z" fill="white"/>
</svg>
