<svg width="16" height="16" viewBox="0 0 16 16" fill="none" xmlns="http://www.w3.org/2000/svg">
<g clip-path="url(#clip0_14_8634)">
<path d="M2.46124 14.7695H1.23047V16.0003H2.46124V14.7695Z" fill="#D5D6E1"/>
<path d="M1.23077 14.7695H0V16.0003H1.23077V14.7695Z" fill="#D5D6E1"/>
<path d="M1.23077 13.5391H0V14.7698H1.23077V13.5391Z" fill="#D5D6E1"/>
<path d="M1.23077 12.3086H0V13.5394H1.23077V12.3086Z" fill="#D5D6E1"/>
<path d="M1.23077 11.0762H0V12.3069H1.23077V11.0762Z" fill="#D5D6E1"/>
<path d="M1.23077 12.3086H0V13.5394H1.23077V12.3086Z" fill="#D5D6E1"/>
<path d="M1.23077 13.5391H0V14.7698H1.23077V13.5391Z" fill="#D5D6E1"/>
<path d="M1.23077 14.7695H0V16.0003H1.23077V14.7695Z" fill="#D5D6E1"/>
<path d="M2.46124 14.7695H1.23047V16.0003H2.46124V14.7695Z" fill="#D5D6E1"/>
<path d="M3.69268 14.7695H2.46191V16.0003H3.69268V14.7695Z" fill="#D5D6E1"/>
<path d="M3.69268 14.7695H2.46191V16.0003H3.69268V14.7695Z" fill="#D5D6E1"/>
<path d="M2.46124 14.7695H1.23047V16.0003H2.46124V14.7695Z" fill="#D5D6E1"/>
<path d="M2.46124 14.7695H1.23047V16.0003H2.46124V14.7695Z" fill="#D5D6E1"/>
<path d="M3.69268 14.7695H2.46191V16.0003H3.69268V14.7695Z" fill="#D5D6E1"/>
<path d="M4.92315 14.7695H3.69238V16.0003H4.92315V14.7695Z" fill="#D5D6E1"/>
<path d="M6.1546 13.5391H4.92383V14.7698H6.1546V13.5391Z" fill="#D5D6E1"/>
<path d="M7.38507 12.3086H6.1543V13.5394H7.38507V12.3086Z" fill="#D5D6E1"/>
<path d="M8.61553 11.0762H7.38477V12.3069H8.61553V11.0762Z" fill="#D5D6E1"/>
<path d="M9.846 9.84766H8.61523V11.0784H9.846V9.84766Z" fill="#D5D6E1"/>
<path d="M11.0765 8.61523H9.8457V9.846H11.0765V8.61523Z" fill="#D5D6E1"/>
<path d="M12.3069 7.38477H11.0762V8.61553H12.3069V7.38477Z" fill="#D5D6E1"/>
<path d="M13.5384 6.15234H12.3076V7.38311H13.5384V6.15234Z" fill="#D5D6E1"/>
<path d="M14.7689 4.92383H13.5381V6.1546H14.7689V4.92383Z" fill="#D5D6E1"/>
<path d="M16.0003 3.69141H14.7695V4.92218H16.0003V3.69141Z" fill="#D5D6E1"/>
<path d="M14.769 2.46094H13.5383V3.69171H14.769V2.46094Z" fill="#D5D6E1"/>
<path d="M13.5384 1.23047H12.3076V2.46124H13.5384V1.23047Z" fill="#D5D6E1"/>
<path d="M12.3069 0H11.0762V1.23077H12.3069V0Z" fill="#D5D6E1"/>
<path d="M11.0765 1.23047H9.8457V2.46124H11.0765V1.23047Z" fill="#D5D6E1"/>
<path d="M9.846 2.46094H8.61523V3.69171H9.846V2.46094Z" fill="#D5D6E1"/>
<path d="M9.846 3.69141H8.61523V4.92218H9.846V3.69141Z" fill="#D5D6E1"/>
<path d="M11.0765 3.69141H9.8457V4.92218H11.0765V3.69141Z" fill="#D5D6E1"/>
<path d="M11.0765 2.46094H9.8457V3.69171H11.0765V2.46094Z" fill="#D5D6E1"/>
<path d="M12.3069 2.46094H11.0762V3.69171H12.3069V2.46094Z" fill="#D5D6E1"/>
<path d="M12.3069 1.23047H11.0762V2.46124H12.3069V1.23047Z" fill="#D5D6E1"/>
<path d="M12.3069 2.46094H11.0762V3.69171H12.3069V2.46094Z" fill="#D5D6E1"/>
<path d="M13.5386 2.46094H12.3078V3.69171H13.5386V2.46094Z" fill="#D5D6E1"/>
<path d="M13.5384 3.69141H12.3076V4.92218H13.5384V3.69141Z" fill="#D5D6E1"/>
<path d="M12.3069 3.69141H11.0762V4.92218H12.3069V3.69141Z" fill="#D5D6E1"/>
<path d="M13.5384 3.69141H12.3076V4.92218H13.5384V3.69141Z" fill="#D5D6E1"/>
<path d="M13.5384 4.92383H12.3076V6.1546H13.5384V4.92383Z" fill="#D5D6E1"/>
<path d="M13.5384 3.69141H12.3076V4.92218H13.5384V3.69141Z" fill="#D5D6E1"/>
<path d="M14.7689 3.69141H13.5381V4.92218H14.7689V3.69141Z" fill="#D5D6E1"/>
<path d="M11.0765 4.92383H9.8457V6.1546H11.0765V4.92383Z" fill="#D5D6E1"/>
<path d="M12.3069 4.92383H11.0762V6.1546H12.3069V4.92383Z" fill="#D5D6E1"/>
<path d="M12.3069 6.15234H11.0762V7.38311H12.3069V6.15234Z" fill="#D5D6E1"/>
<path d="M13.5384 6.15234H12.3076V7.38311H13.5384V6.15234Z" fill="#D5D6E1"/>
<path d="M8.61553 3.69141H7.38477V4.92218H8.61553V3.69141Z" fill="#D5D6E1"/>
<path d="M7.38507 4.92383H6.1543V6.1546H7.38507V4.92383Z" fill="#D5D6E1"/>
<path d="M6.1546 6.15234H4.92383V7.38311H6.1546V6.15234Z" fill="#D5D6E1"/>
<path d="M4.92315 7.38477H3.69238V8.61553H4.92315V7.38477Z" fill="#D5D6E1"/>
<path d="M3.69268 8.61523H2.46191V9.846H3.69268V8.61523Z" fill="#D5D6E1"/>
<path d="M2.46124 9.84766H1.23047V11.0784H2.46124V9.84766Z" fill="#D5D6E1"/>
<path d="M1.23077 11.0762H0V12.3069H1.23077V11.0762Z" fill="#D5D6E1"/>
</g>
<defs>
<clipPath id="clip0_14_8634">
<rect width="16" height="16" fill="white"/>
</clipPath>
</defs>
</svg>
