<svg width="40" height="40" viewBox="0 0 40 40" fill="none" xmlns="http://www.w3.org/2000/svg">
<rect width="40" height="40" rx="20" fill="#202540"/>
<g clip-path="url(#clip0_368_1519)">
<path d="M29.1663 26.6668V28.3335H28.333V29.1668H11.6663V28.3335H10.833V22.5002H11.6663V23.3335H12.4997V24.1668H13.333V25.0002H14.1663V25.8335H14.9997V26.6668H15.833V27.5002H16.6663V26.6668H17.4997V25.8335H18.333V25.0002H19.1663V24.1668H19.9997V23.3335H20.833V22.5002H21.6663V21.6668H22.4997V20.8335H23.333V21.6668H24.1663V22.5002H24.9997V23.3335H25.833V24.1668H26.6663V25.0002H27.4997V25.8335H28.333V26.6668H29.1663Z" fill="white"/>
<path d="M28.333 11.6668V10.8335H11.6663V11.6668H10.833V20.0002H11.6663V20.8335H12.4997V21.6668H13.333V22.5002H14.1663V23.3335H14.9997V24.1668H15.833V25.0002H16.6663V24.1668H17.4997V23.3335H18.333V22.5002H19.1663V21.6668H19.9997V20.8335H20.833V20.0002H21.6663V19.1668H22.4997V18.3335H23.333V19.1668H24.1663V20.0002H24.9997V20.8335H25.833V21.6668H26.6663V22.5002H27.4997V23.3335H28.333V24.1668H29.1663V11.6668H28.333ZM17.4997 15.0002V17.5002H16.6663V18.3335H14.1663V17.5002H13.333V15.0002H14.1663V14.1668H16.6663V15.0002H17.4997Z" fill="white"/>
</g>
<defs>
<clipPath id="clip0_368_1519">
<rect width="20" height="20" fill="white" transform="translate(10 10)"/>
</clipPath>
</defs>
</svg>
