<svg width="16" height="16" viewBox="0 0 16 16" fill="none" xmlns="http://www.w3.org/2000/svg">
<rect width="16" height="16" rx="8" fill="white"/>
<path d="M7.73679 2H7.47363V2.25H7.73679V2Z" fill="#804FFF"/>
<path d="M7.47361 2H7.21045V2.25H7.47361V2Z" fill="#804FFF"/>
<path d="M7.21042 2H6.94727V2.25H7.21042V2Z" fill="#804FFF"/>
<path d="M6.94724 2H6.68408V2.25H6.94724V2Z" fill="#804FFF"/>
<path d="M6.68406 2H6.4209V2.25H6.68406V2Z" fill="#804FFF"/>
<path d="M6.68406 2.25H6.4209V2.5H6.68406V2.25Z" fill="#804FFF"/>
<path d="M6.42087 2.25H6.15771V2.5H6.42087V2.25Z" fill="#804FFF"/>
<path d="M6.42087 2.5H6.15771V2.75H6.42087V2.5Z" fill="#804FFF"/>
<path d="M6.15769 2.5H5.89453V2.75H6.15769V2.5Z" fill="#804FFF"/>
<path d="M5.89451 2.5H5.63135V2.75H5.89451V2.5Z" fill="#804FFF"/>
<path d="M5.89451 2.75H5.63135V3H5.89451V2.75Z" fill="#804FFF"/>
<path d="M5.89451 3H5.63135V3.25H5.89451V3Z" fill="#804FFF"/>
<path d="M5.63181 3H5.36865V3.25H5.63181V3Z" fill="#804FFF"/>
<path d="M5.36863 3H5.10547V3.25H5.36863V3Z" fill="#804FFF"/>
<path d="M5.10544 3H4.84229V3.25H5.10544V3Z" fill="#804FFF"/>
<path d="M4.84226 3H4.5791V3.25H4.84226V3Z" fill="#804FFF"/>
<path d="M4.57908 3H4.31592V3.25H4.57908V3Z" fill="#804FFF"/>
<path d="M4.31589 3H4.05273V3.25H4.31589V3Z" fill="#804FFF"/>
<path d="M4.31589 3.25H4.05273V3.5H4.31589V3.25Z" fill="#804FFF"/>
<path d="M4.31589 3.5H4.05273V3.75H4.31589V3.5Z" fill="#804FFF"/>
<path d="M4.05271 3.5H3.78955V3.75H4.05271V3.5Z" fill="#804FFF"/>
<path d="M3.78953 3.5H3.52637V3.75H3.78953V3.5Z" fill="#804FFF"/>
<path d="M3.52634 3.5H3.26318V3.75H3.52634V3.5Z" fill="#804FFF"/>
<path d="M3.26316 3.5H3V3.75H3.26316V3.5Z" fill="#804FFF"/>
<path d="M3.52634 3.5H3.26318V3.75H3.52634V3.5Z" fill="#804FFF"/>
<path d="M3.78953 3.5H3.52637V3.75H3.78953V3.5Z" fill="#804FFF"/>
<path d="M4.05271 3.5H3.78955V3.75H4.05271V3.5Z" fill="#804FFF"/>
<path d="M4.31589 3.5H4.05273V3.75H4.31589V3.5Z" fill="#804FFF"/>
<path d="M4.57908 3.5H4.31592V3.75H4.57908V3.5Z" fill="#804FFF"/>
<path d="M4.84226 3.5H4.5791V3.75H4.84226V3.5Z" fill="#804FFF"/>
<path d="M5.10544 3.5H4.84229V3.75H5.10544V3.5Z" fill="#804FFF"/>
<path d="M5.36863 3.5H5.10547V3.75H5.36863V3.5Z" fill="#804FFF"/>
<path d="M5.63181 3.5H5.36865V3.75H5.63181V3.5Z" fill="#804FFF"/>
<path d="M5.89451 3.5H5.63135V3.75H5.89451V3.5Z" fill="#804FFF"/>
<path d="M6.15769 3.5H5.89453V3.75H6.15769V3.5Z" fill="#804FFF"/>
<path d="M6.42087 3.5H6.15771V3.75H6.42087V3.5Z" fill="#804FFF"/>
<path d="M6.68406 3.5H6.4209V3.75H6.68406V3.5Z" fill="#804FFF"/>
<path d="M6.94724 3.5H6.68408V3.75H6.94724V3.5Z" fill="#804FFF"/>
<path d="M7.21042 3.5H6.94727V3.75H7.21042V3.5Z" fill="#804FFF"/>
<path d="M7.47361 3.5H7.21045V3.75H7.47361V3.5Z" fill="#804FFF"/>
<path d="M7.73679 3.5H7.47363V3.75H7.73679V3.5Z" fill="#804FFF"/>
<path d="M7.99997 3.5H7.73682V3.75H7.99997V3.5Z" fill="#804FFF"/>
<path d="M8.26316 3.5H8V3.75H8.26316V3.5Z" fill="#804FFF"/>
<path d="M8.52634 3.5H8.26318V3.75H8.52634V3.5Z" fill="#804FFF"/>
<path d="M8.78953 3.5H8.52637V3.75H8.78953V3.5Z" fill="#804FFF"/>
<path d="M9.05271 3.5H8.78955V3.75H9.05271V3.5Z" fill="#804FFF"/>
<path d="M9.31589 3.5H9.05273V3.75H9.31589V3.5Z" fill="#804FFF"/>
<path d="M9.57908 3.5H9.31592V3.75H9.57908V3.5Z" fill="#804FFF"/>
<path d="M9.84226 3.5H9.5791V3.75H9.84226V3.5Z" fill="#804FFF"/>
<path d="M10.1054 3.5H9.84229V3.75H10.1054V3.5Z" fill="#804FFF"/>
<path d="M10.3686 3.5H10.1055V3.75H10.3686V3.5Z" fill="#804FFF"/>
<path d="M10.6318 3.5H10.3687V3.75H10.6318V3.5Z" fill="#804FFF"/>
<path d="M10.8945 3.5H10.6313V3.75H10.8945V3.5Z" fill="#804FFF"/>
<path d="M11.1577 3.5H10.8945V3.75H11.1577V3.5Z" fill="#804FFF"/>
<path d="M11.4209 3.5H11.1577V3.75H11.4209V3.5Z" fill="#804FFF"/>
<path d="M11.6841 3.5H11.4209V3.75H11.6841V3.5Z" fill="#804FFF"/>
<path d="M11.9472 3.5H11.6841V3.75H11.9472V3.5Z" fill="#804FFF"/>
<path d="M12.2104 3.5H11.9473V3.75H12.2104V3.5Z" fill="#804FFF"/>
<path d="M12.4736 3.5H12.2104V3.75H12.4736V3.5Z" fill="#804FFF"/>
<path d="M12.7368 3.5H12.4736V3.75H12.7368V3.5Z" fill="#804FFF"/>
<path d="M13 3.5H12.7368V3.75H13V3.5Z" fill="#804FFF"/>
<path d="M12.7368 3.5H12.4736V3.75H12.7368V3.5Z" fill="#804FFF"/>
<path d="M12.4736 3.5H12.2104V3.75H12.4736V3.5Z" fill="#804FFF"/>
<path d="M12.2104 3.5H11.9473V3.75H12.2104V3.5Z" fill="#804FFF"/>
<path d="M11.9472 3.5H11.6841V3.75H11.9472V3.5Z" fill="#804FFF"/>
<path d="M11.9472 3.25H11.6841V3.5H11.9472V3.25Z" fill="#804FFF"/>
<path d="M11.9472 3H11.6841V3.25H11.9472V3Z" fill="#804FFF"/>
<path d="M11.6841 3H11.4209V3.25H11.6841V3Z" fill="#804FFF"/>
<path d="M11.4209 3H11.1577V3.25H11.4209V3Z" fill="#804FFF"/>
<path d="M11.1577 3H10.8945V3.25H11.1577V3Z" fill="#804FFF"/>
<path d="M10.8945 3H10.6313V3.25H10.8945V3Z" fill="#804FFF"/>
<path d="M10.6318 3H10.3687V3.25H10.6318V3Z" fill="#804FFF"/>
<path d="M10.3686 3H10.1055V3.25H10.3686V3Z" fill="#804FFF"/>
<path d="M10.3686 2.75H10.1055V3H10.3686V2.75Z" fill="#804FFF"/>
<path d="M10.3686 2.5H10.1055V2.75H10.3686V2.5Z" fill="#804FFF"/>
<path d="M10.1054 2.5H9.84229V2.75H10.1054V2.5Z" fill="#804FFF"/>
<path d="M9.84226 2.5H9.5791V2.75H9.84226V2.5Z" fill="#804FFF"/>
<path d="M9.84226 2.25H9.5791V2.5H9.84226V2.25Z" fill="#804FFF"/>
<path d="M9.57908 2.25H9.31592V2.5H9.57908V2.25Z" fill="#804FFF"/>
<path d="M9.57908 2H9.31592V2.25H9.57908V2Z" fill="#804FFF"/>
<path d="M9.31589 2H9.05273V2.25H9.31589V2Z" fill="#804FFF"/>
<path d="M9.05271 2H8.78955V2.25H9.05271V2Z" fill="#804FFF"/>
<path d="M8.78953 2H8.52637V2.25H8.78953V2Z" fill="#804FFF"/>
<path d="M8.52634 2H8.26318V2.25H8.52634V2Z" fill="#804FFF"/>
<path d="M8.26316 2H8V2.25H8.26316V2Z" fill="#804FFF"/>
<path d="M7.99997 2H7.73682V2.25H7.99997V2Z" fill="#804FFF"/>
<path d="M7.73679 2H7.47363V2.25H7.73679V2Z" fill="#804FFF"/>
<path d="M7.73679 2.25H7.47363V2.5H7.73679V2.25Z" fill="#804FFF"/>
<path d="M7.47361 2.25H7.21045V2.5H7.47361V2.25Z" fill="#804FFF"/>
<path d="M7.47361 2.5H7.21045V2.75H7.47361V2.5Z" fill="#804FFF"/>
<path d="M7.21042 2.5H6.94727V2.75H7.21042V2.5Z" fill="#804FFF"/>
<path d="M6.94724 2.5H6.68408V2.75H6.94724V2.5Z" fill="#804FFF"/>
<path d="M6.94724 2.25H6.68408V2.5H6.94724V2.25Z" fill="#804FFF"/>
<path d="M7.21042 2.25H6.94727V2.5H7.21042V2.25Z" fill="#804FFF"/>
<path d="M7.47361 2.25H7.21045V2.5H7.47361V2.25Z" fill="#804FFF"/>
<path d="M7.73679 2.25H7.47363V2.5H7.73679V2.25Z" fill="#804FFF"/>
<path d="M7.99997 2.25H7.73682V2.5H7.99997V2.25Z" fill="#804FFF"/>
<path d="M8.26316 2.25H8V2.5H8.26316V2.25Z" fill="#804FFF"/>
<path d="M8.52634 2.25H8.26318V2.5H8.52634V2.25Z" fill="#804FFF"/>
<path d="M8.78953 2.25H8.52637V2.5H8.78953V2.25Z" fill="#804FFF"/>
<path d="M9.05271 2.25H8.78955V2.5H9.05271V2.25Z" fill="#804FFF"/>
<path d="M9.31589 2.25H9.05273V2.5H9.31589V2.25Z" fill="#804FFF"/>
<path d="M9.57908 2.25H9.31592V2.5H9.57908V2.25Z" fill="#804FFF"/>
<path d="M9.57908 2.5H9.31592V2.75H9.57908V2.5Z" fill="#804FFF"/>
<path d="M9.84226 2.5H9.5791V2.75H9.84226V2.5Z" fill="#804FFF"/>
<path d="M9.57908 2.5H9.31592V2.75H9.57908V2.5Z" fill="#804FFF"/>
<path d="M9.31589 2.5H9.05273V2.75H9.31589V2.5Z" fill="#804FFF"/>
<path d="M9.05271 2.5H8.78955V2.75H9.05271V2.5Z" fill="#804FFF"/>
<path d="M8.78953 2.5H8.52637V2.75H8.78953V2.5Z" fill="#804FFF"/>
<path d="M8.52634 2.5H8.26318V2.75H8.52634V2.5Z" fill="#804FFF"/>
<path d="M8.26316 2.5H8V2.75H8.26316V2.5Z" fill="#804FFF"/>
<path d="M7.99997 2.5H7.73682V2.75H7.99997V2.5Z" fill="#804FFF"/>
<path d="M7.73679 2.5H7.47363V2.75H7.73679V2.5Z" fill="#804FFF"/>
<path d="M7.47361 2.5H7.21045V2.75H7.47361V2.5Z" fill="#804FFF"/>
<path d="M7.21042 2.5H6.94727V2.75H7.21042V2.5Z" fill="#804FFF"/>
<path d="M6.94724 2.5H6.68408V2.75H6.94724V2.5Z" fill="#804FFF"/>
<path d="M6.68406 2.5H6.4209V2.75H6.68406V2.5Z" fill="#804FFF"/>
<path d="M6.42087 2.5H6.15771V2.75H6.42087V2.5Z" fill="#804FFF"/>
<path d="M6.15769 2.5H5.89453V2.75H6.15769V2.5Z" fill="#804FFF"/>
<path d="M6.15769 2.75H5.89453V3H6.15769V2.75Z" fill="#804FFF"/>
<path d="M6.42087 2.75H6.15771V3H6.42087V2.75Z" fill="#804FFF"/>
<path d="M6.68406 2.75H6.4209V3H6.68406V2.75Z" fill="#804FFF"/>
<path d="M6.94724 2.75H6.68408V3H6.94724V2.75Z" fill="#804FFF"/>
<path d="M7.21042 2.75H6.94727V3H7.21042V2.75Z" fill="#804FFF"/>
<path d="M7.47361 2.75H7.21045V3H7.47361V2.75Z" fill="#804FFF"/>
<path d="M7.73679 2.75H7.47363V3H7.73679V2.75Z" fill="#804FFF"/>
<path d="M7.99997 2.75H7.73682V3H7.99997V2.75Z" fill="#804FFF"/>
<path d="M8.26316 2.75H8V3H8.26316V2.75Z" fill="#804FFF"/>
<path d="M8.52634 2.75H8.26318V3H8.52634V2.75Z" fill="#804FFF"/>
<path d="M8.78953 2.75H8.52637V3H8.78953V2.75Z" fill="#804FFF"/>
<path d="M9.05271 2.75H8.78955V3H9.05271V2.75Z" fill="#804FFF"/>
<path d="M9.31589 2.75H9.05273V3H9.31589V2.75Z" fill="#804FFF"/>
<path d="M9.57908 2.75H9.31592V3H9.57908V2.75Z" fill="#804FFF"/>
<path d="M9.84226 2.75H9.5791V3H9.84226V2.75Z" fill="#804FFF"/>
<path d="M9.84226 3H9.5791V3.25H9.84226V3Z" fill="#804FFF"/>
<path d="M9.57908 3H9.31592V3.25H9.57908V3Z" fill="#804FFF"/>
<path d="M9.84226 3H9.5791V3.25H9.84226V3Z" fill="#804FFF"/>
<path d="M9.84226 2.75H9.5791V3H9.84226V2.75Z" fill="#804FFF"/>
<path d="M10.1054 2.75H9.84229V3H10.1054V2.75Z" fill="#804FFF"/>
<path d="M10.1054 3H9.84229V3.25H10.1054V3Z" fill="#804FFF"/>
<path d="M9.84226 3H9.5791V3.25H9.84226V3Z" fill="#804FFF"/>
<path d="M9.57908 3H9.31592V3.25H9.57908V3Z" fill="#804FFF"/>
<path d="M9.31589 3H9.05273V3.25H9.31589V3Z" fill="#804FFF"/>
<path d="M9.05271 3H8.78955V3.25H9.05271V3Z" fill="#804FFF"/>
<path d="M8.78953 3H8.52637V3.25H8.78953V3Z" fill="#804FFF"/>
<path d="M8.52634 3H8.26318V3.25H8.52634V3Z" fill="#804FFF"/>
<path d="M8.26316 3H8V3.25H8.26316V3Z" fill="#804FFF"/>
<path d="M7.99997 3H7.73682V3.25H7.99997V3Z" fill="#804FFF"/>
<path d="M7.73679 3H7.47363V3.25H7.73679V3Z" fill="#804FFF"/>
<path d="M7.47361 3H7.21045V3.25H7.47361V3Z" fill="#804FFF"/>
<path d="M7.21042 3H6.94727V3.25H7.21042V3Z" fill="#804FFF"/>
<path d="M6.94724 3H6.68408V3.25H6.94724V3Z" fill="#804FFF"/>
<path d="M6.68406 3H6.4209V3.25H6.68406V3Z" fill="#804FFF"/>
<path d="M6.42087 3H6.15771V3.25H6.42087V3Z" fill="#804FFF"/>
<path d="M6.15769 3H5.89453V3.25H6.15769V3Z" fill="#804FFF"/>
<path d="M5.89451 3H5.63135V3.25H5.89451V3Z" fill="#804FFF"/>
<path d="M5.89451 3.25H5.63135V3.5H5.89451V3.25Z" fill="#804FFF"/>
<path d="M5.63181 3.25H5.36865V3.5H5.63181V3.25Z" fill="#804FFF"/>
<path d="M5.36863 3.25H5.10547V3.5H5.36863V3.25Z" fill="#804FFF"/>
<path d="M5.10544 3.25H4.84229V3.5H5.10544V3.25Z" fill="#804FFF"/>
<path d="M4.84226 3.25H4.5791V3.5H4.84226V3.25Z" fill="#804FFF"/>
<path d="M4.57908 3.25H4.31592V3.5H4.57908V3.25Z" fill="#804FFF"/>
<path d="M4.31589 3.25H4.05273V3.5H4.31589V3.25Z" fill="#804FFF"/>
<path d="M4.57908 3.25H4.31592V3.5H4.57908V3.25Z" fill="#804FFF"/>
<path d="M4.84226 3.25H4.5791V3.5H4.84226V3.25Z" fill="#804FFF"/>
<path d="M5.10544 3.25H4.84229V3.5H5.10544V3.25Z" fill="#804FFF"/>
<path d="M5.36863 3.25H5.10547V3.5H5.36863V3.25Z" fill="#804FFF"/>
<path d="M5.63181 3.25H5.36865V3.5H5.63181V3.25Z" fill="#804FFF"/>
<path d="M5.89451 3.25H5.63135V3.5H5.89451V3.25Z" fill="#804FFF"/>
<path d="M6.15769 3.25H5.89453V3.5H6.15769V3.25Z" fill="#804FFF"/>
<path d="M6.42087 3.25H6.15771V3.5H6.42087V3.25Z" fill="#804FFF"/>
<path d="M6.68406 3.25H6.4209V3.5H6.68406V3.25Z" fill="#804FFF"/>
<path d="M6.94724 3.25H6.68408V3.5H6.94724V3.25Z" fill="#804FFF"/>
<path d="M7.21042 3.25H6.94727V3.5H7.21042V3.25Z" fill="#804FFF"/>
<path d="M7.47361 3.25H7.21045V3.5H7.47361V3.25Z" fill="#804FFF"/>
<path d="M7.73679 3.25H7.47363V3.5H7.73679V3.25Z" fill="#804FFF"/>
<path d="M7.99997 3.25H7.73682V3.5H7.99997V3.25Z" fill="#804FFF"/>
<path d="M8.26316 3.25H8V3.5H8.26316V3.25Z" fill="#804FFF"/>
<path d="M8.52634 3.25H8.26318V3.5H8.52634V3.25Z" fill="#804FFF"/>
<path d="M8.78953 3.25H8.52637V3.5H8.78953V3.25Z" fill="#804FFF"/>
<path d="M9.05271 3.25H8.78955V3.5H9.05271V3.25Z" fill="#804FFF"/>
<path d="M9.31589 3.25H9.05273V3.5H9.31589V3.25Z" fill="#804FFF"/>
<path d="M9.57908 3.25H9.31592V3.5H9.57908V3.25Z" fill="#804FFF"/>
<path d="M9.84226 3.25H9.5791V3.5H9.84226V3.25Z" fill="#804FFF"/>
<path d="M10.1054 3.25H9.84229V3.5H10.1054V3.25Z" fill="#804FFF"/>
<path d="M10.3686 3.25H10.1055V3.5H10.3686V3.25Z" fill="#804FFF"/>
<path d="M10.6318 3.25H10.3687V3.5H10.6318V3.25Z" fill="#804FFF"/>
<path d="M10.8945 3.25H10.6313V3.5H10.8945V3.25Z" fill="#804FFF"/>
<path d="M11.1577 3.25H10.8945V3.5H11.1577V3.25Z" fill="#804FFF"/>
<path d="M11.4209 3.25H11.1577V3.5H11.4209V3.25Z" fill="#804FFF"/>
<path d="M11.6841 3.25H11.4209V3.5H11.6841V3.25Z" fill="#804FFF"/>
<path d="M11.9472 3.25H11.6841V3.5H11.9472V3.25Z" fill="#804FFF"/>
<path d="M11.6841 3.25H11.4209V3.5H11.6841V3.25Z" fill="#804FFF"/>
<path d="M11.6841 3H11.4209V3.25H11.6841V3Z" fill="#804FFF"/>
<path d="M11.4209 3H11.1577V3.25H11.4209V3Z" fill="#804FFF"/>
<path d="M11.1577 3H10.8945V3.25H11.1577V3Z" fill="#804FFF"/>
<path d="M10.8945 3H10.6313V3.25H10.8945V3Z" fill="#804FFF"/>
<path d="M10.6318 3H10.3687V3.25H10.6318V3Z" fill="#804FFF"/>
<path d="M10.3686 3H10.1055V3.25H10.3686V3Z" fill="#804FFF"/>
<path d="M10.3686 2.75H10.1055V3H10.3686V2.75Z" fill="#804FFF"/>
<path d="M10.6318 2.75H10.3687V3H10.6318V2.75Z" fill="#804FFF"/>
<path d="M10.8945 2.75H10.6313V3H10.8945V2.75Z" fill="#804FFF"/>
<path d="M11.1577 2.75H10.8945V3H11.1577V2.75Z" fill="#804FFF"/>
<path d="M10.8945 2.75H10.6313V3H10.8945V2.75Z" fill="#804FFF"/>
<path d="M10.6318 2.75H10.3687V3H10.6318V2.75Z" fill="#804FFF"/>
<path d="M10.3686 2.75H10.1055V3H10.3686V2.75Z" fill="#804FFF"/>
<path d="M10.1054 2.75H9.84229V3H10.1054V2.75Z" fill="#804FFF"/>
<path d="M9.84226 2.75H9.5791V3H9.84226V2.75Z" fill="#804FFF"/>
<path d="M9.57908 2.75H9.31592V3H9.57908V2.75Z" fill="#804FFF"/>
<path d="M9.31589 2.75H9.05273V3H9.31589V2.75Z" fill="#804FFF"/>
<path d="M9.05271 2.75H8.78955V3H9.05271V2.75Z" fill="#804FFF"/>
<path d="M8.78953 2.75H8.52637V3H8.78953V2.75Z" fill="#804FFF"/>
<path d="M8.52634 2.75H8.26318V3H8.52634V2.75Z" fill="#804FFF"/>
<path d="M8.26316 2.75H8V3H8.26316V2.75Z" fill="#804FFF"/>
<path d="M7.99997 2.75H7.73682V3H7.99997V2.75Z" fill="#804FFF"/>
<path d="M7.73679 2.75H7.47363V3H7.73679V2.75Z" fill="#804FFF"/>
<path d="M7.47361 2.75H7.21045V3H7.47361V2.75Z" fill="#804FFF"/>
<path d="M7.21042 2.75H6.94727V3H7.21042V2.75Z" fill="#804FFF"/>
<path d="M6.94724 2.75H6.68408V3H6.94724V2.75Z" fill="#804FFF"/>
<path d="M6.68406 2.75H6.4209V3H6.68406V2.75Z" fill="#804FFF"/>
<path d="M6.42087 2.75H6.15771V3H6.42087V2.75Z" fill="#804FFF"/>
<path d="M6.15769 2.75H5.89453V3H6.15769V2.75Z" fill="#804FFF"/>
<path d="M5.89451 2.75H5.63135V3H5.89451V2.75Z" fill="#804FFF"/>
<path d="M5.63181 2.75H5.36865V3H5.63181V2.75Z" fill="#804FFF"/>
<path d="M5.36863 2.75H5.10547V3H5.36863V2.75Z" fill="#804FFF"/>
<path d="M5.10544 2.75H4.84229V3H5.10544V2.75Z" fill="#804FFF"/>
<path d="M5.10544 3H4.84229V3.25H5.10544V3Z" fill="#804FFF"/>
<path d="M4.84226 3H4.5791V3.25H4.84226V3Z" fill="#804FFF"/>
<path d="M4.84226 3.25H4.5791V3.5H4.84226V3.25Z" fill="#804FFF"/>
<path d="M4.57908 3.25H4.31592V3.5H4.57908V3.25Z" fill="#804FFF"/>
<path d="M4.31589 3.25H4.05273V3.5H4.31589V3.25Z" fill="#804FFF"/>
<path d="M4.05271 3.25H3.78955V3.5H4.05271V3.25Z" fill="#804FFF"/>
<path d="M3.78953 3.25H3.52637V3.5H3.78953V3.25Z" fill="#804FFF"/>
<path d="M4.05271 3.25H3.78955V3.5H4.05271V3.25Z" fill="#804FFF"/>
<path d="M4.31589 3.25H4.05273V3.5H4.31589V3.25Z" fill="#804FFF"/>
<path d="M4.57908 3.25H4.31592V3.5H4.57908V3.25Z" fill="#804FFF"/>
<path d="M4.84226 3.25H4.5791V3.5H4.84226V3.25Z" fill="#804FFF"/>
<path d="M5.10544 3.25H4.84229V3.5H5.10544V3.25Z" fill="#804FFF"/>
<path d="M5.36863 3.25H5.10547V3.5H5.36863V3.25Z" fill="#804FFF"/>
<path d="M5.63181 3.25H5.36865V3.5H5.63181V3.25Z" fill="#804FFF"/>
<path d="M5.89451 3.25H5.63135V3.5H5.89451V3.25Z" fill="#804FFF"/>
<path d="M6.15769 3.25H5.89453V3.5H6.15769V3.25Z" fill="#804FFF"/>
<path d="M6.42087 3.25H6.15771V3.5H6.42087V3.25Z" fill="#804FFF"/>
<path d="M6.68406 3.25H6.4209V3.5H6.68406V3.25Z" fill="#804FFF"/>
<path d="M6.94724 3.25H6.68408V3.5H6.94724V3.25Z" fill="#804FFF"/>
<path d="M7.21042 3.25H6.94727V3.5H7.21042V3.25Z" fill="#804FFF"/>
<path d="M7.47361 3.25H7.21045V3.5H7.47361V3.25Z" fill="#804FFF"/>
<path d="M7.73679 3.25H7.47363V3.5H7.73679V3.25Z" fill="#804FFF"/>
<path d="M7.99997 3.25H7.73682V3.5H7.99997V3.25Z" fill="#804FFF"/>
<path d="M8.26316 3.25H8V3.5H8.26316V3.25Z" fill="#804FFF"/>
<path d="M8.52634 3.25H8.26318V3.5H8.52634V3.25Z" fill="#804FFF"/>
<path d="M8.78953 3.25H8.52637V3.5H8.78953V3.25Z" fill="#804FFF"/>
<path d="M9.05271 3.25H8.78955V3.5H9.05271V3.25Z" fill="#804FFF"/>
<path d="M9.31589 3.25H9.05273V3.5H9.31589V3.25Z" fill="#804FFF"/>
<path d="M9.57908 3.25H9.31592V3.5H9.57908V3.25Z" fill="#804FFF"/>
<path d="M9.84226 3.25H9.5791V3.5H9.84226V3.25Z" fill="#804FFF"/>
<path d="M10.1054 3.25H9.84229V3.5H10.1054V3.25Z" fill="#804FFF"/>
<path d="M10.3686 3.25H10.1055V3.5H10.3686V3.25Z" fill="#804FFF"/>
<path d="M10.6318 3.25H10.3687V3.5H10.6318V3.25Z" fill="#804FFF"/>
<path d="M10.8945 3.25H10.6313V3.5H10.8945V3.25Z" fill="#804FFF"/>
<path d="M11.1577 3.25H10.8945V3.5H11.1577V3.25Z" fill="#804FFF"/>
<path d="M11.4209 3.25H11.1577V3.5H11.4209V3.25Z" fill="#804FFF"/>
<path d="M11.6841 3.25H11.4209V3.5H11.6841V3.25Z" fill="#804FFF"/>
<path d="M11.9472 3.25H11.6841V3.5H11.9472V3.25Z" fill="#804FFF"/>
<path d="M12.2104 3.25H11.9473V3.5H12.2104V3.25Z" fill="#804FFF"/>
<path d="M12.4736 3.25H12.2104V3.5H12.4736V3.25Z" fill="#804FFF"/>
<path d="M12.4736 3.5H12.2104V3.75H12.4736V3.5Z" fill="#804FFF"/>
<path d="M12.7368 3.5H12.4736V3.75H12.7368V3.5Z" fill="#804FFF"/>
<path d="M13 3.5H12.7368V3.75H13V3.5Z" fill="#804FFF"/>
<path d="M13 3.75H12.7368V4H13V3.75Z" fill="#804FFF"/>
<path d="M13 4H12.7368V4.25H13V4Z" fill="#804FFF"/>
<path d="M13 4.25H12.7368V4.5H13V4.25Z" fill="#804FFF"/>
<path d="M13 4.5H12.7368V4.75H13V4.5Z" fill="#804FFF"/>
<path d="M13 4.75H12.7368V5H13V4.75Z" fill="#804FFF"/>
<path d="M13 5H12.7368V5.25H13V5Z" fill="#804FFF"/>
<path d="M13 5.25H12.7368V5.5H13V5.25Z" fill="#804FFF"/>
<path d="M13 5.5H12.7368V5.75H13V5.5Z" fill="#804FFF"/>
<path d="M13 5.75H12.7368V6H13V5.75Z" fill="#804FFF"/>
<path d="M13 6H12.7368V6.25H13V6Z" fill="#804FFF"/>
<path d="M13 6.25H12.7368V6.5H13V6.25Z" fill="#804FFF"/>
<path d="M13 6.5H12.7368V6.75H13V6.5Z" fill="#804FFF"/>
<path d="M13 6.75H12.7368V7H13V6.75Z" fill="#804FFF"/>
<path d="M13 7H12.7368V7.25H13V7Z" fill="#804FFF"/>
<path d="M13 7.25H12.7368V7.5H13V7.25Z" fill="#804FFF"/>
<path d="M13 7.5H12.7368V7.75H13V7.5Z" fill="#804FFF"/>
<path d="M13 7.75H12.7368V8H13V7.75Z" fill="#804FFF"/>
<path d="M13 8H12.7368V8.25H13V8Z" fill="#804FFF"/>
<path d="M13 8.25H12.7368V8.5H13V8.25Z" fill="#804FFF"/>
<path d="M13 8.5H12.7368V8.75H13V8.5Z" fill="#804FFF"/>
<path d="M13 8.75H12.7368V9H13V8.75Z" fill="#804FFF"/>
<path d="M13 9H12.7368V9.25H13V9Z" fill="#804FFF"/>
<path d="M13 9.25H12.7368V9.5H13V9.25Z" fill="#804FFF"/>
<path d="M13 9.5H12.7368V9.75H13V9.5Z" fill="#804FFF"/>
<path d="M13 9.75H12.7368V10H13V9.75Z" fill="#804FFF"/>
<path d="M13 10H12.7368V10.25H13V10Z" fill="#804FFF"/>
<path d="M13 10.25H12.7368V10.5H13V10.25Z" fill="#804FFF"/>
<path d="M12.7368 10.25H12.4736V10.5H12.7368V10.25Z" fill="#804FFF"/>
<path d="M12.4736 10.25H12.2104V10.5H12.4736V10.25Z" fill="#804FFF"/>
<path d="M12.4736 10.5H12.2104V10.75H12.4736V10.5Z" fill="#804FFF"/>
<path d="M12.4736 10.75H12.2104V11H12.4736V10.75Z" fill="#804FFF"/>
<path d="M12.4736 11H12.2104V11.25H12.4736V11Z" fill="#804FFF"/>
<path d="M12.4736 11.25H12.2104V11.5H12.4736V11.25Z" fill="#804FFF"/>
<path d="M12.4736 11.5H12.2104V11.75H12.4736V11.5Z" fill="#804FFF"/>
<path d="M12.2104 11.5H11.9473V11.75H12.2104V11.5Z" fill="#804FFF"/>
<path d="M11.9472 11.5H11.6841V11.75H11.9472V11.5Z" fill="#804FFF"/>
<path d="M11.6841 11.5H11.4209V11.75H11.6841V11.5Z" fill="#804FFF"/>
<path d="M11.6841 11.75H11.4209V12H11.6841V11.75Z" fill="#804FFF"/>
<path d="M11.6841 11.5H11.4209V11.75H11.6841V11.5Z" fill="#804FFF"/>
<path d="M11.9472 11.5H11.6841V11.75H11.9472V11.5Z" fill="#804FFF"/>
<path d="M11.9472 11.75H11.6841V12H11.9472V11.75Z" fill="#804FFF"/>
<path d="M11.9472 12H11.6841V12.25H11.9472V12Z" fill="#804FFF"/>
<path d="M11.6841 12H11.4209V12.25H11.6841V12Z" fill="#804FFF"/>
<path d="M11.4209 12H11.1577V12.25H11.4209V12Z" fill="#804FFF"/>
<path d="M11.1577 12H10.8945V12.25H11.1577V12Z" fill="#804FFF"/>
<path d="M11.1577 12.25H10.8945V12.5H11.1577V12.25Z" fill="#804FFF"/>
<path d="M11.1577 12.5H10.8945V12.75H11.1577V12.5Z" fill="#804FFF"/>
<path d="M11.1577 12.75H10.8945V13H11.1577V12.75Z" fill="#804FFF"/>
<path d="M10.8945 12.75H10.6313V13H10.8945V12.75Z" fill="#804FFF"/>
<path d="M10.6318 12.75H10.3687V13H10.6318V12.75Z" fill="#804FFF"/>
<path d="M10.3686 12.75H10.1055V13H10.3686V12.75Z" fill="#804FFF"/>
<path d="M10.3686 13H10.1055V13.25H10.3686V13Z" fill="#804FFF"/>
<path d="M10.6318 13H10.3687V13.25H10.6318V13Z" fill="#804FFF"/>
<path d="M10.6318 12.75H10.3687V13H10.6318V12.75Z" fill="#804FFF"/>
<path d="M10.6318 13H10.3687V13.25H10.6318V13Z" fill="#804FFF"/>
<path d="M10.3686 13H10.1055V13.25H10.3686V13Z" fill="#804FFF"/>
<path d="M10.3686 13.25H10.1055V13.5H10.3686V13.25Z" fill="#804FFF"/>
<path d="M10.6318 13.25H10.3687V13.5H10.6318V13.25Z" fill="#804FFF"/>
<path d="M10.3686 13.25H10.1055V13.5H10.3686V13.25Z" fill="#804FFF"/>
<path d="M10.1054 13.25H9.84229V13.5H10.1054V13.25Z" fill="#804FFF"/>
<path d="M9.84226 13.25H9.5791V13.5H9.84226V13.25Z" fill="#804FFF"/>
<path d="M9.84226 13.5H9.5791V13.75H9.84226V13.5Z" fill="#804FFF"/>
<path d="M9.57908 13.5H9.31592V13.75H9.57908V13.5Z" fill="#804FFF"/>
<path d="M9.57908 13.75H9.31592V14H9.57908V13.75Z" fill="#804FFF"/>
<path d="M9.84226 13.75H9.5791V14H9.84226V13.75Z" fill="#804FFF"/>
<path d="M9.84226 13.5H9.5791V13.75H9.84226V13.5Z" fill="#804FFF"/>
<path d="M10.1054 13.5H9.84229V13.75H10.1054V13.5Z" fill="#804FFF"/>
<path d="M10.1054 13.75H9.84229V14H10.1054V13.75Z" fill="#804FFF"/>
<path d="M9.84226 13.75H9.5791V14H9.84226V13.75Z" fill="#804FFF"/>
<path d="M9.57908 13.75H9.31592V14H9.57908V13.75Z" fill="#804FFF"/>
<path d="M9.31589 13.75H9.05273V14H9.31589V13.75Z" fill="#804FFF"/>
<path d="M9.05271 13.75H8.78955V14H9.05271V13.75Z" fill="#804FFF"/>
<path d="M8.78953 13.75H8.52637V14H8.78953V13.75Z" fill="#804FFF"/>
<path d="M8.52634 13.75H8.26318V14H8.52634V13.75Z" fill="#804FFF"/>
<path d="M8.26316 13.75H8V14H8.26316V13.75Z" fill="#804FFF"/>
<path d="M7.99997 13.75H7.73682V14H7.99997V13.75Z" fill="#804FFF"/>
<path d="M7.73679 13.75H7.47363V14H7.73679V13.75Z" fill="#804FFF"/>
<path d="M7.47361 13.75H7.21045V14H7.47361V13.75Z" fill="#804FFF"/>
<path d="M7.21042 13.75H6.94727V14H7.21042V13.75Z" fill="#804FFF"/>
<path d="M6.94724 13.75H6.68408V14H6.94724V13.75Z" fill="#804FFF"/>
<path d="M6.68406 13.75H6.4209V14H6.68406V13.75Z" fill="#804FFF"/>
<path d="M6.42087 13.75H6.15771V14H6.42087V13.75Z" fill="#804FFF"/>
<path d="M6.42087 13.5H6.15771V13.75H6.42087V13.5Z" fill="#804FFF"/>
<path d="M6.42087 13.25H6.15771V13.5H6.42087V13.25Z" fill="#804FFF"/>
<path d="M6.15769 13.25H5.89453V13.5H6.15769V13.25Z" fill="#804FFF"/>
<path d="M5.89451 13.25H5.63135V13.5H5.89451V13.25Z" fill="#804FFF"/>
<path d="M5.89451 13H5.63135V13.25H5.89451V13Z" fill="#804FFF"/>
<path d="M5.89451 12.75H5.63135V13H5.89451V12.75Z" fill="#804FFF"/>
<path d="M5.63181 12.75H5.36865V13H5.63181V12.75Z" fill="#804FFF"/>
<path d="M5.36863 12.75H5.10547V13H5.36863V12.75Z" fill="#804FFF"/>
<path d="M5.36863 12.5H5.10547V12.75H5.36863V12.5Z" fill="#804FFF"/>
<path d="M5.36863 12.25H5.10547V12.5H5.36863V12.25Z" fill="#804FFF"/>
<path d="M5.36863 12H5.10547V12.25H5.36863V12Z" fill="#804FFF"/>
<path d="M5.10544 12H4.84229V12.25H5.10544V12Z" fill="#804FFF"/>
<path d="M4.84226 12H4.5791V12.25H4.84226V12Z" fill="#804FFF"/>
<path d="M4.57908 12H4.31592V12.25H4.57908V12Z" fill="#804FFF"/>
<path d="M4.57908 11.75H4.31592V12H4.57908V11.75Z" fill="#804FFF"/>
<path d="M4.57908 11.5H4.31592V11.75H4.57908V11.5Z" fill="#804FFF"/>
<path d="M4.31589 11.5H4.05273V11.75H4.31589V11.5Z" fill="#804FFF"/>
<path d="M4.05271 11.5H3.78955V11.75H4.05271V11.5Z" fill="#804FFF"/>
<path d="M4.05271 11.25H3.78955V11.5H4.05271V11.25Z" fill="#804FFF"/>
<path d="M4.05271 11H3.78955V11.25H4.05271V11Z" fill="#804FFF"/>
<path d="M4.05271 10.75H3.78955V11H4.05271V10.75Z" fill="#804FFF"/>
<path d="M4.05271 10.5H3.78955V10.75H4.05271V10.5Z" fill="#804FFF"/>
<path d="M4.05271 10.25H3.78955V10.5H4.05271V10.25Z" fill="#804FFF"/>
<path d="M3.78953 10.25H3.52637V10.5H3.78953V10.25Z" fill="#804FFF"/>
<path d="M3.52634 10.25H3.26318V10.5H3.52634V10.25Z" fill="#804FFF"/>
<path d="M3.26316 10.25H3V10.5H3.26316V10.25Z" fill="#804FFF"/>
<path d="M3.26316 10H3V10.25H3.26316V10Z" fill="#804FFF"/>
<path d="M3.26316 9.75H3V10H3.26316V9.75Z" fill="#804FFF"/>
<path d="M3.26316 9.5H3V9.75H3.26316V9.5Z" fill="#804FFF"/>
<path d="M3.26316 9.25H3V9.5H3.26316V9.25Z" fill="#804FFF"/>
<path d="M3.26316 9H3V9.25H3.26316V9Z" fill="#804FFF"/>
<path d="M3.26316 8.75H3V9H3.26316V8.75Z" fill="#804FFF"/>
<path d="M3.26316 8.5H3V8.75H3.26316V8.5Z" fill="#804FFF"/>
<path d="M3.26316 8.25H3V8.5H3.26316V8.25Z" fill="#804FFF"/>
<path d="M3.26316 8H3V8.25H3.26316V8Z" fill="#804FFF"/>
<path d="M3.26316 7.75H3V8H3.26316V7.75Z" fill="#804FFF"/>
<path d="M3.26316 7.5H3V7.75H3.26316V7.5Z" fill="#804FFF"/>
<path d="M3.26316 7.25H3V7.5H3.26316V7.25Z" fill="#804FFF"/>
<path d="M3.26316 7H3V7.25H3.26316V7Z" fill="#804FFF"/>
<path d="M3.26316 6.75H3V7H3.26316V6.75Z" fill="#804FFF"/>
<path d="M3.26316 6.5H3V6.75H3.26316V6.5Z" fill="#804FFF"/>
<path d="M3.26316 6.25H3V6.5H3.26316V6.25Z" fill="#804FFF"/>
<path d="M3.26316 6H3V6.25H3.26316V6Z" fill="#804FFF"/>
<path d="M3.26316 5.75H3V6H3.26316V5.75Z" fill="#804FFF"/>
<path d="M3.26316 5.5H3V5.75H3.26316V5.5Z" fill="#804FFF"/>
<path d="M3.26316 5.25H3V5.5H3.26316V5.25Z" fill="#804FFF"/>
<path d="M3.26316 5H3V5.25H3.26316V5Z" fill="#804FFF"/>
<path d="M3.26316 4.75H3V5H3.26316V4.75Z" fill="#804FFF"/>
<path d="M3.26316 4.5H3V4.75H3.26316V4.5Z" fill="#804FFF"/>
<path d="M3.26316 4.25H3V4.5H3.26316V4.25Z" fill="#804FFF"/>
<path d="M3.26316 4H3V4.25H3.26316V4Z" fill="#804FFF"/>
<path d="M3.26316 3.75H3V4H3.26316V3.75Z" fill="#804FFF"/>
<path d="M3.26316 3.5H3V3.75H3.26316V3.5Z" fill="#804FFF"/>
<path d="M10.8949 7H5.10547V8.75H10.8949V7Z" fill="white"/>
<path d="M8.9209 10.75V5.25H7.07879V10.75H8.9209Z" fill="white"/>
<path d="M7.21055 3.75H3.26318V7H7.21055V3.75Z" fill="#804FFF"/>
<path d="M12.7367 3.75H6.94727V5.25H12.7367V3.75Z" fill="#804FFF"/>
<path d="M12.7369 5.25H8.78955V7H12.7369V5.25Z" fill="#804FFF"/>
<path d="M12.7366 7H10.8945V10.25H12.7366V7Z" fill="#804FFF"/>
<path d="M12.2106 8.75H8.78955V11.5H12.2106V8.75Z" fill="#804FFF"/>
<path d="M5.10529 7H3.26318V10.25H5.10529V7Z" fill="#804FFF"/>
<path d="M7.21073 8.75H5.10547V10.75H7.21073V8.75Z" fill="#804FFF"/>
<path d="M5.10537 10.25H4.05273V11.5H5.10537V10.25Z" fill="#804FFF"/>
<path d="M8.78968 10.75H5.10547V12H8.78968V10.75Z" fill="#804FFF"/>
<path d="M5.10542 11.5H4.5791V12H5.10542V11.5Z" fill="#804FFF"/>
<path d="M10.8948 11.5H8.78955V12.75H10.8948V11.5Z" fill="#804FFF"/>
<path d="M11.4208 11.5H10.8945V12H11.4208V11.5Z" fill="#804FFF"/>
<path d="M8.78971 12H5.36865V13H8.78971V12Z" fill="#804FFF"/>
<path d="M10.1051 13H5.89453V13.25H10.1051V13Z" fill="#804FFF"/>
<path d="M10.1053 12.75H8.78955V13H10.1053V12.75Z" fill="#804FFF"/>
<path d="M9.31564 13.25H6.4209V13.75H9.31564V13.25Z" fill="#804FFF"/>
<path d="M9.57908 13.25H9.31592V13.5H9.57908V13.25Z" fill="#804FFF"/>
</svg>
