<svg width="20" height="20" viewBox="0 0 20 20" fill="none" xmlns="http://www.w3.org/2000/svg">
<g clip-path="url(#clip0_1393_81805)">
<path d="M7.14244 0H5.71387V1.42857H7.14244V0Z" fill="#202540"/>
<path d="M8.57115 0H7.14258V1.42857H8.57115V0Z" fill="#202540"/>
<path d="M9.99986 0H8.57129V1.42857H9.99986V0Z" fill="#202540"/>
<path d="M11.4286 0H10V1.42857H11.4286V0Z" fill="#202540"/>
<path d="M12.8573 0H11.4287V1.42857H12.8573V0Z" fill="#202540"/>
<path d="M14.286 0H12.8574V1.42857H14.286V0Z" fill="#202540"/>
<path d="M15.7147 1.42773H14.2861V2.85631H15.7147V1.42773Z" fill="#202540"/>
<path d="M17.1424 1.42773H15.7139V2.85631H17.1424V1.42773Z" fill="#202540"/>
<path d="M17.1424 2.85645H15.7139V4.28502H17.1424V2.85645Z" fill="#202540"/>
<path d="M18.5711 2.85645H17.1426V4.28502H18.5711V2.85645Z" fill="#202540"/>
<path d="M18.5711 4.28711H17.1426V5.71568H18.5711V4.28711Z" fill="#202540"/>
<path d="M18.5711 5.71289H17.1426V7.14146H18.5711V5.71289Z" fill="#202540"/>
<path d="M19.9999 5.71289H18.5713V7.14146H19.9999V5.71289Z" fill="#202540"/>
<path d="M19.9999 7.14355H18.5713V8.57213H19.9999V7.14355Z" fill="#202540"/>
<path d="M19.9999 8.57227H18.5713V10.0008H19.9999V8.57227Z" fill="#202540"/>
<path d="M19.9999 10H18.5713V11.4286H19.9999V10Z" fill="#202540"/>
<path d="M19.9999 11.4277H18.5713V12.8563H19.9999V11.4277Z" fill="#202540"/>
<path d="M19.9999 12.8564H18.5713V14.285H19.9999V12.8564Z" fill="#202540"/>
<path d="M18.5711 12.8564H17.1426V14.285H18.5711V12.8564Z" fill="#202540"/>
<path d="M18.5711 14.2871H17.1426V15.7157H18.5711V14.2871Z" fill="#202540"/>
<path d="M18.5711 15.7129H17.1426V17.1415H18.5711V15.7129Z" fill="#202540"/>
<path d="M17.1424 15.7129H15.7139V17.1415H17.1424V15.7129Z" fill="#202540"/>
<path d="M17.1424 17.1436H15.7139V18.5721H17.1424V17.1436Z" fill="#202540"/>
<path d="M15.7147 17.1436H14.2861V18.5721H15.7147V17.1436Z" fill="#202540"/>
<path d="M14.286 17.1436H12.8574V18.5721H14.286V17.1436Z" fill="#202540"/>
<path d="M14.286 18.5723H12.8574V20.0008H14.286V18.5723Z" fill="#202540"/>
<path d="M12.8573 18.5723H11.4287V20.0008H12.8573V18.5723Z" fill="#202540"/>
<path d="M11.4286 18.5723H10V20.0008H11.4286V18.5723Z" fill="#202540"/>
<path d="M9.99986 18.5723H8.57129V20.0008H9.99986V18.5723Z" fill="#202540"/>
<path d="M8.57115 18.5723H7.14258V20.0008H8.57115V18.5723Z" fill="#202540"/>
<path d="M7.14244 18.5723H5.71387V20.0008H7.14244V18.5723Z" fill="#202540"/>
<path d="M7.14244 17.1436H5.71387V18.5721H7.14244V17.1436Z" fill="#202540"/>
<path d="M5.7147 17.1436H4.28613V18.5721H5.7147V17.1436Z" fill="#202540"/>
<path d="M4.28599 17.1436H2.85742V18.5721H4.28599V17.1436Z" fill="#202540"/>
<path d="M4.28599 15.7129H2.85742V17.1415H4.28599V15.7129Z" fill="#202540"/>
<path d="M2.85728 15.7129H1.42871V17.1415H2.85728V15.7129Z" fill="#202540"/>
<path d="M2.85728 14.2871H1.42871V15.7157H2.85728V14.2871Z" fill="#202540"/>
<path d="M2.85728 12.8564H1.42871V14.285H2.85728V12.8564Z" fill="#202540"/>
<path d="M1.42857 12.8564H0V14.285H1.42857V12.8564Z" fill="#202540"/>
<path d="M1.42857 11.4277H0V12.8563H1.42857V11.4277Z" fill="#202540"/>
<path d="M1.42857 10H0V11.4286H1.42857V10Z" fill="#202540"/>
<path d="M1.42857 8.57227H0V10.0008H1.42857V8.57227Z" fill="#202540"/>
<path d="M2.85728 8.57227H1.42871V10.0008H2.85728V8.57227Z" fill="#202540"/>
<path d="M4.28599 10H2.85742V11.4286H4.28599V10Z" fill="#202540"/>
<path d="M5.7147 10H4.28613V11.4286H5.7147V10Z" fill="#202540"/>
<path d="M7.14244 10H5.71387V11.4286H7.14244V10Z" fill="#202540"/>
<path d="M8.57115 10H7.14258V11.4286H8.57115V10Z" fill="#202540"/>
<path d="M9.99986 10H8.57129V11.4286H9.99986V10Z" fill="#202540"/>
<path d="M11.4286 10H10V11.4286H11.4286V10Z" fill="#202540"/>
<path d="M12.8573 10H11.4287V11.4286H12.8573V10Z" fill="#202540"/>
<path d="M14.286 10H12.8574V11.4286H14.286V10Z" fill="#202540"/>
<path d="M15.7147 10H14.2861V11.4286H15.7147V10Z" fill="#202540"/>
<path d="M17.1424 10H15.7139V11.4286H17.1424V10Z" fill="#202540"/>
<path d="M18.5711 8.57227H17.1426V10.0008H18.5711V8.57227Z" fill="#202540"/>
<path d="M19.9999 7.14355H18.5713V8.57213H19.9999V7.14355Z" fill="#202540"/>
<path d="M1.42857 7.14355H0V8.57213H1.42857V7.14355Z" fill="#202540"/>
<path d="M1.42857 5.71289H0V7.14146H1.42857V5.71289Z" fill="#202540"/>
<path d="M2.85728 5.71289H1.42871V7.14146H2.85728V5.71289Z" fill="#202540"/>
<path d="M2.85728 4.28711H1.42871V5.71568H2.85728V4.28711Z" fill="#202540"/>
<path d="M2.85728 2.85645H1.42871V4.28502H2.85728V2.85645Z" fill="#202540"/>
<path d="M4.28599 2.85645H2.85742V4.28502H4.28599V2.85645Z" fill="#202540"/>
<path d="M4.28599 1.42773H2.85742V2.85631H4.28599V1.42773Z" fill="#202540"/>
<path d="M5.7147 1.42773H4.28613V2.85631H5.7147V1.42773Z" fill="#202540"/>
<path d="M5.7147 0H4.28613V1.42857H5.7147V0Z" fill="#202540"/>
<path d="M7.14244 0H5.71387V1.42857H7.14244V0Z" fill="#202540"/>
<path d="M7.14244 1.42773H5.71387V2.85631H7.14244V1.42773Z" fill="#8F88DC"/>
<path d="M7.14244 2.85645H5.71387V4.28502H7.14244V2.85645Z" fill="#8F88DC"/>
<path d="M5.7147 2.85645H4.28613V4.28502H5.7147V2.85645Z" fill="#8F88DC"/>
<path d="M5.7147 4.28711H4.28613V5.71568H5.7147V4.28711Z" fill="#8F88DC"/>
<path d="M4.28599 4.28711H2.85742V5.71568H4.28599V4.28711Z" fill="#8F88DC"/>
<path d="M5.7147 4.28711H4.28613V5.71568H5.7147V4.28711Z" fill="#8F88DC"/>
<path d="M5.7147 5.71289H4.28613V7.14146H5.7147V5.71289Z" fill="#8F88DC"/>
<path d="M5.7147 7.14355H4.28613V8.57213H5.7147V7.14355Z" fill="#8F88DC"/>
<path d="M5.7147 8.57227H4.28613V10.0008H5.7147V8.57227Z" fill="#8F88DC"/>
<path d="M4.28599 8.57227H2.85742V10.0008H4.28599V8.57227Z" fill="#8F88DC"/>
<path d="M4.28599 7.14355H2.85742V8.57213H4.28599V7.14355Z" fill="#8F88DC"/>
<path d="M2.85728 7.14355H1.42871V8.57213H2.85728V7.14355Z" fill="#8F88DC"/>
<path d="M4.28599 7.14355H2.85742V8.57213H4.28599V7.14355Z" fill="#8F88DC"/>
<path d="M4.28599 5.71289H2.85742V7.14146H4.28599V5.71289Z" fill="#8F88DC"/>
<path d="M4.28599 7.14355H2.85742V8.57213H4.28599V7.14355Z" fill="#8F88DC"/>
<path d="M2.85728 10H1.42871V11.4286H2.85728V10Z" fill="#8F88DC"/>
<path d="M2.85728 11.4277H1.42871V12.8563H2.85728V11.4277Z" fill="#8F88DC"/>
<path d="M4.28599 11.4277H2.85742V12.8563H4.28599V11.4277Z" fill="#8F88DC"/>
<path d="M5.7147 11.4277H4.28613V12.8563H5.7147V11.4277Z" fill="#8F88DC"/>
<path d="M5.7147 12.8564H4.28613V14.285H5.7147V12.8564Z" fill="#8F88DC"/>
<path d="M4.28599 12.8564H2.85742V14.285H4.28599V12.8564Z" fill="#8F88DC"/>
<path d="M4.28599 14.2871H2.85742V15.7157H4.28599V14.2871Z" fill="#8F88DC"/>
<path d="M5.7147 14.2871H4.28613V15.7157H5.7147V14.2871Z" fill="#8F88DC"/>
<path d="M5.7147 15.7129H4.28613V17.1415H5.7147V15.7129Z" fill="#8F88DC"/>
<path d="M7.14244 15.7129H5.71387V17.1415H7.14244V15.7129Z" fill="#8F88DC"/>
<path d="M8.57115 0H7.14258V1.42857H8.57115V0Z" fill="#202540"/>
<path d="M9.99986 0H8.57129V1.42857H9.99986V0Z" fill="#202540"/>
<path d="M9.99986 0H8.57129V1.42857H9.99986V0Z" fill="#202540"/>
<path d="M9.99986 1.42773H8.57129V2.85631H9.99986V1.42773Z" fill="#202540"/>
<path d="M9.99986 2.85645H8.57129V4.28502H9.99986V2.85645Z" fill="#8F88DC"/>
<path d="M11.4286 2.85645H10V4.28502H11.4286V2.85645Z" fill="#8F88DC"/>
<path d="M14.286 1.42773H12.8574V2.85631H14.286V1.42773Z" fill="#8F88DC"/>
<path d="M14.286 2.85645H12.8574V4.28502H14.286V2.85645Z" fill="#8F88DC"/>
<path d="M15.7147 2.85645H14.2861V4.28502H15.7147V2.85645Z" fill="#8F88DC"/>
<path d="M15.7147 4.28711H14.2861V5.71568H15.7147V4.28711Z" fill="#8F88DC"/>
<path d="M17.1424 4.28711H15.7139V5.71568H17.1424V4.28711Z" fill="#8F88DC"/>
<path d="M17.1424 5.71289H15.7139V7.14146H17.1424V5.71289Z" fill="#8F88DC"/>
<path d="M15.7147 5.71289H14.2861V7.14146H15.7147V5.71289Z" fill="#8F88DC"/>
<path d="M15.7147 7.14355H14.2861V8.57213H15.7147V7.14355Z" fill="#8F88DC"/>
<path d="M17.1424 7.14355H15.7139V8.57213H17.1424V7.14355Z" fill="#8F88DC"/>
<path d="M18.5711 7.14355H17.1426V8.57213H18.5711V7.14355Z" fill="#8F88DC"/>
<path d="M17.1424 7.14355H15.7139V8.57213H17.1424V7.14355Z" fill="#8F88DC"/>
<path d="M17.1424 8.57227H15.7139V10.0008H17.1424V8.57227Z" fill="#8F88DC"/>
<path d="M18.5711 10H17.1426V11.4286H18.5711V10Z" fill="#8F88DC"/>
<path d="M18.5711 11.4277H17.1426V12.8563H18.5711V11.4277Z" fill="#8F88DC"/>
<path d="M17.1424 11.4277H15.7139V12.8563H17.1424V11.4277Z" fill="#8F88DC"/>
<path d="M15.7147 11.4277H14.2861V12.8563H15.7147V11.4277Z" fill="#8F88DC"/>
<path d="M15.7147 12.8564H14.2861V14.285H15.7147V12.8564Z" fill="#8F88DC"/>
<path d="M17.1424 12.8564H15.7139V14.285H17.1424V12.8564Z" fill="#8F88DC"/>
<path d="M17.1424 14.2871H15.7139V15.7157H17.1424V14.2871Z" fill="#8F88DC"/>
<path d="M15.7147 14.2871H14.2861V15.7157H15.7147V14.2871Z" fill="#8F88DC"/>
<path d="M15.7147 15.7129H14.2861V17.1415H15.7147V15.7129Z" fill="#8F88DC"/>
<path d="M14.286 15.7129H12.8574V17.1415H14.286V15.7129Z" fill="#8F88DC"/>
<path d="M15.7147 15.7129H14.2861V17.1415H15.7147V15.7129Z" fill="#8F88DC"/>
<path d="M15.7147 8.57227H14.2861V10.0008H15.7147V8.57227Z" fill="#8F88DC"/>
<path d="M11.4286 4.28711H10V5.71568H11.4286V4.28711Z" fill="#8F88DC"/>
<path d="M9.99986 4.28711H8.57129V5.71568H9.99986V4.28711Z" fill="#8F88DC"/>
<path d="M9.99986 5.71289H8.57129V7.14146H9.99986V5.71289Z" fill="#8F88DC"/>
<path d="M8.57115 5.71289H7.14258V7.14146H8.57115V5.71289Z" fill="#8F88DC"/>
<path d="M9.99986 5.71289H8.57129V7.14146H9.99986V5.71289Z" fill="#8F88DC"/>
<path d="M11.4286 5.71289H10V7.14146H11.4286V5.71289Z" fill="#8F88DC"/>
<path d="M12.8573 5.71289H11.4287V7.14146H12.8573V5.71289Z" fill="#8F88DC"/>
<path d="M12.8573 7.14355H11.4287V8.57213H12.8573V7.14355Z" fill="#8F88DC"/>
<path d="M11.4286 7.14355H10V8.57213H11.4286V7.14355Z" fill="#8F88DC"/>
<path d="M9.99986 7.14355H8.57129V8.57213H9.99986V7.14355Z" fill="#8F88DC"/>
<path d="M9.99986 8.57227H8.57129V10.0008H9.99986V8.57227Z" fill="#8F88DC"/>
<path d="M8.57115 8.57227H7.14258V10.0008H8.57115V8.57227Z" fill="#8F88DC"/>
<path d="M8.57115 7.14355H7.14258V8.57213H8.57115V7.14355Z" fill="#8F88DC"/>
<path d="M8.57115 8.57227H7.14258V10.0008H8.57115V8.57227Z" fill="#8F88DC"/>
<path d="M8.57115 11.4277H7.14258V12.8563H8.57115V11.4277Z" fill="#8F88DC"/>
<path d="M9.99986 11.4277H8.57129V12.8563H9.99986V11.4277Z" fill="#8F88DC"/>
<path d="M11.4286 11.4277H10V12.8563H11.4286V11.4277Z" fill="#8F88DC"/>
<path d="M12.8573 11.4277H11.4287V12.8563H12.8573V11.4277Z" fill="#8F88DC"/>
<path d="M12.8573 12.8564H11.4287V14.285H12.8573V12.8564Z" fill="#8F88DC"/>
<path d="M11.4286 12.8564H10V14.285H11.4286V12.8564Z" fill="#8F88DC"/>
<path d="M9.99986 12.8564H8.57129V14.285H9.99986V12.8564Z" fill="#8F88DC"/>
<path d="M8.57115 12.8564H7.14258V14.285H8.57115V12.8564Z" fill="#8F88DC"/>
<path d="M9.99986 12.8564H8.57129V14.285H9.99986V12.8564Z" fill="#8F88DC"/>
<path d="M9.99986 14.2871H8.57129V15.7157H9.99986V14.2871Z" fill="#8F88DC"/>
<path d="M9.99986 15.7129H8.57129V17.1415H9.99986V15.7129Z" fill="#8F88DC"/>
<path d="M9.99986 17.1436H8.57129V18.5721H9.99986V17.1436Z" fill="#8F88DC"/>
<path d="M11.4286 17.1436H10V18.5721H11.4286V17.1436Z" fill="#8F88DC"/>
<path d="M11.4286 15.7129H10V17.1415H11.4286V15.7129Z" fill="#8F88DC"/>
<path d="M11.4286 14.2871H10V15.7157H11.4286V14.2871Z" fill="#8F88DC"/>
<path d="M9.99986 8.57227H8.57129V10.0008H9.99986V8.57227Z" fill="#8F88DC"/>
<path d="M11.4286 8.57227H10V10.0008H11.4286V8.57227Z" fill="#8F88DC"/>
<path d="M12.8573 8.57227H11.4287V10.0008H12.8573V8.57227Z" fill="#8F88DC"/>
<path d="M8.57115 1.42773H7.14258V2.85631H8.57115V1.42773Z" fill="#202540"/>
<path d="M8.57115 2.85645H7.14258V4.28502H8.57115V2.85645Z" fill="#202540"/>
<path d="M8.57115 4.28711H7.14258V5.71568H8.57115V4.28711Z" fill="#202540"/>
<path d="M7.14244 4.28711H5.71387V5.71568H7.14244V4.28711Z" fill="#202540"/>
<path d="M7.14244 5.71289H5.71387V7.14146H7.14244V5.71289Z" fill="#202540"/>
<path d="M7.14244 7.14355H5.71387V8.57213H7.14244V7.14355Z" fill="#202540"/>
<path d="M7.14244 8.57227H5.71387V10.0008H7.14244V8.57227Z" fill="#202540"/>
<path d="M7.14244 10H5.71387V11.4286H7.14244V10Z" fill="#202540"/>
<path d="M7.14244 11.4277H5.71387V12.8563H7.14244V11.4277Z" fill="#202540"/>
<path d="M7.14244 12.8564H5.71387V14.285H7.14244V12.8564Z" fill="#202540"/>
<path d="M7.14244 14.2871H5.71387V15.7157H7.14244V14.2871Z" fill="#202540"/>
<path d="M8.57115 14.2871H7.14258V15.7157H8.57115V14.2871Z" fill="#202540"/>
<path d="M8.57115 15.7129H7.14258V17.1415H8.57115V15.7129Z" fill="#202540"/>
<path d="M8.57115 17.1436H7.14258V18.5721H8.57115V17.1436Z" fill="#202540"/>
<path d="M8.57115 18.5723H7.14258V20.0008H8.57115V18.5723Z" fill="#202540"/>
<path d="M9.99986 18.5723H8.57129V20.0008H9.99986V18.5723Z" fill="#202540"/>
<path d="M11.4286 18.5723H10V20.0008H11.4286V18.5723Z" fill="#202540"/>
<path d="M12.8573 18.5723H11.4287V20.0008H12.8573V18.5723Z" fill="#202540"/>
<path d="M12.8573 17.1436H11.4287V18.5721H12.8573V17.1436Z" fill="#202540"/>
<path d="M12.8573 15.7129H11.4287V17.1415H12.8573V15.7129Z" fill="#202540"/>
<path d="M12.8573 14.2871H11.4287V15.7157H12.8573V14.2871Z" fill="#202540"/>
<path d="M14.286 14.2871H12.8574V15.7157H14.286V14.2871Z" fill="#202540"/>
<path d="M14.286 12.8564H12.8574V14.285H14.286V12.8564Z" fill="#202540"/>
<path d="M14.286 11.4277H12.8574V12.8563H14.286V11.4277Z" fill="#202540"/>
<path d="M14.286 10H12.8574V11.4286H14.286V10Z" fill="#202540"/>
<path d="M14.286 8.57227H12.8574V10.0008H14.286V8.57227Z" fill="#202540"/>
<path d="M14.286 7.14355H12.8574V8.57213H14.286V7.14355Z" fill="#202540"/>
<path d="M14.286 5.71289H12.8574V7.14146H14.286V5.71289Z" fill="#202540"/>
<path d="M14.286 4.28711H12.8574V5.71568H14.286V4.28711Z" fill="#202540"/>
<path d="M12.8573 4.28711H11.4287V5.71568H12.8573V4.28711Z" fill="#202540"/>
<path d="M12.8573 2.85645H11.4287V4.28502H12.8573V2.85645Z" fill="#202540"/>
<path d="M12.8573 1.42773H11.4287V2.85631H12.8573V1.42773Z" fill="#202540"/>
<path d="M11.4286 1.42773H10V2.85631H11.4286V1.42773Z" fill="#202540"/>
<path d="M11.4286 0H10V1.42857H11.4286V0Z" fill="#202540"/>
<path d="M12.8573 0H11.4287V1.42857H12.8573V0Z" fill="#202540"/>
<path d="M14.286 0H12.8574V1.42857H14.286V0Z" fill="#202540"/>
<path d="M15.7147 0H14.2861V1.42857H15.7147V0Z" fill="#202540"/>
</g>
<defs>
<clipPath id="clip0_1393_81805">
<rect width="20" height="20" fill="white"/>
</clipPath>
</defs>
</svg>
