<svg width="20" height="20" viewBox="0 0 20 20" fill="none" xmlns="http://www.w3.org/2000/svg">
<path d="M20 17.834H18.9502V18.9131H16.8428V19.999H3.15723V18.9131H1.0498V17.834H0V15.668H1.0498V14.5889H3.15723V13.502H16.8428V14.5889H18.9502V15.668H20V17.834Z" fill="#202540"/>
<path d="M14.5078 4.26173V2.84141H13.817V2.13125H13.1261V1.4211H11.7444V0.710938H7.59929V1.4211H6.21758V2.13125H5.52673V2.84141H4.83587V4.26173H4.14502V8.52268H4.83587V9.943H5.52673V10.6532H6.21758V12.0735H6.90843V12.7836H7.59929V14.204H8.29014V14.9141H8.981V16.3344H10.3627V14.9141H11.0536V14.204H11.7444V12.7836H12.4353V12.0735H13.1261V10.6532H13.817V9.943H14.5078V8.52268H15.1987V4.26173H14.5078ZM11.0536 7.81252H10.3627V8.52268H8.981V7.81252H8.29014V7.10237H7.59929V5.68205H8.29014V4.97189H8.981V4.26173H10.3627V4.97189H11.0536V5.68205H11.7444V7.10237H11.0536V7.81252Z" fill="#F3546F"/>
</svg>
