<svg width="22" height="22" viewBox="0 0 22 22" fill="none" xmlns="http://www.w3.org/2000/svg">
<path d="M2.44444 9.77778H7.33333C8.67778 9.77778 9.77778 8.67778 9.77778 7.33333V2.44444C9.77778 1.1 8.67778 0 7.33333 0H2.44444C1.1 0 0 1.1 0 2.44444V7.33333C0 8.67778 1.1 9.77778 2.44444 9.77778ZM2.44444 2.44444H7.33333V7.33333H2.44444V2.44444ZM2.44444 22H7.33333C8.67778 22 9.77778 20.9 9.77778 19.5556V14.6667C9.77778 13.3222 8.67778 12.2222 7.33333 12.2222H2.44444C1.1 12.2222 0 13.3222 0 14.6667V19.5556C0 20.9 1.1 22 2.44444 22ZM2.44444 14.6667H7.33333V19.5556H2.44444V14.6667ZM12.2222 2.44444V7.33333C12.2222 8.67778 13.3222 9.77778 14.6667 9.77778H19.5556C20.9 9.77778 22 8.67778 22 7.33333V2.44444C22 1.1 20.9 0 19.5556 0H14.6667C13.3222 0 12.2222 1.1 12.2222 2.44444ZM19.5556 7.33333H14.6667V2.44444H19.5556V7.33333ZM22 21.3889V20.1667C22 19.8244 21.7311 19.5556 21.3889 19.5556H20.1667C19.8244 19.5556 19.5556 19.8244 19.5556 20.1667V21.3889C19.5556 21.7311 19.8244 22 20.1667 22H21.3889C21.7311 22 22 21.7311 22 21.3889ZM12.2222 12.8333V14.0556C12.2222 14.3978 12.4911 14.6667 12.8333 14.6667H14.0556C14.3978 14.6667 14.6667 14.3978 14.6667 14.0556V12.8333C14.6667 12.4911 14.3978 12.2222 14.0556 12.2222H12.8333C12.4911 12.2222 12.2222 12.4911 12.2222 12.8333ZM16.5 14.6667H15.2778C14.9356 14.6667 14.6667 14.9356 14.6667 15.2778V16.5C14.6667 16.8422 14.9356 17.1111 15.2778 17.1111H16.5C16.8422 17.1111 17.1111 16.8422 17.1111 16.5V15.2778C17.1111 14.9356 16.8422 14.6667 16.5 14.6667ZM12.2222 17.7222V18.9444C12.2222 19.2867 12.4911 19.5556 12.8333 19.5556H14.0556C14.3978 19.5556 14.6667 19.2867 14.6667 18.9444V17.7222C14.6667 17.38 14.3978 17.1111 14.0556 17.1111H12.8333C12.4911 17.1111 12.2222 17.38 12.2222 17.7222ZM15.2778 22H16.5C16.8422 22 17.1111 21.7311 17.1111 21.3889V20.1667C17.1111 19.8244 16.8422 19.5556 16.5 19.5556H15.2778C14.9356 19.5556 14.6667 19.8244 14.6667 20.1667V21.3889C14.6667 21.7311 14.9356 22 15.2778 22ZM17.7222 19.5556H18.9444C19.2867 19.5556 19.5556 19.2867 19.5556 18.9444V17.7222C19.5556 17.38 19.2867 17.1111 18.9444 17.1111H17.7222C17.38 17.1111 17.1111 17.38 17.1111 17.7222V18.9444C17.1111 19.2867 17.38 19.5556 17.7222 19.5556ZM18.9444 12.2222H17.7222C17.38 12.2222 17.1111 12.4911 17.1111 12.8333V14.0556C17.1111 14.3978 17.38 14.6667 17.7222 14.6667H18.9444C19.2867 14.6667 19.5556 14.3978 19.5556 14.0556V12.8333C19.5556 12.4911 19.2867 12.2222 18.9444 12.2222ZM20.1667 17.1111H21.3889C21.7311 17.1111 22 16.8422 22 16.5V15.2778C22 14.9356 21.7311 14.6667 21.3889 14.6667H20.1667C19.8244 14.6667 19.5556 14.9356 19.5556 15.2778V16.5C19.5556 16.8422 19.8244 17.1111 20.1667 17.1111Z" fill="white"/>
</svg>
