<svg width="20" height="20" viewBox="0 0 20 20" fill="none" xmlns="http://www.w3.org/2000/svg">
<g clip-path="url(#clip0_257_11157)">
<path d="M1.66683 5.83325H0.833496V4.16659H1.66683V3.33325H2.50016V2.49992H3.3335V1.66659H4.16683V0.833252H5.8335V1.66659H6.66683V3.33325H5.8335V4.16659H5.00016V4.99992H5.8335V5.83325H6.66683V4.99992H7.50016V4.16659H9.16683V4.99992H8.3335V5.83325H7.50016V6.66659H6.66683V7.49992H5.8335V8.33325H5.00016V9.16659H4.16683V8.33325H3.3335V7.49992H2.50016V6.66659H1.66683V5.83325Z" fill="white"/>
<path d="M10.8335 14.1667H10.0002V15H9.16683V15.8333H8.3335V16.6667H7.50016V17.5H6.66683V18.3333H5.8335V19.1667H0.833496V14.1667H1.66683V13.3333H2.50016V12.5H3.3335V11.6667H4.16683V10.8333H5.00016V10H5.8335V9.16667H6.66683V8.33333H7.50016V7.5H8.3335V6.66667H9.16683V5.83333H10.0002V5H11.6668V5.83333H12.5002V6.66667H13.3335V7.5H14.1668V8.33333H15.0002V10H14.1668V10.8333H13.3335V11.6667H12.5002V12.5H11.6668V13.3333H10.8335V14.1667Z" fill="white"/>
<path d="M19.1667 3.33325V5.83325H18.3333V6.66659H17.5V7.49992H15.8333V6.66659H15V5.83325H14.1667V4.99992H13.3333V4.16659H12.5V2.49992H13.3333V1.66659H14.1667V0.833252H16.6667V1.66659H17.5V2.49992H18.3333V3.33325H19.1667Z" fill="white"/>
<path d="M18.3335 14.1666H19.1668V15.8333H18.3335V16.6666H17.5002V17.4999H16.6668V18.3333H15.8335V19.1666H14.1668V18.3333H13.3335V17.4999H12.5002V16.6666H11.6668V15.8333H10.8335V14.9999H11.6668V14.1666H12.5002V13.3333H13.3335V12.4999H14.1668V11.6666H15.0002V10.8333H15.8335V12.4999H15.0002V13.3333H14.1668V14.1666H15.0002V14.9999H15.8335V14.1666H16.6668V13.3333H18.3335V14.1666Z" fill="white"/>
</g>
<defs>
<clipPath id="clip0_257_11157">
<rect width="20" height="20" fill="white"/>
</clipPath>
</defs>
</svg>
