<svg width="20" height="18" viewBox="0 0 20 18" fill="none" xmlns="http://www.w3.org/2000/svg">
<path d="M20 15.3125H0V17.5H20V15.3125Z" fill="white"/>
<path d="M1.11111 1.09375H0V15.3125H1.11111V1.09375Z" fill="white"/>
<path d="M2.22244 0H1.11133V1.09375H2.22244V0Z" fill="white"/>
<path d="M3.33328 0H2.22217V1.09375H3.33328V0Z" fill="white"/>
<path d="M4.44412 0H3.33301V1.09375H4.44412V0Z" fill="white"/>
<path d="M5.55545 0H4.44434V1.09375H5.55545V0Z" fill="white"/>
<path d="M6.66678 0H5.55566V1.09375H6.66678V0Z" fill="white"/>
<path d="M7.7781 0H6.66699V1.09375H7.7781V0Z" fill="white"/>
<path d="M8.88894 0H7.77783V1.09375H8.88894V0Z" fill="white"/>
<path d="M9.99978 0H8.88867V1.09375H9.99978V0Z" fill="white"/>
<path d="M9.99978 1.09375H8.88867V2.1875H9.99978V1.09375Z" fill="white"/>
<path d="M11.1111 1.09375H10V2.1875H11.1111V1.09375Z" fill="white"/>
<path d="M11.1111 2.1875H10V3.28125H11.1111V2.1875Z" fill="white"/>
<path d="M11.1111 3.28125H10V4.375H11.1111V3.28125Z" fill="white"/>
<path d="M11.1111 4.375H10V5.46875H11.1111V4.375Z" fill="white"/>
<path d="M11.1111 5.46875H10V6.5625H11.1111V5.46875Z" fill="white"/>
<path d="M11.1111 6.5625H10V7.65625H11.1111V6.5625Z" fill="white"/>
<path d="M11.1111 7.65625H10V8.75H11.1111V7.65625Z" fill="white"/>
<path d="M11.1111 8.75H10V9.84375H11.1111V8.75Z" fill="white"/>
<path d="M11.1111 9.84375H10V10.9375H11.1111V9.84375Z" fill="white"/>
<path d="M11.1111 10.9375H10V12.0312H11.1111V10.9375Z" fill="white"/>
<path d="M11.1111 12.0312H10V13.125H11.1111V12.0312Z" fill="white"/>
<path d="M11.1111 13.125H10V14.2187H11.1111V13.125Z" fill="white"/>
<path d="M11.1111 14.2188H10V15.3125H11.1111V14.2188Z" fill="white"/>
<path d="M11.1111 15.3125H10V16.4062H11.1111V15.3125Z" fill="white"/>
<path d="M9.99978 15.3125H8.88867V16.4062H9.99978V15.3125Z" fill="white"/>
<path d="M9.99978 14.2188H8.88867V15.3125H9.99978V14.2188Z" fill="white"/>
<path d="M8.88894 14.2188H7.77783V15.3125H8.88894V14.2188Z" fill="white"/>
<path d="M7.7781 14.2188H6.66699V15.3125H7.7781V14.2188Z" fill="white"/>
<path d="M6.66678 14.2188H5.55566V15.3125H6.66678V14.2188Z" fill="white"/>
<path d="M5.55545 14.2188H4.44434V15.3125H5.55545V14.2188Z" fill="white"/>
<path d="M4.44412 14.2188H3.33301V15.3125H4.44412V14.2188Z" fill="white"/>
<path d="M3.33328 14.2188H2.22217V15.3125H3.33328V14.2188Z" fill="white"/>
<path d="M2.22244 14.2188H1.11133V15.3125H2.22244V14.2188Z" fill="white"/>
<path d="M2.22244 13.125H1.11133V14.2187H2.22244V13.125Z" fill="white"/>
<path d="M2.22244 12.0312H1.11133V13.125H2.22244V12.0312Z" fill="white"/>
<path d="M2.22244 10.9375H1.11133V12.0312H2.22244V10.9375Z" fill="white"/>
<path d="M2.22244 9.84375H1.11133V10.9375H2.22244V9.84375Z" fill="white"/>
<path d="M2.22244 8.75H1.11133V9.84375H2.22244V8.75Z" fill="white"/>
<path d="M2.22244 7.65625H1.11133V8.75H2.22244V7.65625Z" fill="white"/>
<path d="M2.22244 6.5625H1.11133V7.65625H2.22244V6.5625Z" fill="white"/>
<path d="M2.22244 5.46875H1.11133V6.5625H2.22244V5.46875Z" fill="white"/>
<path d="M2.22244 4.375H1.11133V5.46875H2.22244V4.375Z" fill="white"/>
<path d="M2.22244 3.28125H1.11133V4.375H2.22244V3.28125Z" fill="white"/>
<path d="M2.22244 2.1875H1.11133V3.28125H2.22244V2.1875Z" fill="white"/>
<path d="M3.33328 2.1875H2.22217V3.28125H3.33328V2.1875Z" fill="white"/>
<path d="M3.33328 1.09375H2.22217V2.1875H3.33328V1.09375Z" fill="white"/>
<path d="M2.22244 1.09375H1.11133V2.1875H2.22244V1.09375Z" fill="white"/>
<path d="M3.33328 1.09375H2.22217V2.1875H3.33328V1.09375Z" fill="white"/>
<path d="M4.44412 1.09375H3.33301V2.1875H4.44412V1.09375Z" fill="white"/>
<path d="M5.55545 1.09375H4.44434V2.1875H5.55545V1.09375Z" fill="white"/>
<path d="M6.66678 1.09375H5.55566V2.1875H6.66678V1.09375Z" fill="white"/>
<path d="M7.7781 1.09375H6.66699V2.1875H7.7781V1.09375Z" fill="white"/>
<path d="M8.88894 1.09375H7.77783V2.1875H8.88894V1.09375Z" fill="white"/>
<path d="M9.99978 1.09375H8.88867V2.1875H9.99978V1.09375Z" fill="white"/>
<path d="M9.99978 2.1875H8.88867V3.28125H9.99978V2.1875Z" fill="white"/>
<path d="M8.88894 2.1875H7.77783V3.28125H8.88894V2.1875Z" fill="white"/>
<path d="M7.7781 2.1875H6.66699V3.28125H7.7781V2.1875Z" fill="white"/>
<path d="M6.66678 2.1875H5.55566V3.28125H6.66678V2.1875Z" fill="white"/>
<path d="M5.55545 2.1875H4.44434V3.28125H5.55545V2.1875Z" fill="white"/>
<path d="M4.44412 2.1875H3.33301V3.28125H4.44412V2.1875Z" fill="white"/>
<path d="M3.33328 2.1875H2.22217V3.28125H3.33328V2.1875Z" fill="white"/>
<path d="M2.22244 2.1875H1.11133V3.28125H2.22244V2.1875Z" fill="white"/>
<path d="M2.22244 3.28125H1.11133V4.375H2.22244V3.28125Z" fill="white"/>
<path d="M3.33328 3.28125H2.22217V4.375H3.33328V3.28125Z" fill="white"/>
<path d="M4.44412 3.28125H3.33301V4.375H4.44412V3.28125Z" fill="white"/>
<path d="M5.55545 3.28125H4.44434V4.375H5.55545V3.28125Z" fill="white"/>
<path d="M6.66678 3.28125H5.55566V4.375H6.66678V3.28125Z" fill="white"/>
<path d="M7.7781 3.28125H6.66699V4.375H7.7781V3.28125Z" fill="white"/>
<path d="M8.88894 3.28125H7.77783V4.375H8.88894V3.28125Z" fill="white"/>
<path d="M9.99978 3.28125H8.88867V4.375H9.99978V3.28125Z" fill="white"/>
<path d="M9.99978 4.375H8.88867V5.46875H9.99978V4.375Z" fill="white"/>
<path d="M8.88894 4.375H7.77783V5.46875H8.88894V4.375Z" fill="white"/>
<path d="M7.7781 4.375H6.66699V5.46875H7.7781V4.375Z" fill="white"/>
<path d="M6.66678 4.375H5.55566V5.46875H6.66678V4.375Z" fill="white"/>
<path d="M5.55545 4.375H4.44434V5.46875H5.55545V4.375Z" fill="white"/>
<path d="M4.44412 4.375H3.33301V5.46875H4.44412V4.375Z" fill="white"/>
<path d="M3.33328 4.375H2.22217V5.46875H3.33328V4.375Z" fill="white"/>
<path d="M2.22244 4.375H1.11133V5.46875H2.22244V4.375Z" fill="white"/>
<path d="M2.22244 5.46875H1.11133V6.5625H2.22244V5.46875Z" fill="white"/>
<path d="M3.33328 5.46875H2.22217V6.5625H3.33328V5.46875Z" fill="white"/>
<path d="M4.44412 5.46875H3.33301V6.5625H4.44412V5.46875Z" fill="white"/>
<path d="M5.55545 5.46875H4.44434V6.5625H5.55545V5.46875Z" fill="white"/>
<path d="M6.66678 5.46875H5.55566V6.5625H6.66678V5.46875Z" fill="white"/>
<path d="M7.7781 5.46875H6.66699V6.5625H7.7781V5.46875Z" fill="white"/>
<path d="M8.88894 5.46875H7.77783V6.5625H8.88894V5.46875Z" fill="white"/>
<path d="M8.88894 6.5625H7.77783V7.65625H8.88894V6.5625Z" fill="white"/>
<path d="M8.88894 7.65625H7.77783V8.75H8.88894V7.65625Z" fill="white"/>
<path d="M8.88894 8.75H7.77783V9.84375H8.88894V8.75Z" fill="white"/>
<path d="M8.88894 9.84375H7.77783V10.9375H8.88894V9.84375Z" fill="white"/>
<path d="M8.88894 10.9375H7.77783V12.0312H8.88894V10.9375Z" fill="white"/>
<path d="M8.88894 12.0312H7.77783V13.125H8.88894V12.0312Z" fill="white"/>
<path d="M7.7781 12.0312H6.66699V13.125H7.7781V12.0312Z" fill="white"/>
<path d="M7.7781 10.9375H6.66699V12.0312H7.7781V10.9375Z" fill="white"/>
<path d="M6.66678 10.9375H5.55566V12.0312H6.66678V10.9375Z" fill="white"/>
<path d="M6.66678 9.84375H5.55566V10.9375H6.66678V9.84375Z" fill="white"/>
<path d="M5.55545 9.84375H4.44434V10.9375H5.55545V9.84375Z" fill="white"/>
<path d="M6.66678 9.84375H5.55566V10.9375H6.66678V9.84375Z" fill="white"/>
<path d="M7.7781 9.84375H6.66699V10.9375H7.7781V9.84375Z" fill="white"/>
<path d="M6.66678 9.84375H5.55566V10.9375H6.66678V9.84375Z" fill="white"/>
<path d="M5.55545 9.84375H4.44434V10.9375H5.55545V9.84375Z" fill="white"/>
<path d="M4.44412 9.84375H3.33301V10.9375H4.44412V9.84375Z" fill="white"/>
<path d="M4.44412 8.75H3.33301V9.84375H4.44412V8.75Z" fill="white"/>
<path d="M4.44412 7.65625H3.33301V8.75H4.44412V7.65625Z" fill="white"/>
<path d="M4.44412 6.5625H3.33301V7.65625H4.44412V6.5625Z" fill="white"/>
<path d="M4.44412 5.46875H3.33301V6.5625H4.44412V5.46875Z" fill="white"/>
<path d="M5.55545 5.46875H4.44434V6.5625H5.55545V5.46875Z" fill="white"/>
<path d="M4.44412 5.46875H3.33301V6.5625H4.44412V5.46875Z" fill="white"/>
<path d="M3.33328 5.46875H2.22217V6.5625H3.33328V5.46875Z" fill="white"/>
<path d="M3.33328 6.5625H2.22217V7.65625H3.33328V6.5625Z" fill="white"/>
<path d="M3.33328 7.65625H2.22217V8.75H3.33328V7.65625Z" fill="white"/>
<path d="M3.33328 8.75H2.22217V9.84375H3.33328V8.75Z" fill="white"/>
<path d="M3.33328 9.84375H2.22217V10.9375H3.33328V9.84375Z" fill="white"/>
<path d="M3.33328 10.9375H2.22217V12.0312H3.33328V10.9375Z" fill="white"/>
<path d="M4.44412 10.9375H3.33301V12.0312H4.44412V10.9375Z" fill="white"/>
<path d="M5.55545 10.9375H4.44434V12.0312H5.55545V10.9375Z" fill="white"/>
<path d="M5.55545 12.0312H4.44434V13.125H5.55545V12.0312Z" fill="white"/>
<path d="M4.44412 12.0312H3.33301V13.125H4.44412V12.0312Z" fill="white"/>
<path d="M3.33328 12.0312H2.22217V13.125H3.33328V12.0312Z" fill="white"/>
<path d="M4.44412 12.0312H3.33301V13.125H4.44412V12.0312Z" fill="white"/>
<path d="M5.55545 12.0312H4.44434V13.125H5.55545V12.0312Z" fill="white"/>
<path d="M6.66678 12.0312H5.55566V13.125H6.66678V12.0312Z" fill="white"/>
<path d="M7.7781 12.0312H6.66699V13.125H7.7781V12.0312Z" fill="white"/>
<path d="M8.88894 12.0312H7.77783V13.125H8.88894V12.0312Z" fill="white"/>
<path d="M8.88894 13.125H7.77783V14.2187H8.88894V13.125Z" fill="white"/>
<path d="M7.7781 13.125H6.66699V14.2187H7.7781V13.125Z" fill="white"/>
<path d="M6.66678 13.125H5.55566V14.2187H6.66678V13.125Z" fill="white"/>
<path d="M5.55545 13.125H4.44434V14.2187H5.55545V13.125Z" fill="white"/>
<path d="M4.44412 13.125H3.33301V14.2187H4.44412V13.125Z" fill="white"/>
<path d="M3.33328 13.125H2.22217V14.2187H3.33328V13.125Z" fill="white"/>
<path d="M2.22244 13.125H1.11133V14.2187H2.22244V13.125Z" fill="white"/>
<path d="M3.33328 13.125H2.22217V14.2187H3.33328V13.125Z" fill="white"/>
<path d="M4.44412 13.125H3.33301V14.2187H4.44412V13.125Z" fill="white"/>
<path d="M5.55545 13.125H4.44434V14.2187H5.55545V13.125Z" fill="white"/>
<path d="M6.66678 13.125H5.55566V14.2187H6.66678V13.125Z" fill="white"/>
<path d="M7.7781 13.125H6.66699V14.2187H7.7781V13.125Z" fill="white"/>
<path d="M8.88894 13.125H7.77783V14.2187H8.88894V13.125Z" fill="white"/>
<path d="M9.99978 13.125H8.88867V14.2187H9.99978V13.125Z" fill="white"/>
<path d="M9.99978 12.0312H8.88867V13.125H9.99978V12.0312Z" fill="white"/>
<path d="M9.99978 10.9375H8.88867V12.0312H9.99978V10.9375Z" fill="white"/>
<path d="M9.99978 9.84375H8.88867V10.9375H9.99978V9.84375Z" fill="white"/>
<path d="M9.99978 8.75H8.88867V9.84375H9.99978V8.75Z" fill="white"/>
<path d="M9.99978 7.65625H8.88867V8.75H9.99978V7.65625Z" fill="white"/>
<path d="M9.99978 6.5625H8.88867V7.65625H9.99978V6.5625Z" fill="white"/>
<path d="M9.99978 5.46875H8.88867V6.5625H9.99978V5.46875Z" fill="white"/>
<path d="M9.99978 4.375H8.88867V5.46875H9.99978V4.375Z" fill="white"/>
<path d="M13.0469 4.92188H12.1875V5.76782H13.0469V4.92188Z" fill="white"/>
<path d="M13.9062 5.76733H13.0469V6.61328H13.9062V5.76733Z" fill="white"/>
<path d="M14.7656 6.61377H13.9062V7.45972H14.7656V6.61377Z" fill="white"/>
<path d="M15.625 7.45923H14.7656V8.30517H15.625V7.45923Z" fill="white"/>
<path d="M16.4844 8.30566H15.625V9.15161H16.4844V8.30566Z" fill="white"/>
<path d="M17.3438 9.15112H16.4844V9.99707H17.3438V9.15112Z" fill="white"/>
<path d="M18.2031 9.99756H17.3438V10.8435H18.2031V9.99756Z" fill="white"/>
<path d="M19.0625 10.844H18.2031V11.6899H19.0625V10.844Z" fill="white"/>
<path d="M13.0469 10.844H12.1875V11.6899H13.0469V10.844Z" fill="white"/>
<path d="M13.9062 9.99756H13.0469V10.8435H13.9062V9.99756Z" fill="white"/>
<path d="M14.7656 9.15112H13.9062V9.99707H14.7656V9.15112Z" fill="white"/>
<path d="M15.625 8.30566H14.7656V9.15161H15.625V8.30566Z" fill="white"/>
<path d="M16.4844 7.45923H15.625V8.30517H16.4844V7.45923Z" fill="white"/>
<path d="M17.3438 6.61377H16.4844V7.45972H17.3438V6.61377Z" fill="white"/>
<path d="M18.2031 5.76733H17.3438V6.61328H18.2031V5.76733Z" fill="white"/>
<path d="M19.0625 4.92188H18.2031V5.76782H19.0625V4.92188Z" fill="white"/>
</svg>
