<svg width="28" height="28" viewBox="0 0 28 28" fill="none" xmlns="http://www.w3.org/2000/svg">
<path d="M27.9999 10.666H26.6611V17.3335H27.9999V10.666Z" fill="#AA89FF"/>
<path d="M26.662 17.334H25.332V20.0027H26.662V17.334Z" fill="#AA89FF"/>
<path d="M26.662 7.99609H25.332V10.6648H26.662V7.99609Z" fill="#AA89FF"/>
<path d="M25.331 20.002H24.001V22.662H25.331V20.002Z" fill="#AA89FF"/>
<path d="M25.331 5.32812H24.001V7.99688H25.331V5.32812Z" fill="#AA89FF"/>
<path d="M26.6618 3.99797V2.66797H21.333V7.99672H22.663V5.32797H24.0018V3.99797H26.6618Z" fill="#AA89FF"/>
<path d="M24.0009 22.6621H22.6621V24.0009H24.0009V22.6621Z" fill="#AA89FF"/>
<path d="M22.6629 24.002H19.9941V25.332H22.6629V24.002Z" fill="#AA89FF"/>
<path d="M19.994 25.332H17.334V26.6708H19.994V25.332Z" fill="#AA89FF"/>
<path d="M17.3335 26.6699H10.666V27.9999H17.3335V26.6699Z" fill="#AA89FF"/>
<path d="M17.3335 0H10.666V1.33H17.3335V0Z" fill="#AA89FF"/>
<path d="M10.6658 1.33008H7.99707V2.66883H10.6658V1.33008Z" fill="#AA89FF"/>
<path d="M7.99785 2.66797H5.3291V3.99797H7.99785V2.66797Z" fill="#AA89FF"/>
<path d="M1.33008 24.0007V25.3307H6.66758V20.002H5.32883V22.662H3.99883V24.0007H1.33008Z" fill="#AA89FF"/>
<path d="M5.32902 3.99902H3.99902V5.32902H5.32902V3.99902Z" fill="#AA89FF"/>
<path d="M3.99797 20.002H2.66797V22.662H3.99797V20.002Z" fill="#AA89FF"/>
<path d="M3.99797 5.32812H2.66797V7.99688H3.99797V5.32812Z" fill="#AA89FF"/>
<path d="M2.66883 17.334H1.33008V20.0027H2.66883V17.334Z" fill="#AA89FF"/>
<path d="M2.66883 7.99609H1.33008V10.6648H2.66883V7.99609Z" fill="#AA89FF"/>
<path d="M1.33 10.666H0V17.3335H1.33V10.666Z" fill="#AA89FF"/>
<path d="M6.22746 13.4163V12.7034H5.45508V11.2774H6.22746V10.5645H10.0894V12.7034H10.8617V13.4163H6.22746Z" fill="#FDDA08"/>
<path d="M8.54484 9.1389H7.77246V7.71297H8.54484V7H10.0896V7.71297H10.862V8.42593H10.0896V9.85186H8.54484V9.1389Z" fill="#FDDA08"/>
<path d="M10.8613 9.13882H11.6337V8.42586H12.4061V7.71289H15.4956V8.42586H16.268V9.13882H17.0404V11.9907H16.268V12.7037H15.4956V13.4166H12.4061V12.7037H11.6337V11.9907H10.8613V9.13882Z" fill="#FDDA08"/>
<path d="M19.3582 16.9826H20.1305V19.1215H19.3582V19.8345H8.54484V19.1215H7.77246V16.9826H8.54484V16.2697H9.31722V15.5567H10.862V14.8438H17.041V15.5567H18.5858V16.2697H19.3582V16.9826Z" fill="#FDDA08"/>
<path d="M22.4477 11.2774V12.7034H21.6753V13.4163H17.041V12.7034H17.8134V10.5645H21.6753V11.2774H22.4477Z" fill="#FDDA08"/>
<path d="M17.8134 8.42593H17.041V7.71297H17.8134V7H19.3582V7.71297H20.1305V9.1389H19.3582V9.85186H17.8134V8.42593Z" fill="#FDDA08"/>
</svg>
