<svg width="29" height="29" viewBox="0 0 29 29" fill="none" xmlns="http://www.w3.org/2000/svg">
<path d="M28.5711 10.8838H27.2051V17.6873H28.5711V10.8838Z" fill="white"/>
<path d="M27.2058 17.6875H25.8486V20.4107H27.2058V17.6875Z" fill="white"/>
<path d="M27.2058 8.16016H25.8486V10.8834H27.2058V8.16016Z" fill="white"/>
<path d="M25.8483 20.4102H24.4912V23.1244H25.8483V20.4102Z" fill="white"/>
<path d="M25.8483 5.4375H24.4912V8.1607H25.8483V5.4375Z" fill="white"/>
<path d="M27.2051 4.07979V2.72266H21.7676V8.16013H23.1247V5.43693H24.4908V4.07979H27.2051Z" fill="white"/>
<path d="M24.4911 23.1248H23.125V24.4908H24.4911V23.1248Z" fill="white"/>
<path d="M23.1255 24.491H20.4023V25.8481H23.1255V24.491Z" fill="white"/>
<path d="M20.4018 25.8486H17.6875V27.2147H20.4018V25.8486Z" fill="white"/>
<path d="M17.6873 27.2146H10.8838V28.5717H17.6873V27.2146Z" fill="white"/>
<path d="M17.6873 0H10.8838V1.35714H17.6873V0Z" fill="white"/>
<path d="M10.8843 1.35669H8.16113V2.72275H10.8843V1.35669Z" fill="white"/>
<path d="M8.1607 2.72266H5.4375V4.07979H8.1607V2.72266Z" fill="white"/>
<path d="M1.35742 24.4905V25.8476H6.80382V20.4102H5.43776V23.1244H4.08062V24.4905H1.35742Z" fill="white"/>
<path d="M5.43721 4.08032H4.08008V5.43746H5.43721V4.08032Z" fill="white"/>
<path d="M4.08077 20.4102H2.72363V23.1244H4.08077V20.4102Z" fill="white"/>
<path d="M4.07979 5.4375H2.72266V8.1607H4.07979V5.4375Z" fill="white"/>
<path d="M2.72349 17.6875H1.35742V20.4107H2.72349V17.6875Z" fill="white"/>
<path d="M2.72349 8.16016H1.35742V10.8834H2.72349V8.16016Z" fill="white"/>
<path d="M1.35714 10.8838H0V17.6873H1.35714V10.8838Z" fill="white"/>
<g clip-path="url(#clip0_301_19142)">
<path d="M9.83315 5.66675H8.90723V6.59267H9.83315V5.66675Z" fill="white"/>
<path d="M10.7589 5.66699H9.83301V6.59292H10.7589V5.66699Z" fill="white"/>
<path d="M11.6857 5.66699H10.7598V6.59292H11.6857V5.66699Z" fill="white"/>
<path d="M12.6115 5.66699H11.6855V6.59292H12.6115V5.66699Z" fill="white"/>
<path d="M13.5373 5.66699H12.6113V6.59292H13.5373V5.66699Z" fill="white"/>
<path d="M14.463 5.66699H13.5371V6.59292H14.463V5.66699Z" fill="white"/>
<path d="M15.3888 5.66699H14.4629V6.59292H15.3888V5.66699Z" fill="white"/>
<path d="M16.3146 5.66699H15.3887V6.59292H16.3146V5.66699Z" fill="white"/>
<path d="M17.2404 5.66699H16.3145V6.59292H17.2404V5.66699Z" fill="white"/>
<path d="M18.1662 5.66699H17.2402V6.59292H18.1662V5.66699Z" fill="white"/>
<path d="M19.0919 5.66699H18.166V6.59292H19.0919V5.66699Z" fill="white"/>
<path d="M19.0919 6.59302H18.166V7.51894H19.0919V6.59302Z" fill="white"/>
<path d="M18.1662 6.59302H17.2402V7.51894H18.1662V6.59302Z" fill="white"/>
<path d="M17.2404 6.59302H16.3145V7.51894H17.2404V6.59302Z" fill="white"/>
<path d="M16.3146 6.59302H15.3887V7.51894H16.3146V6.59302Z" fill="white"/>
<path d="M15.3888 6.59302H14.4629V7.51894H15.3888V6.59302Z" fill="white"/>
<path d="M14.463 6.59302H13.5371V7.51894H14.463V6.59302Z" fill="white"/>
<path d="M13.5373 6.59302H12.6113V7.51894H13.5373V6.59302Z" fill="white"/>
<path d="M12.6115 6.59302H11.6855V7.51894H12.6115V6.59302Z" fill="white"/>
<path d="M11.6857 6.59302H10.7598V7.51894H11.6857V6.59302Z" fill="white"/>
<path d="M10.7589 6.59302H9.83301V7.51894H10.7589V6.59302Z" fill="white"/>
<path d="M9.83315 6.59302H8.90723V7.51894H9.83315V6.59302Z" fill="white"/>
<path d="M10.7589 6.59302H9.83301V7.51894H10.7589V6.59302Z" fill="white"/>
<path d="M10.7589 7.51807H9.83301V8.44399H10.7589V7.51807Z" fill="white"/>
<path d="M10.7589 8.44507H9.83301V9.37099H10.7589V8.44507Z" fill="white"/>
<path d="M10.7589 9.37109H9.83301V10.297H10.7589V9.37109Z" fill="white"/>
<path d="M10.7589 10.2971H9.83301V11.223H10.7589V10.2971Z" fill="white"/>
<path d="M11.6857 11.2222H10.7598V12.1481H11.6857V11.2222Z" fill="white"/>
<path d="M12.6115 12.1492H11.6855V13.0751H12.6115V12.1492Z" fill="white"/>
<path d="M13.5373 13.0752H12.6113V14.0011H13.5373V13.0752Z" fill="white"/>
<path d="M13.5373 14H12.6113V14.9259H13.5373V14Z" fill="white"/>
<path d="M12.6115 14.926H11.6855V15.8519H12.6115V14.926Z" fill="white"/>
<path d="M11.6857 15.8511H10.7598V16.777H11.6857V15.8511Z" fill="white"/>
<path d="M10.7589 16.7791H9.83301V17.705H10.7589V16.7791Z" fill="white"/>
<path d="M10.7589 17.7041H9.83301V18.63H10.7589V17.7041Z" fill="white"/>
<path d="M10.7589 18.6301H9.83301V19.5561H10.7589V18.6301Z" fill="white"/>
<path d="M10.7589 19.5552H9.83301V20.4811H10.7589V19.5552Z" fill="white"/>
<path d="M10.7589 20.4822H9.83301V21.4081H10.7589V20.4822Z" fill="white"/>
<path d="M10.7589 21.4082H9.83301V22.3341H10.7589V21.4082Z" fill="white"/>
<path d="M9.83315 21.4082H8.90723V22.3341H9.83315V21.4082Z" fill="white"/>
<path d="M9.83315 20.4822H8.90723V21.4081H9.83315V20.4822Z" fill="white"/>
<path d="M10.7589 20.4822H9.83301V21.4081H10.7589V20.4822Z" fill="white"/>
<path d="M11.6857 20.4822H10.7598V21.4081H11.6857V20.4822Z" fill="white"/>
<path d="M12.6115 20.4822H11.6855V21.4081H12.6115V20.4822Z" fill="white"/>
<path d="M13.5373 20.4822H12.6113V21.4081H13.5373V20.4822Z" fill="white"/>
<path d="M14.463 20.4822H13.5371V21.4081H14.463V20.4822Z" fill="white"/>
<path d="M15.3888 20.4822H14.4629V21.4081H15.3888V20.4822Z" fill="white"/>
<path d="M16.3146 20.4822H15.3887V21.4081H16.3146V20.4822Z" fill="white"/>
<path d="M17.2404 20.4822H16.3145V21.4081H17.2404V20.4822Z" fill="white"/>
<path d="M18.1662 20.4822H17.2402V21.4081H18.1662V20.4822Z" fill="white"/>
<path d="M19.0919 20.4822H18.166V21.4081H19.0919V20.4822Z" fill="white"/>
<path d="M19.0919 21.4082H18.166V22.3341H19.0919V21.4082Z" fill="white"/>
<path d="M18.1662 21.4082H17.2402V22.3341H18.1662V21.4082Z" fill="white"/>
<path d="M17.2404 21.4082H16.3145V22.3341H17.2404V21.4082Z" fill="white"/>
<path d="M16.3146 21.4082H15.3887V22.3341H16.3146V21.4082Z" fill="white"/>
<path d="M15.3888 21.4082H14.4629V22.3341H15.3888V21.4082Z" fill="white"/>
<path d="M14.463 21.4082H13.5371V22.3341H14.463V21.4082Z" fill="white"/>
<path d="M13.5373 21.4082H12.6113V22.3341H13.5373V21.4082Z" fill="white"/>
<path d="M12.6115 21.4082H11.6855V22.3341H12.6115V21.4082Z" fill="white"/>
<path d="M11.6857 21.4082H10.7598V22.3341H11.6857V21.4082Z" fill="white"/>
<path d="M12.6115 21.4082H11.6855V22.3341H12.6115V21.4082Z" fill="white"/>
<path d="M13.5373 21.4082H12.6113V22.3341H13.5373V21.4082Z" fill="white"/>
<path d="M14.463 21.4082H13.5371V22.3341H14.463V21.4082Z" fill="white"/>
<path d="M15.3888 21.4082H14.4629V22.3341H15.3888V21.4082Z" fill="white"/>
<path d="M16.3146 21.4082H15.3887V22.3341H16.3146V21.4082Z" fill="white"/>
<path d="M17.2404 21.4082H16.3145V22.3341H17.2404V21.4082Z" fill="white"/>
<path d="M18.1662 21.4082H17.2402V22.3341H18.1662V21.4082Z" fill="white"/>
<path d="M18.1662 20.4822H17.2402V21.4081H18.1662V20.4822Z" fill="white"/>
<path d="M18.1662 19.5552H17.2402V20.4811H18.1662V19.5552Z" fill="white"/>
<path d="M18.1662 18.6301H17.2402V19.5561H18.1662V18.6301Z" fill="white"/>
<path d="M18.1662 17.7041H17.2402V18.63H18.1662V17.7041Z" fill="white"/>
<path d="M18.1662 16.7791H17.2402V17.705H18.1662V16.7791Z" fill="white"/>
<path d="M17.2404 15.8511H16.3145V16.777H17.2404V15.8511Z" fill="white"/>
<path d="M16.3146 14.926H15.3887V15.8519H16.3146V14.926Z" fill="white"/>
<path d="M15.3888 14H14.4629V14.9259H15.3888V14Z" fill="white"/>
<path d="M15.3888 13.0752H14.4629V14.0011H15.3888V13.0752Z" fill="white"/>
<path d="M16.3146 12.1492H15.3887V13.0751H16.3146V12.1492Z" fill="white"/>
<path d="M17.2404 11.2222H16.3145V12.1481H17.2404V11.2222Z" fill="white"/>
<path d="M18.1662 10.2971H17.2402V11.223H18.1662V10.2971Z" fill="white"/>
<path d="M18.1662 9.37109H17.2402V10.297H18.1662V9.37109Z" fill="white"/>
<path d="M18.1662 8.44507H17.2402V9.37099H18.1662V8.44507Z" fill="white"/>
<path d="M18.1662 7.51807H17.2402V8.44399H18.1662V7.51807Z" fill="white"/>
<path d="M15.3888 10.2971H14.4629V11.223H15.3888V10.2971Z" fill="white"/>
<path d="M13.5373 10.2971H12.6113V11.223H13.5373V10.2971Z" fill="white"/>
<path d="M14.463 11.2222H13.5371V12.1481H14.463V11.2222Z" fill="white"/>
<path d="M14.463 16.7791H13.5371V17.705H14.463V16.7791Z" fill="white"/>
<path d="M14.463 17.7041H13.5371V18.63H14.463V17.7041Z" fill="white"/>
<path d="M13.5373 17.7041H12.6113V18.63H13.5373V17.7041Z" fill="white"/>
<path d="M14.463 17.7041H13.5371V18.63H14.463V17.7041Z" fill="white"/>
<path d="M15.3888 17.7041H14.4629V18.63H15.3888V17.7041Z" fill="white"/>
<path d="M15.3888 18.6301H14.4629V19.5561H15.3888V18.6301Z" fill="white"/>
<path d="M14.463 18.6301H13.5371V19.5561H14.463V18.6301Z" fill="white"/>
<path d="M13.5373 18.6301H12.6113V19.5561H13.5373V18.6301Z" fill="white"/>
<path d="M12.6115 18.6301H11.6855V19.5561H12.6115V18.6301Z" fill="white"/>
<path d="M13.5373 18.6301H12.6113V19.5561H13.5373V18.6301Z" fill="white"/>
<path d="M14.463 18.6301H13.5371V19.5561H14.463V18.6301Z" fill="white"/>
<path d="M15.3888 18.6301H14.4629V19.5561H15.3888V18.6301Z" fill="white"/>
<path d="M16.3146 18.6301H15.3887V19.5561H16.3146V18.6301Z" fill="white"/>
</g>
<defs>
<clipPath id="clip0_301_19142">
<rect width="10.1852" height="16.6666" fill="white" transform="translate(8.90723 5.66675)"/>
</clipPath>
</defs>
</svg>
