<svg width="60" height="60" viewBox="0 0 60 60" fill="none" xmlns="http://www.w3.org/2000/svg">
<rect x="9.99805" y="34.1797" width="40" height="4.69449" fill="#4C5377"/>
<path d="M5.00391 38.875H51.1758V57.2626H5.00391V38.875Z" fill="#4C5377"/>
<rect y="55.3057" width="60" height="4.69449" fill="#4C5377"/>
<rect y="43.5698" width="5" height="11.7362" fill="#4C5377"/>
<rect x="54.9961" y="43.5693" width="5" height="11.7362" fill="#4C5377"/>
<path d="M50.0039 38.875H55.0039V55.6195H50.0039V38.875Z" fill="#4C5377"/>
<path d="M18.75 3.521H37.9395V7.04157H18.75V3.521Z" fill="#4C5377"/>
<rect x="37.4941" y="3.521" width="3.74969" height="3.52058" fill="#4C5377"/>
<path d="M18.75 21.123H37.9395V24.6436H18.75V21.123Z" fill="#4C5377"/>
<rect x="37.4941" y="21.123" width="3.74969" height="3.52058" fill="#4C5377"/>
<path d="M14.998 7.04216L41.9109 7.04199V21.1242L14.998 21.1244V7.04216Z" fill="#4C5377"/>
<rect x="41.248" y="7.04199" width="3.74969" height="14.0823" fill="#4C5377"/>
<rect x="22.5039" width="14.9988" height="3.52058" fill="#4C5377"/>
<rect x="22.5039" y="24.644" width="14.9988" height="3.52058" fill="#4C5377"/>
</svg>
