<svg xmlns="http://www.w3.org/2000/svg" width="20" height="20" viewBox="0 0 20 20" fill="none">
<g clip-path="url(#clip0_99_7756)">
<path d="M18.3333 7.49992V5.83325H17.4999V4.16658H16.6666V3.33325H15.8333V2.49992H14.1666V1.66659H12.4999V0.833252H7.49992V1.66659H5.83325V2.49992H4.16658V3.33325H3.33325V4.16658H2.49992V5.83325H1.66659V7.49992H0.833252V12.4999H1.66659V14.1666H2.49992V15.8333H3.33325V16.6666H4.16658V17.4999H5.83325V18.3333H7.49992V19.1666H12.4999V18.3333H14.1666V17.4999H15.8333V16.6666H16.6666V15.8333H17.4999V14.1666H18.3333V12.4999H19.1666V7.49992H18.3333ZM11.6666 13.3333V12.4999H10.8333V11.6666H9.16658V12.4999H8.33325V13.3333H7.49992V14.1666H6.66658V13.3333H5.83325V12.4999H6.66658V11.6666H7.49992V10.8333H8.33325V9.16658H7.49992V8.33325H6.66658V7.49992H5.83325V6.66658H6.66658V5.83325H7.49992V6.66658H8.33325V7.49992H9.16658V8.33325H10.8333V7.49992H11.6666V6.66658H12.4999V5.83325H13.3333V6.66658H14.1666V7.49992H13.3333V8.33325H12.4999V9.16658H11.6666V10.8333H12.4999V11.6666H13.3333V12.4999H14.1666V13.3333H13.3333V14.1666H12.4999V13.3333H11.6666Z" fill="#767A90"/>
</g>
<defs>
<clipPath id="clip0_99_7756">
<rect width="20" height="20" fill="white"/>
</clipPath>
</defs>
</svg>