<svg xmlns="http://www.w3.org/2000/svg" width="32" height="40" viewBox="0 0 32 40" fill="none">
  <g clip-path="url(#clip0_102_8675)">
    <path d="M16.2957 -0.000488281H14.8142V1.48099H16.2957V-0.000488281Z" fill="#9EA2BA"/>
    <path d="M14.8147 -0.000488281H13.3333V1.48099H14.8147V-0.000488281Z" fill="#9EA2BA"/>
    <path d="M14.8147 1.48218H13.3333V2.96366H14.8147V1.48218Z" fill="#9EA2BA"/>
    <path d="M13.3335 1.48218H11.8521V2.96366H13.3335V1.48218Z" fill="#9EA2BA"/>
    <path d="M11.8523 1.48218H10.3708V2.96366H11.8523V1.48218Z" fill="#9EA2BA"/>
    <path d="M10.3699 1.48218H8.88843V2.96366H10.3699V1.48218Z" fill="#9EA2BA"/>
    <path d="M10.3699 2.96338H8.88843V4.44486H10.3699V2.96338Z" fill="#9EA2BA"/>
    <path d="M8.88871 2.96338H7.40723V4.44486H8.88871V2.96338Z" fill="#9EA2BA"/>
    <path d="M7.40775 2.96338H5.92627V4.44486H7.40775V2.96338Z" fill="#9EA2BA"/>
    <path d="M5.92655 2.96338H4.44507V4.44486H5.92655V2.96338Z" fill="#9EA2BA"/>
    <path d="M4.44388 2.96338H2.9624V4.44486H4.44388V2.96338Z" fill="#9EA2BA"/>
    <path d="M4.44388 4.44434H2.9624V5.92582H4.44388V4.44434Z" fill="#9EA2BA"/>
    <path d="M2.96268 4.44434H1.4812V5.92582H2.96268V4.44434Z" fill="#9EA2BA"/>
    <path d="M1.48148 4.44434H0V5.92582H1.48148V4.44434Z" fill="#9EA2BA"/>
    <path d="M1.48148 5.92554H0V7.40702H1.48148V5.92554Z" fill="#9EA2BA"/>
    <path d="M1.48148 7.40674H0V8.88822H1.48148V7.40674Z" fill="#9EA2BA"/>
    <path d="M1.48148 8.8894H0V10.3709H1.48148V8.8894Z" fill="#9EA2BA"/>
    <path d="M1.48148 10.3706H0V11.8521H1.48148V10.3706Z" fill="#9EA2BA"/>
    <path d="M1.48148 11.8516H0V13.333H1.48148V11.8516Z" fill="#9EA2BA"/>
    <path d="M1.48148 13.3328H0V14.8142H1.48148V13.3328Z" fill="#9EA2BA"/>
    <path d="M1.48148 14.8154H0V16.2969H1.48148V14.8154Z" fill="#9EA2BA"/>
    <path d="M1.48148 16.2966H0V17.7781H1.48148V16.2966Z" fill="#9EA2BA"/>
    <path d="M1.48148 17.7778H0V19.2593H1.48148V17.7778Z" fill="#9EA2BA"/>
    <path d="M1.48148 19.2588H0V20.7403H1.48148V19.2588Z" fill="#9EA2BA"/>
    <path d="M1.48148 20.7417H0V22.2232H1.48148V20.7417Z" fill="#9EA2BA"/>
    <path d="M1.48148 22.2227H0V23.7041H1.48148V22.2227Z" fill="#9EA2BA"/>
    <path d="M2.96268 22.2227H1.4812V23.7041H2.96268V22.2227Z" fill="#9EA2BA"/>
    <path d="M2.96268 23.7039H1.4812V25.1853H2.96268V23.7039Z" fill="#9EA2BA"/>
    <path d="M2.96268 25.1851H1.4812V26.6665H2.96268V25.1851Z" fill="#9EA2BA"/>
    <path d="M4.44388 25.1851H2.9624V26.6665H4.44388V25.1851Z" fill="#9EA2BA"/>
    <path d="M4.44388 26.6672H2.9624V28.1487H4.44388V26.6672Z" fill="#9EA2BA"/>
    <path d="M4.44388 28.1484H2.9624V29.6299H4.44388V28.1484Z" fill="#9EA2BA"/>
    <path d="M5.92655 28.1484H4.44507V29.6299H5.92655V28.1484Z" fill="#9EA2BA"/>
    <path d="M5.92655 29.6294H4.44507V31.1109H5.92655V29.6294Z" fill="#9EA2BA"/>
    <path d="M5.92655 31.1106H4.44507V32.5921H5.92655V31.1106Z" fill="#9EA2BA"/>
    <path d="M7.40775 31.1106H5.92627V32.5921H7.40775V31.1106Z" fill="#9EA2BA"/>
    <path d="M8.88871 31.1106H7.40723V32.5921H8.88871V31.1106Z" fill="#9EA2BA"/>
    <path d="M8.88871 32.5933H7.40723V34.0747H8.88871V32.5933Z" fill="#9EA2BA"/>
    <path d="M8.88871 34.0745H7.40723V35.5559H8.88871V34.0745Z" fill="#9EA2BA"/>
    <path d="M10.3699 34.0745H8.88843V35.5559H10.3699V34.0745Z" fill="#9EA2BA"/>
    <path d="M11.8523 34.0745H10.3708V35.5559H11.8523V34.0745Z" fill="#9EA2BA"/>
    <path d="M11.8523 35.5557H10.3708V37.0371H11.8523V35.5557Z" fill="#9EA2BA"/>
    <path d="M13.3335 35.5557H11.8521V37.0371H13.3335V35.5557Z" fill="#9EA2BA"/>
    <path d="M13.3335 37.0366H11.8521V38.5181H13.3335V37.0366Z" fill="#9EA2BA"/>
    <path d="M14.8147 37.0366H13.3333V38.5181H14.8147V37.0366Z" fill="#9EA2BA"/>
    <path d="M14.8147 38.5178H13.3333V39.9993H14.8147V38.5178Z" fill="#9EA2BA"/>
    <path d="M16.2957 38.5178H14.8142V39.9993H16.2957V38.5178Z" fill="#9EA2BA"/>
    <path d="M17.7786 38.5178H16.2971V39.9993H17.7786V38.5178Z" fill="#9EA2BA"/>
    <path d="M17.7786 37.0366H16.2971V38.5181H17.7786V37.0366Z" fill="#9EA2BA"/>
    <path d="M19.2596 37.0366H17.7781V38.5181H19.2596V37.0366Z" fill="#9EA2BA"/>
    <path d="M19.2596 35.5557H17.7781V37.0371H19.2596V35.5557Z" fill="#9EA2BA"/>
    <path d="M20.7408 35.5557H19.2593V37.0371H20.7408V35.5557Z" fill="#9EA2BA"/>
    <path d="M20.7408 34.0745H19.2593V35.5559H20.7408V34.0745Z" fill="#9EA2BA"/>
    <path d="M22.222 34.0745H20.7405V35.5559H22.222V34.0745Z" fill="#9EA2BA"/>
    <path d="M23.7044 34.0745H22.2229V35.5559H23.7044V34.0745Z" fill="#9EA2BA"/>
    <path d="M23.7044 32.5933H22.2229V34.0747H23.7044V32.5933Z" fill="#9EA2BA"/>
    <path d="M23.7044 31.1106H22.2229V32.5921H23.7044V31.1106Z" fill="#9EA2BA"/>
    <path d="M25.1856 31.1106H23.7041V32.5921H25.1856V31.1106Z" fill="#9EA2BA"/>
    <path d="M26.6665 31.1106H25.1851V32.5921H26.6665V31.1106Z" fill="#9EA2BA"/>
    <path d="M25.1856 31.1106H23.7041V32.5921H25.1856V31.1106Z" fill="#9EA2BA"/>
    <path d="M25.1856 32.5933H23.7041V34.0747H25.1856V32.5933Z" fill="#9EA2BA"/>
    <path d="M23.7044 32.5933H22.2229V34.0747H23.7044V32.5933Z" fill="#9EA2BA"/>
    <path d="M23.7044 34.0745H22.2229V35.5559H23.7044V34.0745Z" fill="#9EA2BA"/>
    <path d="M22.222 34.0745H20.7405V35.5559H22.222V34.0745Z" fill="#9EA2BA"/>
    <path d="M20.7408 34.0745H19.2593V35.5559H20.7408V34.0745Z" fill="#9EA2BA"/>
    <path d="M20.7408 35.5557H19.2593V37.0371H20.7408V35.5557Z" fill="#9EA2BA"/>
    <path d="M19.2596 35.5557H17.7781V37.0371H19.2596V35.5557Z" fill="#9EA2BA"/>
    <path d="M17.7786 35.5557H16.2971V37.0371H17.7786V35.5557Z" fill="#9EA2BA"/>
    <path d="M16.2957 35.5557H14.8142V37.0371H16.2957V35.5557Z" fill="#9EA2BA"/>
    <path d="M14.8147 35.5557H13.3333V37.0371H14.8147V35.5557Z" fill="#9EA2BA"/>
    <path d="M13.3335 35.5557H11.8521V37.0371H13.3335V35.5557Z" fill="#9EA2BA"/>
    <path d="M13.3335 34.0745H11.8521V35.5559H13.3335V34.0745Z" fill="#9EA2BA"/>
    <path d="M11.8523 34.0745H10.3708V35.5559H11.8523V34.0745Z" fill="#9EA2BA"/>
    <path d="M10.3699 34.0745H8.88843V35.5559H10.3699V34.0745Z" fill="#9EA2BA"/>
    <path d="M10.3699 32.5933H8.88843V34.0747H10.3699V32.5933Z" fill="#9EA2BA"/>
    <path d="M8.88871 32.5933H7.40723V34.0747H8.88871V32.5933Z" fill="#9EA2BA"/>
    <path d="M7.40775 32.5933H5.92627V34.0747H7.40775V32.5933Z" fill="#9EA2BA"/>
    <path d="M8.88871 32.5933H7.40723V34.0747H8.88871V32.5933Z" fill="#9EA2BA"/>
    <path d="M10.3699 32.5933H8.88843V34.0747H10.3699V32.5933Z" fill="#9EA2BA"/>
    <path d="M11.8523 32.5933H10.3708V34.0747H11.8523V32.5933Z" fill="#9EA2BA"/>
    <path d="M13.3335 32.5933H11.8521V34.0747H13.3335V32.5933Z" fill="#9EA2BA"/>
    <path d="M14.8147 32.5933H13.3333V34.0747H14.8147V32.5933Z" fill="#9EA2BA"/>
    <path d="M16.2957 32.5933H14.8142V34.0747H16.2957V32.5933Z" fill="#9EA2BA"/>
    <path d="M17.7786 32.5933H16.2971V34.0747H17.7786V32.5933Z" fill="#9EA2BA"/>
    <path d="M19.2596 32.5933H17.7781V34.0747H19.2596V32.5933Z" fill="#9EA2BA"/>
    <path d="M20.7408 32.5933H19.2593V34.0747H20.7408V32.5933Z" fill="#9EA2BA"/>
    <path d="M22.222 32.5933H20.7405V34.0747H22.222V32.5933Z" fill="#9EA2BA"/>
    <path d="M22.222 34.0745H20.7405V35.5559H22.222V34.0745Z" fill="#9EA2BA"/>
    <path d="M20.7408 34.0745H19.2593V35.5559H20.7408V34.0745Z" fill="#9EA2BA"/>
    <path d="M19.2596 34.0745H17.7781V35.5559H19.2596V34.0745Z" fill="#9EA2BA"/>
    <path d="M17.7786 34.0745H16.2971V35.5559H17.7786V34.0745Z" fill="#9EA2BA"/>
    <path d="M16.2957 34.0745H14.8142V35.5559H16.2957V34.0745Z" fill="#9EA2BA"/>
    <path d="M14.8147 34.0745H13.3333V35.5559H14.8147V34.0745Z" fill="#9EA2BA"/>
    <path d="M14.8147 35.5557H13.3333V37.0371H14.8147V35.5557Z" fill="#9EA2BA"/>
    <path d="M16.2957 35.5557H14.8142V37.0371H16.2957V35.5557Z" fill="#9EA2BA"/>
    <path d="M17.7786 35.5557H16.2971V37.0371H17.7786V35.5557Z" fill="#9EA2BA"/>
    <path d="M17.7786 37.0366H16.2971V38.5181H17.7786V37.0366Z" fill="#9EA2BA"/>
    <path d="M16.2957 37.0366H14.8142V38.5181H16.2957V37.0366Z" fill="#9EA2BA"/>
    <path d="M16.2957 35.5557H14.8142V37.0371H16.2957V35.5557Z" fill="#9EA2BA"/>
    <path d="M16.2957 34.0745H14.8142V35.5559H16.2957V34.0745Z" fill="#9EA2BA"/>
    <path d="M16.2957 32.5933H14.8142V34.0747H16.2957V32.5933Z" fill="#9EA2BA"/>
    <path d="M17.7786 32.5933H16.2971V34.0747H17.7786V32.5933Z" fill="#9EA2BA"/>
    <path d="M19.2596 32.5933H17.7781V34.0747H19.2596V32.5933Z" fill="#9EA2BA"/>
    <path d="M20.7408 32.5933H19.2593V34.0747H20.7408V32.5933Z" fill="#9EA2BA"/>
    <path d="M22.222 32.5933H20.7405V34.0747H22.222V32.5933Z" fill="#9EA2BA"/>
    <path d="M22.222 31.1106H20.7405V32.5921H22.222V31.1106Z" fill="#9EA2BA"/>
    <path d="M23.7044 31.1106H22.2229V32.5921H23.7044V31.1106Z" fill="#9EA2BA"/>
    <path d="M25.1856 31.1106H23.7041V32.5921H25.1856V31.1106Z" fill="#9EA2BA"/>
    <path d="M26.6665 31.1106H25.1851V32.5921H26.6665V31.1106Z" fill="#9EA2BA"/>
    <path d="M26.6665 29.6294H25.1851V31.1109H26.6665V29.6294Z" fill="#9EA2BA"/>
    <path d="M28.1477 29.6294H26.6663V31.1109H28.1477V29.6294Z" fill="#9EA2BA"/>
    <path d="M28.1477 28.1484H26.6663V29.6299H28.1477V28.1484Z" fill="#9EA2BA"/>
    <path d="M28.1477 26.6672H26.6663V28.1487H28.1477V26.6672Z" fill="#9EA2BA"/>
    <path d="M29.6304 26.6672H28.1489V28.1487H29.6304V26.6672Z" fill="#9EA2BA"/>
    <path d="M29.6304 25.1851H28.1489V26.6665H29.6304V25.1851Z" fill="#9EA2BA"/>
    <path d="M29.6304 23.7039H28.1489V25.1853H29.6304V23.7039Z" fill="#9EA2BA"/>
    <path d="M31.1116 23.7039H29.6301V25.1853H31.1116V23.7039Z" fill="#9EA2BA"/>
    <path d="M31.1116 22.2227H29.6301V23.7041H31.1116V22.2227Z" fill="#9EA2BA"/>
    <path d="M31.1116 20.7417H29.6301V22.2232H31.1116V20.7417Z" fill="#9EA2BA"/>
    <path d="M31.1116 19.2588H29.6301V20.7403H31.1116V19.2588Z" fill="#9EA2BA"/>
    <path d="M31.1116 17.7778H29.6301V19.2593H31.1116V17.7778Z" fill="#9EA2BA"/>
    <path d="M31.1116 16.2966H29.6301V17.7781H31.1116V16.2966Z" fill="#9EA2BA"/>
    <path d="M31.1116 14.8154H29.6301V16.2969H31.1116V14.8154Z" fill="#9EA2BA"/>
    <path d="M31.1116 16.2966H29.6301V17.7781H31.1116V16.2966Z" fill="#9EA2BA"/>
    <path d="M31.1116 17.7778H29.6301V19.2593H31.1116V17.7778Z" fill="#9EA2BA"/>
    <path d="M31.1116 19.2588H29.6301V20.7403H31.1116V19.2588Z" fill="#9EA2BA"/>
    <path d="M31.1116 20.7417H29.6301V22.2232H31.1116V20.7417Z" fill="#9EA2BA"/>
    <path d="M31.1116 22.2227H29.6301V23.7041H31.1116V22.2227Z" fill="#9EA2BA"/>
    <path d="M31.1116 23.7039H29.6301V25.1853H31.1116V23.7039Z" fill="#9EA2BA"/>
    <path d="M29.6304 23.7039H28.1489V25.1853H29.6304V23.7039Z" fill="#9EA2BA"/>
    <path d="M29.6304 22.2227H28.1489V23.7041H29.6304V22.2227Z" fill="#9EA2BA"/>
    <path d="M31.1116 22.2227H29.6301V23.7041H31.1116V22.2227Z" fill="#9EA2BA"/>
    <path d="M31.1116 20.7417H29.6301V22.2232H31.1116V20.7417Z" fill="#9EA2BA"/>
    <path d="M31.1116 19.2588H29.6301V20.7403H31.1116V19.2588Z" fill="#9EA2BA"/>
    <path d="M31.1116 17.7778H29.6301V19.2593H31.1116V17.7778Z" fill="#9EA2BA"/>
    <path d="M31.1116 16.2966H29.6301V17.7781H31.1116V16.2966Z" fill="#9EA2BA"/>
    <path d="M31.1116 14.8154H29.6301V16.2969H31.1116V14.8154Z" fill="#9EA2BA"/>
    <path d="M31.1116 13.3328H29.6301V14.8142H31.1116V13.3328Z" fill="#9EA2BA"/>
    <path d="M31.1116 11.8516H29.6301V13.333H31.1116V11.8516Z" fill="#9EA2BA"/>
    <path d="M31.1116 10.3706H29.6301V11.8521H31.1116V10.3706Z" fill="#9EA2BA"/>
    <path d="M31.1116 8.8894H29.6301V10.3709H31.1116V8.8894Z" fill="#9EA2BA"/>
    <path d="M31.1116 7.40674H29.6301V8.88822H31.1116V7.40674Z" fill="#9EA2BA"/>
    <path d="M31.1116 5.92554H29.6301V7.40702H31.1116V5.92554Z" fill="#9EA2BA"/>
    <path d="M31.1116 4.44434H29.6301V5.92582H31.1116V4.44434Z" fill="#9EA2BA"/>
    <path d="M29.6304 4.44434H28.1489V5.92582H29.6304V4.44434Z" fill="#9EA2BA"/>
    <path d="M28.1477 4.44434H26.6663V5.92582H28.1477V4.44434Z" fill="#9EA2BA"/>
    <path d="M28.1477 2.96338H26.6663V4.44486H28.1477V2.96338Z" fill="#9EA2BA"/>
    <path d="M26.6665 2.96338H25.1851V4.44486H26.6665V2.96338Z" fill="#9EA2BA"/>
    <path d="M25.1856 2.96338H23.7041V4.44486H25.1856V2.96338Z" fill="#9EA2BA"/>
    <path d="M23.7044 2.96338H22.2229V4.44486H23.7044V2.96338Z" fill="#9EA2BA"/>
    <path d="M22.222 2.96338H20.7405V4.44486H22.222V2.96338Z" fill="#9EA2BA"/>
    <path d="M22.222 1.48218H20.7405V2.96366H22.222V1.48218Z" fill="#9EA2BA"/>
    <path d="M20.7408 1.48218H19.2593V2.96366H20.7408V1.48218Z" fill="#9EA2BA"/>
    <path d="M19.2596 1.48218H17.7781V2.96366H19.2596V1.48218Z" fill="#9EA2BA"/>
    <path d="M17.7786 1.48218H16.2971V2.96366H17.7786V1.48218Z" fill="#9EA2BA"/>
    <path d="M17.7786 -0.000488281H16.2971V1.48099H17.7786V-0.000488281Z" fill="#9EA2BA"/>
    <path d="M16.2957 -0.000488281H14.8142V1.48099H16.2957V-0.000488281Z" fill="#9EA2BA"/>
    <path d="M16.2957 1.48218H14.8142V2.96366H16.2957V1.48218Z" fill="#9EA2BA"/>
    <path d="M16.2957 2.96338H14.8142V4.44486H16.2957V2.96338Z" fill="#9EA2BA"/>
    <path d="M16.2957 4.44434H14.8142V5.92582H16.2957V4.44434Z" fill="#9EA2BA"/>
    <path d="M16.2957 5.92554H14.8142V7.40702H16.2957V5.92554Z" fill="#9EA2BA"/>
    <path d="M16.2957 7.40674H14.8142V8.88822H16.2957V7.40674Z" fill="#9EA2BA"/>
    <path d="M16.2957 8.8894H14.8142V10.3709H16.2957V8.8894Z" fill="#9EA2BA"/>
    <path d="M14.8147 8.8894H13.3333V10.3709H14.8147V8.8894Z" fill="#9EA2BA"/>
    <path d="M13.3335 8.8894H11.8521V10.3709H13.3335V8.8894Z" fill="#9EA2BA"/>
    <path d="M13.3335 10.3706H11.8521V11.8521H13.3335V10.3706Z" fill="#9EA2BA"/>
    <path d="M13.3335 11.8516H11.8521V13.333H13.3335V11.8516Z" fill="#9EA2BA"/>
    <path d="M13.3335 13.3328H11.8521V14.8142H13.3335V13.3328Z" fill="#9EA2BA"/>
    <path d="M11.8523 13.3328H10.3708V14.8142H11.8523V13.3328Z" fill="#9EA2BA"/>
    <path d="M10.3699 13.3328H8.88843V14.8142H10.3699V13.3328Z" fill="#9EA2BA"/>
    <path d="M8.88871 13.3328H7.40723V14.8142H8.88871V13.3328Z" fill="#9EA2BA"/>
    <path d="M7.40775 13.3328H5.92627V14.8142H7.40775V13.3328Z" fill="#9EA2BA"/>
    <path d="M8.88871 13.3328H7.40723V14.8142H8.88871V13.3328Z" fill="#9EA2BA"/>
    <path d="M8.88871 14.8154H7.40723V16.2969H8.88871V14.8154Z" fill="#9EA2BA"/>
    <path d="M8.88871 16.2966H7.40723V17.7781H8.88871V16.2966Z" fill="#9EA2BA"/>
    <path d="M8.88871 17.7778H7.40723V19.2593H8.88871V17.7778Z" fill="#9EA2BA"/>
    <path d="M8.88871 19.2588H7.40723V20.7403H8.88871V19.2588Z" fill="#9EA2BA"/>
    <path d="M8.88871 20.7417H7.40723V22.2232H8.88871V20.7417Z" fill="#9EA2BA"/>
    <path d="M8.88871 22.2227H7.40723V23.7041H8.88871V22.2227Z" fill="#9EA2BA"/>
    <path d="M8.88871 20.7417H7.40723V22.2232H8.88871V20.7417Z" fill="#9EA2BA"/>
    <path d="M10.3699 20.7417H8.88843V22.2232H10.3699V20.7417Z" fill="#9EA2BA"/>
    <path d="M11.8523 20.7417H10.3708V22.2232H11.8523V20.7417Z" fill="#9EA2BA"/>
    <path d="M13.3335 20.7417H11.8521V22.2232H13.3335V20.7417Z" fill="#9EA2BA"/>
    <path d="M13.3335 22.2227H11.8521V23.7041H13.3335V22.2227Z" fill="#9EA2BA"/>
    <path d="M13.3335 23.7039H11.8521V25.1853H13.3335V23.7039Z" fill="#9EA2BA"/>
    <path d="M13.3335 25.1851H11.8521V26.6665H13.3335V25.1851Z" fill="#9EA2BA"/>
    <path d="M13.3335 26.6672H11.8521V28.1487H13.3335V26.6672Z" fill="#9EA2BA"/>
    <path d="M14.8147 26.6672H13.3333V28.1487H14.8147V26.6672Z" fill="#9EA2BA"/>
    <path d="M16.2957 26.6672H14.8142V28.1487H16.2957V26.6672Z" fill="#9EA2BA"/>
    <path d="M17.7786 26.6672H16.2971V28.1487H17.7786V26.6672Z" fill="#9EA2BA"/>
    <path d="M19.2596 26.6672H17.7781V28.1487H19.2596V26.6672Z" fill="#9EA2BA"/>
    <path d="M20.7408 26.6672H19.2593V28.1487H20.7408V26.6672Z" fill="#9EA2BA"/>
    <path d="M20.7408 25.1851H19.2593V26.6665H20.7408V25.1851Z" fill="#9EA2BA"/>
    <path d="M20.7408 23.7039H19.2593V25.1853H20.7408V23.7039Z" fill="#9EA2BA"/>
    <path d="M20.7408 22.2227H19.2593V23.7041H20.7408V22.2227Z" fill="#9EA2BA"/>
    <path d="M20.7408 20.7417H19.2593V22.2232H20.7408V20.7417Z" fill="#9EA2BA"/>
    <path d="M22.222 20.7417H20.7405V22.2232H22.222V20.7417Z" fill="#9EA2BA"/>
    <path d="M23.7044 20.7417H22.2229V22.2232H23.7044V20.7417Z" fill="#9EA2BA"/>
    <path d="M25.1856 20.7417H23.7041V22.2232H25.1856V20.7417Z" fill="#9EA2BA"/>
    <path d="M25.1856 19.2588H23.7041V20.7403H25.1856V19.2588Z" fill="#9EA2BA"/>
    <path d="M25.1856 17.7778H23.7041V19.2593H25.1856V17.7778Z" fill="#9EA2BA"/>
    <path d="M25.1856 16.2966H23.7041V17.7781H25.1856V16.2966Z" fill="#9EA2BA"/>
    <path d="M25.1856 14.8154H23.7041V16.2969H25.1856V14.8154Z" fill="#9EA2BA"/>
    <path d="M25.1856 13.3328H23.7041V14.8142H25.1856V13.3328Z" fill="#9EA2BA"/>
    <path d="M23.7044 13.3328H22.2229V14.8142H23.7044V13.3328Z" fill="#9EA2BA"/>
    <path d="M22.222 13.3328H20.7405V14.8142H22.222V13.3328Z" fill="#9EA2BA"/>
    <path d="M20.7408 13.3328H19.2593V14.8142H20.7408V13.3328Z" fill="#9EA2BA"/>
    <path d="M20.7408 11.8516H19.2593V13.333H20.7408V11.8516Z" fill="#9EA2BA"/>
    <path d="M20.7408 10.3706H19.2593V11.8521H20.7408V10.3706Z" fill="#9EA2BA"/>
    <path d="M20.7408 8.8894H19.2593V10.3709H20.7408V8.8894Z" fill="#9EA2BA"/>
    <path d="M19.2596 8.8894H17.7781V10.3709H19.2596V8.8894Z" fill="#9EA2BA"/>
    <path d="M17.7786 8.8894H16.2971V10.3709H17.7786V8.8894Z" fill="#9EA2BA"/>
    <path d="M16.2957 8.8894H14.8142V10.3709H16.2957V8.8894Z" fill="#9EA2BA"/>
    <path d="M14.8147 8.8894H13.3333V10.3709H14.8147V8.8894Z" fill="#9EA2BA"/>
    <path d="M14.8147 7.40674H13.3333V8.88822H14.8147V7.40674Z" fill="#9EA2BA"/>
    <path d="M14.8147 5.92554H13.3333V7.40702H14.8147V5.92554Z" fill="#9EA2BA"/>
    <path d="M14.8147 4.44434H13.3333V5.92582H14.8147V4.44434Z" fill="#9EA2BA"/>
    <path d="M14.8147 2.96338H13.3333V4.44486H14.8147V2.96338Z" fill="#9EA2BA"/>
    <path d="M13.3335 2.96338H11.8521V4.44486H13.3335V2.96338Z" fill="#9EA2BA"/>
    <path d="M11.8523 2.96338H10.3708V4.44486H11.8523V2.96338Z" fill="#9EA2BA"/>
    <path d="M10.3699 2.96338H8.88843V4.44486H10.3699V2.96338Z" fill="#9EA2BA"/>
    <path d="M10.3699 4.44434H8.88843V5.92582H10.3699V4.44434Z" fill="#9EA2BA"/>
    <path d="M8.88871 4.44434H7.40723V5.92582H8.88871V4.44434Z" fill="#9EA2BA"/>
    <path d="M7.40775 4.44434H5.92627V5.92582H7.40775V4.44434Z" fill="#9EA2BA"/>
    <path d="M5.92655 4.44434H4.44507V5.92582H5.92655V4.44434Z" fill="#9EA2BA"/>
    <path d="M4.44388 4.44434H2.9624V5.92582H4.44388V4.44434Z" fill="#9EA2BA"/>
    <path d="M5.92655 4.44434H4.44507V5.92582H5.92655V4.44434Z" fill="#9EA2BA"/>
    <path d="M7.40775 4.44434H5.92627V5.92582H7.40775V4.44434Z" fill="#9EA2BA"/>
    <path d="M8.88871 4.44434H7.40723V5.92582H8.88871V4.44434Z" fill="#9EA2BA"/>
    <path d="M10.3699 4.44434H8.88843V5.92582H10.3699V4.44434Z" fill="#9EA2BA"/>
    <path d="M11.8523 4.44434H10.3708V5.92582H11.8523V4.44434Z" fill="#9EA2BA"/>
    <path d="M13.3335 4.44434H11.8521V5.92582H13.3335V4.44434Z" fill="#9EA2BA"/>
    <path d="M14.8147 4.44434H13.3333V5.92582H14.8147V4.44434Z" fill="#9EA2BA"/>
    <path d="M16.2957 4.44434H14.8142V5.92582H16.2957V4.44434Z" fill="#9EA2BA"/>
    <path d="M17.7786 4.44434H16.2971V5.92582H17.7786V4.44434Z" fill="#9EA2BA"/>
    <path d="M17.7786 5.92554H16.2971V7.40702H17.7786V5.92554Z" fill="#9EA2BA"/>
    <path d="M16.2957 5.92554H14.8142V7.40702H16.2957V5.92554Z" fill="#9EA2BA"/>
    <path d="M16.2957 7.40674H14.8142V8.88822H16.2957V7.40674Z" fill="#9EA2BA"/>
    <path d="M14.8147 7.40674H13.3333V8.88822H14.8147V7.40674Z" fill="#9EA2BA"/>
    <path d="M14.8147 5.92554H13.3333V7.40702H14.8147V5.92554Z" fill="#9EA2BA"/>
    <path d="M13.3335 5.92554H11.8521V7.40702H13.3335V5.92554Z" fill="#9EA2BA"/>
    <path d="M11.8523 5.92554H10.3708V7.40702H11.8523V5.92554Z" fill="#9EA2BA"/>
    <path d="M10.3699 5.92554H8.88843V7.40702H10.3699V5.92554Z" fill="#9EA2BA"/>
    <path d="M8.88871 5.92554H7.40723V7.40702H8.88871V5.92554Z" fill="#9EA2BA"/>
    <path d="M7.40775 5.92554H5.92627V7.40702H7.40775V5.92554Z" fill="#9EA2BA"/>
    <path d="M5.92655 5.92554H4.44507V7.40702H5.92655V5.92554Z" fill="#9EA2BA"/>
    <path d="M4.44388 5.92554H2.9624V7.40702H4.44388V5.92554Z" fill="#9EA2BA"/>
    <path d="M2.96268 5.92554H1.4812V7.40702H2.96268V5.92554Z" fill="#9EA2BA"/>
    <path d="M2.96268 7.40674H1.4812V8.88822H2.96268V7.40674Z" fill="#9EA2BA"/>
    <path d="M4.44388 7.40674H2.9624V8.88822H4.44388V7.40674Z" fill="#9EA2BA"/>
    <path d="M5.92655 7.40674H4.44507V8.88822H5.92655V7.40674Z" fill="#9EA2BA"/>
    <path d="M7.40775 7.40674H5.92627V8.88822H7.40775V7.40674Z" fill="#9EA2BA"/>
    <path d="M8.88871 7.40674H7.40723V8.88822H8.88871V7.40674Z" fill="#9EA2BA"/>
    <path d="M10.3699 7.40674H8.88843V8.88822H10.3699V7.40674Z" fill="#9EA2BA"/>
    <path d="M11.8523 7.40674H10.3708V8.88822H11.8523V7.40674Z" fill="#9EA2BA"/>
    <path d="M13.3335 7.40674H11.8521V8.88822H13.3335V7.40674Z" fill="#9EA2BA"/>
    <path d="M14.8147 7.40674H13.3333V8.88822H14.8147V7.40674Z" fill="#9EA2BA"/>
    <path d="M13.3335 7.40674H11.8521V8.88822H13.3335V7.40674Z" fill="#9EA2BA"/>
    <path d="M13.3335 8.8894H11.8521V10.3709H13.3335V8.8894Z" fill="#9EA2BA"/>
    <path d="M11.8523 8.8894H10.3708V10.3709H11.8523V8.8894Z" fill="#9EA2BA"/>
    <path d="M10.3699 8.8894H8.88843V10.3709H10.3699V8.8894Z" fill="#9EA2BA"/>
    <path d="M8.88871 8.8894H7.40723V10.3709H8.88871V8.8894Z" fill="#9EA2BA"/>
    <path d="M7.40775 8.8894H5.92627V10.3709H7.40775V8.8894Z" fill="#9EA2BA"/>
    <path d="M5.92655 8.8894H4.44507V10.3709H5.92655V8.8894Z" fill="#9EA2BA"/>
    <path d="M4.44388 8.8894H2.9624V10.3709H4.44388V8.8894Z" fill="#9EA2BA"/>
    <path d="M2.96268 8.8894H1.4812V10.3709H2.96268V8.8894Z" fill="#9EA2BA"/>
    <path d="M2.96268 10.3706H1.4812V11.8521H2.96268V10.3706Z" fill="#9EA2BA"/>
    <path d="M4.44388 10.3706H2.9624V11.8521H4.44388V10.3706Z" fill="#9EA2BA"/>
    <path d="M5.92655 10.3706H4.44507V11.8521H5.92655V10.3706Z" fill="#9EA2BA"/>
    <path d="M7.40775 10.3706H5.92627V11.8521H7.40775V10.3706Z" fill="#9EA2BA"/>
    <path d="M8.88871 10.3706H7.40723V11.8521H8.88871V10.3706Z" fill="#9EA2BA"/>
    <path d="M10.3699 10.3706H8.88843V11.8521H10.3699V10.3706Z" fill="#9EA2BA"/>
    <path d="M11.8523 10.3706H10.3708V11.8521H11.8523V10.3706Z" fill="#9EA2BA"/>
    <path d="M11.8523 11.8516H10.3708V13.333H11.8523V11.8516Z" fill="#9EA2BA"/>
    <path d="M10.3699 11.8516H8.88843V13.333H10.3699V11.8516Z" fill="#9EA2BA"/>
    <path d="M8.88871 11.8516H7.40723V13.333H8.88871V11.8516Z" fill="#9EA2BA"/>
    <path d="M7.40775 11.8516H5.92627V13.333H7.40775V11.8516Z" fill="#9EA2BA"/>
    <path d="M5.92655 11.8516H4.44507V13.333H5.92655V11.8516Z" fill="#9EA2BA"/>
    <path d="M4.44388 11.8516H2.9624V13.333H4.44388V11.8516Z" fill="#9EA2BA"/>
    <path d="M2.96268 11.8516H1.4812V13.333H2.96268V11.8516Z" fill="#9EA2BA"/>
    <path d="M2.96268 13.3328H1.4812V14.8142H2.96268V13.3328Z" fill="#9EA2BA"/>
    <path d="M4.44388 13.3328H2.9624V14.8142H4.44388V13.3328Z" fill="#9EA2BA"/>
    <path d="M5.92655 13.3328H4.44507V14.8142H5.92655V13.3328Z" fill="#9EA2BA"/>
    <path d="M5.92655 14.8154H4.44507V16.2969H5.92655V14.8154Z" fill="#9EA2BA"/>
    <path d="M7.40775 14.8154H5.92627V16.2969H7.40775V14.8154Z" fill="#9EA2BA"/>
    <path d="M7.40775 16.2966H5.92627V17.7781H7.40775V16.2966Z" fill="#9EA2BA"/>
    <path d="M5.92655 16.2966H4.44507V17.7781H5.92655V16.2966Z" fill="#9EA2BA"/>
    <path d="M5.92655 14.8154H4.44507V16.2969H5.92655V14.8154Z" fill="#9EA2BA"/>
    <path d="M4.44388 14.8154H2.9624V16.2969H4.44388V14.8154Z" fill="#9EA2BA"/>
    <path d="M2.96268 14.8154H1.4812V16.2969H2.96268V14.8154Z" fill="#9EA2BA"/>
    <path d="M2.96268 16.2966H1.4812V17.7781H2.96268V16.2966Z" fill="#9EA2BA"/>
    <path d="M4.44388 16.2966H2.9624V17.7781H4.44388V16.2966Z" fill="#9EA2BA"/>
    <path d="M5.92655 16.2966H4.44507V17.7781H5.92655V16.2966Z" fill="#9EA2BA"/>
    <path d="M7.40775 16.2966H5.92627V17.7781H7.40775V16.2966Z" fill="#9EA2BA"/>
    <path d="M7.40775 17.7778H5.92627V19.2593H7.40775V17.7778Z" fill="#9EA2BA"/>
    <path d="M7.40775 19.2588H5.92627V20.7403H7.40775V19.2588Z" fill="#9EA2BA"/>
    <path d="M5.92655 19.2588H4.44507V20.7403H5.92655V19.2588Z" fill="#9EA2BA"/>
    <path d="M4.44388 19.2588H2.9624V20.7403H4.44388V19.2588Z" fill="#9EA2BA"/>
    <path d="M2.96268 19.2588H1.4812V20.7403H2.96268V19.2588Z" fill="#9EA2BA"/>
    <path d="M2.96268 17.7778H1.4812V19.2593H2.96268V17.7778Z" fill="#9EA2BA"/>
    <path d="M4.44388 17.7778H2.9624V19.2593H4.44388V17.7778Z" fill="#9EA2BA"/>
    <path d="M5.92655 17.7778H4.44507V19.2593H5.92655V17.7778Z" fill="#9EA2BA"/>
    <path d="M5.92655 19.2588H4.44507V20.7403H5.92655V19.2588Z" fill="#9EA2BA"/>
    <path d="M4.44388 19.2588H2.9624V20.7403H4.44388V19.2588Z" fill="#9EA2BA"/>
    <path d="M2.96268 19.2588H1.4812V20.7403H2.96268V19.2588Z" fill="#9EA2BA"/>
    <path d="M2.96268 20.7417H1.4812V22.2232H2.96268V20.7417Z" fill="#9EA2BA"/>
    <path d="M4.44388 20.7417H2.9624V22.2232H4.44388V20.7417Z" fill="#9EA2BA"/>
    <path d="M5.92655 20.7417H4.44507V22.2232H5.92655V20.7417Z" fill="#9EA2BA"/>
    <path d="M7.40775 20.7417H5.92627V22.2232H7.40775V20.7417Z" fill="#9EA2BA"/>
    <path d="M7.40775 22.2227H5.92627V23.7041H7.40775V22.2227Z" fill="#9EA2BA"/>
    <path d="M5.92655 22.2227H4.44507V23.7041H5.92655V22.2227Z" fill="#9EA2BA"/>
    <path d="M4.44388 22.2227H2.9624V23.7041H4.44388V22.2227Z" fill="#9EA2BA"/>
    <path d="M4.44388 23.7039H2.9624V25.1853H4.44388V23.7039Z" fill="#9EA2BA"/>
    <path d="M5.92655 23.7039H4.44507V25.1853H5.92655V23.7039Z" fill="#9EA2BA"/>
    <path d="M7.40775 23.7039H5.92627V25.1853H7.40775V23.7039Z" fill="#9EA2BA"/>
    <path d="M8.88871 23.7039H7.40723V25.1853H8.88871V23.7039Z" fill="#9EA2BA"/>
    <path d="M10.3699 23.7039H8.88843V25.1853H10.3699V23.7039Z" fill="#9EA2BA"/>
    <path d="M11.8523 23.7039H10.3708V25.1853H11.8523V23.7039Z" fill="#9EA2BA"/>
    <path d="M11.8523 22.2227H10.3708V23.7041H11.8523V22.2227Z" fill="#9EA2BA"/>
    <path d="M10.3699 22.2227H8.88843V23.7041H10.3699V22.2227Z" fill="#9EA2BA"/>
    <path d="M10.3699 23.7039H8.88843V25.1853H10.3699V23.7039Z" fill="#9EA2BA"/>
    <path d="M8.88871 23.7039H7.40723V25.1853H8.88871V23.7039Z" fill="#9EA2BA"/>
    <path d="M7.40775 23.7039H5.92627V25.1853H7.40775V23.7039Z" fill="#9EA2BA"/>
    <path d="M7.40775 25.1851H5.92627V26.6665H7.40775V25.1851Z" fill="#9EA2BA"/>
    <path d="M7.40775 26.6672H5.92627V28.1487H7.40775V26.6672Z" fill="#9EA2BA"/>
    <path d="M5.92655 26.6672H4.44507V28.1487H5.92655V26.6672Z" fill="#9EA2BA"/>
    <path d="M5.92655 25.1851H4.44507V26.6665H5.92655V25.1851Z" fill="#9EA2BA"/>
    <path d="M7.40775 25.1851H5.92627V26.6665H7.40775V25.1851Z" fill="#9EA2BA"/>
    <path d="M8.88871 25.1851H7.40723V26.6665H8.88871V25.1851Z" fill="#9EA2BA"/>
    <path d="M10.3699 25.1851H8.88843V26.6665H10.3699V25.1851Z" fill="#9EA2BA"/>
    <path d="M11.8523 25.1851H10.3708V26.6665H11.8523V25.1851Z" fill="#9EA2BA"/>
    <path d="M11.8523 26.6672H10.3708V28.1487H11.8523V26.6672Z" fill="#9EA2BA"/>
    <path d="M10.3699 26.6672H8.88843V28.1487H10.3699V26.6672Z" fill="#9EA2BA"/>
    <path d="M8.88871 26.6672H7.40723V28.1487H8.88871V26.6672Z" fill="#9EA2BA"/>
    <path d="M7.40775 26.6672H5.92627V28.1487H7.40775V26.6672Z" fill="#9EA2BA"/>
    <path d="M7.40775 28.1484H5.92627V29.6299H7.40775V28.1484Z" fill="#9EA2BA"/>
    <path d="M7.40775 29.6294H5.92627V31.1109H7.40775V29.6294Z" fill="#9EA2BA"/>
    <path d="M8.88871 29.6294H7.40723V31.1109H8.88871V29.6294Z" fill="#9EA2BA"/>
    <path d="M8.88871 28.1484H7.40723V29.6299H8.88871V28.1484Z" fill="#9EA2BA"/>
    <path d="M10.3699 28.1484H8.88843V29.6299H10.3699V28.1484Z" fill="#9EA2BA"/>
    <path d="M11.8523 28.1484H10.3708V29.6299H11.8523V28.1484Z" fill="#9EA2BA"/>
    <path d="M13.3335 28.1484H11.8521V29.6299H13.3335V28.1484Z" fill="#9EA2BA"/>
    <path d="M14.8147 28.1484H13.3333V29.6299H14.8147V28.1484Z" fill="#9EA2BA"/>
    <path d="M16.2957 28.1484H14.8142V29.6299H16.2957V28.1484Z" fill="#9EA2BA"/>
    <path d="M17.7786 28.1484H16.2971V29.6299H17.7786V28.1484Z" fill="#9EA2BA"/>
    <path d="M19.2596 28.1484H17.7781V29.6299H19.2596V28.1484Z" fill="#9EA2BA"/>
    <path d="M20.7408 28.1484H19.2593V29.6299H20.7408V28.1484Z" fill="#9EA2BA"/>
    <path d="M22.222 28.1484H20.7405V29.6299H22.222V28.1484Z" fill="#9EA2BA"/>
    <path d="M23.7044 28.1484H22.2229V29.6299H23.7044V28.1484Z" fill="#9EA2BA"/>
    <path d="M25.1856 28.1484H23.7041V29.6299H25.1856V28.1484Z" fill="#9EA2BA"/>
    <path d="M26.6665 28.1484H25.1851V29.6299H26.6665V28.1484Z" fill="#9EA2BA"/>
    <path d="M28.1477 28.1484H26.6663V29.6299H28.1477V28.1484Z" fill="#9EA2BA"/>
    <path d="M26.6665 28.1484H25.1851V29.6299H26.6665V28.1484Z" fill="#9EA2BA"/>
    <path d="M26.6665 29.6294H25.1851V31.1109H26.6665V29.6294Z" fill="#9EA2BA"/>
    <path d="M25.1856 29.6294H23.7041V31.1109H25.1856V29.6294Z" fill="#9EA2BA"/>
    <path d="M23.7044 29.6294H22.2229V31.1109H23.7044V29.6294Z" fill="#9EA2BA"/>
    <path d="M22.222 29.6294H20.7405V31.1109H22.222V29.6294Z" fill="#9EA2BA"/>
    <path d="M20.7408 29.6294H19.2593V31.1109H20.7408V29.6294Z" fill="#9EA2BA"/>
    <path d="M19.2596 29.6294H17.7781V31.1109H19.2596V29.6294Z" fill="#9EA2BA"/>
    <path d="M17.7786 29.6294H16.2971V31.1109H17.7786V29.6294Z" fill="#9EA2BA"/>
    <path d="M16.2957 29.6294H14.8142V31.1109H16.2957V29.6294Z" fill="#9EA2BA"/>
    <path d="M14.8147 29.6294H13.3333V31.1109H14.8147V29.6294Z" fill="#9EA2BA"/>
    <path d="M13.3335 29.6294H11.8521V31.1109H13.3335V29.6294Z" fill="#9EA2BA"/>
    <path d="M11.8523 29.6294H10.3708V31.1109H11.8523V29.6294Z" fill="#9EA2BA"/>
    <path d="M10.3699 29.6294H8.88843V31.1109H10.3699V29.6294Z" fill="#9EA2BA"/>
    <path d="M10.3699 31.1106H8.88843V32.5921H10.3699V31.1106Z" fill="#9EA2BA"/>
    <path d="M11.8523 31.1106H10.3708V32.5921H11.8523V31.1106Z" fill="#9EA2BA"/>
    <path d="M13.3335 31.1106H11.8521V32.5921H13.3335V31.1106Z" fill="#9EA2BA"/>
    <path d="M14.8147 31.1106H13.3333V32.5921H14.8147V31.1106Z" fill="#9EA2BA"/>
    <path d="M16.2957 31.1106H14.8142V32.5921H16.2957V31.1106Z" fill="#9EA2BA"/>
    <path d="M17.7786 31.1106H16.2971V32.5921H17.7786V31.1106Z" fill="#9EA2BA"/>
    <path d="M19.2596 31.1106H17.7781V32.5921H19.2596V31.1106Z" fill="#9EA2BA"/>
    <path d="M20.7408 31.1106H19.2593V32.5921H20.7408V31.1106Z" fill="#9EA2BA"/>
    <path d="M22.222 31.1106H20.7405V32.5921H22.222V31.1106Z" fill="#9EA2BA"/>
    <path d="M22.222 29.6294H20.7405V31.1109H22.222V29.6294Z" fill="#9EA2BA"/>
    <path d="M22.222 28.1484H20.7405V29.6299H22.222V28.1484Z" fill="#9EA2BA"/>
    <path d="M22.222 26.6672H20.7405V28.1487H22.222V26.6672Z" fill="#9EA2BA"/>
    <path d="M22.222 25.1851H20.7405V26.6665H22.222V25.1851Z" fill="#9EA2BA"/>
    <path d="M22.222 23.7039H20.7405V25.1853H22.222V23.7039Z" fill="#9EA2BA"/>
    <path d="M22.222 22.2227H20.7405V23.7041H22.222V22.2227Z" fill="#9EA2BA"/>
    <path d="M23.7044 22.2227H22.2229V23.7041H23.7044V22.2227Z" fill="#9EA2BA"/>
    <path d="M23.7044 23.7039H22.2229V25.1853H23.7044V23.7039Z" fill="#9EA2BA"/>
    <path d="M23.7044 25.1851H22.2229V26.6665H23.7044V25.1851Z" fill="#9EA2BA"/>
    <path d="M23.7044 26.6672H22.2229V28.1487H23.7044V26.6672Z" fill="#9EA2BA"/>
    <path d="M23.7044 28.1484H22.2229V29.6299H23.7044V28.1484Z" fill="#9EA2BA"/>
    <path d="M25.1856 28.1484H23.7041V29.6299H25.1856V28.1484Z" fill="#9EA2BA"/>
    <path d="M25.1856 26.6672H23.7041V28.1487H25.1856V26.6672Z" fill="#9EA2BA"/>
    <path d="M25.1856 25.1851H23.7041V26.6665H25.1856V25.1851Z" fill="#9EA2BA"/>
    <path d="M25.1856 23.7039H23.7041V25.1853H25.1856V23.7039Z" fill="#9EA2BA"/>
    <path d="M25.1856 22.2227H23.7041V23.7041H25.1856V22.2227Z" fill="#9EA2BA"/>
    <path d="M26.6665 22.2227H25.1851V23.7041H26.6665V22.2227Z" fill="#9EA2BA"/>
    <path d="M26.6665 23.7039H25.1851V25.1853H26.6665V23.7039Z" fill="#9EA2BA"/>
    <path d="M26.6665 25.1851H25.1851V26.6665H26.6665V25.1851Z" fill="#9EA2BA"/>
    <path d="M26.6665 23.7039H25.1851V25.1853H26.6665V23.7039Z" fill="#9EA2BA"/>
    <path d="M26.6665 25.1851H25.1851V26.6665H26.6665V25.1851Z" fill="#9EA2BA"/>
    <path d="M26.6665 26.6672H25.1851V28.1487H26.6665V26.6672Z" fill="#9EA2BA"/>
    <path d="M26.6665 25.1851H25.1851V26.6665H26.6665V25.1851Z" fill="#9EA2BA"/>
    <path d="M28.1477 25.1851H26.6663V26.6665H28.1477V25.1851Z" fill="#9EA2BA"/>
    <path d="M28.1477 23.7039H26.6663V25.1853H28.1477V23.7039Z" fill="#9EA2BA"/>
    <path d="M28.1477 22.2227H26.6663V23.7041H28.1477V22.2227Z" fill="#9EA2BA"/>
    <path d="M28.1477 20.7417H26.6663V22.2232H28.1477V20.7417Z" fill="#9EA2BA"/>
    <path d="M26.6665 20.7417H25.1851V22.2232H26.6665V20.7417Z" fill="#9EA2BA"/>
    <path d="M28.1477 20.7417H26.6663V22.2232H28.1477V20.7417Z" fill="#9EA2BA"/>
    <path d="M29.6304 20.7417H28.1489V22.2232H29.6304V20.7417Z" fill="#9EA2BA"/>
    <path d="M29.6304 19.2588H28.1489V20.7403H29.6304V19.2588Z" fill="#9EA2BA"/>
    <path d="M29.6304 17.7778H28.1489V19.2593H29.6304V17.7778Z" fill="#9EA2BA"/>
    <path d="M29.6304 16.2966H28.1489V17.7781H29.6304V16.2966Z" fill="#9EA2BA"/>
    <path d="M29.6304 14.8154H28.1489V16.2969H29.6304V14.8154Z" fill="#9EA2BA"/>
    <path d="M29.6304 13.3328H28.1489V14.8142H29.6304V13.3328Z" fill="#9EA2BA"/>
    <path d="M29.6304 11.8516H28.1489V13.333H29.6304V11.8516Z" fill="#9EA2BA"/>
    <path d="M29.6304 10.3706H28.1489V11.8521H29.6304V10.3706Z" fill="#9EA2BA"/>
    <path d="M29.6304 8.8894H28.1489V10.3709H29.6304V8.8894Z" fill="#9EA2BA"/>
    <path d="M29.6304 7.40674H28.1489V8.88822H29.6304V7.40674Z" fill="#9EA2BA"/>
    <path d="M29.6304 5.92554H28.1489V7.40702H29.6304V5.92554Z" fill="#9EA2BA"/>
    <path d="M28.1477 5.92554H26.6663V7.40702H28.1477V5.92554Z" fill="#9EA2BA"/>
    <path d="M26.6665 5.92554H25.1851V7.40702H26.6665V5.92554Z" fill="#9EA2BA"/>
    <path d="M26.6665 4.44434H25.1851V5.92582H26.6665V4.44434Z" fill="#9EA2BA"/>
    <path d="M25.1856 4.44434H23.7041V5.92582H25.1856V4.44434Z" fill="#9EA2BA"/>
    <path d="M23.7044 4.44434H22.2229V5.92582H23.7044V4.44434Z" fill="#9EA2BA"/>
    <path d="M22.222 4.44434H20.7405V5.92582H22.222V4.44434Z" fill="#9EA2BA"/>
    <path d="M20.7408 4.44434H19.2593V5.92582H20.7408V4.44434Z" fill="#9EA2BA"/>
    <path d="M20.7408 2.96338H19.2593V4.44486H20.7408V2.96338Z" fill="#9EA2BA"/>
    <path d="M19.2596 2.96338H17.7781V4.44486H19.2596V2.96338Z" fill="#9EA2BA"/>
    <path d="M17.7786 2.96338H16.2971V4.44486H17.7786V2.96338Z" fill="#9EA2BA"/>
    <path d="M17.7786 4.44434H16.2971V5.92582H17.7786V4.44434Z" fill="#9EA2BA"/>
    <path d="M19.2596 4.44434H17.7781V5.92582H19.2596V4.44434Z" fill="#9EA2BA"/>
    <path d="M19.2596 5.92554H17.7781V7.40702H19.2596V5.92554Z" fill="#9EA2BA"/>
    <path d="M17.7786 5.92554H16.2971V7.40702H17.7786V5.92554Z" fill="#9EA2BA"/>
    <path d="M17.7786 7.40674H16.2971V8.88822H17.7786V7.40674Z" fill="#9EA2BA"/>
    <path d="M19.2596 7.40674H17.7781V8.88822H19.2596V7.40674Z" fill="#9EA2BA"/>
    <path d="M20.7408 7.40674H19.2593V8.88822H20.7408V7.40674Z" fill="#9EA2BA"/>
    <path d="M20.7408 5.92554H19.2593V7.40702H20.7408V5.92554Z" fill="#9EA2BA"/>
    <path d="M22.222 5.92554H20.7405V7.40702H22.222V5.92554Z" fill="#9EA2BA"/>
    <path d="M23.7044 5.92554H22.2229V7.40702H23.7044V5.92554Z" fill="#9EA2BA"/>
    <path d="M25.1856 5.92554H23.7041V7.40702H25.1856V5.92554Z" fill="#9EA2BA"/>
    <path d="M26.6665 5.92554H25.1851V7.40702H26.6665V5.92554Z" fill="#9EA2BA"/>
    <path d="M26.6665 7.40674H25.1851V8.88822H26.6665V7.40674Z" fill="#9EA2BA"/>
    <path d="M25.1856 7.40674H23.7041V8.88822H25.1856V7.40674Z" fill="#9EA2BA"/>
    <path d="M23.7044 7.40674H22.2229V8.88822H23.7044V7.40674Z" fill="#9EA2BA"/>
    <path d="M22.222 7.40674H20.7405V8.88822H22.222V7.40674Z" fill="#9EA2BA"/>
    <path d="M20.7408 7.40674H19.2593V8.88822H20.7408V7.40674Z" fill="#9EA2BA"/>
    <path d="M22.222 7.40674H20.7405V8.88822H22.222V7.40674Z" fill="#9EA2BA"/>
    <path d="M23.7044 7.40674H22.2229V8.88822H23.7044V7.40674Z" fill="#9EA2BA"/>
    <path d="M25.1856 7.40674H23.7041V8.88822H25.1856V7.40674Z" fill="#9EA2BA"/>
    <path d="M26.6665 7.40674H25.1851V8.88822H26.6665V7.40674Z" fill="#9EA2BA"/>
    <path d="M26.6665 8.8894H25.1851V10.3709H26.6665V8.8894Z" fill="#9EA2BA"/>
    <path d="M28.1477 8.8894H26.6663V10.3709H28.1477V8.8894Z" fill="#9EA2BA"/>
    <path d="M28.1477 7.40674H26.6663V8.88822H28.1477V7.40674Z" fill="#9EA2BA"/>
    <path d="M28.1477 8.8894H26.6663V10.3709H28.1477V8.8894Z" fill="#9EA2BA"/>
    <path d="M28.1477 10.3706H26.6663V11.8521H28.1477V10.3706Z" fill="#9EA2BA"/>
    <path d="M28.1477 11.8516H26.6663V13.333H28.1477V11.8516Z" fill="#9EA2BA"/>
    <path d="M28.1477 13.3328H26.6663V14.8142H28.1477V13.3328Z" fill="#9EA2BA"/>
    <path d="M28.1477 14.8154H26.6663V16.2969H28.1477V14.8154Z" fill="#9EA2BA"/>
    <path d="M28.1477 16.2966H26.6663V17.7781H28.1477V16.2966Z" fill="#9EA2BA"/>
    <path d="M28.1477 17.7778H26.6663V19.2593H28.1477V17.7778Z" fill="#9EA2BA"/>
    <path d="M28.1477 19.2588H26.6663V20.7403H28.1477V19.2588Z" fill="#9EA2BA"/>
    <path d="M26.6665 19.2588H25.1851V20.7403H26.6665V19.2588Z" fill="#9EA2BA"/>
    <path d="M26.6665 17.7778H25.1851V19.2593H26.6665V17.7778Z" fill="#9EA2BA"/>
    <path d="M26.6665 16.2966H25.1851V17.7781H26.6665V16.2966Z" fill="#9EA2BA"/>
    <path d="M26.6665 14.8154H25.1851V16.2969H26.6665V14.8154Z" fill="#9EA2BA"/>
    <path d="M26.6665 13.3328H25.1851V14.8142H26.6665V13.3328Z" fill="#9EA2BA"/>
    <path d="M26.6665 11.8516H25.1851V13.333H26.6665V11.8516Z" fill="#9EA2BA"/>
    <path d="M26.6665 10.3706H25.1851V11.8521H26.6665V10.3706Z" fill="#9EA2BA"/>
    <path d="M26.6665 8.8894H25.1851V10.3709H26.6665V8.8894Z" fill="#9EA2BA"/>
    <path d="M25.1856 8.8894H23.7041V10.3709H25.1856V8.8894Z" fill="#9EA2BA"/>
    <path d="M23.7044 8.8894H22.2229V10.3709H23.7044V8.8894Z" fill="#9EA2BA"/>
    <path d="M22.222 8.8894H20.7405V10.3709H22.222V8.8894Z" fill="#9EA2BA"/>
    <path d="M22.222 10.3706H20.7405V11.8521H22.222V10.3706Z" fill="#9EA2BA"/>
    <path d="M23.7044 10.3706H22.2229V11.8521H23.7044V10.3706Z" fill="#9EA2BA"/>
    <path d="M25.1856 10.3706H23.7041V11.8521H25.1856V10.3706Z" fill="#9EA2BA"/>
    <path d="M25.1856 11.8516H23.7041V13.333H25.1856V11.8516Z" fill="#9EA2BA"/>
    <path d="M23.7044 11.8516H22.2229V13.333H23.7044V11.8516Z" fill="#9EA2BA"/>
    <path d="M22.222 11.8516H20.7405V13.333H22.222V11.8516Z" fill="#9EA2BA"/>
    <path d="M20.7408 11.8516H19.2593V13.333H20.7408V11.8516Z" fill="#9EA2BA"/>
    <path d="M20.7408 10.3706H19.2593V11.8521H20.7408V10.3706Z" fill="#9EA2BA"/>
  </g>
  <defs>
    <clipPath id="clip0_102_8675">
      <rect width="31.1111" height="40" fill="white"/>
    </clipPath>
  </defs>
</svg>