<svg width="28" height="28" viewBox="0 0 28 28" fill="none" xmlns="http://www.w3.org/2000/svg">
<path d="M10.5943 1.83653L12.1079 1.10162L20.8107 0.366699L21.9459 1.83653L23.4594 2.20399L25.3513 3.30637L26.1081 4.40875L26.4865 5.87858L27.6216 7.34842L28 12.4928L27.2432 14.3301L26.4865 16.5349L24.9729 17.2698L24.2162 18.7396L22.7026 19.842L20.8107 21.6793L19.2972 23.5166L17.7836 24.2515L16.6485 26.0888L15.5133 26.8237H7.94567L6.81052 26.4563L6.05375 25.7214L5.67537 24.9864L3.40507 24.2515L2.26992 23.1492L1.89153 21.6793L1.13477 20.5769V11.7579L2.26992 9.55317L3.02668 8.08334L3.78345 6.24604L5.29698 4.40875L6.81052 3.67383L10.5943 1.83653Z" fill="#9171E4"/>
<path d="M27.3946 14H25.9473V16.8019H27.3946V14Z" fill="#9171E4"/>
<path d="M27.3946 4.19873H25.9473V7.0006H27.3946V4.19873Z" fill="#9171E4"/>
<path d="M25.9466 16.8008H24.5088V18.1971H25.9466V16.8008Z" fill="#9171E4"/>
<path d="M25.9466 2.80127H24.5088V4.19761H25.9466V2.80127Z" fill="#9171E4"/>
<path d="M24.5088 18.1973H23.0615V19.6028H24.5088V18.1973Z" fill="#9171E4"/>
<path d="M23.0619 19.6025H21.624V20.9989H23.0619V19.6025Z" fill="#9171E4"/>
<path d="M24.5092 1.40527H21.624V2.80162H24.5092V1.40527Z" fill="#9171E4"/>
<path d="M21.6244 21.0005H20.1865V22.3968H21.6244V21.0005Z" fill="#9171E4"/>
<path d="M20.1866 22.3965H18.7393V23.802H20.1866V22.3965Z" fill="#9171E4"/>
<path d="M18.7396 23.8022H17.3018V25.1986H18.7396V23.8022Z" fill="#9171E4"/>
<path d="M17.3002 25.1982H15.8623V26.5946H17.3002V25.1982Z" fill="#9171E4"/>
<path d="M15.8635 26.5952H7.20801V28.0007H15.8635V26.5952Z" fill="#9171E4"/>
<path d="M21.6256 0H11.5322V1.40553H21.6256V0Z" fill="#9171E4"/>
<path d="M11.532 1.40527H8.65625V2.80162H11.532V1.40527Z" fill="#9171E4"/>
<path d="M8.6547 2.80127H5.76953V4.19761H8.6547V2.80127Z" fill="#9171E4"/>
<path d="M7.20739 25.1982H5.76953V26.5946H7.20739V25.1982Z" fill="#9171E4"/>
<path d="M5.76994 23.8022H2.88477V25.1986H5.76994V23.8022Z" fill="#9171E4"/>
<path d="M5.76989 4.19873H4.33203V5.60426H5.76989V4.19873Z" fill="#9171E4"/>
<path d="M4.33208 5.60254H2.88477V8.40441H4.33208V5.60254Z" fill="#9171E4"/>
<path d="M2.88512 21.0005H1.44727V23.8024H2.88512V21.0005Z" fill="#9171E4"/>
<path d="M2.88512 8.40527H1.44727V11.198H2.88512V8.40527Z" fill="#9171E4"/>
<path d="M1.44732 11.1987H0V21.0007H1.44732V11.1987Z" fill="#9171E4"/>
<path d="M17.0626 10.9375L18.8126 9.1875L21.4376 9.62501L22.7501 10.0625L23.1876 14.4376L22.3126 15.7501L21.4376 16.6251L20.1251 17.5001L19.2501 18.8126H14.875L13.125 17.9376V14.8751L14.4375 13.5626L15.75 12.25L17.0626 10.9375Z" fill="#E4C717"/>
<path d="M23.8936 9.93945H22.4463V15.534H23.8936V9.93945Z" fill="#E4C717"/>
<path d="M22.4466 15.5352H21.0088V16.9407H22.4466V15.5352Z" fill="#E4C717"/>
<path d="M21.0091 16.9395H19.5713V18.3358H21.0091V16.9395Z" fill="#E4C717"/>
<path d="M22.4451 8.54346H18.1221V9.9398H22.4451V8.54346Z" fill="#E4C717"/>
<path d="M19.5721 18.3354H13.8018V19.741H19.5721V18.3354Z" fill="#E4C717"/>
<path d="M18.1224 9.93945H16.6846V11.3358H18.1224V9.93945Z" fill="#E4C717"/>
<path d="M16.6849 7.13767H19.5701V5.74133H21.008V4.3358H19.5701V2.93945H16.6849V4.3358H15.2471V5.74133H16.6849V7.13767Z" fill="#7A422B"/>
<path d="M16.6849 11.3374H15.2471V12.7429H16.6849V11.3374Z" fill="#E4C717"/>
<path d="M15.2491 12.7402H13.8018V14.1366H15.2491V12.7402Z" fill="#E4C717"/>
<path d="M13.8002 14.1377H12.3623V18.3359H13.8002V14.1377Z" fill="#E4C717"/>
<path d="M12.364 19.7407H9.47887V21.1371H8.04102V23.9389H9.47887V25.3353H12.364V23.9389H13.8019V21.1371H12.364V19.7407Z" fill="#6D59A9"/>
<path d="M8.04009 11.3353H10.9158V9.93894H12.3631V7.13707H10.9158V5.74072H8.04009V7.13707H6.59277V9.93894H8.04009V11.3353Z" fill="#3F8148"/>
<path d="M3.71685 18.3348H6.59256V16.9385H8.03988V14.1366H6.59256V12.7402H3.71685V14.1366H2.26953V16.9385H3.71685V18.3348Z" fill="#8E2634"/>
</svg>
