<svg width="40" height="40" viewBox="0 0 40 40" fill="none" xmlns="http://www.w3.org/2000/svg">
<style>
	path[fill]:not([fill='none']) { fill: currentColor !important; }
	path[stroke]:not([stroke='none']) { stroke: currentColor !important; }
</style>
<path d="M15.8362 22.5045V24.1715H20.8374V29.1727H17.5033V30.8397H15.8362V29.1727H14.1692V27.5056H19.1703V25.8386H14.1692V20.8375H17.5033V19.1704H19.1703V20.8375H20.8374V22.5045H15.8362Z" fill="#9EA2BA"/>
<path d="M30.8398 20.8374V17.5033H29.1727V15.8363H27.5057V14.1692H25.8386V12.5022H9.16818V14.1692H7.50114V15.8363H5.83409V17.5033H4.16705V20.8374H2.5V30.8397H4.16705V34.1738H5.83409V35.8408H7.50114V37.5079H9.16818V39.1749H25.8386V37.5079H27.5057V35.8408H29.1727V34.1738H30.8398V30.8397H32.5068V20.8374H30.8398ZM14.1693 17.5033V15.8363H20.8375V17.5033H24.1716V20.8374H25.8386V29.1727H24.1716V32.5067H20.8375V34.1738H14.1693V32.5067H10.8352V29.1727H9.16818V20.8374H10.8352V17.5033H14.1693Z" fill="#9EA2BA"/>
<path d="M29.1727 10.8352H27.5056V12.5023H29.1727V10.8352Z" fill="#9EA2BA"/>
<path d="M32.5069 12.5022H29.1729V14.1692H32.5069V12.5022Z" fill="#9EA2BA"/>
<path d="M34.1739 14.1692H32.5068V15.8362H34.1739V14.1692Z" fill="#9EA2BA"/>
<path d="M35.8409 9.16821V14.1693H34.1739V10.8353H32.5068V9.16821H35.8409Z" fill="#9EA2BA"/>
<path d="M32.5068 7.50122H27.5056V9.16827H32.5068V7.50122Z" fill="#9EA2BA"/>
<path d="M27.5057 9.16821H25.8386V10.8353H27.5057V9.16821Z" fill="#9EA2BA"/>
<path d="M24.1716 9.16821H10.8352V10.8353H24.1716V9.16821Z" fill="#9EA2BA"/>
<path d="M27.5058 2.5V4.16705H25.8387V5.83409H24.1717V7.50114H10.8353V5.83409H9.16827V4.16705H7.50122V2.5H10.8353V4.16705H15.8364V2.5H19.1705V4.16705H24.1717V2.5H27.5058Z" fill="#9EA2BA"/>
</svg>
