<svg width="40" height="40" viewBox="0 0 40 40" fill="none" xmlns="http://www.w3.org/2000/svg">
<style>
	path[fill]:not([fill='none']) { fill: currentColor !important; }
	path[stroke]:not([stroke='none']) { stroke: currentColor !important; }
</style>
<path d="M4.16705 34.1738H2.5V37.5079H4.16705V34.1738Z" fill="#9EA2BA"/>
<path d="M5.83404 30.8398H4.16699V34.1739H5.83404V30.8398Z" fill="#9EA2BA"/>
<path d="M7.50127 27.5056H5.83423V30.8397H7.50127V27.5056Z" fill="#9EA2BA"/>
<path d="M9.16827 25.8386H7.50122V27.5057H9.16827V25.8386Z" fill="#9EA2BA"/>
<path d="M10.8353 24.1716H9.16821V25.8387H10.8353V24.1716Z" fill="#9EA2BA"/>
<path d="M12.5023 22.5046H10.8352V24.1717H12.5023V22.5046Z" fill="#9EA2BA"/>
<path d="M14.1692 20.8374H12.5022V22.5044H14.1692V20.8374Z" fill="#9EA2BA"/>
<path d="M25.8387 20.8374H24.1716V22.5044H25.8387V20.8374Z" fill="#9EA2BA"/>
<path d="M27.5057 22.5046H25.8386V24.1717H27.5057V22.5046Z" fill="#9EA2BA"/>
<path d="M29.1727 24.1716H27.5056V25.8387H29.1727V24.1716Z" fill="#9EA2BA"/>
<path d="M30.8399 25.8386H29.1729V27.5057H30.8399V25.8386Z" fill="#9EA2BA"/>
<path d="M32.5069 27.5056H30.8398V30.8397H32.5069V27.5056Z" fill="#9EA2BA"/>
<path d="M34.1739 30.8398H32.5068V34.1739H34.1739V30.8398Z" fill="#9EA2BA"/>
<path d="M35.8409 34.1738H34.1738V37.5079H35.8409V34.1738Z" fill="#9EA2BA"/>
<path d="M34.1738 37.5078H4.16699V39.1749H34.1738V37.5078Z" fill="#9EA2BA"/>
<path d="M30.8399 34.174V30.8399H29.1729V27.5058H27.5058V25.8387H25.8388V24.1717H24.1717V22.5046H19.1706V24.1717H17.5035V25.8387H10.8354V27.5058H9.16832V30.8399H7.50127V34.174H5.83423V35.841H32.507V34.174H30.8399ZM12.5024 29.1728H15.8365V32.5069H12.5024V29.1728ZM19.1706 27.5058H20.8376V29.1728H19.1706V27.5058Z" fill="#9EA2BA"/>
<path d="M24.1717 5.83398H22.5046V20.8374H24.1717V5.83398Z" fill="#9EA2BA"/>
<path d="M15.8362 5.83398H14.1692V20.8374H15.8362V5.83398Z" fill="#9EA2BA"/>
<path d="M25.8387 4.16699H24.1716V5.83404H25.8387V4.16699Z" fill="#9EA2BA"/>
<path d="M14.1692 4.16699H12.5022V5.83404H14.1692V4.16699Z" fill="#9EA2BA"/>
<path d="M24.1715 2.5H14.1692V4.16705H24.1715V2.5Z" fill="#9EA2BA"/>
</svg>
