<svg width="28" height="28" viewBox="0 0 28 28" fill="none" xmlns="http://www.w3.org/2000/svg">
<path d="M9.33314 2.48866L4.97758 8.08866L2.7998 14.9331L9.33314 24.2664L16.7998 25.822L21.1554 14.9331L25.1998 9.33311L18.6665 2.48866L13.0665 0.933105L9.33314 2.48866Z" fill="#FFB900"/>
<path d="M26.67 7.9975H25.3313V5.32875H24.0013V3.99875H22.6625V2.66875H20.0025V1.33H17.3337V0H10.6662V1.33H7.9975V2.66875H5.32875V3.99875H3.99875V5.32875H2.66875V7.9975H1.33V10.6662H0V17.3337H1.33V20.0025H2.66875V22.6625H3.99875V24.0013H5.32875V25.3313H7.9975V26.67H10.6662V28H17.3337V26.67H20.0025V25.3313H22.6625V24.0013H24.0013V22.6625H25.3313V20.0025H26.67V17.3337H28V10.6662H26.67V7.9975ZM17.3337 22.6625H16.0037V24.0013H11.9963V22.6625H10.6662V18.6637H11.9963V17.3337H16.0037V18.6637H17.3337V22.6625ZM21.3325 10.6662H20.0025V11.9963H18.6637V13.335H17.3337V14.665H16.0037V16.0037H11.9963V13.335H13.335V11.9963H14.665V10.6662H16.0037V7.9975H14.665V6.6675H11.9963V7.9975H10.6662V10.6662H6.6675V6.6675H7.9975V5.32875H9.33625V3.99875H10.6662V2.66875H17.3337V3.99875H18.6637V5.32875H20.0025V6.6675H21.3325V10.6662Z" fill="#9171E4"/>
</svg>
