<svg width="24" height="32" viewBox="0 0 24 32" fill="none" xmlns="http://www.w3.org/2000/svg">
<g clip-path="url(#clip0_1804_132984)">
<path d="M12.5725 -0.000488281H11.4297V1.1847H12.5725V-0.000488281Z" fill="#EEEFF8"/>
<path d="M11.43 -0.000488281H10.2871V1.1847H11.43V-0.000488281Z" fill="#EEEFF8"/>
<path d="M11.43 1.18604H10.2871V2.37122H11.43V1.18604Z" fill="#EEEFF8"/>
<path d="M10.2854 1.18604H9.14258V2.37122H10.2854V1.18604Z" fill="#EEEFF8"/>
<path d="M9.14481 1.18604H8.00195V2.37122H9.14481V1.18604Z" fill="#EEEFF8"/>
<path d="M8.00028 1.18604H6.85742V2.37122H8.00028V1.18604Z" fill="#EEEFF8"/>
<path d="M8.00028 2.37061H6.85742V3.55579H8.00028V2.37061Z" fill="#EEEFF8"/>
<path d="M6.8577 2.37061H5.71484V3.55579H6.8577V2.37061Z" fill="#EEEFF8"/>
<path d="M5.71512 2.37061H4.57227V3.55579H5.71512V2.37061Z" fill="#EEEFF8"/>
<path d="M4.57254 2.37061H3.42969V3.55579H4.57254V2.37061Z" fill="#EEEFF8"/>
<path d="M3.42801 2.37061H2.28516V3.55579H3.42801V2.37061Z" fill="#EEEFF8"/>
<path d="M3.42801 3.55566H2.28516V4.74085H3.42801V3.55566Z" fill="#EEEFF8"/>
<path d="M2.28544 3.55566H1.14258V4.74085H2.28544V3.55566Z" fill="#EEEFF8"/>
<path d="M1.14286 3.55566H0V4.74085H1.14286V3.55566Z" fill="#EEEFF8"/>
<path d="M1.14286 4.74072H0V5.92591H1.14286V4.74072Z" fill="#EEEFF8"/>
<path d="M1.14286 5.92529H0V7.11048H1.14286V5.92529Z" fill="#EEEFF8"/>
<path d="M1.14286 7.11182H0V8.297H1.14286V7.11182Z" fill="#EEEFF8"/>
<path d="M1.14286 8.29639H0V9.48157H1.14286V8.29639Z" fill="#EEEFF8"/>
<path d="M1.14286 9.48145H0V10.6666H1.14286V9.48145Z" fill="#EEEFF8"/>
<path d="M1.14286 10.6665H0V11.8517H1.14286V10.6665Z" fill="#EEEFF8"/>
<path d="M1.14286 11.8525H0V13.0377H1.14286V11.8525Z" fill="#EEEFF8"/>
<path d="M1.14286 13.0376H0V14.2228H1.14286V13.0376Z" fill="#EEEFF8"/>
<path d="M1.14286 14.2222H0V15.4074H1.14286V14.2222Z" fill="#EEEFF8"/>
<path d="M1.14286 15.4072H0V16.5924H1.14286V15.4072Z" fill="#EEEFF8"/>
<path d="M1.14286 16.5933H0V17.7784H1.14286V16.5933Z" fill="#EEEFF8"/>
<path d="M1.14286 17.7783H0V18.9635H1.14286V17.7783Z" fill="#EEEFF8"/>
<path d="M2.28544 17.7783H1.14258V18.9635H2.28544V17.7783Z" fill="#EEEFF8"/>
<path d="M2.28544 18.9629H1.14258V20.1481H2.28544V18.9629Z" fill="#EEEFF8"/>
<path d="M2.28544 20.1479H1.14258V21.3331H2.28544V20.1479Z" fill="#EEEFF8"/>
<path d="M3.42801 20.1479H2.28516V21.3331H3.42801V20.1479Z" fill="#EEEFF8"/>
<path d="M3.42801 21.334H2.28516V22.5192H3.42801V21.334Z" fill="#EEEFF8"/>
<path d="M3.42801 22.5186H2.28516V23.7037H3.42801V22.5186Z" fill="#EEEFF8"/>
<path d="M4.57254 22.5186H3.42969V23.7037H4.57254V22.5186Z" fill="#EEEFF8"/>
<path d="M4.57254 23.7036H3.42969V24.8888H4.57254V23.7036Z" fill="#EEEFF8"/>
<path d="M4.57254 24.8882H3.42969V26.0734H4.57254V24.8882Z" fill="#EEEFF8"/>
<path d="M5.71512 24.8882H4.57227V26.0734H5.71512V24.8882Z" fill="#EEEFF8"/>
<path d="M6.8577 24.8882H5.71484V26.0734H6.8577V24.8882Z" fill="#EEEFF8"/>
<path d="M6.8577 26.0747H5.71484V27.2599H6.8577V26.0747Z" fill="#EEEFF8"/>
<path d="M6.8577 27.2593H5.71484V28.4445H6.8577V27.2593Z" fill="#EEEFF8"/>
<path d="M8.00028 27.2593H6.85742V28.4445H8.00028V27.2593Z" fill="#EEEFF8"/>
<path d="M9.14481 27.2593H8.00195V28.4445H9.14481V27.2593Z" fill="#EEEFF8"/>
<path d="M9.14481 28.4443H8.00195V29.6295H9.14481V28.4443Z" fill="#EEEFF8"/>
<path d="M10.2854 28.4448H9.14258V29.63H10.2854V28.4448Z" fill="#EEEFF8"/>
<path d="M10.2854 29.6294H9.14258V30.8146H10.2854V29.6294Z" fill="#EEEFF8"/>
<path d="M11.43 29.6294H10.2871V30.8146H11.43V29.6294Z" fill="#EEEFF8"/>
<path d="M11.43 30.814H10.2871V31.9992H11.43V30.814Z" fill="#EEEFF8"/>
<path d="M12.5725 30.814H11.4297V31.9992H12.5725V30.814Z" fill="#EEEFF8"/>
<path d="M13.7151 30.8145H12.5723V31.9996H13.7151V30.8145Z" fill="#EEEFF8"/>
<path d="M13.7151 29.6294H12.5723V30.8146H13.7151V29.6294Z" fill="#EEEFF8"/>
<path d="M14.8577 29.6294H13.7148V30.8146H14.8577V29.6294Z" fill="#EEEFF8"/>
<path d="M14.8577 28.4443H13.7148V29.6295H14.8577V28.4443Z" fill="#EEEFF8"/>
<path d="M16.0003 28.4448H14.8574V29.63H16.0003V28.4448Z" fill="#EEEFF8"/>
<path d="M16.0003 27.2593H14.8574V28.4445H16.0003V27.2593Z" fill="#EEEFF8"/>
<path d="M17.1429 27.2598H16V28.445H17.1429V27.2598Z" fill="#EEEFF8"/>
<path d="M18.2874 27.2593H17.1445V28.4445H18.2874V27.2593Z" fill="#EEEFF8"/>
<path d="M18.2874 26.0747H17.1445V27.2599H18.2874V26.0747Z" fill="#EEEFF8"/>
<path d="M18.2874 24.8882H17.1445V26.0734H18.2874V24.8882Z" fill="#EEEFF8"/>
<path d="M19.43 24.8882H18.2871V26.0734H19.43V24.8882Z" fill="#EEEFF8"/>
<path d="M20.5725 24.8887H19.4297V26.0739H20.5725V24.8887Z" fill="#EEEFF8"/>
<path d="M19.43 24.8882H18.2871V26.0734H19.43V24.8882Z" fill="#EEEFF8"/>
<path d="M19.43 26.0747H18.2871V27.2599H19.43V26.0747Z" fill="#EEEFF8"/>
<path d="M18.2874 26.0747H17.1445V27.2599H18.2874V26.0747Z" fill="#EEEFF8"/>
<path d="M18.2874 27.2593H17.1445V28.4445H18.2874V27.2593Z" fill="#EEEFF8"/>
<path d="M17.1429 27.2598H16V28.445H17.1429V27.2598Z" fill="#EEEFF8"/>
<path d="M16.0003 27.2593H14.8574V28.4445H16.0003V27.2593Z" fill="#EEEFF8"/>
<path d="M16.0003 28.4448H14.8574V29.63H16.0003V28.4448Z" fill="#EEEFF8"/>
<path d="M14.8577 28.4443H13.7148V29.6295H14.8577V28.4443Z" fill="#EEEFF8"/>
<path d="M13.7151 28.4443H12.5723V29.6295H13.7151V28.4443Z" fill="#EEEFF8"/>
<path d="M12.5725 28.4443H11.4297V29.6295H12.5725V28.4443Z" fill="#EEEFF8"/>
<path d="M11.43 28.4443H10.2871V29.6295H11.43V28.4443Z" fill="#EEEFF8"/>
<path d="M10.2854 28.4448H9.14258V29.63H10.2854V28.4448Z" fill="#EEEFF8"/>
<path d="M10.2854 27.2593H9.14258V28.4445H10.2854V27.2593Z" fill="#EEEFF8"/>
<path d="M9.14481 27.2593H8.00195V28.4445H9.14481V27.2593Z" fill="#EEEFF8"/>
<path d="M8.00028 27.2593H6.85742V28.4445H8.00028V27.2593Z" fill="#EEEFF8"/>
<path d="M8.00028 26.0747H6.85742V27.2599H8.00028V26.0747Z" fill="#EEEFF8"/>
<path d="M6.8577 26.0747H5.71484V27.2599H6.8577V26.0747Z" fill="#EEEFF8"/>
<path d="M5.71512 26.0747H4.57227V27.2599H5.71512V26.0747Z" fill="#EEEFF8"/>
<path d="M6.8577 26.0747H5.71484V27.2599H6.8577V26.0747Z" fill="#EEEFF8"/>
<path d="M8.00028 26.0747H6.85742V27.2599H8.00028V26.0747Z" fill="#EEEFF8"/>
<path d="M9.14481 26.0747H8.00195V27.2599H9.14481V26.0747Z" fill="#EEEFF8"/>
<path d="M10.2854 26.0747H9.14258V27.2599H10.2854V26.0747Z" fill="#EEEFF8"/>
<path d="M11.43 26.0747H10.2871V27.2599H11.43V26.0747Z" fill="#EEEFF8"/>
<path d="M12.5725 26.0747H11.4297V27.2599H12.5725V26.0747Z" fill="#EEEFF8"/>
<path d="M13.7151 26.0747H12.5723V27.2599H13.7151V26.0747Z" fill="#EEEFF8"/>
<path d="M14.8577 26.0747H13.7148V27.2599H14.8577V26.0747Z" fill="#EEEFF8"/>
<path d="M16.0003 26.0747H14.8574V27.2599H16.0003V26.0747Z" fill="#EEEFF8"/>
<path d="M17.1429 26.0747H16V27.2599H17.1429V26.0747Z" fill="#EEEFF8"/>
<path d="M17.1429 27.2598H16V28.445H17.1429V27.2598Z" fill="#EEEFF8"/>
<path d="M16.0003 27.2593H14.8574V28.4445H16.0003V27.2593Z" fill="#EEEFF8"/>
<path d="M14.8577 27.2593H13.7148V28.4445H14.8577V27.2593Z" fill="#EEEFF8"/>
<path d="M13.7151 27.2598H12.5723V28.445H13.7151V27.2598Z" fill="#EEEFF8"/>
<path d="M12.5725 27.2593H11.4297V28.4445H12.5725V27.2593Z" fill="#EEEFF8"/>
<path d="M11.43 27.2593H10.2871V28.4445H11.43V27.2593Z" fill="#EEEFF8"/>
<path d="M11.43 28.4443H10.2871V29.6295H11.43V28.4443Z" fill="#EEEFF8"/>
<path d="M12.5725 28.4443H11.4297V29.6295H12.5725V28.4443Z" fill="#EEEFF8"/>
<path d="M13.7151 28.4443H12.5723V29.6295H13.7151V28.4443Z" fill="#EEEFF8"/>
<path d="M13.7151 29.6294H12.5723V30.8146H13.7151V29.6294Z" fill="#EEEFF8"/>
<path d="M12.5725 29.6294H11.4297V30.8146H12.5725V29.6294Z" fill="#EEEFF8"/>
<path d="M12.5725 28.4443H11.4297V29.6295H12.5725V28.4443Z" fill="#EEEFF8"/>
<path d="M12.5725 27.2593H11.4297V28.4445H12.5725V27.2593Z" fill="#EEEFF8"/>
<path d="M12.5725 26.0747H11.4297V27.2599H12.5725V26.0747Z" fill="#EEEFF8"/>
<path d="M13.7151 26.0747H12.5723V27.2599H13.7151V26.0747Z" fill="#EEEFF8"/>
<path d="M14.8577 26.0747H13.7148V27.2599H14.8577V26.0747Z" fill="#EEEFF8"/>
<path d="M16.0003 26.0747H14.8574V27.2599H16.0003V26.0747Z" fill="#EEEFF8"/>
<path d="M17.1429 26.0747H16V27.2599H17.1429V26.0747Z" fill="#EEEFF8"/>
<path d="M17.1429 24.8887H16V26.0739H17.1429V24.8887Z" fill="#EEEFF8"/>
<path d="M18.2874 24.8882H17.1445V26.0734H18.2874V24.8882Z" fill="#EEEFF8"/>
<path d="M19.43 24.8882H18.2871V26.0734H19.43V24.8882Z" fill="#EEEFF8"/>
<path d="M20.5725 24.8887H19.4297V26.0739H20.5725V24.8887Z" fill="#EEEFF8"/>
<path d="M20.5725 23.7036H19.4297V24.8888H20.5725V23.7036Z" fill="#EEEFF8"/>
<path d="M21.7151 23.7036H20.5723V24.8888H21.7151V23.7036Z" fill="#EEEFF8"/>
<path d="M21.7151 22.5186H20.5723V23.7037H21.7151V22.5186Z" fill="#EEEFF8"/>
<path d="M21.7151 21.3335H20.5723V22.5187H21.7151V21.3335Z" fill="#EEEFF8"/>
<path d="M22.8577 21.334H21.7148V22.5192H22.8577V21.334Z" fill="#EEEFF8"/>
<path d="M22.8577 20.1479H21.7148V21.3331H22.8577V20.1479Z" fill="#EEEFF8"/>
<path d="M22.8577 18.9629H21.7148V20.1481H22.8577V18.9629Z" fill="#EEEFF8"/>
<path d="M24.0022 18.9634H22.8594V20.1486H24.0022V18.9634Z" fill="#EEEFF8"/>
<path d="M24.0022 17.7783H22.8594V18.9635H24.0022V17.7783Z" fill="#EEEFF8"/>
<path d="M24.0022 16.5933H22.8594V17.7784H24.0022V16.5933Z" fill="#EEEFF8"/>
<path d="M24.0022 15.4072H22.8594V16.5924H24.0022V15.4072Z" fill="#EEEFF8"/>
<path d="M24.0022 14.2222H22.8594V15.4074H24.0022V14.2222Z" fill="#EEEFF8"/>
<path d="M24.0022 13.0376H22.8594V14.2228H24.0022V13.0376Z" fill="#EEEFF8"/>
<path d="M24.0022 11.8525H22.8594V13.0377H24.0022V11.8525Z" fill="#EEEFF8"/>
<path d="M24.0022 13.0376H22.8594V14.2228H24.0022V13.0376Z" fill="#EEEFF8"/>
<path d="M24.0022 14.2222H22.8594V15.4074H24.0022V14.2222Z" fill="#EEEFF8"/>
<path d="M24.0022 15.4072H22.8594V16.5924H24.0022V15.4072Z" fill="#EEEFF8"/>
<path d="M24.0022 16.5933H22.8594V17.7784H24.0022V16.5933Z" fill="#EEEFF8"/>
<path d="M24.0022 17.7783H22.8594V18.9635H24.0022V17.7783Z" fill="#EEEFF8"/>
<path d="M24.0022 18.9634H22.8594V20.1486H24.0022V18.9634Z" fill="#EEEFF8"/>
<path d="M22.8577 18.9629H21.7148V20.1481H22.8577V18.9629Z" fill="#EEEFF8"/>
<path d="M22.8577 17.7783H21.7148V18.9635H22.8577V17.7783Z" fill="#EEEFF8"/>
<path d="M24.0022 17.7783H22.8594V18.9635H24.0022V17.7783Z" fill="#EEEFF8"/>
<path d="M24.0022 16.5933H22.8594V17.7784H24.0022V16.5933Z" fill="#EEEFF8"/>
<path d="M24.0022 15.4072H22.8594V16.5924H24.0022V15.4072Z" fill="#EEEFF8"/>
<path d="M24.0022 14.2222H22.8594V15.4074H24.0022V14.2222Z" fill="#EEEFF8"/>
<path d="M24.0022 13.0376H22.8594V14.2228H24.0022V13.0376Z" fill="#EEEFF8"/>
<path d="M24.0022 11.8525H22.8594V13.0377H24.0022V11.8525Z" fill="#EEEFF8"/>
<path d="M24.0022 10.6665H22.8594V11.8517H24.0022V10.6665Z" fill="#EEEFF8"/>
<path d="M24.0022 9.48145H22.8594V10.6666H24.0022V9.48145Z" fill="#EEEFF8"/>
<path d="M24.0022 8.29639H22.8594V9.48157H24.0022V8.29639Z" fill="#EEEFF8"/>
<path d="M24.0022 7.11182H22.8594V8.297H24.0022V7.11182Z" fill="#EEEFF8"/>
<path d="M24.0022 5.92529H22.8594V7.11048H24.0022V5.92529Z" fill="#EEEFF8"/>
<path d="M24.0022 4.74072H22.8594V5.92591H24.0022V4.74072Z" fill="#EEEFF8"/>
<path d="M24.0022 3.55566H22.8594V4.74085H24.0022V3.55566Z" fill="#EEEFF8"/>
<path d="M22.8577 3.55566H21.7148V4.74085H22.8577V3.55566Z" fill="#EEEFF8"/>
<path d="M21.7151 3.55566H20.5723V4.74085H21.7151V3.55566Z" fill="#EEEFF8"/>
<path d="M21.7151 2.37061H20.5723V3.55579H21.7151V2.37061Z" fill="#EEEFF8"/>
<path d="M20.5725 2.37061H19.4297V3.55579H20.5725V2.37061Z" fill="#EEEFF8"/>
<path d="M19.43 2.37061H18.2871V3.55579H19.43V2.37061Z" fill="#EEEFF8"/>
<path d="M18.2874 2.37061H17.1445V3.55579H18.2874V2.37061Z" fill="#EEEFF8"/>
<path d="M17.1429 2.37061H16V3.55579H17.1429V2.37061Z" fill="#EEEFF8"/>
<path d="M17.1429 1.18555H16V2.37073H17.1429V1.18555Z" fill="#EEEFF8"/>
<path d="M16.0003 1.18604H14.8574V2.37122H16.0003V1.18604Z" fill="#EEEFF8"/>
<path d="M14.8577 1.18604H13.7148V2.37122H14.8577V1.18604Z" fill="#EEEFF8"/>
<path d="M13.7151 1.18555H12.5723V2.37073H13.7151V1.18555Z" fill="#EEEFF8"/>
<path d="M13.7151 -0.000488281H12.5723V1.1847H13.7151V-0.000488281Z" fill="#EEEFF8"/>
<path d="M12.5725 -0.000488281H11.4297V1.1847H12.5725V-0.000488281Z" fill="#EEEFF8"/>
<path d="M12.5725 1.18604H11.4297V2.37122H12.5725V1.18604Z" fill="#EEEFF8"/>
<path d="M12.5725 2.37061H11.4297V3.55579H12.5725V2.37061Z" fill="#EEEFF8"/>
<path d="M12.5725 3.55566H11.4297V4.74085H12.5725V3.55566Z" fill="#EEEFF8"/>
<path d="M12.5725 4.74072H11.4297V5.92591H12.5725V4.74072Z" fill="#EEEFF8"/>
<path d="M12.5725 5.92529H11.4297V7.11048H12.5725V5.92529Z" fill="#EEEFF8"/>
<path d="M12.5725 7.11182H11.4297V8.297H12.5725V7.11182Z" fill="#EEEFF8"/>
<path d="M11.43 7.11182H10.2871V8.297H11.43V7.11182Z" fill="#EEEFF8"/>
<path d="M10.2854 7.11182H9.14258V8.297H10.2854V7.11182Z" fill="#EEEFF8"/>
<path d="M10.2854 8.29639H9.14258V9.48157H10.2854V8.29639Z" fill="#EEEFF8"/>
<path d="M10.2854 9.48096H9.14258V10.6661H10.2854V9.48096Z" fill="#EEEFF8"/>
<path d="M10.2854 10.6665H9.14258V11.8517H10.2854V10.6665Z" fill="#EEEFF8"/>
<path d="M9.14481 10.6665H8.00195V11.8517H9.14481V10.6665Z" fill="#EEEFF8"/>
<path d="M8.00028 10.6665H6.85742V11.8517H8.00028V10.6665Z" fill="#EEEFF8"/>
<path d="M6.8577 10.6665H5.71484V11.8517H6.8577V10.6665Z" fill="#EEEFF8"/>
<path d="M5.71512 10.6665H4.57227V11.8517H5.71512V10.6665Z" fill="#EEEFF8"/>
<path d="M6.8577 10.6665H5.71484V11.8517H6.8577V10.6665Z" fill="#EEEFF8"/>
<path d="M6.8577 11.8525H5.71484V13.0377H6.8577V11.8525Z" fill="#EEEFF8"/>
<path d="M6.8577 13.0376H5.71484V14.2228H6.8577V13.0376Z" fill="#EEEFF8"/>
<path d="M6.8577 14.2222H5.71484V15.4074H6.8577V14.2222Z" fill="#EEEFF8"/>
<path d="M6.8577 15.4072H5.71484V16.5924H6.8577V15.4072Z" fill="#EEEFF8"/>
<path d="M6.8577 16.5933H5.71484V17.7784H6.8577V16.5933Z" fill="#EEEFF8"/>
<path d="M6.8577 17.7783H5.71484V18.9635H6.8577V17.7783Z" fill="#EEEFF8"/>
<path d="M6.8577 16.5933H5.71484V17.7784H6.8577V16.5933Z" fill="#EEEFF8"/>
<path d="M8.00028 16.5933H6.85742V17.7784H8.00028V16.5933Z" fill="#EEEFF8"/>
<path d="M9.14481 16.5933H8.00195V17.7784H9.14481V16.5933Z" fill="#EEEFF8"/>
<path d="M10.2854 16.5933H9.14258V17.7784H10.2854V16.5933Z" fill="#EEEFF8"/>
<path d="M10.2854 17.7778H9.14258V18.963H10.2854V17.7778Z" fill="#EEEFF8"/>
<path d="M10.2854 18.9634H9.14258V20.1486H10.2854V18.9634Z" fill="#EEEFF8"/>
<path d="M10.2854 20.1479H9.14258V21.3331H10.2854V20.1479Z" fill="#EEEFF8"/>
<path d="M10.2854 21.3335H9.14258V22.5187H10.2854V21.3335Z" fill="#EEEFF8"/>
<path d="M11.43 21.3335H10.2871V22.5187H11.43V21.3335Z" fill="#EEEFF8"/>
<path d="M12.5725 21.3335H11.4297V22.5187H12.5725V21.3335Z" fill="#EEEFF8"/>
<path d="M13.7151 21.334H12.5723V22.5192H13.7151V21.334Z" fill="#EEEFF8"/>
<path d="M14.8577 21.3335H13.7148V22.5187H14.8577V21.3335Z" fill="#EEEFF8"/>
<path d="M16.0003 21.3335H14.8574V22.5187H16.0003V21.3335Z" fill="#EEEFF8"/>
<path d="M16.0003 20.1479H14.8574V21.3331H16.0003V20.1479Z" fill="#EEEFF8"/>
<path d="M16.0003 18.9634H14.8574V20.1486H16.0003V18.9634Z" fill="#EEEFF8"/>
<path d="M16.0003 17.7778H14.8574V18.963H16.0003V17.7778Z" fill="#EEEFF8"/>
<path d="M16.0003 16.5933H14.8574V17.7784H16.0003V16.5933Z" fill="#EEEFF8"/>
<path d="M17.1429 16.5933H16V17.7784H17.1429V16.5933Z" fill="#EEEFF8"/>
<path d="M18.2874 16.5933H17.1445V17.7784H18.2874V16.5933Z" fill="#EEEFF8"/>
<path d="M19.43 16.5933H18.2871V17.7784H19.43V16.5933Z" fill="#EEEFF8"/>
<path d="M19.43 15.4072H18.2871V16.5924H19.43V15.4072Z" fill="#EEEFF8"/>
<path d="M19.43 14.2222H18.2871V15.4074H19.43V14.2222Z" fill="#EEEFF8"/>
<path d="M19.43 13.0376H18.2871V14.2228H19.43V13.0376Z" fill="#EEEFF8"/>
<path d="M19.43 11.8525H18.2871V13.0377H19.43V11.8525Z" fill="#EEEFF8"/>
<path d="M19.43 10.6665H18.2871V11.8517H19.43V10.6665Z" fill="#EEEFF8"/>
<path d="M18.2874 10.6665H17.1445V11.8517H18.2874V10.6665Z" fill="#EEEFF8"/>
<path d="M17.1429 10.666H16V11.8512H17.1429V10.666Z" fill="#EEEFF8"/>
<path d="M16.0003 10.6665H14.8574V11.8517H16.0003V10.6665Z" fill="#EEEFF8"/>
<path d="M16.0003 9.48096H14.8574V10.6661H16.0003V9.48096Z" fill="#EEEFF8"/>
<path d="M16.0003 8.29639H14.8574V9.48157H16.0003V8.29639Z" fill="#EEEFF8"/>
<path d="M16.0003 7.11182H14.8574V8.297H16.0003V7.11182Z" fill="#EEEFF8"/>
<path d="M14.8577 7.11182H13.7148V8.297H14.8577V7.11182Z" fill="#EEEFF8"/>
<path d="M13.7151 7.11133H12.5723V8.29651H13.7151V7.11133Z" fill="#EEEFF8"/>
<path d="M12.5725 7.11182H11.4297V8.297H12.5725V7.11182Z" fill="#EEEFF8"/>
<path d="M11.43 7.11182H10.2871V8.297H11.43V7.11182Z" fill="#EEEFF8"/>
<path d="M11.43 5.92529H10.2871V7.11048H11.43V5.92529Z" fill="#EEEFF8"/>
<path d="M11.43 4.74072H10.2871V5.92591H11.43V4.74072Z" fill="#EEEFF8"/>
<path d="M11.43 3.55566H10.2871V4.74085H11.43V3.55566Z" fill="#EEEFF8"/>
<path d="M11.43 2.37061H10.2871V3.55579H11.43V2.37061Z" fill="#EEEFF8"/>
<path d="M10.2854 2.37061H9.14258V3.55579H10.2854V2.37061Z" fill="#EEEFF8"/>
<path d="M9.14481 2.37061H8.00195V3.55579H9.14481V2.37061Z" fill="#EEEFF8"/>
<path d="M8.00028 2.37061H6.85742V3.55579H8.00028V2.37061Z" fill="#EEEFF8"/>
<path d="M8.00028 3.55566H6.85742V4.74085H8.00028V3.55566Z" fill="#EEEFF8"/>
<path d="M6.8577 3.55566H5.71484V4.74085H6.8577V3.55566Z" fill="#EEEFF8"/>
<path d="M5.71512 3.55518H4.57227V4.74036H5.71512V3.55518Z" fill="#EEEFF8"/>
<path d="M4.57254 3.55566H3.42969V4.74085H4.57254V3.55566Z" fill="#EEEFF8"/>
<path d="M3.42801 3.55566H2.28516V4.74085H3.42801V3.55566Z" fill="#EEEFF8"/>
<path d="M4.57254 3.55566H3.42969V4.74085H4.57254V3.55566Z" fill="#EEEFF8"/>
<path d="M5.71512 3.55518H4.57227V4.74036H5.71512V3.55518Z" fill="#EEEFF8"/>
<path d="M6.8577 3.55566H5.71484V4.74085H6.8577V3.55566Z" fill="#EEEFF8"/>
<path d="M8.00028 3.55566H6.85742V4.74085H8.00028V3.55566Z" fill="#EEEFF8"/>
<path d="M9.14481 3.55566H8.00195V4.74085H9.14481V3.55566Z" fill="#EEEFF8"/>
<path d="M10.2854 3.55518H9.14258V4.74036H10.2854V3.55518Z" fill="#EEEFF8"/>
<path d="M11.43 3.55566H10.2871V4.74085H11.43V3.55566Z" fill="#EEEFF8"/>
<path d="M12.5725 3.55566H11.4297V4.74085H12.5725V3.55566Z" fill="#EEEFF8"/>
<path d="M13.7151 3.55566H12.5723V4.74085H13.7151V3.55566Z" fill="#EEEFF8"/>
<path d="M13.7151 4.74023H12.5723V5.92542H13.7151V4.74023Z" fill="#EEEFF8"/>
<path d="M12.5725 4.74072H11.4297V5.92591H12.5725V4.74072Z" fill="#EEEFF8"/>
<path d="M12.5725 5.92529H11.4297V7.11048H12.5725V5.92529Z" fill="#EEEFF8"/>
<path d="M11.43 5.92529H10.2871V7.11048H11.43V5.92529Z" fill="#EEEFF8"/>
<path d="M11.43 4.74072H10.2871V5.92591H11.43V4.74072Z" fill="#EEEFF8"/>
<path d="M10.2854 4.74072H9.14258V5.92591H10.2854V4.74072Z" fill="#EEEFF8"/>
<path d="M9.14481 4.74072H8.00195V5.92591H9.14481V4.74072Z" fill="#EEEFF8"/>
<path d="M8.00028 4.74072H6.85742V5.92591H8.00028V4.74072Z" fill="#EEEFF8"/>
<path d="M6.8577 4.74072H5.71484V5.92591H6.8577V4.74072Z" fill="#EEEFF8"/>
<path d="M5.71512 4.74072H4.57227V5.92591H5.71512V4.74072Z" fill="#EEEFF8"/>
<path d="M4.57254 4.74072H3.42969V5.92591H4.57254V4.74072Z" fill="#EEEFF8"/>
<path d="M3.42801 4.74023H2.28516V5.92542H3.42801V4.74023Z" fill="#EEEFF8"/>
<path d="M2.28544 4.74023H1.14258V5.92542H2.28544V4.74023Z" fill="#EEEFF8"/>
<path d="M2.28544 5.92529H1.14258V7.11048H2.28544V5.92529Z" fill="#EEEFF8"/>
<path d="M3.42801 5.92529H2.28516V7.11048H3.42801V5.92529Z" fill="#EEEFF8"/>
<path d="M4.57254 5.92529H3.42969V7.11048H4.57254V5.92529Z" fill="#EEEFF8"/>
<path d="M5.71512 5.92529H4.57227V7.11048H5.71512V5.92529Z" fill="#EEEFF8"/>
<path d="M6.8577 5.92529H5.71484V7.11048H6.8577V5.92529Z" fill="#EEEFF8"/>
<path d="M8.00028 5.92529H6.85742V7.11048H8.00028V5.92529Z" fill="#EEEFF8"/>
<path d="M9.14481 5.92529H8.00195V7.11048H9.14481V5.92529Z" fill="#EEEFF8"/>
<path d="M10.2854 5.92529H9.14258V7.11048H10.2854V5.92529Z" fill="#EEEFF8"/>
<path d="M11.43 5.92529H10.2871V7.11048H11.43V5.92529Z" fill="#EEEFF8"/>
<path d="M10.2854 5.92529H9.14258V7.11048H10.2854V5.92529Z" fill="#EEEFF8"/>
<path d="M10.2854 7.11182H9.14258V8.297H10.2854V7.11182Z" fill="#EEEFF8"/>
<path d="M9.14481 7.11182H8.00195V8.297H9.14481V7.11182Z" fill="#EEEFF8"/>
<path d="M8.00028 7.11182H6.85742V8.297H8.00028V7.11182Z" fill="#EEEFF8"/>
<path d="M6.8577 7.11182H5.71484V8.297H6.8577V7.11182Z" fill="#EEEFF8"/>
<path d="M5.71512 7.11182H4.57227V8.297H5.71512V7.11182Z" fill="#EEEFF8"/>
<path d="M4.57254 7.11182H3.42969V8.297H4.57254V7.11182Z" fill="#EEEFF8"/>
<path d="M3.42801 7.11133H2.28516V8.29651H3.42801V7.11133Z" fill="#EEEFF8"/>
<path d="M2.28544 7.11133H1.14258V8.29651H2.28544V7.11133Z" fill="#EEEFF8"/>
<path d="M2.28544 8.29639H1.14258V9.48157H2.28544V8.29639Z" fill="#EEEFF8"/>
<path d="M3.42801 8.29639H2.28516V9.48157H3.42801V8.29639Z" fill="#EEEFF8"/>
<path d="M4.57254 8.29639H3.42969V9.48157H4.57254V8.29639Z" fill="#EEEFF8"/>
<path d="M5.71512 8.29639H4.57227V9.48157H5.71512V8.29639Z" fill="#EEEFF8"/>
<path d="M6.8577 8.29639H5.71484V9.48157H6.8577V8.29639Z" fill="#EEEFF8"/>
<path d="M8.00028 8.29639H6.85742V9.48157H8.00028V8.29639Z" fill="#EEEFF8"/>
<path d="M9.14481 8.29639H8.00195V9.48157H9.14481V8.29639Z" fill="#EEEFF8"/>
<path d="M9.14481 9.48145H8.00195V10.6666H9.14481V9.48145Z" fill="#EEEFF8"/>
<path d="M8.00028 9.48145H6.85742V10.6666H8.00028V9.48145Z" fill="#EEEFF8"/>
<path d="M6.8577 9.48145H5.71484V10.6666H6.8577V9.48145Z" fill="#EEEFF8"/>
<path d="M5.71512 9.48096H4.57227V10.6661H5.71512V9.48096Z" fill="#EEEFF8"/>
<path d="M4.57254 9.48145H3.42969V10.6666H4.57254V9.48145Z" fill="#EEEFF8"/>
<path d="M3.42801 9.48145H2.28516V10.6666H3.42801V9.48145Z" fill="#EEEFF8"/>
<path d="M2.28544 9.48145H1.14258V10.6666H2.28544V9.48145Z" fill="#EEEFF8"/>
<path d="M2.28544 10.666H1.14258V11.8512H2.28544V10.666Z" fill="#EEEFF8"/>
<path d="M3.42801 10.666H2.28516V11.8512H3.42801V10.666Z" fill="#EEEFF8"/>
<path d="M4.57254 10.6665H3.42969V11.8517H4.57254V10.6665Z" fill="#EEEFF8"/>
<path d="M4.57254 11.8525H3.42969V13.0377H4.57254V11.8525Z" fill="#EEEFF8"/>
<path d="M5.71512 11.8521H4.57227V13.0372H5.71512V11.8521Z" fill="#EEEFF8"/>
<path d="M5.71512 13.0376H4.57227V14.2228H5.71512V13.0376Z" fill="#EEEFF8"/>
<path d="M4.57254 13.0376H3.42969V14.2228H4.57254V13.0376Z" fill="#EEEFF8"/>
<path d="M4.57254 11.8525H3.42969V13.0377H4.57254V11.8525Z" fill="#EEEFF8"/>
<path d="M3.42801 11.8525H2.28516V13.0377H3.42801V11.8525Z" fill="#EEEFF8"/>
<path d="M2.28544 11.8525H1.14258V13.0377H2.28544V11.8525Z" fill="#EEEFF8"/>
<path d="M2.28544 13.0371H1.14258V14.2223H2.28544V13.0371Z" fill="#EEEFF8"/>
<path d="M3.42801 13.0371H2.28516V14.2223H3.42801V13.0371Z" fill="#EEEFF8"/>
<path d="M4.57254 13.0376H3.42969V14.2228H4.57254V13.0376Z" fill="#EEEFF8"/>
<path d="M5.71512 13.0376H4.57227V14.2228H5.71512V13.0376Z" fill="#EEEFF8"/>
<path d="M5.71512 14.2222H4.57227V15.4074H5.71512V14.2222Z" fill="#EEEFF8"/>
<path d="M5.71512 15.4067H4.57227V16.5919H5.71512V15.4067Z" fill="#EEEFF8"/>
<path d="M4.57254 15.4072H3.42969V16.5924H4.57254V15.4072Z" fill="#EEEFF8"/>
<path d="M3.42801 15.4072H2.28516V16.5924H3.42801V15.4072Z" fill="#EEEFF8"/>
<path d="M2.28544 15.4072H1.14258V16.5924H2.28544V15.4072Z" fill="#EEEFF8"/>
<path d="M2.28544 14.2222H1.14258V15.4074H2.28544V14.2222Z" fill="#EEEFF8"/>
<path d="M3.42801 14.2222H2.28516V15.4074H3.42801V14.2222Z" fill="#EEEFF8"/>
<path d="M4.57254 14.2222H3.42969V15.4074H4.57254V14.2222Z" fill="#EEEFF8"/>
<path d="M4.57254 15.4072H3.42969V16.5924H4.57254V15.4072Z" fill="#EEEFF8"/>
<path d="M3.42801 15.4072H2.28516V16.5924H3.42801V15.4072Z" fill="#EEEFF8"/>
<path d="M2.28544 15.4072H1.14258V16.5924H2.28544V15.4072Z" fill="#EEEFF8"/>
<path d="M2.28544 16.5933H1.14258V17.7784H2.28544V16.5933Z" fill="#EEEFF8"/>
<path d="M3.42801 16.5933H2.28516V17.7784H3.42801V16.5933Z" fill="#EEEFF8"/>
<path d="M4.57254 16.5933H3.42969V17.7784H4.57254V16.5933Z" fill="#EEEFF8"/>
<path d="M5.71512 16.5933H4.57227V17.7784H5.71512V16.5933Z" fill="#EEEFF8"/>
<path d="M5.71512 17.7778H4.57227V18.963H5.71512V17.7778Z" fill="#EEEFF8"/>
<path d="M4.57254 17.7783H3.42969V18.9635H4.57254V17.7783Z" fill="#EEEFF8"/>
<path d="M3.42801 17.7783H2.28516V18.9635H3.42801V17.7783Z" fill="#EEEFF8"/>
<path d="M3.42801 18.9629H2.28516V20.1481H3.42801V18.9629Z" fill="#EEEFF8"/>
<path d="M4.57254 18.9634H3.42969V20.1486H4.57254V18.9634Z" fill="#EEEFF8"/>
<path d="M5.71512 18.9634H4.57227V20.1486H5.71512V18.9634Z" fill="#EEEFF8"/>
<path d="M6.8577 18.9634H5.71484V20.1486H6.8577V18.9634Z" fill="#EEEFF8"/>
<path d="M8.00028 18.9634H6.85742V20.1486H8.00028V18.9634Z" fill="#EEEFF8"/>
<path d="M9.14481 18.9634H8.00195V20.1486H9.14481V18.9634Z" fill="#EEEFF8"/>
<path d="M9.14481 17.7783H8.00195V18.9635H9.14481V17.7783Z" fill="#EEEFF8"/>
<path d="M8.00028 17.7783H6.85742V18.9635H8.00028V17.7783Z" fill="#EEEFF8"/>
<path d="M8.00028 18.9634H6.85742V20.1486H8.00028V18.9634Z" fill="#EEEFF8"/>
<path d="M6.8577 18.9634H5.71484V20.1486H6.8577V18.9634Z" fill="#EEEFF8"/>
<path d="M5.71512 18.9634H4.57227V20.1486H5.71512V18.9634Z" fill="#EEEFF8"/>
<path d="M5.71512 20.1479H4.57227V21.3331H5.71512V20.1479Z" fill="#EEEFF8"/>
<path d="M5.71512 21.3335H4.57227V22.5187H5.71512V21.3335Z" fill="#EEEFF8"/>
<path d="M4.57254 21.3335H3.42969V22.5187H4.57254V21.3335Z" fill="#EEEFF8"/>
<path d="M4.57254 20.1479H3.42969V21.3331H4.57254V20.1479Z" fill="#EEEFF8"/>
<path d="M5.71512 20.1479H4.57227V21.3331H5.71512V20.1479Z" fill="#EEEFF8"/>
<path d="M6.8577 20.1479H5.71484V21.3331H6.8577V20.1479Z" fill="#EEEFF8"/>
<path d="M8.00028 20.1479H6.85742V21.3331H8.00028V20.1479Z" fill="#EEEFF8"/>
<path d="M9.14481 20.1479H8.00195V21.3331H9.14481V20.1479Z" fill="#EEEFF8"/>
<path d="M9.14481 21.3335H8.00195V22.5187H9.14481V21.3335Z" fill="#EEEFF8"/>
<path d="M8.00028 21.3335H6.85742V22.5187H8.00028V21.3335Z" fill="#EEEFF8"/>
<path d="M6.8577 21.3335H5.71484V22.5187H6.8577V21.3335Z" fill="#EEEFF8"/>
<path d="M5.71512 21.3335H4.57227V22.5187H5.71512V21.3335Z" fill="#EEEFF8"/>
<path d="M5.71512 22.519H4.57227V23.7042H5.71512V22.519Z" fill="#EEEFF8"/>
<path d="M5.71512 23.7036H4.57227V24.8888H5.71512V23.7036Z" fill="#EEEFF8"/>
<path d="M6.8577 23.7036H5.71484V24.8888H6.8577V23.7036Z" fill="#EEEFF8"/>
<path d="M6.8577 22.5186H5.71484V23.7037H6.8577V22.5186Z" fill="#EEEFF8"/>
<path d="M8.00028 22.5186H6.85742V23.7037H8.00028V22.5186Z" fill="#EEEFF8"/>
<path d="M9.14481 22.5186H8.00195V23.7037H9.14481V22.5186Z" fill="#EEEFF8"/>
<path d="M10.2854 22.519H9.14258V23.7042H10.2854V22.519Z" fill="#EEEFF8"/>
<path d="M11.43 22.5186H10.2871V23.7037H11.43V22.5186Z" fill="#EEEFF8"/>
<path d="M12.5725 22.5186H11.4297V23.7037H12.5725V22.5186Z" fill="#EEEFF8"/>
<path d="M13.7151 22.5186H12.5723V23.7037H13.7151V22.5186Z" fill="#EEEFF8"/>
<path d="M14.8577 22.5186H13.7148V23.7037H14.8577V22.5186Z" fill="#EEEFF8"/>
<path d="M16.0003 22.519H14.8574V23.7042H16.0003V22.519Z" fill="#EEEFF8"/>
<path d="M17.1429 22.5186H16V23.7037H17.1429V22.5186Z" fill="#EEEFF8"/>
<path d="M18.2874 22.5186H17.1445V23.7037H18.2874V22.5186Z" fill="#EEEFF8"/>
<path d="M19.43 22.5186H18.2871V23.7037H19.43V22.5186Z" fill="#EEEFF8"/>
<path d="M20.5725 22.5186H19.4297V23.7037H20.5725V22.5186Z" fill="#EEEFF8"/>
<path d="M21.7151 22.5186H20.5723V23.7037H21.7151V22.5186Z" fill="#EEEFF8"/>
<path d="M20.5725 22.5186H19.4297V23.7037H20.5725V22.5186Z" fill="#EEEFF8"/>
<path d="M20.5725 23.7036H19.4297V24.8888H20.5725V23.7036Z" fill="#EEEFF8"/>
<path d="M19.43 23.7036H18.2871V24.8888H19.43V23.7036Z" fill="#EEEFF8"/>
<path d="M18.2874 23.7036H17.1445V24.8888H18.2874V23.7036Z" fill="#EEEFF8"/>
<path d="M17.1429 23.7036H16V24.8888H17.1429V23.7036Z" fill="#EEEFF8"/>
<path d="M16.0003 23.7036H14.8574V24.8888H16.0003V23.7036Z" fill="#EEEFF8"/>
<path d="M14.8577 23.7036H13.7148V24.8888H14.8577V23.7036Z" fill="#EEEFF8"/>
<path d="M13.7151 23.7036H12.5723V24.8888H13.7151V23.7036Z" fill="#EEEFF8"/>
<path d="M12.5725 23.7036H11.4297V24.8888H12.5725V23.7036Z" fill="#EEEFF8"/>
<path d="M11.43 23.7036H10.2871V24.8888H11.43V23.7036Z" fill="#EEEFF8"/>
<path d="M10.2854 23.7036H9.14258V24.8888H10.2854V23.7036Z" fill="#EEEFF8"/>
<path d="M9.14481 23.7036H8.00195V24.8888H9.14481V23.7036Z" fill="#EEEFF8"/>
<path d="M8.00028 23.7036H6.85742V24.8888H8.00028V23.7036Z" fill="#EEEFF8"/>
<path d="M8.00028 24.8882H6.85742V26.0734H8.00028V24.8882Z" fill="#EEEFF8"/>
<path d="M9.14481 24.8882H8.00195V26.0734H9.14481V24.8882Z" fill="#EEEFF8"/>
<path d="M10.2854 24.8882H9.14258V26.0734H10.2854V24.8882Z" fill="#EEEFF8"/>
<path d="M11.43 24.8882H10.2871V26.0734H11.43V24.8882Z" fill="#EEEFF8"/>
<path d="M12.5725 24.8882H11.4297V26.0734H12.5725V24.8882Z" fill="#EEEFF8"/>
<path d="M13.7151 24.8887H12.5723V26.0739H13.7151V24.8887Z" fill="#EEEFF8"/>
<path d="M14.8577 24.8882H13.7148V26.0734H14.8577V24.8882Z" fill="#EEEFF8"/>
<path d="M16.0003 24.8882H14.8574V26.0734H16.0003V24.8882Z" fill="#EEEFF8"/>
<path d="M17.1429 24.8887H16V26.0739H17.1429V24.8887Z" fill="#EEEFF8"/>
<path d="M17.1429 23.7036H16V24.8888H17.1429V23.7036Z" fill="#EEEFF8"/>
<path d="M17.1429 22.5186H16V23.7037H17.1429V22.5186Z" fill="#EEEFF8"/>
<path d="M17.1429 21.334H16V22.5192H17.1429V21.334Z" fill="#EEEFF8"/>
<path d="M17.1429 20.1479H16V21.3331H17.1429V20.1479Z" fill="#EEEFF8"/>
<path d="M17.1429 18.9629H16V20.1481H17.1429V18.9629Z" fill="#EEEFF8"/>
<path d="M17.1429 17.7783H16V18.9635H17.1429V17.7783Z" fill="#EEEFF8"/>
<path d="M18.2874 17.7783H17.1445V18.9635H18.2874V17.7783Z" fill="#EEEFF8"/>
<path d="M18.2874 18.9634H17.1445V20.1486H18.2874V18.9634Z" fill="#EEEFF8"/>
<path d="M18.2874 20.1479H17.1445V21.3331H18.2874V20.1479Z" fill="#EEEFF8"/>
<path d="M18.2874 21.3335H17.1445V22.5187H18.2874V21.3335Z" fill="#EEEFF8"/>
<path d="M18.2874 22.5186H17.1445V23.7037H18.2874V22.5186Z" fill="#EEEFF8"/>
<path d="M19.43 22.5186H18.2871V23.7037H19.43V22.5186Z" fill="#EEEFF8"/>
<path d="M19.43 21.3335H18.2871V22.5187H19.43V21.3335Z" fill="#EEEFF8"/>
<path d="M19.43 20.1479H18.2871V21.3331H19.43V20.1479Z" fill="#EEEFF8"/>
<path d="M19.43 18.9634H18.2871V20.1486H19.43V18.9634Z" fill="#EEEFF8"/>
<path d="M19.43 17.7783H18.2871V18.9635H19.43V17.7783Z" fill="#EEEFF8"/>
<path d="M20.5725 17.7783H19.4297V18.9635H20.5725V17.7783Z" fill="#EEEFF8"/>
<path d="M20.5725 18.9629H19.4297V20.1481H20.5725V18.9629Z" fill="#EEEFF8"/>
<path d="M20.5725 20.1479H19.4297V21.3331H20.5725V20.1479Z" fill="#EEEFF8"/>
<path d="M20.5725 18.9629H19.4297V20.1481H20.5725V18.9629Z" fill="#EEEFF8"/>
<path d="M20.5725 20.1479H19.4297V21.3331H20.5725V20.1479Z" fill="#EEEFF8"/>
<path d="M20.5725 21.334H19.4297V22.5192H20.5725V21.334Z" fill="#EEEFF8"/>
<path d="M20.5725 20.1479H19.4297V21.3331H20.5725V20.1479Z" fill="#EEEFF8"/>
<path d="M21.7151 20.1479H20.5723V21.3331H21.7151V20.1479Z" fill="#EEEFF8"/>
<path d="M21.7151 18.9634H20.5723V20.1486H21.7151V18.9634Z" fill="#EEEFF8"/>
<path d="M21.7151 17.7783H20.5723V18.9635H21.7151V17.7783Z" fill="#EEEFF8"/>
<path d="M21.7151 16.5933H20.5723V17.7784H21.7151V16.5933Z" fill="#EEEFF8"/>
<path d="M20.5725 16.5933H19.4297V17.7784H20.5725V16.5933Z" fill="#EEEFF8"/>
<path d="M21.7151 16.5933H20.5723V17.7784H21.7151V16.5933Z" fill="#EEEFF8"/>
<path d="M22.8577 16.5933H21.7148V17.7784H22.8577V16.5933Z" fill="#EEEFF8"/>
<path d="M22.8577 15.4072H21.7148V16.5924H22.8577V15.4072Z" fill="#EEEFF8"/>
<path d="M22.8577 14.2222H21.7148V15.4074H22.8577V14.2222Z" fill="#EEEFF8"/>
<path d="M22.8577 13.0371H21.7148V14.2223H22.8577V13.0371Z" fill="#EEEFF8"/>
<path d="M22.8577 11.8525H21.7148V13.0377H22.8577V11.8525Z" fill="#EEEFF8"/>
<path d="M22.8577 10.666H21.7148V11.8512H22.8577V10.666Z" fill="#EEEFF8"/>
<path d="M22.8577 9.48145H21.7148V10.6666H22.8577V9.48145Z" fill="#EEEFF8"/>
<path d="M22.8577 8.29639H21.7148V9.48157H22.8577V8.29639Z" fill="#EEEFF8"/>
<path d="M22.8577 7.11133H21.7148V8.29651H22.8577V7.11133Z" fill="#EEEFF8"/>
<path d="M22.8577 5.92529H21.7148V7.11048H22.8577V5.92529Z" fill="#EEEFF8"/>
<path d="M22.8577 4.74023H21.7148V5.92542H22.8577V4.74023Z" fill="#EEEFF8"/>
<path d="M21.7151 4.74072H20.5723V5.92591H21.7151V4.74072Z" fill="#EEEFF8"/>
<path d="M20.5725 4.74023H19.4297V5.92542H20.5725V4.74023Z" fill="#EEEFF8"/>
<path d="M20.5725 3.55566H19.4297V4.74085H20.5725V3.55566Z" fill="#EEEFF8"/>
<path d="M19.43 3.55566H18.2871V4.74085H19.43V3.55566Z" fill="#EEEFF8"/>
<path d="M18.2874 3.55566H17.1445V4.74085H18.2874V3.55566Z" fill="#EEEFF8"/>
<path d="M17.1429 3.55566H16V4.74085H17.1429V3.55566Z" fill="#EEEFF8"/>
<path d="M16.0003 3.55518H14.8574V4.74036H16.0003V3.55518Z" fill="#EEEFF8"/>
<path d="M16.0003 2.37061H14.8574V3.55579H16.0003V2.37061Z" fill="#EEEFF8"/>
<path d="M14.8577 2.37061H13.7148V3.55579H14.8577V2.37061Z" fill="#EEEFF8"/>
<path d="M13.7151 2.37061H12.5723V3.55579H13.7151V2.37061Z" fill="#EEEFF8"/>
<path d="M13.7151 3.55566H12.5723V4.74085H13.7151V3.55566Z" fill="#EEEFF8"/>
<path d="M14.8577 3.55566H13.7148V4.74085H14.8577V3.55566Z" fill="#EEEFF8"/>
<path d="M14.8577 4.74072H13.7148V5.92591H14.8577V4.74072Z" fill="#EEEFF8"/>
<path d="M13.7151 4.74023H12.5723V5.92542H13.7151V4.74023Z" fill="#EEEFF8"/>
<path d="M13.7151 5.92529H12.5723V7.11048H13.7151V5.92529Z" fill="#EEEFF8"/>
<path d="M14.8577 5.92529H13.7148V7.11048H14.8577V5.92529Z" fill="#EEEFF8"/>
<path d="M16.0003 5.92529H14.8574V7.11048H16.0003V5.92529Z" fill="#EEEFF8"/>
<path d="M16.0003 4.74072H14.8574V5.92591H16.0003V4.74072Z" fill="#EEEFF8"/>
<path d="M17.1429 4.74023H16V5.92542H17.1429V4.74023Z" fill="#EEEFF8"/>
<path d="M18.2874 4.74072H17.1445V5.92591H18.2874V4.74072Z" fill="#EEEFF8"/>
<path d="M19.43 4.74072H18.2871V5.92591H19.43V4.74072Z" fill="#EEEFF8"/>
<path d="M20.5725 4.74023H19.4297V5.92542H20.5725V4.74023Z" fill="#EEEFF8"/>
<path d="M20.5725 5.92529H19.4297V7.11048H20.5725V5.92529Z" fill="#EEEFF8"/>
<path d="M19.43 5.92529H18.2871V7.11048H19.43V5.92529Z" fill="#EEEFF8"/>
<path d="M18.2874 5.92529H17.1445V7.11048H18.2874V5.92529Z" fill="#EEEFF8"/>
<path d="M17.1429 5.92529H16V7.11048H17.1429V5.92529Z" fill="#EEEFF8"/>
<path d="M16.0003 5.92529H14.8574V7.11048H16.0003V5.92529Z" fill="#EEEFF8"/>
<path d="M17.1429 5.92529H16V7.11048H17.1429V5.92529Z" fill="#EEEFF8"/>
<path d="M18.2874 5.92529H17.1445V7.11048H18.2874V5.92529Z" fill="#EEEFF8"/>
<path d="M19.43 5.92529H18.2871V7.11048H19.43V5.92529Z" fill="#EEEFF8"/>
<path d="M20.5725 5.92529H19.4297V7.11048H20.5725V5.92529Z" fill="#EEEFF8"/>
<path d="M20.5725 7.11133H19.4297V8.29651H20.5725V7.11133Z" fill="#EEEFF8"/>
<path d="M21.7151 7.11182H20.5723V8.297H21.7151V7.11182Z" fill="#EEEFF8"/>
<path d="M21.7151 5.92529H20.5723V7.11048H21.7151V5.92529Z" fill="#EEEFF8"/>
<path d="M21.7151 7.11182H20.5723V8.297H21.7151V7.11182Z" fill="#EEEFF8"/>
<path d="M21.7151 8.29639H20.5723V9.48157H21.7151V8.29639Z" fill="#EEEFF8"/>
<path d="M21.7151 9.48145H20.5723V10.6666H21.7151V9.48145Z" fill="#EEEFF8"/>
<path d="M21.7151 10.6665H20.5723V11.8517H21.7151V10.6665Z" fill="#EEEFF8"/>
<path d="M21.7151 11.8525H20.5723V13.0377H21.7151V11.8525Z" fill="#EEEFF8"/>
<path d="M21.7151 13.0376H20.5723V14.2228H21.7151V13.0376Z" fill="#EEEFF8"/>
<path d="M21.7151 14.2222H20.5723V15.4074H21.7151V14.2222Z" fill="#EEEFF8"/>
<path d="M21.7151 15.4072H20.5723V16.5924H21.7151V15.4072Z" fill="#EEEFF8"/>
<path d="M20.5725 15.4072H19.4297V16.5924H20.5725V15.4072Z" fill="#EEEFF8"/>
<path d="M20.5725 14.2222H19.4297V15.4074H20.5725V14.2222Z" fill="#EEEFF8"/>
<path d="M20.5725 13.0371H19.4297V14.2223H20.5725V13.0371Z" fill="#EEEFF8"/>
<path d="M20.5725 11.8525H19.4297V13.0377H20.5725V11.8525Z" fill="#EEEFF8"/>
<path d="M20.5725 10.666H19.4297V11.8512H20.5725V10.666Z" fill="#EEEFF8"/>
<path d="M20.5725 9.48145H19.4297V10.6666H20.5725V9.48145Z" fill="#EEEFF8"/>
<path d="M20.5725 8.29639H19.4297V9.48157H20.5725V8.29639Z" fill="#EEEFF8"/>
<path d="M20.5725 7.11133H19.4297V8.29651H20.5725V7.11133Z" fill="#EEEFF8"/>
<path d="M19.43 7.11182H18.2871V8.297H19.43V7.11182Z" fill="#EEEFF8"/>
<path d="M18.2874 7.11182H17.1445V8.297H18.2874V7.11182Z" fill="#EEEFF8"/>
<path d="M17.1429 7.11133H16V8.29651H17.1429V7.11133Z" fill="#EEEFF8"/>
<path d="M17.1429 8.29639H16V9.48157H17.1429V8.29639Z" fill="#EEEFF8"/>
<path d="M18.2874 8.29639H17.1445V9.48157H18.2874V8.29639Z" fill="#EEEFF8"/>
<path d="M19.43 8.29639H18.2871V9.48157H19.43V8.29639Z" fill="#EEEFF8"/>
<path d="M19.43 9.48145H18.2871V10.6666H19.43V9.48145Z" fill="#EEEFF8"/>
<path d="M18.2874 9.48145H17.1445V10.6666H18.2874V9.48145Z" fill="#EEEFF8"/>
<path d="M17.1429 9.48145H16V10.6666H17.1429V9.48145Z" fill="#EEEFF8"/>
<path d="M16.0003 9.48096H14.8574V10.6661H16.0003V9.48096Z" fill="#EEEFF8"/>
<path d="M16.0003 8.29639H14.8574V9.48157H16.0003V8.29639Z" fill="#EEEFF8"/>
<path d="M14.8577 8.29639H13.7148V9.48157H14.8577V8.29639Z" fill="#EE5353"/>
<path d="M13.7151 8.29639H12.5723V9.48157H13.7151V8.29639Z" fill="#EE5353"/>
<path d="M12.5725 8.29639H11.4297V9.48157H12.5725V8.29639Z" fill="#EE5353"/>
<path d="M11.43 8.29639H10.2871V9.48157H11.43V8.29639Z" fill="#EE5353"/>
<path d="M11.43 9.48145H10.2871V10.6666H11.43V9.48145Z" fill="#EE5353"/>
<path d="M11.43 10.6665H10.2871V11.8517H11.43V10.6665Z" fill="#EE5353"/>
<path d="M11.43 11.8525H10.2871V13.0377H11.43V11.8525Z" fill="#EE5353"/>
<path d="M10.2854 11.8521H9.14258V13.0372H10.2854V11.8521Z" fill="#EE5353"/>
<path d="M9.14481 11.8525H8.00195V13.0377H9.14481V11.8525Z" fill="#EE5353"/>
<path d="M8.00028 11.8525H6.85742V13.0377H8.00028V11.8525Z" fill="#EE5353"/>
<path d="M8.00028 13.0376H6.85742V14.2228H8.00028V13.0376Z" fill="#EE5353"/>
<path d="M8.00028 14.2222H6.85742V15.4074H8.00028V14.2222Z" fill="#EE5353"/>
<path d="M8.00028 15.4072H6.85742V16.5924H8.00028V15.4072Z" fill="#EE5353"/>
<path d="M9.14481 15.4072H8.00195V16.5924H9.14481V15.4072Z" fill="#EE5353"/>
<path d="M10.2854 15.4067H9.14258V16.5919H10.2854V15.4067Z" fill="#EE5353"/>
<path d="M11.43 15.4072H10.2871V16.5924H11.43V15.4072Z" fill="#EE5353"/>
<path d="M11.43 16.5933H10.2871V17.7784H11.43V16.5933Z" fill="#EE5353"/>
<path d="M11.43 17.7783H10.2871V18.9635H11.43V17.7783Z" fill="#EE5353"/>
<path d="M11.43 18.9634H10.2871V20.1486H11.43V18.9634Z" fill="#EE5353"/>
<path d="M11.43 20.1479H10.2871V21.3331H11.43V20.1479Z" fill="#EE5353"/>
<path d="M12.5725 20.1479H11.4297V21.3331H12.5725V20.1479Z" fill="#EE5353"/>
<path d="M13.7151 20.1479H12.5723V21.3331H13.7151V20.1479Z" fill="#EE5353"/>
<path d="M14.8577 20.1479H13.7148V21.3331H14.8577V20.1479Z" fill="#EE5353"/>
<path d="M14.8577 18.9634H13.7148V20.1486H14.8577V18.9634Z" fill="#EE5353"/>
<path d="M14.8577 17.7783H13.7148V18.9635H14.8577V17.7783Z" fill="#EE5353"/>
<path d="M14.8577 16.5933H13.7148V17.7784H14.8577V16.5933Z" fill="#EE5353"/>
<path d="M14.8577 15.4072H13.7148V16.5924H14.8577V15.4072Z" fill="#EE5353"/>
<path d="M16.0003 15.4067H14.8574V16.5919H16.0003V15.4067Z" fill="#EE5353"/>
<path d="M17.1429 15.4072H16V16.5924H17.1429V15.4072Z" fill="#EE5353"/>
<path d="M18.2874 15.4072H17.1445V16.5924H18.2874V15.4072Z" fill="#EE5353"/>
<path d="M18.2874 14.2222H17.1445V15.4074H18.2874V14.2222Z" fill="#EE5353"/>
<path d="M18.2874 13.0376H17.1445V14.2228H18.2874V13.0376Z" fill="#EE5353"/>
<path d="M18.2874 11.8525H17.1445V13.0377H18.2874V11.8525Z" fill="#EE5353"/>
<path d="M17.1429 11.8525H16V13.0377H17.1429V11.8525Z" fill="#EE5353"/>
<path d="M16.0003 11.8521H14.8574V13.0372H16.0003V11.8521Z" fill="#EE5353"/>
<path d="M14.8577 11.8525H13.7148V13.0377H14.8577V11.8525Z" fill="#EE5353"/>
<path d="M14.8577 10.6665H13.7148V11.8517H14.8577V10.6665Z" fill="#EE5353"/>
<path d="M14.8577 9.48145H13.7148V10.6666H14.8577V9.48145Z" fill="#EE5353"/>
<path d="M14.8577 8.29639H13.7148V9.48157H14.8577V8.29639Z" fill="#EE5353"/>
<path d="M13.7151 8.29639H12.5723V9.48157H13.7151V8.29639Z" fill="#EE5353"/>
<path d="M13.7151 9.48145H12.5723V10.6666H13.7151V9.48145Z" fill="#EE5353"/>
<path d="M12.5725 9.48145H11.4297V10.6666H12.5725V9.48145Z" fill="#EE5353"/>
<path d="M12.5725 10.6665H11.4297V11.8517H12.5725V10.6665Z" fill="#EE5353"/>
<path d="M11.43 10.6665H10.2871V11.8517H11.43V10.6665Z" fill="#EE5353"/>
<path d="M11.43 11.8525H10.2871V13.0377H11.43V11.8525Z" fill="#EE5353"/>
<path d="M12.5725 11.8525H11.4297V13.0377H12.5725V11.8525Z" fill="#EE5353"/>
<path d="M12.5725 10.6665H11.4297V11.8517H12.5725V10.6665Z" fill="#EE5353"/>
<path d="M13.7151 10.666H12.5723V11.8512H13.7151V10.666Z" fill="#EE5353"/>
<path d="M13.7151 11.8525H12.5723V13.0377H13.7151V11.8525Z" fill="#EE5353"/>
<path d="M12.5725 11.8525H11.4297V13.0377H12.5725V11.8525Z" fill="#EE5353"/>
<path d="M11.43 11.8525H10.2871V13.0377H11.43V11.8525Z" fill="#EE5353"/>
<path d="M10.2854 11.8521H9.14258V13.0372H10.2854V11.8521Z" fill="#EE5353"/>
<path d="M10.2854 13.0376H9.14258V14.2228H10.2854V13.0376Z" fill="#EE5353"/>
<path d="M9.14481 13.0376H8.00195V14.2228H9.14481V13.0376Z" fill="#EE5353"/>
<path d="M8.00028 13.0376H6.85742V14.2228H8.00028V13.0376Z" fill="#EE5353"/>
<path d="M8.00028 14.2222H6.85742V15.4074H8.00028V14.2222Z" fill="#EE5353"/>
<path d="M9.14481 14.2222H8.00195V15.4074H9.14481V14.2222Z" fill="#EE5353"/>
<path d="M10.2854 14.2222H9.14258V15.4074H10.2854V14.2222Z" fill="#EE5353"/>
<path d="M11.43 14.2222H10.2871V15.4074H11.43V14.2222Z" fill="#EE5353"/>
<path d="M12.5725 14.2222H11.4297V15.4074H12.5725V14.2222Z" fill="#EE5353"/>
<path d="M13.7151 14.2222H12.5723V15.4074H13.7151V14.2222Z" fill="#EE5353"/>
<path d="M14.8577 14.2222H13.7148V15.4074H14.8577V14.2222Z" fill="#EE5353"/>
<path d="M16.0003 14.2222H14.8574V15.4074H16.0003V14.2222Z" fill="#EE5353"/>
<path d="M17.1429 14.2222H16V15.4074H17.1429V14.2222Z" fill="#EE5353"/>
<path d="M17.1429 13.0371H16V14.2223H17.1429V13.0371Z" fill="#EE5353"/>
<path d="M16.0003 13.0376H14.8574V14.2228H16.0003V13.0376Z" fill="#EE5353"/>
<path d="M14.8577 13.0376H13.7148V14.2228H14.8577V13.0376Z" fill="#EE5353"/>
<path d="M13.7151 13.0371H12.5723V14.2223H13.7151V13.0371Z" fill="#EE5353"/>
<path d="M12.5725 13.0376H11.4297V14.2228H12.5725V13.0376Z" fill="#EE5353"/>
<path d="M11.43 13.0376H10.2871V14.2228H11.43V13.0376Z" fill="#EE5353"/>
<path d="M12.5725 13.0376H11.4297V14.2228H12.5725V13.0376Z" fill="#EE5353"/>
<path d="M12.5725 14.2222H11.4297V15.4074H12.5725V14.2222Z" fill="#EE5353"/>
<path d="M12.5725 15.4072H11.4297V16.5924H12.5725V15.4072Z" fill="#EE5353"/>
<path d="M12.5725 16.5933H11.4297V17.7784H12.5725V16.5933Z" fill="#EE5353"/>
<path d="M12.5725 17.7783H11.4297V18.9635H12.5725V17.7783Z" fill="#EE5353"/>
<path d="M12.5725 18.9634H11.4297V20.1486H12.5725V18.9634Z" fill="#EE5353"/>
<path d="M12.5725 17.7783H11.4297V18.9635H12.5725V17.7783Z" fill="#EE5353"/>
<path d="M12.5725 16.5933H11.4297V17.7784H12.5725V16.5933Z" fill="#EE5353"/>
<path d="M13.7151 16.5933H12.5723V17.7784H13.7151V16.5933Z" fill="#EE5353"/>
<path d="M13.7151 15.4072H12.5723V16.5924H13.7151V15.4072Z" fill="#EE5353"/>
<path d="M13.7151 14.2222H12.5723V15.4074H13.7151V14.2222Z" fill="#EE5353"/>
<path d="M13.7151 15.4072H12.5723V16.5924H13.7151V15.4072Z" fill="#EE5353"/>
<path d="M13.7151 16.5933H12.5723V17.7784H13.7151V16.5933Z" fill="#EE5353"/>
<path d="M13.7151 17.7783H12.5723V18.9635H13.7151V17.7783Z" fill="#EE5353"/>
<path d="M13.7151 18.9629H12.5723V20.1481H13.7151V18.9629Z" fill="#EE5353"/>
</g>
<defs>
<clipPath id="clip0_1804_132984">
<rect width="24" height="32" fill="white"/>
</clipPath>
</defs>
</svg>
