<svg width="28" height="28" viewBox="0 0 28 28" fill="none" xmlns="http://www.w3.org/2000/svg">
<path d="M1.87509 27.3004L0.772727 25.9004L0.405273 16.4502L17.3082 16.8002L27.2294 16.4502L27.5969 25.2004L26.1271 27.3004H1.87509Z" fill="#666B8C"/>
<path d="M22.3963 0V1.33002H25.1982V2.6688H26.5945V3.99882H23.8018V2.6688H22.3963V1.33002H16.8018V2.6688H19.5945V3.99882H21V5.32885H18.1982V3.99882H16.8018V2.6688H11.1982V3.99882H14V5.32885H15.3963V6.66762H12.6037V5.32885H11.1982V3.99882H5.60367V5.32885H8.39633V6.66762H9.80184V7.99764H7V6.66762H5.60367V5.32885H0V26.6617H1.40551V17.3341H26.5945V26.6617H28V11.9965H1.40551V10.6664H5.60367V9.32767H11.1982V7.99764H16.8018V6.66762H22.3963V5.32885H28V0H22.3963ZM22.3963 14.6653H23.8018V13.3352H26.5945V14.6653H25.1982V15.9953H22.3963V14.6653ZM15.3963 14.6653H16.8018V13.3352H19.5945V14.6653H18.1982V15.9953H15.3963V14.6653ZM8.39633 14.6653H9.80184V13.3352H12.6037V14.6653H11.1982V15.9953H8.39633V14.6653ZM2.80184 14.6653V13.3352H5.60367V14.6653H4.19816V15.9953H1.40551V14.6653H2.80184ZM4.19816 9.32767H1.40551V6.66762H2.80184V7.99764H4.19816V9.32767Z" fill="#202540"/>
<path d="M22.7824 19.6006H21.3769V20.9306H19.9805V19.6006H18.575V20.9306H17.1787V22.2606H18.575V23.5994H19.9805V24.9294H21.3769V23.5994H22.7824V22.2606H24.1787V20.9306H22.7824V19.6006Z" fill="#FD5E4B"/>
<path d="M14.2399 22.3311H4.44727V23.6698H14.2399V22.3311Z" fill="#202540"/>
<path d="M14.2399 19.6006H4.44727V20.9306H14.2399V19.6006Z" fill="#202540"/>
<path d="M26.5952 26.6611H1.40625V27.9999H26.5952V26.6611Z" fill="#202540"/>
</svg>
