<svg xmlns="http://www.w3.org/2000/svg" width="40" height="40" viewBox="0 0 40 40" fill="none">
  <style>
    path[fill]:not([fill='none']) { fill: currentColor !important; }
    path[stroke]:not([stroke='none']) { stroke: currentColor !important; }
  </style>
  <path d="M38.0995 10.4741H36.187V33.3366H38.0995V10.4741Z" fill="#9EA2BA"/>
  <path d="M36.187 33.3367H32.387V35.2367H36.187V33.3367Z" fill="#9EA2BA"/>
  <path d="M32.3872 31.4236H28.5747V33.3361H32.3872V31.4236Z" fill="#9EA2BA"/>
  <path d="M28.5743 29.5232H22.8618V31.4232H28.5743V29.5232Z" fill="#9EA2BA"/>
  <path d="M30.4752 19.9995H24.7627V21.8995H30.4752V19.9995Z" fill="#9EA2BA"/>
  <path d="M30.4752 14.2866H24.7627V16.1866H30.4752V14.2866Z" fill="#9EA2BA"/>
  <path d="M30.4752 8.57373H24.7627V10.4737H30.4752V8.57373Z" fill="#9EA2BA"/>
  <path d="M32.3868 4.76123H22.8618V6.66123H32.3868V4.76123Z" fill="#9EA2BA"/>
  <path d="M24.7618 16.186H22.8618V18.0985H24.7618V16.186Z" fill="#9EA2BA"/>
  <path d="M24.7618 10.4741H22.8618V12.3866H24.7618V10.4741Z" fill="#9EA2BA"/>
  <path d="M22.8627 6.66064H20.9502V8.57315H22.8627V6.66064Z" fill="#9EA2BA"/>
  <path d="M22.8629 31.4236H17.1504V33.3361H22.8629V31.4236Z" fill="#9EA2BA"/>
  <path d="M19.0504 6.66064H17.1504V8.57315H19.0504V6.66064Z" fill="#9EA2BA"/>
  <path d="M17.15 29.5232H11.425V31.4232H17.15V29.5232Z" fill="#9EA2BA"/>
  <path d="M17.1498 16.186H15.2373V18.0985H17.1498V16.186Z" fill="#9EA2BA"/>
  <path d="M17.1498 10.4741H15.2373V12.3866H17.1498V10.4741Z" fill="#9EA2BA"/>
  <path d="M15.2369 19.9995H9.52441V21.8995H15.2369V19.9995Z" fill="#9EA2BA"/>
  <path d="M15.2369 14.2866H9.52441V16.1866H15.2369V14.2866Z" fill="#9EA2BA"/>
  <path d="M15.2369 8.57373H9.52441V10.4737H15.2369V8.57373Z" fill="#9EA2BA"/>
  <path d="M17.15 4.76123H7.625V6.66123H17.15V4.76123Z" fill="#9EA2BA"/>
  <path d="M11.425 31.4236H7.625V33.3361H11.425V31.4236Z" fill="#9EA2BA"/>
  <path d="M17.1502 25.7106V23.8106H11.4252V25.7106H7.62524V6.66064H5.71274V8.57314H3.81274V10.4731H5.71274V29.5231H11.4252V27.6231H17.1502V29.5231H22.8627V27.6231H28.5752V29.5231H34.2877V10.4731H36.1877V8.57314H34.2877V6.66064H32.3877V25.7106H28.5752V23.8106H22.8627V25.7106H20.9502V8.57314H19.0502V25.7106H17.1502Z" fill="#9EA2BA"/>
  <path d="M7.62524 33.3367H3.81274V35.2367H7.62524V33.3367Z" fill="#9EA2BA"/>
  <path d="M3.8124 10.4741H1.8999V33.3366H3.8124V10.4741Z" fill="#9EA2BA"/>
</svg>