<svg width="28" height="32" viewBox="0 0 28 32" fill="none" xmlns="http://www.w3.org/2000/svg">
<path d="M18.2012 1.46045V1.45459H19.6016V2.90869H18.2012V2.90088L18.1943 2.90869H18.1992V15.9976L18.2012 15.9995H19.6016V17.4546H21.001V18.9087H22.4004V20.3638H23.7998V21.8179H23.7305L23.8008 21.8657V21.8179H25.2012V24.7231L25.2119 24.7271H26.5996V27.6333L26.6045 27.6362H28.001V30.5454H26.6523L26.6016 30.5806V31.9995H1.40137V30.5454L1.40039 30.5425V30.5454H0V27.6362H1.39551L1.40137 27.6235V24.7271H2.7959L2.80078 24.7163V21.8179H4.19629L4.19824 21.813L4.20117 21.8091V20.3638H5.59277L5.60059 20.355V18.9087H6.99414L7.00195 18.8999V17.4546H8.39551L8.39941 17.4458V15.9995H9.7998V16.0669L9.80078 16.0659V2.94678L9.75195 2.90869H8.39941V1.45459H9.75L10.4971 0.872559H17.6348L18.2012 1.46045ZM22.3994 20.4146V20.3638H22.3623L22.3994 20.4146ZM21 18.937V18.9087H20.9648L21 18.937ZM19.6006 17.4692V17.4546H19.5957L19.6006 17.4692Z" fill="#F8DEBD"/>
<path d="M18.4762 0H10.0762V1.45453H18.4762V0Z" fill="#202540"/>
<path d="M23.7989 28.505V25.5959H22.3989V22.6868H20.9989V21.2323H19.5989V19.7778H18.1989V18.3232H13.9989V19.7778H12.5989V21.2323H6.99884V22.6868H5.59884V25.5959H4.19883V28.505H2.79883V29.9595H25.1989V28.505H23.7989ZM8.39884 24.1414H11.1989V27.0504H8.39884V24.1414ZM13.9989 22.6868H15.3989V24.1414H13.9989V22.6868Z" fill="#FFB900"/>
</svg>
