<svg xmlns="http://www.w3.org/2000/svg" width="40" height="40" viewBox="0 0 40 40" fill="none">
  <style>
    path[fill]:not([fill='none']) { fill: currentColor !important; }
    path[stroke]:not([stroke='none']) { stroke: currentColor !important; }
  </style>
  <g clip-path="url(#clip0_101_8512)">
    <path d="M40.3625 10.3531H38.2109V6.06406H36.0734V3.92656H33.9219V1.78906H29.6469V-0.3625H25.3578V-2.5H14.6422V-0.3625H10.3531V1.78906H6.06406V3.92656H3.92656V6.06406H1.78906V10.3531H-0.3625V14.6422H-2.5V25.3578H-0.3625V29.6469H1.78906V33.9219H3.92656V36.0734H6.06406V38.2109H10.3531V40.3625H14.6422V42.5H25.3578V40.3625H29.6469V38.2109H33.9219V36.0734H36.0734V33.9219H38.2109V29.6469H40.3625V25.3578H42.5V14.6422H40.3625V10.3531ZM25.3578 33.9219H23.2203V36.0734H16.7797V33.9219H14.6422V27.4953H16.7797V25.3578H23.2203V27.4953H25.3578V33.9219ZM31.7844 14.6422H29.6469V16.7797H27.4953V18.9312H25.3578V21.0688H23.2203V23.2203H16.7797V18.9312H18.9312V16.7797H21.0688V14.6422H23.2203V10.3531H21.0688V8.21562H16.7797V10.3531H14.6422V14.6422H8.21562V8.21562H10.3531V6.06406H12.5047V3.92656H14.6422V1.78906H25.3578V3.92656H27.4953V6.06406H29.6469V8.21562H31.7844V14.6422Z" fill="currentColor"/>
  </g>
  <defs>
    <clipPath id="clip0_101_8512">
      <rect width="40" height="40" fill="white"/>
    </clipPath>
  </defs>
</svg>