<svg width="28" height="28" viewBox="0 0 28 28" fill="none" xmlns="http://www.w3.org/2000/svg">
<path d="M24.7957 12.7509V9.97866H23.3371V8.59254H21.8786V7.20643H20.42V5.82031H5.83428V7.20643H4.37571V8.59254H2.91714V9.97866H1.45857V12.7509H0V21.0676H1.45857V23.8398H2.91714V25.2259H4.37571V26.612H5.83428V27.9981H20.42V26.612H21.8786V25.2259H23.3371V23.8398H24.7957V21.0676H26.2543V12.7509H24.7957ZM10.21 9.97866V8.59254H16.0443V9.97866H18.9614V12.7509H20.42V19.6815H18.9614V22.4537H16.0443V23.8398H10.21V22.4537H7.29285V19.6815H5.83428V12.7509H7.29285V9.97866H10.21Z" fill="#B38B00"/>
<path d="M22.1646 4.43506H20.7061V5.82117H22.1646V4.43506Z" fill="#B38B00"/>
<path d="M25.0812 5.82129H22.1641V7.2074H25.0812V5.82129Z" fill="#B38B00"/>
<path d="M26.5416 7.20752H25.083V8.59363H26.5416V7.20752Z" fill="#B38B00"/>
<path d="M28.0001 3.04932V7.20766H26.5416V4.43543H25.083V3.04932H28.0001Z" fill="#B38B00"/>
<path d="M25.1316 1.38961L20.4111 1.38379V3.04375L25.1316 3.04957V1.38961Z" fill="#B38B00"/>
<path d="M20.7054 2.07861H18.8115V4.43517H20.7054V2.07861Z" fill="#B38B00"/>
<path d="M18.9625 4.15723H7.29395V5.82019H18.9625V4.15723Z" fill="#FF0024"/>
<path d="M21.8778 0V1.38611H20.4193V2.77223H18.9607V4.15834H7.29214V2.77223H5.83357V1.38611H4.375V0H7.29214V1.38611H11.6679V0H14.585V1.38611H18.9607V0H21.8778Z" fill="#B38B00"/>
<path d="M7.87469 7.4834H16.1867L22.7487 13.3038V18.7084L19.6864 26.1917L6.99975 25.776L3.0625 22.0343L3.49997 13.3038L7.87469 7.4834Z" fill="#B38B00"/>
<path d="M6.125 16.2138V12.4722H8.92482V14.9666H10.3247V17.461H11.7246V12.4722H14.5245V17.461H15.9244V14.9666H17.3243V12.4722H20.1241V16.2138H18.7242V19.9555H17.3243V22.4499H14.5245V19.9555H11.7246V22.4499H8.92482V19.9555H7.52491V16.2138H6.125Z" fill="#E4C717"/>
</svg>
