<svg xmlns="http://www.w3.org/2000/svg" width="40" height="40" viewBox="0 0 40 40" fill="none">
  <style>
    path[fill]:not([fill='none']) { fill: currentColor !important; }
    path[stroke]:not([stroke='none']) { stroke: currentColor !important; }
  </style>
  <g clip-path="url(#clip0_101_7885)">
    <path d="M31.425 0V1.9H35.2375V3.8125H37.1375V5.7125H33.3375V3.8125H31.425V1.9H23.8125V3.8125H27.6125V5.7125H29.525V7.6125H25.7125V5.7125H23.8125V3.8125H16.1875V5.7125H20V7.6125H21.9V9.525H18.1V7.6125H16.1875V5.7125H8.57495V7.6125H12.375V9.525H14.2875V11.425H10.475V9.525H8.57495V7.6125H0.949951V38.0875H2.86245V24.7625H37.1375V38.0875H39.05V17.1375H2.86245V15.2375H8.57495V13.325H16.1875V11.425H23.8125V9.525H31.425V7.6125H39.05V0H31.425ZM31.425 20.95H33.3375V19.05H37.1375V20.95H35.2375V22.85H31.425V20.95ZM21.9 20.95H23.8125V19.05H27.6125V20.95H25.7125V22.85H21.9V20.95ZM12.375 20.95H14.2875V19.05H18.1V20.95H16.1875V22.85H12.375V20.95ZM4.76245 20.95V19.05H8.57495V20.95H6.66245V22.85H2.86245V20.95H4.76245ZM6.66245 13.325H2.86245V9.525H4.76245V11.425H6.66245V13.325Z" fill="#9EA2BA"/>
    <path d="M37.138 38.0869H2.86304V39.9994H37.138V38.0869Z" fill="#9EA2BA"/>
    <path d="M33.3369 28.5752H31.4244V30.4752H29.5244V28.5752H27.6119V30.4752H25.7119V32.3752H27.6119V34.2877H29.5244V36.1877H31.4244V34.2877H33.3369V32.3752H35.2369V30.4752H33.3369V28.5752Z" fill="#9EA2BA"/>
    <path d="M21.8995 32.3752H8.57446V34.2877H21.8995V32.3752Z" fill="#9EA2BA"/>
    <path d="M21.8995 28.5752H8.57446V30.4752H21.8995V28.5752Z" fill="#9EA2BA"/>
  </g>
  <defs>
    <clipPath id="clip0_101_7885">
      <rect width="40" height="40" fill="white"/>
    </clipPath>
  </defs>
</svg>