<svg width="28" height="28" viewBox="0 0 28 28" fill="none" xmlns="http://www.w3.org/2000/svg">
<g clip-path="url(#clip0_1804_132825)">
<rect x="0.699219" y="1.3999" width="26.6" height="18.9" fill="#1591CA"/>
<path d="M26.67 18.6643H1.33V1.33057H0V22.6631H1.33V23.9931H9.33625V25.3318H10.6662V23.9931H17.3337V25.3318H18.6637V23.9931H26.67V22.6631H28V1.33057H26.67V18.6643Z" fill="#202540"/>
<path d="M20.0028 7.99777H21.3328V6.65902H22.6628V5.32902H21.3328V3.99902H20.0028V5.32902H18.6641V6.65902H20.0028V7.99777Z" fill="#202540"/>
<path d="M9.3368 26.6615V25.3315H7.99805V28.0003H20.003V25.3315H18.6643V26.6615H9.3368Z" fill="#202540"/>
<path d="M18.664 9.32666H17.334V10.6654H18.664V9.32666Z" fill="#202540"/>
<path d="M18.6634 13.3257H9.33594V14.6644H18.6634V13.3257Z" fill="#202540"/>
<path d="M10.6659 9.32666H9.33594V10.6654H10.6659V9.32666Z" fill="#202540"/>
<path d="M26.6701 0H1.33008V1.33H26.6701V0Z" fill="#202540"/>
</g>
<defs>
<clipPath id="clip0_1804_132825">
<rect width="28" height="28" fill="white"/>
</clipPath>
</defs>
</svg>
