<svg width="32" height="28" viewBox="0 0 32 28" fill="none" xmlns="http://www.w3.org/2000/svg">
<path d="M0.883789 5.97239L2.65177 4.59424L3.97775 5.51301V18.3758L5.30373 21.5915L7.5137 20.6727L11.4916 19.754L15.4696 21.1321L15.9116 20.2133H22.0995L25.1935 21.5915L27.8454 22.0509L27.4034 4.59424H28.7294L30.9394 5.51301V25.2666L30.0554 26.6447L27.8454 27.1041L26.5195 25.726H24.3095L22.9835 23.429H19.0056L18.1216 25.2666H14.5856L12.8176 23.8884L9.72367 23.429L6.62971 25.726L2.65177 27.1041L1.32578 25.726L0.883789 5.97239Z" fill="#F8DEBD"/>
<path d="M6.18595 0.918945L4.41797 2.2971V19.7538L15.9098 20.2131V4.13464L15.157 3.50299L14.1418 2.75649L13.4823 1.7444L12.8159 0.918945H6.18595Z" fill="#F8DEBD"/>
<path d="M19.0045 0.918945H25.6344L26.95 1.7444L27.4023 2.2971V19.7538L15.9105 20.2131V4.13464L16.8455 3.49797L17.6785 2.75649L18.5314 1.7444L19.0045 0.918945Z" fill="#F8DEBD"/>
<path d="M31.9997 5.24902H30.3086V26.2544H31.9997V5.24902Z" fill="#8E5440"/>
<path d="M30.3094 26.2544H26.9502V28.0001H30.3094V26.2544Z" fill="#8E5440"/>
<path d="M26.9513 24.4966H23.5811V26.2537H26.9513V24.4966Z" fill="#8E5440"/>
<path d="M23.5801 22.7505H18.5303V24.4962H23.5801V22.7505Z" fill="#8E5440"/>
<path d="M25.2588 14.0005H20.209V15.7462H25.2588V14.0005Z" fill="#8E5440"/>
<path d="M25.2588 8.75146H20.209V10.4971H25.2588V8.75146Z" fill="#8E5440"/>
<path d="M25.2588 3.50293H20.209V5.24859H25.2588V3.50293Z" fill="#8E5440"/>
<path d="M26.9503 0H18.5303V1.74567H26.9503V0Z" fill="#8E5440"/>
<path d="M20.2103 10.4966H18.5303V12.2537H20.2103V10.4966Z" fill="#8E5440"/>
<path d="M20.2103 5.24902H18.5303V7.00617H20.2103V5.24902Z" fill="#8E5440"/>
<path d="M18.5319 1.74512H16.8408V3.50227H18.5319V1.74512Z" fill="#8E5440"/>
<path d="M18.5303 24.4966H13.4805V26.2537H18.5303V24.4966Z" fill="#8E5440"/>
<path d="M15.1605 1.74512H13.4805V3.50227H15.1605V1.74512Z" fill="#8E5440"/>
<path d="M13.4788 22.7505H8.41797V24.4962H13.4788V22.7505Z" fill="#8E5440"/>
<path d="M13.4801 10.4966H11.7891V12.2537H13.4801V10.4966Z" fill="#8E5440"/>
<path d="M13.4801 5.24902H11.7891V7.00617H13.4801V5.24902Z" fill="#8E5440"/>
<path d="M11.79 14.0005H6.74023V15.7462H11.79V14.0005Z" fill="#8E5440"/>
<path d="M11.79 8.75146H6.74023V10.4971H11.79V8.75146Z" fill="#8E5440"/>
<path d="M11.79 3.50293H6.74023V5.24859H11.79V3.50293Z" fill="#8E5440"/>
<path d="M13.4815 0H5.06152V1.74567H13.4815V0Z" fill="#8E5440"/>
<path d="M8.42068 24.4966H5.06152V26.2537H8.42068V24.4966Z" fill="#8E5440"/>
<path d="M13.4796 19.2477V17.502H8.41881V19.2477H5.05966V1.74512H3.36903V3.50227H1.68945V5.24793H3.36903V22.7505H8.41881V21.0049H13.4796V22.7505H18.5294V21.0049H23.5792V22.7505H28.629V5.24793H30.3086V3.50227H28.629V1.74512H26.9494V19.2477H23.5792V17.502H18.5294V19.2477H16.8388V3.50227H15.1592V19.2477H13.4796Z" fill="#8E5440"/>
<path d="M5.05966 26.2544H1.68945V28.0001H5.05966V26.2544Z" fill="#8E5440"/>
<path d="M1.69108 5.24902H0V26.2544H1.69108V5.24902Z" fill="#8E5440"/>
</svg>
