<svg width="32" height="28" viewBox="0 0 32 28" fill="none" xmlns="http://www.w3.org/2000/svg">
<g clip-path="url(#clip0_1804_132976)">
<path d="M31.1576 5.8753V13.3751H29.7796V14.6253L28.4016 14.6253V16.2972H27.0236V18.3754H25.6455V19.6252H24.2675V20.8749H22.8895V22.1251H21.5115V23.3749H20.1335V24.6251L18.7559 24.6251V25.8752H17.3775V27.125H14.6219V25.8752H13.2435V24.6251H11.8659V23.3749H10.4879V22.1251H9.10944V20.8749H7.73184V19.6252H6.35342V18.3754H4.97582V16.2972H3.59782V14.6253H2.21981V13.3751H0.841797V5.8753H2.21981V3.37494L3.59782 3.37494V2.12518L6.00436 2.12518V0.875L10.4879 0.875V2.12518H13.2435V3.37494H14.6219V4.62512H17.3775V3.37494H18.7559V2.12518H21.5115V0.875L25.9946 0.875V2.12518H28.4016V3.37494H29.7796V5.8753H31.1576Z" fill="#D84949"/>
<path d="M28.1159 5.31905V7.74857H25.7616V6.14681H24.3066V3.71729L26.6605 3.71729V5.31905H28.1159Z" fill="white"/>
</g>
<defs>
<clipPath id="clip0_1804_132976">
<rect width="32" height="28" fill="white"/>
</clipPath>
</defs>
</svg>
