<svg width="30" height="48" viewBox="0 0 30 48" fill="none" xmlns="http://www.w3.org/2000/svg">
<path d="M11.7259 0L7.3623 0V4.5H11.7259V0Z" fill="#804FFF"/>
<path d="M16.089 22.5H13.9072V24.75H16.089V22.5Z" fill="#804FFF"/>
<path d="M22.6351 0L18.2715 0V4.5H22.6351V0Z" fill="#804FFF"/>
<path d="M7.36364 6.75H3L3 31.5H11.7273V36H18.2727V31.5H27V6.75L7.36364 6.75ZM20.1661 27H9.83152C8.46667 27 7.36121 25.86 7.36121 24.4525L7.36121 13.795C7.36121 12.3875 8.46667 11.2475 9.83152 11.2475H20.1661C21.5309 11.2475 22.6364 12.3875 22.6364 13.795V24.4525C22.6364 25.86 21.5309 27 20.1661 27Z" fill="#804FFF"/>
<path d="M12.6062 15.7974H11.1977C10.3944 15.7974 9.74316 16.4689 9.74316 17.2974V18.7499C9.74316 19.5783 10.3944 20.2499 11.1977 20.2499H12.6062C13.4095 20.2499 14.0607 19.5783 14.0607 18.7499V17.2974C14.0607 16.4689 13.4095 15.7974 12.6062 15.7974Z" fill="#804FFF"/>
<path d="M18.9997 15.7974H17.5913C16.7879 15.7974 16.1367 16.4689 16.1367 17.2974V18.7499C16.1367 19.5783 16.7879 20.2499 17.5913 20.2499H18.9997C19.8031 20.2499 20.4543 19.5783 20.4543 18.7499V17.2974C20.4543 16.4689 19.8031 15.7974 18.9997 15.7974Z" fill="#804FFF"/>
<ellipse cx="15" cy="44" rx="15" ry="4" fill="#15192C"/>
</svg>
