<svg width="40" height="40" viewBox="0 0 40 40" xmlns="http://www.w3.org/2000/svg">
<path d="M16.7255 2.4668H12.3618V6.84981H16.7255V2.4668Z" fill="currentColor"/>
<path d="M21.0905 24.3828H18.9087V26.5743H21.0905V24.3828Z" fill="currentColor"/>
<path d="M27.6346 2.4668H23.271V6.84981H27.6346V2.4668Z" fill="currentColor"/>
<path d="M12.3636 9.04297H8V33.1496H16.7273V37.5326H23.2727V33.1496H32V9.04297H12.3636ZM25.1661 28.7665H14.8315C13.4667 28.7665 12.3612 27.6562 12.3612 26.2853V15.9048C12.3612 14.5339 13.4667 13.4235 14.8315 13.4235H25.1661C26.5309 13.4235 27.6364 14.5339 27.6364 15.9048V26.2853C27.6364 27.6562 26.5309 28.7665 25.1661 28.7665Z" fill="currentColor"/>
<path d="M17.6052 17.8555H16.1967C15.3934 17.8555 14.7422 18.5096 14.7422 19.3165V20.7312C14.7422 21.5381 15.3934 22.1922 16.1967 22.1922H17.6052C18.4085 22.1922 19.0598 21.5381 19.0598 20.7312V19.3165C19.0598 18.5096 18.4085 17.8555 17.6052 17.8555Z" fill="currentColor"/>
<path d="M24.0012 17.8555H22.5927C21.7894 17.8555 21.1382 18.5096 21.1382 19.3165V20.7312C21.1382 21.5381 21.7894 22.1922 22.5927 22.1922H24.0012C24.8045 22.1922 25.4558 21.5381 25.4558 20.7312V19.3165C25.4558 18.5096 24.8045 17.8555 24.0012 17.8555Z" fill="currentColor"/>
</svg>
