<svg width="17" height="17" viewBox="0 0 17 17" fill="none" xmlns="http://www.w3.org/2000/svg">
<path fill-rule="evenodd" clip-rule="evenodd" d="M8.36426 16.665C6.11731 16.6326 3.97266 15.7204 2.39093 14.1242C1.61783 13.3443 1.00821 12.4179 0.597802 11.3993C0.1874 10.3808 -0.015525 9.29051 0.000925856 8.1925C0.0529275 6.00056 0.97099 3.91844 2.55426 2.40167C4.15733 0.865792 6.29002 0.0057954 8.51009 0H8.65676C10.6942 0.0101127 12.6565 0.770814 14.1684 2.13667L12.0476 4.06667C11.0993 3.22372 9.8739 2.75921 8.60509 2.76167C7.11733 2.75621 5.68537 3.32762 4.61009 4.35583C4.0842 4.85841 3.6629 5.46002 3.37043 6.12605C3.07796 6.79209 2.92009 7.50939 2.90593 8.23667C2.89415 8.96381 3.0267 9.68608 3.2959 10.3617C3.5651 11.0372 3.96562 11.6527 4.47426 12.1725C5.51437 13.2349 6.9256 13.8532 8.41176 13.8975H8.53093C9.70593 13.9575 10.8643 13.6025 11.7951 12.8975C12.7214 12.1996 13.3642 11.1903 13.6051 10.0558L13.6409 9.95833H8.51676V7.11667H16.5818C16.6445 7.63167 16.6723 8.14806 16.6651 8.66583C16.5826 13.45 13.3176 16.6658 8.54343 16.6658L8.36426 16.665Z" fill="white"/>
</svg>
