<svg width="20" height="20" viewBox="0 0 20 20" fill="none" xmlns="http://www.w3.org/2000/svg">
<g clip-path="url(#clip0_393_21953)">
<path d="M18.3335 7.50004V5.83337H17.5002V4.16671H16.6668V3.33337H15.8335V2.50004H14.1668V1.66671H12.5002V0.833374H7.50016V1.66671H5.8335V2.50004H4.16683V3.33337H3.3335V4.16671H2.50016V5.83337H1.66683V7.50004H0.833496V12.5H1.66683V14.1667H2.50016V15.8334H3.3335V16.6667H4.16683V17.5H5.8335V18.3334H7.50016V19.1667H12.5002V18.3334H14.1668V17.5H15.8335V16.6667H16.6668V15.8334H17.5002V14.1667H18.3335V12.5H19.1668V7.50004H18.3335ZM10.8335 13.3334V12.5H10.0002V11.6667H9.16683V4.16671H10.8335V10.8334H11.6668V11.6667H12.5002V12.5H13.3335V13.3334H12.5002V14.1667H11.6668V13.3334H10.8335Z" fill="white"/>
</g>
<defs>
<clipPath id="clip0_393_21953">
<rect width="20" height="20" fill="white"/>
</clipPath>
</defs>
</svg>
