<svg width="20" height="20" viewBox="0 0 20 20" fill="none" xmlns="http://www.w3.org/2000/svg">
<path d="M20.0002 7.61914H19.0439V12.3816H20.0002V7.61914Z" fill="white"/>
<path d="M19.0437 12.3809H18.0938V14.2871H19.0437V12.3809Z" fill="white"/>
<path d="M19.0437 5.71191H18.0938V7.61816H19.0437V5.71191Z" fill="white"/>
<path d="M18.0936 14.2871H17.1436V16.1871H18.0936V14.2871Z" fill="white"/>
<path d="M18.0936 3.80664H17.1436V5.71289H18.0936V3.80664Z" fill="white"/>
<path d="M19.0436 2.85625V1.90625H15.2373V5.7125H16.1873V3.80625H17.1436V2.85625H19.0436Z" fill="white"/>
<path d="M17.1438 16.1874H16.1875V17.1436H17.1438V16.1874Z" fill="white"/>
<path d="M16.1875 17.1436H14.2812V18.0936H16.1875V17.1436Z" fill="white"/>
<path d="M14.2809 18.0938H12.3809V19.05H14.2809V18.0938Z" fill="white"/>
<path d="M12.3816 19.0508H7.61914V20.0008H12.3816V19.0508Z" fill="white"/>
<path d="M12.3816 0H7.61914V0.95H12.3816V0Z" fill="white"/>
<path d="M7.61816 0.950195H5.71191V1.90645H7.61816V0.950195Z" fill="white"/>
<path d="M5.71289 1.90625H3.80664V2.85625H5.71289V1.90625Z" fill="white"/>
<path d="M0.950195 17.1434V18.0934H4.7627V14.2871H3.80645V16.1871H2.85645V17.1434H0.950195Z" fill="white"/>
<path d="M3.80645 2.85645H2.85645V3.80645H3.80645V2.85645Z" fill="white"/>
<path d="M2.85625 14.2871H1.90625V16.1871H2.85625V14.2871Z" fill="white"/>
<path d="M2.85625 3.80664H1.90625V5.71289H2.85625V3.80664Z" fill="white"/>
<path d="M1.90645 12.3809H0.950195V14.2871H1.90645V12.3809Z" fill="white"/>
<path d="M1.90645 5.71191H0.950195V7.61816H1.90645V5.71191Z" fill="white"/>
<path d="M0.95 7.61914H0V12.3816H0.95V7.61914Z" fill="white"/>
<path d="M4.70365 9.99973V9.44419H4.1665V8.33312H4.70365V7.77759H7.38939V9.44419H7.92654V9.99973H4.70365Z" fill="white"/>
<path d="M6.31498 6.6666H5.77783V5.55553H6.31498V5H7.38928V5.55553H7.92643V6.11107H7.38928V7.22214H6.31498V6.6666Z" fill="white"/>
<path d="M7.92627 6.66698H8.46342V6.11144H9.00057V5.55591H11.1492V6.11144H11.6863V6.66698H12.2235V8.88912H11.6863V9.44465H11.1492V10.0002H9.00057V9.44465H8.46342V8.88912H7.92627V6.66698Z" fill="white"/>
<path d="M13.8351 12.7783H14.3722V14.4449H13.8351V15.0004H6.31498V14.4449H5.77783V12.7783H6.31498V12.2228H6.85213V11.6672H7.92643V11.1117H12.2236V11.6672H13.2979V12.2228H13.8351V12.7783Z" fill="white"/>
<path d="M15.9851 8.33312V9.44419H15.448V9.99973H12.2251V9.44419H12.7622V7.77759H15.448V8.33312H15.9851Z" fill="white"/>
<path d="M12.7622 6.11107H12.2251V5.55553H12.7622V5H13.8365V5.55553H14.3737V6.6666H13.8365V7.22214H12.7622V6.11107Z" fill="white"/>
</svg>
