<svg width="20" height="20" viewBox="0 0 20 20" fill="none" xmlns="http://www.w3.org/2000/svg">
<path d="M20 17.8345H18.9502V18.9136H16.8428V19.9995H3.15723V18.9136H1.0498V17.8345H0V15.6685H1.0498V14.5894H3.15723V13.5024H16.8428V14.5894H18.9502V15.6685H20V17.8345Z" fill="#767A90"/>
<g clip-path="url(#clip0_393_21959)">
<path d="M14.5078 4.261V2.84068H13.817V2.13052H13.1261V1.42036H11.7444V0.710205H7.59929V1.42036H6.21758V2.13052H5.52673V2.84068H4.83587V4.261H4.14502V8.52195H4.83587V9.94227H5.52673V10.6524H6.21758V12.0727H6.90843V12.7829H7.59929V14.2032H8.29014V14.9134H8.981V16.3337H10.3627V14.9134H11.0536V14.2032H11.7444V12.7829H12.4353V12.0727H13.1261V10.6524H13.817V9.94227H14.5078V8.52195H15.1987V4.261H14.5078ZM11.0536 7.81179H10.3627V8.52195H8.981V7.81179H8.29014V7.10163H7.59929V5.68132H8.29014V4.97116H8.981V4.261H10.3627V4.97116H11.0536V5.68132H11.7444V7.10163H11.0536V7.81179Z" fill="white"/>
</g>
<defs>
<clipPath id="clip0_393_21959">
<rect width="16.5805" height="17.0438" fill="white" transform="translate(1.38184)"/>
</clipPath>
</defs>
</svg>
