<svg width="20" height="20" viewBox="0 0 20 20" fill="none" xmlns="http://www.w3.org/2000/svg">
<g clip-path="url(#clip0_393_21930)">
<path d="M1.43184 5.7125H18.5693V19.05H19.5256V2.85625H18.5693V1.90625H15.7131V3.8125H14.7631V1.90625H5.23809V3.8125H4.28809V1.90625H1.43184V2.85625H0.475586V19.05H1.43184V5.7125Z" fill="white"/>
<path d="M18.5691 19.0508H1.43164V20.0008H18.5691V19.0508Z" fill="white"/>
<path d="M15.7127 0H14.7627V1.90625H15.7127V0Z" fill="white"/>
<path d="M5.23809 0H4.28809V1.90625H5.23809V0Z" fill="white"/>
<path d="M16.6663 7.74219H15.833V8.57552H16.6663V7.74219Z" fill="white"/>
<path d="M12.5003 7.74219H11.667V8.57552H12.5003V7.74219Z" fill="white"/>
<path d="M8.33333 16.0751H7.5V16.9084H8.33333V16.0751Z" fill="white"/>
<path d="M16.6663 16.0752H15.833V16.9085H16.6663V16.0752Z" fill="white"/>
<path d="M8.33333 11.9083H7.5V12.7417H8.33333V11.9083Z" fill="white"/>
<path d="M16.6663 11.9082H15.833V12.7415H16.6663V11.9082Z" fill="white"/>
<path d="M8.33333 7.74219H7.5V8.57552H8.33333V7.74219Z" fill="white"/>
<path d="M4.16634 16.0752H3.33301V16.9085H4.16634V16.0752Z" fill="white"/>
<path d="M12.5003 16.0752H11.667V16.9085H12.5003V16.0752Z" fill="white"/>
<path d="M4.16634 11.9082H3.33301V12.7415H4.16634V11.9082Z" fill="white"/>
<path d="M12.5003 11.9082H11.667V12.7415H12.5003V11.9082Z" fill="white"/>
<path d="M4.16634 7.74219H3.33301V8.57552H4.16634V7.74219Z" fill="white"/>
</g>
<defs>
<clipPath id="clip0_393_21930">
<rect width="20" height="20" fill="white"/>
</clipPath>
</defs>
</svg>
