<svg width="20" height="20" viewBox="0 0 20 20" fill="none" xmlns="http://www.w3.org/2000/svg">
<path d="M1.66683 10.8333V10H0.833496V8.33333H1.66683V7.5H5.8335V10H6.66683V10.8333H1.66683Z" fill="white"/>
<path d="M4.16683 5.83337H3.3335V4.16671H4.16683V3.33337H5.8335V4.16671H6.66683V5.00004H5.8335V6.66671H4.16683V5.83337Z" fill="white"/>
<path d="M6.6665 5.83329H7.49984V4.99996H8.33317V4.16663H11.6665V4.99996H12.4998V5.83329H13.3332V9.16663H12.4998V9.99996H11.6665V10.8333H8.33317V9.99996H7.49984V9.16663H6.6665V5.83329Z" fill="white"/>
<path d="M15.8335 15H16.6668V17.5H15.8335V18.3333H4.16683V17.5H3.3335V15H4.16683V14.1667H5.00016V13.3333H6.66683V12.5H13.3335V13.3333H15.0002V14.1667H15.8335V15Z" fill="white"/>
<path d="M19.1668 8.33333V10H18.3335V10.8333H13.3335V10H14.1668V7.5H18.3335V8.33333H19.1668Z" fill="white"/>
<path d="M14.1668 5.00004H13.3335V4.16671H14.1668V3.33337H15.8335V4.16671H16.6668V5.83337H15.8335V6.66671H14.1668V5.00004Z" fill="white"/>
</svg>
